<svg width="344" height="32" viewBox="0 0 344 32" fill="none" xmlns="http://www.w3.org/2000/svg">
<rect x="0.701904" y="2.76184" width="87.24" height="28.0648" rx="4.5" stroke="#00CFFF"/>
<path d="M30.5758 13.5829H33.1422V23.2596H30.5758V13.5829ZM31.859 12.5282C31.6715 12.5282 31.4928 12.496 31.3229 12.4315C31.1588 12.3612 31.0123 12.2675 30.8834 12.1503C30.7604 12.0272 30.6608 11.8837 30.5846 11.7196C30.5143 11.5555 30.4791 11.3768 30.4791 11.1835C30.4791 10.9901 30.5143 10.8143 30.5846 10.6561C30.6608 10.4921 30.7604 10.3514 30.8834 10.2343C31.0123 10.1112 31.1588 10.0175 31.3229 9.953C31.4928 9.88269 31.6715 9.84753 31.859 9.84753C32.0524 9.84753 32.2311 9.88269 32.3951 9.953C32.5651 10.0175 32.7116 10.1112 32.8346 10.2343C32.9635 10.3514 33.0631 10.4921 33.1334 10.6561C33.2096 10.8143 33.2477 10.9901 33.2477 11.1835C33.2477 11.3768 33.2096 11.5555 33.1334 11.7196C33.0631 11.8837 32.9635 12.0272 32.8346 12.1503C32.7116 12.2675 32.5651 12.3612 32.3951 12.4315C32.2311 12.496 32.0524 12.5282 31.859 12.5282ZM40.8326 10.3573C41.7701 10.3573 42.6168 10.5096 43.3727 10.8143C44.1285 11.119 44.7701 11.5555 45.2975 12.1239C45.8307 12.6923 46.2379 13.3837 46.5192 14.1981C46.8063 15.0067 46.9498 15.9149 46.9498 16.9227C46.9498 17.9305 46.8063 18.8387 46.5192 19.6473C46.2379 20.4559 45.8307 21.1444 45.2975 21.7128C44.7701 22.2811 44.1285 22.7177 43.3727 23.0223C42.6168 23.327 41.7701 23.4794 40.8326 23.4794C39.8893 23.4794 39.0397 23.327 38.2838 23.0223C37.5338 22.7177 36.8922 22.2811 36.359 21.7128C35.8317 21.1444 35.4244 20.4559 35.1373 19.6473C34.8561 18.8387 34.7155 17.9305 34.7155 16.9227C34.7155 15.9149 34.8561 15.0067 35.1373 14.1981C35.4244 13.3837 35.8317 12.6923 36.359 12.1239C36.8922 11.5555 37.5338 11.119 38.2838 10.8143C39.0397 10.5096 39.8893 10.3573 40.8326 10.3573ZM40.8326 12.5721C40.3112 12.5721 39.8395 12.6747 39.4176 12.8798C39.0016 13.079 38.6442 13.369 38.3453 13.7499C38.0524 14.1249 37.8239 14.5819 37.6598 15.121C37.5016 15.6542 37.4225 16.2548 37.4225 16.9227C37.4225 17.5848 37.5016 18.1854 37.6598 18.7245C37.8239 19.2577 38.0524 19.7118 38.3453 20.0868C38.6442 20.4618 39.0016 20.7518 39.4176 20.9569C39.8395 21.1561 40.3112 21.2557 40.8326 21.2557C41.3483 21.2557 41.817 21.1561 42.2389 20.9569C42.6608 20.7518 43.0182 20.4618 43.3112 20.0868C43.6041 19.7118 43.8297 19.2577 43.9879 18.7245C44.152 18.1854 44.234 17.5848 44.234 16.9227C44.234 16.2548 44.152 15.6542 43.9879 15.121C43.8297 14.5819 43.6041 14.1249 43.3112 13.7499C43.0182 13.369 42.6608 13.079 42.2389 12.8798C41.817 12.6747 41.3483 12.5721 40.8326 12.5721ZM50.7467 19.6473C50.776 19.911 50.8639 20.1483 51.0104 20.3593C51.1569 20.5702 51.3444 20.7518 51.5729 20.9042C51.8073 21.0565 52.0768 21.1737 52.3815 21.2557C52.6862 21.3378 53.0143 21.3788 53.3658 21.3788C53.7174 21.3788 54.0397 21.3407 54.3326 21.2645C54.6256 21.1825 54.8776 21.0712 55.0885 20.9305C55.2994 20.7841 55.4606 20.6141 55.5719 20.4208C55.6891 20.2216 55.7477 20.0048 55.7477 19.7704C55.7477 19.3602 55.5807 19.0292 55.2467 18.7772C54.9186 18.5253 54.3737 18.3143 53.6119 18.1444L51.9596 17.7841C49.6334 17.286 48.4703 16.1053 48.4703 14.2421C48.4703 13.6561 48.5905 13.1259 48.8307 12.6512C49.0709 12.1708 49.4049 11.7606 49.8326 11.4208C50.2662 11.0809 50.7789 10.8202 51.3707 10.6385C51.9625 10.451 52.6129 10.3573 53.3219 10.3573C54.0602 10.3573 54.7252 10.4481 55.317 10.6298C55.9147 10.8114 56.4215 11.0692 56.8375 11.4032C57.2594 11.7372 57.5846 12.1385 57.8131 12.6073C58.0416 13.076 58.1617 13.5975 58.1735 14.1718H55.6862C55.6627 13.9022 55.5895 13.662 55.4664 13.451C55.3434 13.2401 55.1793 13.0614 54.9742 12.9149C54.7692 12.7626 54.526 12.6483 54.2448 12.5721C53.9694 12.4901 53.6647 12.4491 53.3307 12.4491C53.0026 12.4491 52.7037 12.4872 52.4342 12.5634C52.1647 12.6395 51.9332 12.745 51.7399 12.8798C51.5524 13.0145 51.4059 13.1786 51.3004 13.3719C51.195 13.5653 51.1422 13.7792 51.1422 14.0135C51.1422 14.4061 51.3033 14.7225 51.6256 14.9628C51.9537 15.203 52.484 15.4052 53.2164 15.5692L54.7545 15.8944C55.3873 16.0292 55.9323 16.202 56.3893 16.413C56.8522 16.618 57.233 16.8671 57.5319 17.16C57.8307 17.4471 58.0504 17.7841 58.191 18.1708C58.3317 18.5516 58.402 18.9823 58.402 19.4628C58.402 20.078 58.2819 20.6346 58.0416 21.1327C57.8014 21.6249 57.4586 22.0468 57.0133 22.3983C56.568 22.744 56.026 23.0106 55.3873 23.1981C54.7545 23.3856 54.0455 23.4794 53.2604 23.4794C52.4987 23.4794 51.8102 23.3915 51.195 23.2157C50.5797 23.0399 50.0524 22.788 49.6129 22.4598C49.1735 22.1259 48.8307 21.7245 48.5846 21.2557C48.3385 20.7811 48.2067 20.245 48.1891 19.6473H50.7467Z" fill="#00CFFF"/>
<rect x="102.141" y="2.26074" width="139.14" height="28.0648" rx="4.5" stroke="#00CFFF"/>
<path d="M118.572 23.4794C117.646 23.4794 116.814 23.33 116.076 23.0311C115.338 22.7323 114.708 22.3016 114.186 21.7391C113.665 21.1708 113.263 20.4823 112.982 19.6737C112.707 18.8593 112.569 17.9393 112.569 16.9139C112.569 15.8944 112.71 14.9803 112.991 14.1718C113.272 13.3573 113.674 12.6688 114.195 12.1063C114.717 11.538 115.346 11.1044 116.085 10.8055C116.823 10.5067 117.652 10.3573 118.572 10.3573C119.334 10.3573 120.043 10.4745 120.699 10.7089C121.355 10.9374 121.929 11.2626 122.422 11.6844C122.92 12.1005 123.318 12.6014 123.617 13.1874C123.916 13.7733 124.092 14.4208 124.144 15.1298H121.56C121.496 14.743 121.376 14.3915 121.2 14.0751C121.03 13.7528 120.813 13.4803 120.55 13.2577C120.292 13.035 119.993 12.8622 119.653 12.7391C119.319 12.6161 118.959 12.5546 118.572 12.5546C118.068 12.5546 117.614 12.6571 117.21 12.8622C116.805 13.0614 116.46 13.3514 116.173 13.7323C115.885 14.1073 115.663 14.5643 115.505 15.1034C115.352 15.6366 115.276 16.2372 115.276 16.9052C115.276 17.5848 115.352 18.1942 115.505 18.7333C115.663 19.2723 115.883 19.7323 116.164 20.1132C116.451 20.4882 116.797 20.7782 117.201 20.9833C117.611 21.1825 118.071 21.2821 118.581 21.2821C118.973 21.2821 119.337 21.2264 119.671 21.1151C120.005 21.0038 120.301 20.8427 120.558 20.6317C120.816 20.4208 121.03 20.1659 121.2 19.8671C121.376 19.5682 121.499 19.2313 121.569 18.8563H124.153C124.077 19.5653 123.889 20.204 123.591 20.7723C123.292 21.3407 122.899 21.827 122.413 22.2313C121.932 22.6298 121.367 22.9374 120.717 23.1542C120.066 23.371 119.351 23.4794 118.572 23.4794ZM125.682 9.97058H128.249V23.2596H125.682V9.97058ZM134.471 23.4266C133.739 23.4266 133.077 23.3124 132.485 23.0839C131.899 22.8553 131.398 22.5272 130.982 22.0995C130.572 21.6659 130.256 21.1415 130.033 20.5262C129.81 19.9052 129.699 19.202 129.699 18.4169C129.699 17.6434 129.81 16.9491 130.033 16.3339C130.261 15.7128 130.581 15.1884 130.991 14.7606C131.407 14.327 131.908 13.996 132.494 13.7675C133.086 13.5331 133.745 13.4159 134.471 13.4159C135.198 13.4159 135.854 13.5331 136.44 13.7675C137.032 13.996 137.536 14.327 137.952 14.7606C138.368 15.1884 138.687 15.7128 138.91 16.3339C139.133 16.9491 139.244 17.6434 139.244 18.4169C139.244 19.202 139.133 19.9052 138.91 20.5262C138.687 21.1415 138.368 21.6659 137.952 22.0995C137.542 22.5272 137.041 22.8553 136.449 23.0839C135.863 23.3124 135.204 23.4266 134.471 23.4266ZM134.471 21.4491C135.151 21.4491 135.681 21.1854 136.062 20.6581C136.443 20.1307 136.634 19.3837 136.634 18.4169C136.634 17.9423 136.584 17.5175 136.484 17.1425C136.384 16.7616 136.241 16.4423 136.053 16.1844C135.872 15.9266 135.646 15.7303 135.377 15.5956C135.107 15.455 134.805 15.3846 134.471 15.3846C134.132 15.3846 133.827 15.455 133.557 15.5956C133.294 15.7303 133.068 15.9296 132.881 16.1932C132.693 16.451 132.55 16.7675 132.45 17.1425C132.35 17.5175 132.301 17.9423 132.301 18.4169C132.301 19.3837 132.491 20.1307 132.872 20.6581C133.259 21.1854 133.792 21.4491 134.471 21.4491ZM149.668 23.2596H147.189V21.5106H147.136C146.89 22.12 146.507 22.5887 145.985 22.9169C145.464 23.2391 144.834 23.4003 144.095 23.4003C143.574 23.4003 143.096 23.3182 142.663 23.1542C142.229 22.9901 141.857 22.7528 141.547 22.4423C141.242 22.1259 141.005 21.745 140.835 21.2997C140.665 20.8544 140.58 20.3505 140.58 19.788V13.5829H143.146V19.2518C143.146 19.9081 143.316 20.4091 143.656 20.7548C144.002 21.0946 144.473 21.2645 145.071 21.2645C145.37 21.2645 145.642 21.2147 145.888 21.1151C146.14 21.0096 146.354 20.8632 146.53 20.6757C146.712 20.4823 146.852 20.2538 146.952 19.9901C147.051 19.7206 147.101 19.4218 147.101 19.0936V13.5829H149.668V23.2596ZM155.02 23.3739C154.417 23.3739 153.872 23.2596 153.385 23.0311C152.899 22.7968 152.483 22.4657 152.137 22.038C151.792 21.6044 151.525 21.0829 151.338 20.4735C151.15 19.8583 151.056 19.1698 151.056 18.4081C151.056 17.6522 151.15 16.9696 151.338 16.3602C151.525 15.7509 151.792 15.2323 152.137 14.8046C152.483 14.3768 152.899 14.0487 153.385 13.8202C153.878 13.5858 154.426 13.4686 155.029 13.4686C155.732 13.4686 156.339 13.6298 156.848 13.952C157.364 14.2684 157.745 14.6962 157.991 15.2352H158.044V9.97058H160.61V23.2596H158.079V21.6073H158.035C157.918 21.871 157.759 22.1141 157.56 22.3368C157.367 22.5536 157.141 22.7382 156.884 22.8905C156.626 23.0428 156.339 23.163 156.022 23.2509C155.712 23.3329 155.378 23.3739 155.02 23.3739ZM155.873 15.5428C155.539 15.5428 155.237 15.6102 154.968 15.745C154.698 15.8798 154.467 16.0731 154.273 16.3251C154.086 16.5712 153.939 16.8729 153.834 17.2303C153.734 17.5819 153.684 17.9774 153.684 18.4169C153.684 18.8622 153.734 19.2635 153.834 19.621C153.939 19.9725 154.086 20.2743 154.273 20.5262C154.467 20.7723 154.698 20.9628 154.968 21.0975C155.237 21.2323 155.539 21.2997 155.873 21.2997C156.207 21.2997 156.509 21.2323 156.778 21.0975C157.048 20.9628 157.276 20.7694 157.464 20.5175C157.657 20.2655 157.803 19.9637 157.903 19.6122C158.009 19.2606 158.061 18.8651 158.061 18.4257C158.061 17.9862 158.009 17.5907 157.903 17.2391C157.803 16.8817 157.657 16.58 157.464 16.3339C157.276 16.0819 157.048 15.8885 156.778 15.7538C156.509 15.6132 156.207 15.5428 155.873 15.5428ZM168.538 19.6473C168.567 19.911 168.655 20.1483 168.801 20.3593C168.948 20.5702 169.135 20.7518 169.364 20.9042C169.598 21.0565 169.868 21.1737 170.173 21.2557C170.477 21.3378 170.805 21.3788 171.157 21.3788C171.509 21.3788 171.831 21.3407 172.124 21.2645C172.417 21.1825 172.669 21.0712 172.88 20.9305C173.091 20.7841 173.252 20.6141 173.363 20.4208C173.48 20.2216 173.539 20.0048 173.539 19.7704C173.539 19.3602 173.372 19.0292 173.038 18.7772C172.71 18.5253 172.165 18.3143 171.403 18.1444L169.751 17.7841C167.425 17.286 166.261 16.1053 166.261 14.2421C166.261 13.6561 166.382 13.1259 166.622 12.6512C166.862 12.1708 167.196 11.7606 167.624 11.4208C168.057 11.0809 168.57 10.8202 169.162 10.6385C169.754 10.451 170.404 10.3573 171.113 10.3573C171.851 10.3573 172.516 10.4481 173.108 10.6298C173.706 10.8114 174.213 11.0692 174.629 11.4032C175.051 11.7372 175.376 12.1385 175.604 12.6073C175.833 13.076 175.953 13.5975 175.965 14.1718H173.477C173.454 13.9022 173.381 13.662 173.258 13.451C173.134 13.2401 172.97 13.0614 172.765 12.9149C172.56 12.7626 172.317 12.6483 172.036 12.5721C171.76 12.4901 171.456 12.4491 171.122 12.4491C170.794 12.4491 170.495 12.4872 170.225 12.5634C169.956 12.6395 169.724 12.745 169.531 12.8798C169.343 13.0145 169.197 13.1786 169.092 13.3719C168.986 13.5653 168.933 13.7792 168.933 14.0135C168.933 14.4061 169.094 14.7225 169.417 14.9628C169.745 15.203 170.275 15.4052 171.008 15.5692L172.546 15.8944C173.178 16.0292 173.723 16.202 174.18 16.413C174.643 16.618 175.024 16.8671 175.323 17.16C175.622 17.4471 175.842 17.7841 175.982 18.1708C176.123 18.5516 176.193 18.9823 176.193 19.4628C176.193 20.078 176.073 20.6346 175.833 21.1327C175.593 21.6249 175.25 22.0468 174.804 22.3983C174.359 22.744 173.817 23.0106 173.178 23.1981C172.546 23.3856 171.837 23.4794 171.051 23.4794C170.29 23.4794 169.601 23.3915 168.986 23.2157C168.371 23.0399 167.843 22.788 167.404 22.4598C166.965 22.1259 166.622 21.7245 166.376 21.2557C166.13 20.7811 165.998 20.245 165.98 19.6473H168.538ZM180.895 11.4296V13.5829H182.688V15.5253H180.895V20.2274C180.895 20.9657 181.279 21.3348 182.047 21.3348C182.164 21.3348 182.278 21.3319 182.389 21.326C182.507 21.3143 182.606 21.3026 182.688 21.2909V23.1893C182.553 23.2186 182.378 23.2421 182.161 23.2596C181.95 23.2831 181.713 23.2948 181.449 23.2948C180.886 23.2948 180.409 23.245 180.016 23.1454C179.624 23.0458 179.301 22.8905 179.05 22.6796C178.798 22.4686 178.613 22.1962 178.496 21.8622C178.384 21.5282 178.329 21.1239 178.329 20.6493V15.5253H177.019V13.5829H178.329V11.4296H180.895ZM188.436 23.4266C187.704 23.4266 187.042 23.3124 186.45 23.0839C185.864 22.8553 185.363 22.5272 184.947 22.0995C184.537 21.6659 184.22 21.1415 183.998 20.5262C183.775 19.9052 183.664 19.202 183.664 18.4169C183.664 17.6434 183.775 16.9491 183.998 16.3339C184.226 15.7128 184.546 15.1884 184.956 14.7606C185.372 14.327 185.873 13.996 186.459 13.7675C187.051 13.5331 187.71 13.4159 188.436 13.4159C189.163 13.4159 189.819 13.5331 190.405 13.7675C190.997 13.996 191.501 14.327 191.917 14.7606C192.333 15.1884 192.652 15.7128 192.875 16.3339C193.097 16.9491 193.209 17.6434 193.209 18.4169C193.209 19.202 193.097 19.9052 192.875 20.5262C192.652 21.1415 192.333 21.6659 191.917 22.0995C191.507 22.5272 191.006 22.8553 190.414 23.0839C189.828 23.3124 189.169 23.4266 188.436 23.4266ZM188.436 21.4491C189.116 21.4491 189.646 21.1854 190.027 20.6581C190.408 20.1307 190.598 19.3837 190.598 18.4169C190.598 17.9423 190.549 17.5175 190.449 17.1425C190.349 16.7616 190.206 16.4423 190.018 16.1844C189.837 15.9266 189.611 15.7303 189.342 15.5956C189.072 15.455 188.77 15.3846 188.436 15.3846C188.096 15.3846 187.792 15.455 187.522 15.5956C187.259 15.7303 187.033 15.9296 186.845 16.1932C186.658 16.451 186.514 16.7675 186.415 17.1425C186.315 17.5175 186.265 17.9423 186.265 18.4169C186.265 19.3837 186.456 20.1307 186.837 20.6581C187.223 21.1854 187.757 21.4491 188.436 21.4491ZM194.589 13.5829H197.067V15.3143H197.12C197.284 14.7108 197.565 14.2538 197.964 13.9432C198.362 13.6268 198.848 13.4686 199.423 13.4686C199.551 13.4686 199.68 13.4774 199.809 13.495C199.938 13.5126 200.05 13.536 200.143 13.5653V15.8417C200.038 15.7948 199.897 15.7567 199.721 15.7274C199.546 15.6981 199.379 15.6835 199.22 15.6835C198.564 15.6835 198.054 15.8739 197.691 16.2548C197.334 16.6356 197.155 17.1659 197.155 17.8456V23.2596H194.589V13.5829ZM204.828 21.5018C205.127 21.5018 205.405 21.4579 205.663 21.37C205.921 21.2821 206.146 21.1591 206.34 21.0009C206.533 20.8427 206.685 20.6552 206.797 20.4384C206.908 20.2157 206.964 19.9725 206.964 19.7089V18.9969L204.933 19.1376C204.394 19.1727 203.984 19.2928 203.703 19.4979C203.427 19.703 203.29 19.9843 203.29 20.3417C203.29 20.6991 203.427 20.9833 203.703 21.1942C203.984 21.3993 204.359 21.5018 204.828 21.5018ZM203.993 23.3739C203.524 23.3739 203.091 23.3036 202.692 23.163C202.3 23.0223 201.957 22.826 201.664 22.5741C201.371 22.3163 201.142 22.0116 200.978 21.66C200.814 21.3026 200.732 20.9071 200.732 20.4735C200.732 19.5887 201.057 18.9032 201.708 18.4169C202.358 17.9305 203.304 17.6493 204.547 17.5731L206.964 17.4237V16.7821C206.964 16.3134 206.814 15.9559 206.515 15.7098C206.217 15.4637 205.801 15.3407 205.267 15.3407C204.799 15.3407 204.412 15.452 204.107 15.6747C203.808 15.8973 203.627 16.1844 203.562 16.536H201.216C201.233 16.0731 201.344 15.6512 201.55 15.2704C201.76 14.8895 202.048 14.5614 202.411 14.286C202.78 14.0106 203.214 13.7968 203.712 13.6444C204.216 13.4921 204.769 13.4159 205.373 13.4159C205.994 13.4159 206.556 13.4921 207.06 13.6444C207.57 13.7968 208.004 14.0135 208.361 14.2948C208.718 14.576 208.994 14.9159 209.187 15.3143C209.386 15.7069 209.486 16.1434 209.486 16.6239V23.2596H207.008V21.7655H206.955C206.82 22.0175 206.647 22.243 206.436 22.4423C206.231 22.6415 206 22.8114 205.742 22.952C205.484 23.0868 205.206 23.1893 204.907 23.2596C204.608 23.3358 204.303 23.3739 203.993 23.3739ZM215.656 21.2118C215.99 21.2118 216.292 21.1473 216.561 21.0184C216.831 20.8895 217.062 20.705 217.256 20.4647C217.449 20.2186 217.595 19.9227 217.695 19.577C217.801 19.2313 217.853 18.8417 217.853 18.4081C217.853 17.9745 217.801 17.5819 217.695 17.2303C217.595 16.8729 217.449 16.5712 217.256 16.3251C217.062 16.0731 216.831 15.8798 216.561 15.745C216.292 15.6102 215.99 15.5428 215.656 15.5428C215.322 15.5428 215.02 15.6102 214.751 15.745C214.487 15.8798 214.261 16.0702 214.074 16.3163C213.886 16.5624 213.74 16.8612 213.634 17.2128C213.535 17.5643 213.485 17.9598 213.485 18.3993C213.485 18.8387 213.535 19.2343 213.634 19.5858C213.734 19.9315 213.878 20.2245 214.065 20.4647C214.259 20.705 214.487 20.8895 214.751 21.0184C215.02 21.1473 215.322 21.2118 215.656 21.2118ZM215.63 26.8016C214.997 26.8016 214.414 26.7343 213.881 26.5995C213.347 26.4647 212.884 26.2714 212.492 26.0194C212.105 25.7733 211.798 25.4745 211.569 25.1229C211.341 24.7714 211.209 24.3788 211.174 23.9452H213.705C213.746 24.1034 213.825 24.2469 213.942 24.3759C214.059 24.5048 214.206 24.6132 214.382 24.701C214.557 24.7948 214.757 24.8651 214.979 24.912C215.202 24.9647 215.439 24.9911 215.691 24.9911C216.013 24.9911 216.306 24.9501 216.57 24.868C216.84 24.786 217.068 24.6688 217.256 24.5165C217.443 24.37 217.587 24.1884 217.686 23.9716C217.792 23.7548 217.844 23.5087 217.844 23.2333V21.5018H217.792C217.675 21.7596 217.516 21.994 217.317 22.205C217.124 22.4159 216.898 22.5946 216.64 22.7411C216.383 22.8876 216.098 23.0018 215.788 23.0839C215.477 23.16 215.146 23.1981 214.795 23.1981C214.203 23.1981 213.664 23.0868 213.177 22.8641C212.697 22.6415 212.284 22.3251 211.938 21.9149C211.598 21.4989 211.332 20.995 211.138 20.4032C210.951 19.8055 210.857 19.1346 210.857 18.3905C210.857 17.6346 210.948 16.952 211.13 16.3427C211.317 15.7333 211.584 15.2177 211.929 14.7958C212.275 14.368 212.691 14.0399 213.177 13.8114C213.67 13.5829 214.223 13.4686 214.839 13.4686C215.184 13.4686 215.509 13.5126 215.814 13.6005C216.125 13.6825 216.409 13.7997 216.667 13.952C216.925 14.1044 217.15 14.2889 217.343 14.5057C217.543 14.7225 217.707 14.9657 217.836 15.2352H217.88V13.5829H220.411V23.0399C220.411 23.6141 220.297 24.1327 220.068 24.5956C219.845 25.0643 219.526 25.4598 219.11 25.7821C218.694 26.1102 218.19 26.3622 217.598 26.538C217.012 26.7137 216.356 26.8016 215.63 26.8016ZM226.467 15.3319C226.174 15.3319 225.901 15.3846 225.649 15.4901C225.403 15.5897 225.186 15.7333 224.999 15.9208C224.817 16.1024 224.668 16.3221 224.551 16.58C224.439 16.8319 224.372 17.1132 224.348 17.4237H228.523C228.511 17.1073 228.453 16.8202 228.347 16.5624C228.242 16.3046 228.098 16.0848 227.917 15.9032C227.741 15.7216 227.53 15.5809 227.284 15.4813C227.038 15.3817 226.765 15.3319 226.467 15.3319ZM230.923 20.3065C230.852 20.7753 230.694 21.203 230.448 21.5897C230.202 21.9706 229.888 22.2987 229.508 22.5741C229.127 22.8436 228.681 23.0546 228.172 23.2069C227.668 23.3534 227.123 23.4266 226.537 23.4266C225.799 23.4266 225.136 23.3124 224.551 23.0839C223.965 22.8553 223.467 22.5272 223.056 22.0995C222.652 21.6718 222.339 21.1503 222.116 20.535C221.899 19.9198 221.791 19.2284 221.791 18.4608C221.791 17.6932 221.899 16.9989 222.116 16.3778C222.333 15.7567 222.643 15.2264 223.048 14.787C223.452 14.3475 223.941 14.0106 224.515 13.7762C225.09 13.536 225.731 13.4159 226.44 13.4159C227.137 13.4159 227.767 13.5302 228.33 13.7587C228.892 13.9813 229.37 14.3007 229.762 14.7167C230.161 15.1327 230.466 15.6366 230.676 16.2284C230.893 16.8202 231.002 17.4852 231.002 18.2235V19.0145H224.322V19.1727C224.322 19.5243 224.375 19.8436 224.48 20.1307C224.592 20.4178 224.744 20.6639 224.937 20.869C225.136 21.0741 225.374 21.2323 225.649 21.3436C225.93 21.455 226.241 21.5106 226.581 21.5106C227.067 21.5106 227.486 21.4052 227.838 21.1942C228.195 20.9774 228.435 20.6815 228.558 20.3065H230.923Z" fill="#00CFFF"/>
<rect x="255.479" y="2.26062" width="87.2369" height="28.0648" rx="4.5" stroke="#00CFFF"/>
<path d="M274.541 22.7584V10.0758H282.847V12.2643H277.196V15.6656H282.355V17.7662H277.196V22.7584H274.541ZM284.28 13.0817H286.846V22.7584H284.28V13.0817ZM285.563 12.027C285.375 12.027 285.197 11.9948 285.027 11.9303C284.863 11.86 284.716 11.7662 284.587 11.649C284.464 11.526 284.365 11.3824 284.288 11.2184C284.218 11.0543 284.183 10.8756 284.183 10.6823C284.183 10.4889 284.218 10.3131 284.288 10.1549C284.365 9.99084 284.464 9.85022 284.587 9.73303C284.716 9.60999 284.863 9.51624 285.027 9.45178C285.197 9.38147 285.375 9.34631 285.563 9.34631C285.756 9.34631 285.935 9.38147 286.099 9.45178C286.269 9.51624 286.415 9.60999 286.538 9.73303C286.667 9.85022 286.767 9.99084 286.837 10.1549C286.913 10.3131 286.951 10.4889 286.951 10.6823C286.951 10.8756 286.913 11.0543 286.837 11.2184C286.767 11.3824 286.667 11.526 286.538 11.649C286.415 11.7662 286.269 11.86 286.099 11.9303C285.935 11.9948 285.756 12.027 285.563 12.027ZM293.069 20.7106C293.403 20.7106 293.704 20.6461 293.974 20.5172C294.243 20.3883 294.475 20.2037 294.668 19.9635C294.862 19.7174 295.008 19.4215 295.108 19.0758C295.213 18.7301 295.266 18.3405 295.266 17.9069C295.266 17.4733 295.213 17.0807 295.108 16.7291C295.008 16.3717 294.862 16.0699 294.668 15.8239C294.475 15.5719 294.243 15.3785 293.974 15.2438C293.704 15.109 293.403 15.0416 293.069 15.0416C292.735 15.0416 292.433 15.109 292.163 15.2438C291.9 15.3785 291.674 15.569 291.487 15.8151C291.299 16.0612 291.153 16.36 291.047 16.7115C290.948 17.0631 290.898 17.4586 290.898 17.8981C290.898 18.3375 290.948 18.733 291.047 19.0846C291.147 19.4303 291.29 19.7233 291.478 19.9635C291.671 20.2037 291.9 20.3883 292.163 20.5172C292.433 20.6461 292.735 20.7106 293.069 20.7106ZM293.042 26.3004C292.409 26.3004 291.826 26.233 291.293 26.0983C290.76 25.9635 290.297 25.7701 289.905 25.5182C289.518 25.2721 289.21 24.9733 288.982 24.6217C288.753 24.2701 288.621 23.8776 288.586 23.444H291.117C291.158 23.6022 291.238 23.7457 291.355 23.8746C291.472 24.0035 291.618 24.1119 291.794 24.1998C291.97 24.2936 292.169 24.3639 292.392 24.4108C292.615 24.4635 292.852 24.4899 293.104 24.4899C293.426 24.4899 293.719 24.4489 293.983 24.3668C294.252 24.2848 294.481 24.1676 294.668 24.0153C294.856 23.8688 294.999 23.6871 295.099 23.4703C295.204 23.2535 295.257 23.0074 295.257 22.7321V21.0006H295.204C295.087 21.2584 294.929 21.4928 294.73 21.7037C294.536 21.9147 294.311 22.0934 294.053 22.2399C293.795 22.3864 293.511 22.5006 293.2 22.5826C292.89 22.6588 292.559 22.6969 292.207 22.6969C291.616 22.6969 291.076 22.5856 290.59 22.3629C290.11 22.1403 289.697 21.8239 289.351 21.4137C289.011 20.9977 288.744 20.4938 288.551 19.902C288.364 19.3043 288.27 18.6334 288.27 17.8893C288.27 17.1334 288.361 16.4508 288.542 15.8414C288.73 15.2321 288.996 14.7164 289.342 14.2946C289.688 13.8668 290.104 13.5387 290.59 13.3102C291.082 13.0817 291.636 12.9674 292.251 12.9674C292.597 12.9674 292.922 13.0114 293.227 13.0992C293.537 13.1813 293.822 13.2985 294.079 13.4508C294.337 13.6031 294.563 13.7877 294.756 14.0045C294.955 14.2213 295.119 14.4645 295.248 14.734H295.292V13.0817H297.824V22.5387C297.824 23.1129 297.709 23.6315 297.481 24.0944C297.258 24.5631 296.939 24.9586 296.523 25.2809C296.107 25.609 295.603 25.861 295.011 26.0367C294.425 26.2125 293.769 26.3004 293.042 26.3004ZM299.564 13.0817H302.042V14.8395H302.095C302.2 14.5465 302.341 14.2828 302.517 14.0485C302.699 13.8141 302.907 13.6149 303.141 13.4508C303.381 13.2867 303.645 13.1608 303.932 13.0729C304.225 12.985 304.533 12.941 304.855 12.941C305.552 12.941 306.135 13.111 306.604 13.4508C307.073 13.7906 307.389 14.2799 307.553 14.9186H307.606C307.717 14.6139 307.869 14.3414 308.063 14.1012C308.256 13.8551 308.482 13.6471 308.74 13.4772C309.003 13.3073 309.293 13.1754 309.61 13.0817C309.926 12.9879 310.26 12.941 310.612 12.941C311.086 12.941 311.517 13.0201 311.904 13.1783C312.296 13.3307 312.63 13.5504 312.906 13.8375C313.187 14.1188 313.404 14.4586 313.556 14.8571C313.708 15.2555 313.784 15.6979 313.784 16.1842V22.7584H311.218V16.8258C311.218 16.2574 311.08 15.8239 310.805 15.525C310.53 15.2203 310.128 15.068 309.601 15.068C309.349 15.068 309.117 15.1119 308.907 15.1998C308.701 15.2877 308.526 15.4137 308.379 15.5778C308.233 15.736 308.118 15.9293 308.036 16.1578C307.954 16.3805 307.913 16.6295 307.913 16.9049V22.7584H305.435V16.7291C305.435 16.2076 305.294 15.8004 305.013 15.5074C304.732 15.2145 304.342 15.068 303.844 15.068C303.592 15.068 303.361 15.1149 303.15 15.2086C302.939 15.2965 302.757 15.4254 302.605 15.5953C302.458 15.7594 302.341 15.9557 302.253 16.1842C302.171 16.4127 302.13 16.6647 302.13 16.9401V22.7584H299.564V13.0817ZM319.19 21.0006C319.489 21.0006 319.767 20.9567 320.025 20.8688C320.283 20.7809 320.508 20.6578 320.701 20.4996C320.895 20.3414 321.047 20.1539 321.158 19.9371C321.27 19.7145 321.325 19.4713 321.325 19.2076V18.4957L319.295 18.6364C318.756 18.6715 318.346 18.7916 318.065 18.9967C317.789 19.2018 317.652 19.483 317.652 19.8405C317.652 20.1979 317.789 20.4821 318.065 20.693C318.346 20.8981 318.721 21.0006 319.19 21.0006ZM318.355 22.8727C317.886 22.8727 317.452 22.8024 317.054 22.6617C316.661 22.5211 316.319 22.3248 316.026 22.0729C315.733 21.8151 315.504 21.5104 315.34 21.1588C315.176 20.8014 315.094 20.4059 315.094 19.9723C315.094 19.0875 315.419 18.402 316.07 17.9156C316.72 17.4293 317.666 17.1481 318.908 17.0719L321.325 16.9225V16.2809C321.325 15.8121 321.176 15.4547 320.877 15.2086C320.578 14.9625 320.162 14.8395 319.629 14.8395C319.16 14.8395 318.774 14.9508 318.469 15.1735C318.17 15.3961 317.989 15.6832 317.924 16.0348H315.577C315.595 15.5719 315.706 15.15 315.911 14.7692C316.122 14.3883 316.409 14.0602 316.773 13.7848C317.142 13.5094 317.575 13.2955 318.074 13.1432C318.577 12.9908 319.131 12.9147 319.735 12.9147C320.356 12.9147 320.918 12.9908 321.422 13.1432C321.932 13.2955 322.366 13.5123 322.723 13.7936C323.08 14.0748 323.356 14.4147 323.549 14.8131C323.748 15.2057 323.848 15.6422 323.848 16.1227V22.7584H321.369V21.2643H321.317C321.182 21.5162 321.009 21.7418 320.798 21.941C320.593 22.1403 320.362 22.3102 320.104 22.4508C319.846 22.5856 319.568 22.6881 319.269 22.7584C318.97 22.8346 318.665 22.8727 318.355 22.8727Z" fill="#00CFFF"/>
</svg>
