<svg width="102" height="70" viewBox="0 0 102 70" fill="none" xmlns="http://www.w3.org/2000/svg">
<path d="M37.9108 17.401H18.7304V0.177734H55.7213V40.5937C55.7213 46.661 54.5144 51.9128 52.1005 56.3491C49.6866 60.7202 46.3594 64.0474 42.1188 66.3308C37.9435 68.6142 33.2788 69.7559 28.1249 69.7559C23.1667 69.7559 18.5673 68.5163 14.3267 66.0372C10.1513 63.5581 6.82412 60.2309 4.34501 56.0556C1.8659 51.815 0.626343 47.2156 0.626343 42.2574H18.4368C18.4368 45.2584 19.2849 47.7701 20.9811 49.7925C22.7426 51.815 25.0912 52.8262 28.027 52.8262C31.1585 52.8262 33.5724 51.8476 35.2686 49.8904C37.0301 47.868 37.9108 44.9322 37.9108 41.083V17.401Z" fill="#6F6F6F"/>
<path d="M53.0987 0.266793H101.797V17.4877H53.0987V0.266793Z" fill="#6F6F6F"/>
<path d="M53.0987 27.2363H93.2908V44.4572H53.0987V27.2363Z" fill="#6F6F6F"/>
<path d="M101.901 0.266793V68.288H84.6804V0.266792L101.901 0.266793Z" fill="#6F6F6F"/>
</svg>
