<svg width="159" height="29" viewBox="0 0 159 29" fill="none" xmlns="http://www.w3.org/2000/svg">
<path d="M8.624 20.5862C11.384 20.5862 12.8 18.5942 12.8 18.5942L11.888 17.5382C11.888 17.5382 10.904 19.1462 8.624 19.1462H6.464V10.9862H3.824V12.3062H5.024V23.7062C5.024 25.2182 4.688 26.3462 3.464 26.3462C2.24 26.3462 1.904 25.2182 1.904 23.7062H0.464C0.464 26.0342 1.088 27.7862 3.464 27.7862C5.84 27.7862 6.464 26.0342 6.464 23.7062V20.5862H8.624ZM4.424 7.38624C4.424 8.05824 4.952 8.58624 5.624 8.58624C6.296 8.58624 6.824 8.05824 6.824 7.38624C6.824 6.71424 6.296 6.18624 5.624 6.18624C4.952 6.18624 4.424 6.71424 4.424 7.38624ZM19.5584 15.7862C19.5584 17.6342 18.0464 19.1462 16.1984 19.1462C14.3504 19.1462 12.8384 17.6342 12.8384 15.7862V10.9862H11.3984V15.7862C11.3984 18.4262 13.5584 20.5862 16.1984 20.5862H21.4304C24.1904 20.5862 25.6064 18.5942 25.6064 18.5942L24.6944 17.5382C24.6944 17.5382 23.7104 19.1462 21.4304 19.1462H19.6064C20.4704 18.2822 20.9984 17.1062 20.9984 15.7862V10.9862H19.5584V15.7862ZM24.2656 15.7862C24.2656 18.4262 26.4256 20.5862 29.0656 20.5862C31.8256 20.5862 33.2416 18.5942 33.2416 18.5942L32.3296 17.5382C32.3296 17.5382 31.3456 19.1462 29.0656 19.1462C27.2176 19.1462 25.7056 17.6342 25.7056 15.7862V4.98624H24.2656V15.7862ZM31.3766 7.38624C31.3766 8.05824 31.9046 8.58624 32.5766 8.58624C33.2486 8.58624 33.7766 8.05824 33.7766 7.38624C33.7766 6.71424 33.2486 6.18624 32.5766 6.18624C31.9046 6.18624 31.3766 6.71424 31.3766 7.38624ZM31.9766 15.7862C31.9766 18.4262 34.1366 20.5862 36.7766 20.5862C39.5366 20.5862 40.9526 18.5942 40.9526 18.5942L40.0406 17.5382C40.0406 17.5382 39.0566 19.1462 36.7766 19.1462C34.9286 19.1462 33.4166 17.6342 33.4166 15.7862V10.9862H31.9766V15.7862ZM39.9063 17.6102C40.6503 19.9382 42.9303 20.5862 44.3703 20.5862H49.8903C52.6503 20.5862 54.0663 18.5942 54.0663 18.5942L53.1543 17.5382C53.1543 17.5382 52.1703 19.1462 49.8903 19.1462H47.7783C48.6423 18.2822 49.1703 17.1062 49.1703 15.7862C49.1703 13.6502 47.6583 11.8022 45.4743 10.9862L39.9063 17.6102ZM44.4183 19.1462C43.2423 19.1462 41.9943 18.4982 41.6103 17.7302L45.8823 12.7862C46.9623 13.3382 47.7303 14.4902 47.7303 15.7862C47.7303 17.5862 46.2903 19.0742 44.4183 19.1462ZM53.0782 17.6102C53.8222 19.9382 56.1022 20.5862 57.5422 20.5862H63.0622C65.8222 20.5862 67.2382 18.5942 67.2382 18.5942L66.3262 17.5382C66.3262 17.5382 65.3422 19.1462 63.0622 19.1462H60.9502C61.8142 18.2822 62.3422 17.1062 62.3422 15.7862C62.3422 13.6502 60.8302 11.8022 58.6462 10.9862L53.0782 17.6102ZM57.5902 19.1462C56.4142 19.1462 55.1662 18.4982 54.7822 17.7302L59.0542 12.7862C60.1342 13.3382 60.9022 14.4902 60.9022 15.7862C60.9022 17.5862 59.4622 19.0742 57.5902 19.1462ZM74.0741 20.5862H77.4581C80.1941 20.5862 81.6101 18.5942 81.6101 18.5942L80.6981 17.5382C80.6981 17.5382 79.7141 19.1462 77.4581 19.1462H75.5141V10.9862H74.0741V12.3542C73.2101 11.5142 72.0101 10.9862 70.7141 10.9862C68.0741 10.9862 65.9141 13.1462 65.9141 15.7862C65.9141 18.4262 68.0741 20.5862 70.7141 20.5862C72.0101 20.5862 73.9061 19.5782 74.0741 19.2182V20.5862ZM67.3541 15.7862C67.3541 13.9382 68.8661 12.4262 70.7141 12.4262C72.5621 12.4262 74.0741 13.9382 74.0741 15.7862C74.0741 17.6342 72.5621 19.1462 70.7141 19.1462C68.8661 19.1462 67.3541 17.6342 67.3541 15.7862ZM83.9047 19.3862C83.9047 20.0582 84.4327 20.5862 85.1047 20.5862C85.7767 20.5862 86.3047 20.0582 86.3047 19.3862C86.3047 18.7142 85.7767 18.1862 85.1047 18.1862C84.4327 18.1862 83.9047 18.7142 83.9047 19.3862ZM101.637 20.5862H105.021C107.757 20.5862 109.173 18.5942 109.173 18.5942L108.261 17.5382C108.261 17.5382 107.277 19.1462 105.021 19.1462H103.077V10.9862H101.637V12.3542C100.773 11.5142 99.5726 10.9862 98.2766 10.9862C95.6366 10.9862 93.4766 13.1462 93.4766 15.7862C93.4766 18.4262 95.6366 20.5862 98.2766 20.5862C99.5726 20.5862 101.469 19.5782 101.637 19.2182V20.5862ZM94.9166 15.7862C94.9166 13.9382 96.4286 12.4262 98.2766 12.4262C100.125 12.4262 101.637 13.9382 101.637 15.7862C101.637 17.6342 100.125 19.1462 98.2766 19.1462C96.4286 19.1462 94.9166 17.6342 94.9166 15.7862ZM107.867 23.9462C107.867 26.5862 110.027 28.7462 112.667 28.7462C115.307 28.7462 117.467 26.5862 117.467 23.9462C117.467 22.6502 116.939 21.4502 116.099 20.5862H118.187C120.947 20.5862 122.363 18.5942 122.363 18.5942L121.451 17.5382C121.451 17.5382 120.467 19.1462 118.187 19.1462H116.075C116.939 18.2822 117.467 17.1062 117.467 15.7862V10.9862H116.027V15.7862C116.027 17.6342 114.515 19.1462 112.667 19.1462C110.819 19.1462 109.307 17.6342 109.307 15.7862V10.9862H107.867V15.7862C107.867 17.5142 108.779 19.0262 110.147 19.8662C108.779 20.7062 107.867 22.2182 107.867 23.9462ZM109.307 23.9462C109.307 22.0982 110.819 20.5862 112.667 20.5862H112.787C114.587 20.6582 116.027 22.1462 116.027 23.9462C116.027 25.7942 114.515 27.3062 112.667 27.3062C110.819 27.3062 109.307 25.7942 109.307 23.9462ZM129.199 20.5862H132.583C135.319 20.5862 136.735 18.5942 136.735 18.5942L135.823 17.5382C135.823 17.5382 134.839 19.1462 132.583 19.1462H130.639V10.9862H129.199V12.3542C128.335 11.5142 127.135 10.9862 125.839 10.9862C123.199 10.9862 121.039 13.1462 121.039 15.7862C121.039 18.4262 123.199 20.5862 125.839 20.5862C127.135 20.5862 129.031 19.5782 129.199 19.2182V20.5862ZM122.479 15.7862C122.479 13.9382 123.991 12.4262 125.839 12.4262C127.687 12.4262 129.199 13.9382 129.199 15.7862C129.199 17.6342 127.687 19.1462 125.839 19.1462C123.991 19.1462 122.479 17.6342 122.479 15.7862ZM135.43 15.7862C135.43 18.4262 137.59 20.5862 140.23 20.5862C142.99 20.5862 144.406 18.5942 144.406 18.5942L143.494 17.5382C143.494 17.5382 142.51 19.1462 140.23 19.1462C138.382 19.1462 136.87 17.6342 136.87 15.7862V4.98624H135.43V15.7862ZM151.301 20.5862H154.685C157.421 20.5862 158.837 18.5942 158.837 18.5942L157.925 17.5382C157.925 17.5382 156.941 19.1462 154.685 19.1462H152.741V10.9862H151.301V12.3542C150.437 11.5142 149.237 10.9862 147.941 10.9862C145.301 10.9862 143.141 13.1462 143.141 15.7862C143.141 18.4262 145.301 20.5862 147.941 20.5862C149.237 20.5862 151.133 19.5782 151.301 19.2182V20.5862ZM144.581 15.7862C144.581 13.9382 146.093 12.4262 147.941 12.4262C149.789 12.4262 151.301 13.9382 151.301 15.7862C151.301 17.6342 149.789 19.1462 147.941 19.1462C146.093 19.1462 144.581 17.6342 144.581 15.7862Z" fill="#6F6F6F"/>
</svg>
