<svg width="337" height="31" viewBox="0 0 337 31" fill="none" xmlns="http://www.w3.org/2000/svg">
<path fill-rule="evenodd" clip-rule="evenodd" d="M117 1H5C2.79086 1 1 2.79086 1 5V24C1 26.2091 2.79086 28 5 28H117C119.209 28 121 26.2091 121 24V5C121 2.79086 119.209 1 117 1ZM5 0C2.23858 0 0 2.23858 0 5V24C0 26.7614 2.23858 29 5 29H117C119.761 29 122 26.7614 122 24V5C122 2.23858 119.761 0 117 0H5Z" fill="#066790"/>
<path d="M17.3574 20.6826H19.9502L22.2881 12.1836H22.3408L24.6699 20.6826H27.2627L30.6289 8H27.8779L25.8652 17.0879H25.8125L23.4746 8H21.1455L18.8076 17.0879H18.7549L16.751 8H14L17.3574 20.6826Z" fill="#066790"/>
<path d="M35.0762 20.876C37.7656 20.876 39.0664 19.2852 39.3564 17.8965L39.3828 17.7998H37.0273L37.0098 17.8525C36.8252 18.3799 36.1836 18.96 35.1289 18.96C33.8193 18.96 33.002 18.0811 32.9756 16.5781H39.4619V15.7871C39.4619 12.9395 37.7305 11.0674 34.9707 11.0674C32.2109 11.0674 30.4443 12.9834 30.4443 15.9805V15.9893C30.4443 19.0039 32.1934 20.876 35.0762 20.876ZM35.0146 12.9834C36.0781 12.9834 36.8428 13.6602 37.001 14.9609H33.002C33.1689 13.6865 33.96 12.9834 35.0146 12.9834Z" fill="#066790"/>
<path d="M46.3701 20.876C48.7432 20.876 50.2109 19.0303 50.2109 15.9717V15.9629C50.2109 12.8955 48.7432 11.0674 46.3789 11.0674C45.0342 11.0674 43.9883 11.7529 43.4697 12.8955H43.417V8H40.8506V20.6826H43.417V19.0742H43.4697C43.9795 20.1904 45.0166 20.876 46.3701 20.876ZM45.5176 18.749C44.2695 18.749 43.417 17.6768 43.417 15.9717V15.9629C43.417 14.2666 44.2783 13.1943 45.5176 13.1943C46.792 13.1943 47.6006 14.2402 47.6006 15.9629V15.9717C47.6006 17.6855 46.792 18.749 45.5176 18.749Z" fill="#066790"/>
<path d="M51.8193 16.6484H57.5146V14.4072H51.8193V16.6484Z" fill="#066790"/>
<path d="M65.0557 20.876C67.4287 20.876 68.8965 19.0303 68.8965 15.9717V15.9629C68.8965 12.8955 67.4287 11.0674 65.0645 11.0674C63.7197 11.0674 62.6738 11.7529 62.1553 12.8955H62.1025V8H59.5361V20.6826H62.1025V19.0742H62.1553C62.665 20.1904 63.7021 20.876 65.0557 20.876ZM64.2031 18.749C62.9551 18.749 62.1025 17.6768 62.1025 15.9717V15.9629C62.1025 14.2666 62.9639 13.1943 64.2031 13.1943C65.4775 13.1943 66.2861 14.2402 66.2861 15.9629V15.9717C66.2861 17.6855 65.4775 18.749 64.2031 18.749Z" fill="#066790"/>
<path d="M73.0186 20.832C74.2578 20.832 75.2598 20.2432 75.7959 19.2764H75.8486V20.6826H78.415V14.2227C78.415 12.3242 76.8418 11.0674 74.4072 11.0674C71.9199 11.0674 70.4258 12.3154 70.2852 14.0557L70.2764 14.1611H72.623L72.6406 14.082C72.7637 13.4756 73.3438 13.0273 74.3018 13.0273C75.3037 13.0273 75.8486 13.5459 75.8486 14.3809V14.9609L73.5195 15.1016C71.1816 15.251 69.8545 16.2529 69.8545 17.9668V17.9844C69.8545 19.6455 71.1289 20.832 73.0186 20.832ZM72.3945 17.8525V17.835C72.3945 17.167 72.9131 16.7451 73.9062 16.6836L75.8486 16.5605V17.2373C75.8486 18.2217 75.0049 18.96 73.8535 18.96C72.9658 18.96 72.3945 18.5469 72.3945 17.8525Z" fill="#066790"/>
<path d="M83.9521 20.876C86.3779 20.876 88.0742 19.6631 88.0742 17.8174V17.8086C88.0742 16.4199 87.2656 15.6465 85.2969 15.2334L83.6973 14.8906C82.748 14.6885 82.4229 14.3721 82.4229 13.8887V13.8799C82.4229 13.2734 82.9766 12.8779 83.8643 12.8779C84.8135 12.8779 85.3672 13.3877 85.4551 14.0645L85.4639 14.1348H87.8281V14.0469C87.7666 12.3945 86.3691 11.0674 83.8643 11.0674C81.4648 11.0674 79.918 12.2275 79.918 14.0205V14.0293C79.918 15.4355 80.8408 16.3496 82.6689 16.7363L84.2686 17.0703C85.1914 17.2725 85.5078 17.5625 85.5078 18.0635V18.0723C85.5078 18.6787 84.9189 19.0566 83.9521 19.0566C82.9238 19.0566 82.3701 18.626 82.2031 17.8877L82.1855 17.8086H79.6807L79.6895 17.8877C79.8916 19.6719 81.3418 20.876 83.9521 20.876Z" fill="#066790"/>
<path d="M93.6289 20.876C96.3184 20.876 97.6191 19.2852 97.9092 17.8965L97.9355 17.7998H95.5801L95.5625 17.8525C95.3779 18.3799 94.7363 18.96 93.6816 18.96C92.3721 18.96 91.5547 18.0811 91.5283 16.5781H98.0146V15.7871C98.0146 12.9395 96.2832 11.0674 93.5234 11.0674C90.7637 11.0674 88.9971 12.9834 88.9971 15.9805V15.9893C88.9971 19.0039 90.7461 20.876 93.6289 20.876ZM93.5674 12.9834C94.6309 12.9834 95.3955 13.6602 95.5537 14.9609H91.5547C91.7217 13.6865 92.5127 12.9834 93.5674 12.9834Z" fill="#066790"/>
<path d="M102.831 20.876C104.193 20.876 105.23 20.1904 105.731 19.0742H105.784V20.6826H108.351V8H105.784V12.8955H105.731C105.222 11.7529 104.167 11.0674 102.831 11.0674C100.458 11.0674 98.999 12.8955 98.999 15.9629V15.9717C98.999 19.0303 100.458 20.876 102.831 20.876ZM103.692 18.749C102.409 18.749 101.609 17.6855 101.609 15.9717V15.9629C101.609 14.2402 102.418 13.1943 103.692 13.1943C104.932 13.1943 105.793 14.2666 105.793 15.9629V15.9717C105.793 17.6768 104.94 18.749 103.692 18.749Z" fill="#066790"/>
<path fill-rule="evenodd" clip-rule="evenodd" d="M239 1H141C138.791 1 137 2.79086 137 5V24C137 26.2091 138.791 28 141 28H239C241.209 28 243 26.2091 243 24V5C243 2.79086 241.209 1 239 1ZM141 0C138.239 0 136 2.23858 136 5V24C136 26.7614 138.239 29 141 29H239C241.761 29 244 26.7614 244 24V5C244 2.23858 241.761 0 239 0H141Z" fill="#066790"/>
<path d="M155.115 21.1221C158.314 21.1221 160.23 19.5752 160.23 17.1406V17.1318C160.23 15.1367 159.035 14.0557 156.381 13.5283L155.036 13.2559C153.577 12.9658 152.927 12.5 152.927 11.7002V11.6914C152.927 10.7861 153.744 10.1621 155.106 10.1533C156.416 10.1533 157.33 10.7598 157.462 11.7529L157.471 11.8584H159.976L159.967 11.6914C159.844 9.46777 158.042 8 155.106 8C152.294 8 150.272 9.5293 150.272 11.8496V11.8584C150.272 13.7656 151.538 14.9609 154.043 15.4619L155.379 15.7256C156.952 16.0508 157.576 16.4814 157.576 17.3428V17.3516C157.576 18.3184 156.653 18.96 155.186 18.96C153.735 18.96 152.689 18.3447 152.522 17.3604L152.505 17.2637H150L150.009 17.4043C150.158 19.7422 152.101 21.1221 155.115 21.1221Z" fill="#066790"/>
<path d="M165.943 21.0957C168.457 21.0957 170.083 19.5312 170.206 17.4746V17.4219H167.815L167.807 17.501C167.631 18.4502 166.989 19.083 165.961 19.083C164.695 19.083 163.904 18.0371 163.904 16.1914V16.1826C163.904 14.3809 164.695 13.2998 165.952 13.2998C167.016 13.2998 167.64 13.9854 167.798 14.8818L167.815 14.9609H170.197V14.8994C170.101 12.8604 168.475 11.2871 165.917 11.2871C163.096 11.2871 161.294 13.1592 161.294 16.1738V16.1826C161.294 19.2236 163.069 21.0957 165.943 21.0957Z" fill="#066790"/>
<path d="M174.249 21.0518C175.488 21.0518 176.49 20.4629 177.026 19.4961H177.079V20.9023H179.646V14.4424C179.646 12.5439 178.072 11.2871 175.638 11.2871C173.15 11.2871 171.656 12.5352 171.516 14.2754L171.507 14.3809H173.854L173.871 14.3018C173.994 13.6953 174.574 13.2471 175.532 13.2471C176.534 13.2471 177.079 13.7656 177.079 14.6006V15.1807L174.75 15.3213C172.412 15.4707 171.085 16.4727 171.085 18.1865V18.2041C171.085 19.8652 172.359 21.0518 174.249 21.0518ZM173.625 18.0723V18.0547C173.625 17.3867 174.144 16.9648 175.137 16.9033L177.079 16.7803V17.457C177.079 18.4414 176.235 19.1797 175.084 19.1797C174.196 19.1797 173.625 18.7666 173.625 18.0723Z" fill="#066790"/>
<path d="M181.368 20.9023H183.935V8.21973H181.368V20.9023Z" fill="#066790"/>
<path d="M189.955 21.0957C192.645 21.0957 193.945 19.5049 194.235 18.1162L194.262 18.0195H191.906L191.889 18.0723C191.704 18.5996 191.062 19.1797 190.008 19.1797C188.698 19.1797 187.881 18.3008 187.854 16.7979H194.341V16.0068C194.341 13.1592 192.609 11.2871 189.85 11.2871C187.09 11.2871 185.323 13.2031 185.323 16.2002V16.209C185.323 19.2236 187.072 21.0957 189.955 21.0957ZM189.894 13.2031C190.957 13.2031 191.722 13.8799 191.88 15.1807H187.881C188.048 13.9062 188.839 13.2031 189.894 13.2031Z" fill="#066790"/>
<path d="M198.472 21.0518C199.711 21.0518 200.713 20.4629 201.249 19.4961H201.302V20.9023H203.868V14.4424C203.868 12.5439 202.295 11.2871 199.86 11.2871C197.373 11.2871 195.879 12.5352 195.738 14.2754L195.729 14.3809H198.076L198.094 14.3018C198.217 13.6953 198.797 13.2471 199.755 13.2471C200.757 13.2471 201.302 13.7656 201.302 14.6006V15.1807L198.973 15.3213C196.635 15.4707 195.308 16.4727 195.308 18.1865V18.2041C195.308 19.8652 196.582 21.0518 198.472 21.0518ZM197.848 18.0723V18.0547C197.848 17.3867 198.366 16.9648 199.359 16.9033L201.302 16.7803V17.457C201.302 18.4414 200.458 19.1797 199.307 19.1797C198.419 19.1797 197.848 18.7666 197.848 18.0723Z" fill="#066790"/>
<path d="M211.11 21.0957C213.483 21.0957 214.951 19.25 214.951 16.1914V16.1826C214.951 13.1152 213.483 11.2871 211.119 11.2871C209.774 11.2871 208.729 11.9727 208.21 13.1152H208.157V8.21973H205.591V20.9023H208.157V19.2939H208.21C208.72 20.4102 209.757 21.0957 211.11 21.0957ZM210.258 18.9688C209.01 18.9688 208.157 17.8965 208.157 16.1914V16.1826C208.157 14.4863 209.019 13.4141 210.258 13.4141C211.532 13.4141 212.341 14.46 212.341 16.1826V16.1914C212.341 17.9053 211.532 18.9688 210.258 18.9688Z" fill="#066790"/>
<path d="M216.331 20.9023H218.897V8.21973H216.331V20.9023Z" fill="#066790"/>
<path d="M224.918 21.0957C227.607 21.0957 228.908 19.5049 229.198 18.1162L229.225 18.0195H226.869L226.852 18.0723C226.667 18.5996 226.025 19.1797 224.971 19.1797C223.661 19.1797 222.844 18.3008 222.817 16.7979H229.304V16.0068C229.304 13.1592 227.572 11.2871 224.812 11.2871C222.053 11.2871 220.286 13.2031 220.286 16.2002V16.209C220.286 19.2236 222.035 21.0957 224.918 21.0957ZM224.856 13.2031C225.92 13.2031 226.685 13.8799 226.843 15.1807H222.844C223.011 13.9062 223.802 13.2031 224.856 13.2031Z" fill="#066790"/>
<path fill-rule="evenodd" clip-rule="evenodd" d="M332 1H263C260.791 1 259 2.79086 259 5V24C259 26.2091 260.791 28 263 28H332C334.209 28 336 26.2091 336 24V5C336 2.79086 334.209 1 332 1ZM263 0C260.239 0 258 2.23858 258 5V24C258 26.7614 260.239 29 263 29H332C334.761 29 337 26.7614 337 24V5C337 2.23858 334.761 0 332 0H263Z" fill="#066790"/>
<path d="M272 20.6826H274.654V15.6904H279.813V13.5898H274.654V10.1885H280.306V8H272V20.6826Z" fill="#066790"/>
<path d="M285.72 20.876C288.567 20.876 290.387 19.0479 290.387 15.9717V15.9541C290.387 12.9043 288.532 11.0674 285.711 11.0674C282.898 11.0674 281.053 12.9219 281.053 15.9541V15.9717C281.053 19.0391 282.854 20.876 285.72 20.876ZM285.729 18.8633C284.463 18.8633 283.663 17.8174 283.663 15.9717V15.9541C283.663 14.1348 284.472 13.0801 285.711 13.0801C286.959 13.0801 287.776 14.1348 287.776 15.9541V15.9717C287.776 17.8086 286.977 18.8633 285.729 18.8633Z" fill="#066790"/>
<path d="M291.714 20.6826H294.28V15.4092C294.28 14.0381 295.019 13.2822 296.284 13.2822C296.653 13.2822 297.005 13.335 297.216 13.4229V11.1641C297.022 11.1113 296.759 11.0674 296.478 11.0674C295.379 11.0674 294.614 11.7441 294.333 12.9043H294.28V11.2607H291.714V20.6826Z" fill="#066790"/>
<path d="M298.271 20.6826H300.837V14.9961C300.837 13.9326 301.496 13.1943 302.472 13.1943C303.421 13.1943 303.992 13.792 303.992 14.8027V20.6826H306.462V14.9521C306.462 13.9062 307.104 13.1943 308.079 13.1943C309.072 13.1943 309.617 13.792 309.617 14.8818V20.6826H312.184V14.2402C312.184 12.3418 310.944 11.0674 309.099 11.0674C307.719 11.0674 306.594 11.8232 306.172 13.0098H306.119C305.803 11.7705 304.845 11.0674 303.526 11.0674C302.261 11.0674 301.276 11.7705 300.89 12.8428H300.837V11.2607H298.271V20.6826Z" fill="#066790"/>
<path d="M317.686 20.876C320.111 20.876 321.808 19.6631 321.808 17.8174V17.8086C321.808 16.4199 320.999 15.6465 319.03 15.2334L317.431 14.8906C316.481 14.6885 316.156 14.3721 316.156 13.8887V13.8799C316.156 13.2734 316.71 12.8779 317.598 12.8779C318.547 12.8779 319.101 13.3877 319.188 14.0645L319.197 14.1348H321.562V14.0469C321.5 12.3945 320.103 11.0674 317.598 11.0674C315.198 11.0674 313.651 12.2275 313.651 14.0205V14.0293C313.651 15.4355 314.574 16.3496 316.402 16.7363L318.002 17.0703C318.925 17.2725 319.241 17.5625 319.241 18.0635V18.0723C319.241 18.6787 318.652 19.0566 317.686 19.0566C316.657 19.0566 316.104 18.626 315.937 17.8877L315.919 17.8086H313.414L313.423 17.8877C313.625 19.6719 315.075 20.876 317.686 20.876Z" fill="#066790"/>
</svg>
