<svg width="337" height="30" viewBox="0 0 337 30" fill="none" xmlns="http://www.w3.org/2000/svg">
<rect x="0.5" y="1.5" width="121" height="28" rx="4.5" stroke="#066790"/>
<path d="M16.9316 22H19.5244L21.8623 13.501H21.915L24.2441 22H26.8369L30.2031 9.31738H27.4521L25.4395 18.4053H25.3867L23.0488 9.31738H20.7197L18.3818 18.4053H18.3291L16.3252 9.31738H13.5742L16.9316 22ZM34.6504 22.1934C37.3398 22.1934 38.6406 20.6025 38.9307 19.2139L38.957 19.1172H36.6016L36.584 19.1699C36.3994 19.6973 35.7578 20.2773 34.7031 20.2773C33.3936 20.2773 32.5762 19.3984 32.5498 17.8955H39.0361V17.1045C39.0361 14.2568 37.3047 12.3848 34.5449 12.3848C31.7852 12.3848 30.0186 14.3008 30.0186 17.2979V17.3066C30.0186 20.3213 31.7676 22.1934 34.6504 22.1934ZM34.5889 14.3008C35.6523 14.3008 36.417 14.9775 36.5752 16.2783H32.5762C32.7432 15.0039 33.5342 14.3008 34.5889 14.3008ZM45.9443 22.1934C48.3174 22.1934 49.7852 20.3477 49.7852 17.2891V17.2803C49.7852 14.2129 48.3174 12.3848 45.9531 12.3848C44.6084 12.3848 43.5625 13.0703 43.0439 14.2129H42.9912V9.31738H40.4248V22H42.9912V20.3916H43.0439C43.5537 21.5078 44.5908 22.1934 45.9443 22.1934ZM45.0918 20.0664C43.8438 20.0664 42.9912 18.9941 42.9912 17.2891V17.2803C42.9912 15.584 43.8525 14.5117 45.0918 14.5117C46.3662 14.5117 47.1748 15.5576 47.1748 17.2803V17.2891C47.1748 19.0029 46.3662 20.0664 45.0918 20.0664ZM51.3936 17.9658H57.0889V15.7246H51.3936V17.9658ZM64.6299 22.1934C67.0029 22.1934 68.4707 20.3477 68.4707 17.2891V17.2803C68.4707 14.2129 67.0029 12.3848 64.6387 12.3848C63.2939 12.3848 62.248 13.0703 61.7295 14.2129H61.6768V9.31738H59.1104V22H61.6768V20.3916H61.7295C62.2393 21.5078 63.2764 22.1934 64.6299 22.1934ZM63.7773 20.0664C62.5293 20.0664 61.6768 18.9941 61.6768 17.2891V17.2803C61.6768 15.584 62.5381 14.5117 63.7773 14.5117C65.0518 14.5117 65.8604 15.5576 65.8604 17.2803V17.2891C65.8604 19.0029 65.0518 20.0664 63.7773 20.0664ZM72.5928 22.1494C73.832 22.1494 74.834 21.5605 75.3701 20.5938H75.4229V22H77.9893V15.54C77.9893 13.6416 76.416 12.3848 73.9814 12.3848C71.4941 12.3848 70 13.6328 69.8594 15.373L69.8506 15.4785H72.1973L72.2148 15.3994C72.3379 14.793 72.918 14.3447 73.876 14.3447C74.8779 14.3447 75.4229 14.8633 75.4229 15.6982V16.2783L73.0938 16.4189C70.7559 16.5684 69.4287 17.5703 69.4287 19.2842V19.3018C69.4287 20.9629 70.7031 22.1494 72.5928 22.1494ZM71.9688 19.1699V19.1523C71.9688 18.4844 72.4873 18.0625 73.4805 18.001L75.4229 17.8779V18.5547C75.4229 19.5391 74.5791 20.2773 73.4277 20.2773C72.54 20.2773 71.9688 19.8643 71.9688 19.1699ZM83.5264 22.1934C85.9521 22.1934 87.6484 20.9805 87.6484 19.1348V19.126C87.6484 17.7373 86.8398 16.9639 84.8711 16.5508L83.2715 16.208C82.3223 16.0059 81.9971 15.6895 81.9971 15.2061V15.1973C81.9971 14.5908 82.5508 14.1953 83.4385 14.1953C84.3877 14.1953 84.9414 14.7051 85.0293 15.3818L85.0381 15.4521H87.4023V15.3643C87.3408 13.7119 85.9434 12.3848 83.4385 12.3848C81.0391 12.3848 79.4922 13.5449 79.4922 15.3379V15.3467C79.4922 16.7529 80.415 17.667 82.2432 18.0537L83.8428 18.3877C84.7656 18.5898 85.082 18.8799 85.082 19.3809V19.3896C85.082 19.9961 84.4932 20.374 83.5264 20.374C82.498 20.374 81.9443 19.9434 81.7773 19.2051L81.7598 19.126H79.2549L79.2637 19.2051C79.4658 20.9893 80.916 22.1934 83.5264 22.1934ZM93.2031 22.1934C95.8926 22.1934 97.1934 20.6025 97.4834 19.2139L97.5098 19.1172H95.1543L95.1367 19.1699C94.9521 19.6973 94.3105 20.2773 93.2559 20.2773C91.9463 20.2773 91.1289 19.3984 91.1025 17.8955H97.5889V17.1045C97.5889 14.2568 95.8574 12.3848 93.0977 12.3848C90.3379 12.3848 88.5713 14.3008 88.5713 17.2979V17.3066C88.5713 20.3213 90.3203 22.1934 93.2031 22.1934ZM93.1416 14.3008C94.2051 14.3008 94.9697 14.9775 95.1279 16.2783H91.1289C91.2959 15.0039 92.0869 14.3008 93.1416 14.3008ZM102.405 22.1934C103.768 22.1934 104.805 21.5078 105.306 20.3916H105.358V22H107.925V9.31738H105.358V14.2129H105.306C104.796 13.0703 103.741 12.3848 102.405 12.3848C100.032 12.3848 98.5732 14.2129 98.5732 17.2803V17.2891C98.5732 20.3477 100.032 22.1934 102.405 22.1934ZM103.267 20.0664C101.983 20.0664 101.184 19.0029 101.184 17.2891V17.2803C101.184 15.5576 101.992 14.5117 103.267 14.5117C104.506 14.5117 105.367 15.584 105.367 17.2803V17.2891C105.367 18.9941 104.515 20.0664 103.267 20.0664Z" fill="#066790"/>
<rect x="136.5" y="1.5" width="107" height="28" rx="4.5" stroke="#066790"/>
<path d="M155.003 22.2197C158.202 22.2197 160.118 20.6729 160.118 18.2383V18.2295C160.118 16.2344 158.923 15.1533 156.269 14.626L154.924 14.3535C153.465 14.0635 152.814 13.5977 152.814 12.7979V12.7891C152.814 11.8838 153.632 11.2598 154.994 11.251C156.304 11.251 157.218 11.8574 157.35 12.8506L157.358 12.9561H159.863L159.854 12.7891C159.731 10.5654 157.93 9.09766 154.994 9.09766C152.182 9.09766 150.16 10.627 150.16 12.9473V12.9561C150.16 14.8633 151.426 16.0586 153.931 16.5596L155.267 16.8232C156.84 17.1484 157.464 17.5791 157.464 18.4404V18.4492C157.464 19.416 156.541 20.0576 155.073 20.0576C153.623 20.0576 152.577 19.4424 152.41 18.458L152.393 18.3613H149.888L149.896 18.502C150.046 20.8398 151.988 22.2197 155.003 22.2197ZM165.831 22.1934C168.345 22.1934 169.971 20.6289 170.094 18.5723V18.5195H167.703L167.694 18.5986C167.519 19.5479 166.877 20.1807 165.849 20.1807C164.583 20.1807 163.792 19.1348 163.792 17.2891V17.2803C163.792 15.4785 164.583 14.3975 165.84 14.3975C166.903 14.3975 167.527 15.083 167.686 15.9795L167.703 16.0586H170.085V15.9971C169.988 13.958 168.362 12.3848 165.805 12.3848C162.983 12.3848 161.182 14.2568 161.182 17.2715V17.2803C161.182 20.3213 162.957 22.1934 165.831 22.1934ZM174.137 22.1494C175.376 22.1494 176.378 21.5605 176.914 20.5938H176.967V22H179.533V15.54C179.533 13.6416 177.96 12.3848 175.525 12.3848C173.038 12.3848 171.544 13.6328 171.403 15.373L171.395 15.4785H173.741L173.759 15.3994C173.882 14.793 174.462 14.3447 175.42 14.3447C176.422 14.3447 176.967 14.8633 176.967 15.6982V16.2783L174.638 16.4189C172.3 16.5684 170.973 17.5703 170.973 19.2842V19.3018C170.973 20.9629 172.247 22.1494 174.137 22.1494ZM173.513 19.1699V19.1523C173.513 18.4844 174.031 18.0625 175.024 18.001L176.967 17.8779V18.5547C176.967 19.5391 176.123 20.2773 174.972 20.2773C174.084 20.2773 173.513 19.8643 173.513 19.1699ZM181.256 22H183.822V9.31738H181.256V22ZM189.843 22.1934C192.532 22.1934 193.833 20.6025 194.123 19.2139L194.149 19.1172H191.794L191.776 19.1699C191.592 19.6973 190.95 20.2773 189.896 20.2773C188.586 20.2773 187.769 19.3984 187.742 17.8955H194.229V17.1045C194.229 14.2568 192.497 12.3848 189.737 12.3848C186.978 12.3848 185.211 14.3008 185.211 17.2979V17.3066C185.211 20.3213 186.96 22.1934 189.843 22.1934ZM189.781 14.3008C190.845 14.3008 191.609 14.9775 191.768 16.2783H187.769C187.936 15.0039 188.727 14.3008 189.781 14.3008ZM198.359 22.1494C199.599 22.1494 200.601 21.5605 201.137 20.5938H201.189V22H203.756V15.54C203.756 13.6416 202.183 12.3848 199.748 12.3848C197.261 12.3848 195.767 13.6328 195.626 15.373L195.617 15.4785H197.964L197.981 15.3994C198.104 14.793 198.685 14.3447 199.643 14.3447C200.645 14.3447 201.189 14.8633 201.189 15.6982V16.2783L198.86 16.4189C196.522 16.5684 195.195 17.5703 195.195 19.2842V19.3018C195.195 20.9629 196.47 22.1494 198.359 22.1494ZM197.735 19.1699V19.1523C197.735 18.4844 198.254 18.0625 199.247 18.001L201.189 17.8779V18.5547C201.189 19.5391 200.346 20.2773 199.194 20.2773C198.307 20.2773 197.735 19.8643 197.735 19.1699ZM210.998 22.1934C213.371 22.1934 214.839 20.3477 214.839 17.2891V17.2803C214.839 14.2129 213.371 12.3848 211.007 12.3848C209.662 12.3848 208.616 13.0703 208.098 14.2129H208.045V9.31738H205.479V22H208.045V20.3916H208.098C208.607 21.5078 209.645 22.1934 210.998 22.1934ZM210.146 20.0664C208.897 20.0664 208.045 18.9941 208.045 17.2891V17.2803C208.045 15.584 208.906 14.5117 210.146 14.5117C211.42 14.5117 212.229 15.5576 212.229 17.2803V17.2891C212.229 19.0029 211.42 20.0664 210.146 20.0664ZM216.219 22H218.785V9.31738H216.219V22ZM224.806 22.1934C227.495 22.1934 228.796 20.6025 229.086 19.2139L229.112 19.1172H226.757L226.739 19.1699C226.555 19.6973 225.913 20.2773 224.858 20.2773C223.549 20.2773 222.731 19.3984 222.705 17.8955H229.191V17.1045C229.191 14.2568 227.46 12.3848 224.7 12.3848C221.94 12.3848 220.174 14.3008 220.174 17.2979V17.3066C220.174 20.3213 221.923 22.1934 224.806 22.1934ZM224.744 14.3008C225.808 14.3008 226.572 14.9775 226.73 16.2783H222.731C222.898 15.0039 223.689 14.3008 224.744 14.3008Z" fill="#066790"/>
<rect x="258.5" y="0.5" width="78" height="28" rx="4.5" stroke="#066790"/>
<path d="M272.408 21H275.062V16.0078H280.222V13.9072H275.062V10.5059H280.714V8.31738H272.408V21ZM286.128 21.1934C288.976 21.1934 290.795 19.3652 290.795 16.2891V16.2715C290.795 13.2217 288.94 11.3848 286.119 11.3848C283.307 11.3848 281.461 13.2393 281.461 16.2715V16.2891C281.461 19.3564 283.263 21.1934 286.128 21.1934ZM286.137 19.1807C284.871 19.1807 284.071 18.1348 284.071 16.2891V16.2715C284.071 14.4521 284.88 13.3975 286.119 13.3975C287.367 13.3975 288.185 14.4521 288.185 16.2715V16.2891C288.185 18.126 287.385 19.1807 286.137 19.1807ZM292.122 21H294.688V15.7266C294.688 14.3555 295.427 13.5996 296.692 13.5996C297.062 13.5996 297.413 13.6523 297.624 13.7402V11.4814C297.431 11.4287 297.167 11.3848 296.886 11.3848C295.787 11.3848 295.022 12.0615 294.741 13.2217H294.688V11.5781H292.122V21ZM298.679 21H301.245V15.3135C301.245 14.25 301.904 13.5117 302.88 13.5117C303.829 13.5117 304.4 14.1094 304.4 15.1201V21H306.87V15.2695C306.87 14.2236 307.512 13.5117 308.487 13.5117C309.48 13.5117 310.025 14.1094 310.025 15.1992V21H312.592V14.5576C312.592 12.6592 311.353 11.3848 309.507 11.3848C308.127 11.3848 307.002 12.1406 306.58 13.3271H306.527C306.211 12.0879 305.253 11.3848 303.935 11.3848C302.669 11.3848 301.685 12.0879 301.298 13.1602H301.245V11.5781H298.679V21ZM318.094 21.1934C320.52 21.1934 322.216 19.9805 322.216 18.1348V18.126C322.216 16.7373 321.407 15.9639 319.438 15.5508L317.839 15.208C316.89 15.0059 316.564 14.6895 316.564 14.2061V14.1973C316.564 13.5908 317.118 13.1953 318.006 13.1953C318.955 13.1953 319.509 13.7051 319.597 14.3818L319.605 14.4521H321.97V14.3643C321.908 12.7119 320.511 11.3848 318.006 11.3848C315.606 11.3848 314.06 12.5449 314.06 14.3379V14.3467C314.06 15.7529 314.982 16.667 316.811 17.0537L318.41 17.3877C319.333 17.5898 319.649 17.8799 319.649 18.3809V18.3896C319.649 18.9961 319.061 19.374 318.094 19.374C317.065 19.374 316.512 18.9434 316.345 18.2051L316.327 18.126H313.822L313.831 18.2051C314.033 19.9893 315.483 21.1934 318.094 21.1934Z" fill="#066790"/>
</svg>
