<?xml version="1.0" encoding="UTF-8"?>
<svg xmlns="http://www.w3.org/2000/svg" xmlns:xlink="http://www.w3.org/1999/xlink" width="52pt" height="52pt" viewBox="0 0 52 52" version="1.1">
<g id="surface2729524">
<path style=" stroke:none;fill-rule:nonzero;fill:rgb(14.509804%,34.509804%,41.176471%);fill-opacity:1;" d="M 42.25 0 L 9.75 0 C 4.367188 0 0 4.367188 0 9.75 L 0 42.25 C 0 47.632812 4.367188 52 9.75 52 L 42.25 52 C 47.632812 52 52 47.632812 52 42.25 L 52 9.75 C 52 4.367188 47.632812 0 42.25 0 Z M 16.078125 44.140625 L 8 44.140625 L 7.953125 19.953125 L 16.03125 19.953125 Z M 11.835938 16.789062 L 11.789062 16.789062 C 9.148438 16.789062 7.445312 14.96875 7.445312 12.703125 C 7.445312 10.382812 9.203125 8.625 11.890625 8.625 C 14.578125 8.625 16.226562 10.382812 16.28125 12.703125 C 16.28125 14.96875 14.570312 16.789062 11.835938 16.789062 Z M 44.085938 44.140625 L 35.9375 44.140625 L 35.9375 31 C 35.9375 27.820312 35.09375 25.65625 32.25 25.65625 C 30.078125 25.65625 28.90625 27.117188 28.34375 28.53125 C 28.132812 29.039062 28.078125 29.734375 28.078125 30.445312 L 28.078125 44.140625 L 19.890625 44.140625 L 19.84375 19.953125 L 28.03125 19.953125 L 28.078125 23.367188 C 29.125 21.75 30.867188 19.460938 35.039062 19.460938 C 40.210938 19.460938 44.078125 22.835938 44.078125 30.09375 L 44.078125 44.140625 Z M 44.085938 44.140625 "/>
</g>
</svg>
