<svg width="383" height="32" viewBox="0 0 383 32" fill="none" xmlns="http://www.w3.org/2000/svg">
<rect x="0.967285" y="2.88354" width="87.24" height="28.0648" rx="4.5" stroke="#3C3370"/>
<path d="M16.7875 19.646C16.7933 19.9038 16.8373 20.1382 16.9193 20.3491C17.0013 20.5542 17.1156 20.7329 17.2621 20.8853C17.4086 21.0317 17.5844 21.146 17.7894 21.228C17.9945 21.3101 18.223 21.3511 18.475 21.3511C19.0316 21.3511 19.4535 21.1841 19.7406 20.8501C20.0336 20.5161 20.1801 20.0298 20.1801 19.3911V10.6987H22.8344V19.4087C22.8344 20.0825 22.7347 20.6831 22.5355 21.2104C22.3422 21.7378 22.058 22.1831 21.683 22.5464C21.3138 22.9038 20.8597 23.1763 20.3207 23.3638C19.7875 23.5513 19.181 23.645 18.5013 23.645C17.851 23.645 17.2621 23.5513 16.7347 23.3638C16.2074 23.1704 15.7562 22.9009 15.3812 22.5552C15.0121 22.2095 14.725 21.7905 14.5199 21.2983C14.3148 20.8062 14.2123 20.2554 14.2123 19.646H16.7875ZM33.891 24.5767L32.9857 23.2495C32.3178 23.4839 31.5795 23.6011 30.7709 23.6011C29.8275 23.6011 28.9779 23.4517 28.222 23.1528C27.472 22.8481 26.8304 22.4146 26.2972 21.8521C25.7699 21.2837 25.3627 20.5952 25.0756 19.7866C24.7943 18.978 24.6537 18.064 24.6537 17.0444C24.6537 16.0366 24.7943 15.1284 25.0756 14.3198C25.3627 13.5054 25.7699 12.814 26.2972 12.2456C26.8304 11.6772 27.472 11.2407 28.222 10.936C28.9779 10.6313 29.8275 10.479 30.7709 10.479C31.7084 10.479 32.5521 10.6313 33.3021 10.936C34.058 11.2407 34.6996 11.6772 35.2269 12.2456C35.7601 12.814 36.1674 13.5054 36.4486 14.3198C36.7357 15.1284 36.8793 16.0366 36.8793 17.0444C36.8793 18.1694 36.7064 19.1655 36.3607 20.0327C36.015 20.8999 35.514 21.606 34.8578 22.1509L36.4662 24.5767H33.891ZM30.7709 21.4038C31.0814 21.4038 31.3832 21.3628 31.6762 21.2808L30.2875 19.2065H32.6869L33.2406 19.9624C33.5394 19.6167 33.7679 19.1978 33.9262 18.7056C34.0902 18.2134 34.1722 17.6597 34.1722 17.0444C34.1722 16.3765 34.0902 15.7729 33.9262 15.2339C33.7679 14.6948 33.5424 14.2349 33.2494 13.854C32.9564 13.4731 32.599 13.1802 32.1771 12.9751C31.7553 12.77 31.2865 12.6675 30.7709 12.6675C30.2494 12.6675 29.7777 12.77 29.3558 12.9751C28.9398 13.1802 28.5824 13.4731 28.2836 13.854C27.9906 14.2349 27.7621 14.6948 27.598 15.2339C27.4398 15.7729 27.3607 16.3765 27.3607 17.0444C27.3607 17.7065 27.4398 18.3071 27.598 18.8462C27.7621 19.3853 27.9906 19.8452 28.2836 20.2261C28.5824 20.6011 28.9398 20.8911 29.3558 21.0962C29.7777 21.3013 30.2494 21.4038 30.7709 21.4038ZM47.4613 23.3813H44.9828V21.6323H44.9301C44.684 22.2417 44.3002 22.7104 43.7787 23.0386C43.2572 23.3608 42.6273 23.522 41.889 23.522C41.3676 23.522 40.89 23.4399 40.4564 23.2759C40.0228 23.1118 39.6508 22.8745 39.3402 22.564C39.0355 22.2476 38.7982 21.8667 38.6283 21.4214C38.4584 20.9761 38.3734 20.4722 38.3734 19.9097V13.7046H40.9398V19.3735C40.9398 20.0298 41.1097 20.5308 41.4496 20.8765C41.7953 21.2163 42.267 21.3862 42.8646 21.3862C43.1635 21.3862 43.4359 21.3364 43.682 21.2368C43.934 21.1313 44.1478 20.9849 44.3236 20.7974C44.5053 20.604 44.6459 20.3755 44.7455 20.1118C44.8451 19.8423 44.8949 19.5435 44.8949 19.2153V13.7046H47.4613V23.3813ZM53.5258 15.4536C53.2328 15.4536 52.9603 15.5063 52.7084 15.6118C52.4623 15.7114 52.2455 15.855 52.058 16.0425C51.8763 16.2241 51.7269 16.4438 51.6097 16.7017C51.4984 16.9536 51.431 17.2349 51.4076 17.5454H55.5824C55.5707 17.229 55.5121 16.9419 55.4066 16.6841C55.3012 16.4263 55.1576 16.2065 54.976 16.0249C54.8002 15.8433 54.5892 15.7026 54.3431 15.603C54.097 15.5034 53.8246 15.4536 53.5258 15.4536ZM57.9818 20.4282C57.9115 20.897 57.7533 21.3247 57.5072 21.7114C57.2611 22.0923 56.9476 22.4204 56.5668 22.6958C56.1859 22.9653 55.7406 23.1763 55.2308 23.3286C54.7269 23.4751 54.182 23.5483 53.5961 23.5483C52.8578 23.5483 52.1957 23.4341 51.6097 23.2056C51.0238 22.9771 50.5258 22.6489 50.1156 22.2212C49.7113 21.7935 49.3978 21.272 49.1752 20.6567C48.9584 20.0415 48.85 19.3501 48.85 18.5825C48.85 17.8149 48.9584 17.1206 49.1752 16.4995C49.392 15.8784 49.7025 15.3481 50.1068 14.9087C50.5111 14.4692 51.0004 14.1323 51.5746 13.8979C52.1488 13.6577 52.7904 13.5376 53.4994 13.5376C54.1967 13.5376 54.8265 13.6519 55.389 13.8804C55.9515 14.103 56.4291 14.4224 56.8217 14.8384C57.2201 15.2544 57.5248 15.7583 57.7357 16.3501C57.9525 16.9419 58.0609 17.6069 58.0609 18.3452V19.1362H51.3812V19.2944C51.3812 19.646 51.434 19.9653 51.5394 20.2524C51.6508 20.5396 51.8031 20.7856 51.9965 20.9907C52.1957 21.1958 52.433 21.354 52.7084 21.4653C52.9896 21.5767 53.3002 21.6323 53.64 21.6323C54.1263 21.6323 54.5453 21.5269 54.8969 21.3159C55.2543 21.0991 55.4945 20.8032 55.6176 20.4282H57.9818ZM59.4408 13.7046H61.9193V15.436H61.972C62.1361 14.8325 62.4174 14.3755 62.8158 14.0649C63.2142 13.7485 63.7006 13.5903 64.2748 13.5903C64.4037 13.5903 64.5326 13.5991 64.6615 13.6167C64.7904 13.6343 64.9017 13.6577 64.9955 13.687V15.9634C64.89 15.9165 64.7494 15.8784 64.5736 15.8491C64.3978 15.8198 64.2308 15.8052 64.0726 15.8052C63.4164 15.8052 62.9066 15.9956 62.5433 16.3765C62.1859 16.7573 62.0072 17.2876 62.0072 17.9673V23.3813H59.4408V13.7046ZM67.351 26.9146C67.3275 26.9146 67.266 26.9116 67.1664 26.9058C67.0726 26.9058 66.9701 26.9028 66.8588 26.897C66.7533 26.897 66.6508 26.894 66.5511 26.8882C66.4574 26.8882 66.3988 26.8853 66.3754 26.8794V24.8931C66.3988 24.8989 66.4369 24.9019 66.4896 24.9019C66.5424 24.9077 66.598 24.9106 66.6566 24.9106C66.7211 24.9165 66.7797 24.9194 66.8324 24.9194C66.8851 24.9194 66.9261 24.9194 66.9554 24.9194C67.4359 24.9194 67.8168 24.8315 68.098 24.6558C68.3793 24.48 68.5697 24.1987 68.6693 23.812L68.7572 23.4429L65.3646 13.7046H68.1771L70.2689 21.2983H70.3217L72.4222 13.7046H75.1293L71.7806 23.5747C71.5756 24.1899 71.3412 24.7085 71.0775 25.1304C70.8197 25.5581 70.515 25.9038 70.1635 26.1675C69.8119 26.4312 69.4047 26.6216 68.9418 26.7388C68.4847 26.856 67.9545 26.9146 67.351 26.9146Z" fill="#3C3370"/>
<rect x="102.406" y="2.38251" width="115.135" height="28.0648" rx="4.5" stroke="#3C3370"/>
<path d="M118.964 19.646C118.97 19.9038 119.014 20.1382 119.096 20.3491C119.178 20.5542 119.292 20.7329 119.438 20.8853C119.585 21.0317 119.761 21.146 119.966 21.228C120.171 21.3101 120.399 21.3511 120.651 21.3511C121.208 21.3511 121.63 21.1841 121.917 20.8501C122.21 20.5161 122.356 20.0298 122.356 19.3911V10.6987H125.011V19.4087C125.011 20.0825 124.911 20.6831 124.712 21.2104C124.518 21.7378 124.234 22.1831 123.859 22.5464C123.49 22.9038 123.036 23.1763 122.497 23.3638C121.964 23.5513 121.357 23.645 120.678 23.645C120.027 23.645 119.438 23.5513 118.911 23.3638C118.384 23.1704 117.933 22.9009 117.558 22.5552C117.188 22.2095 116.901 21.7905 116.696 21.2983C116.491 20.8062 116.389 20.2554 116.389 19.646H118.964ZM130.741 21.6235C131.04 21.6235 131.318 21.5796 131.576 21.4917C131.834 21.4038 132.06 21.2808 132.253 21.1226C132.446 20.9644 132.599 20.7769 132.71 20.5601C132.821 20.3374 132.877 20.0942 132.877 19.8306V19.1187L130.847 19.2593C130.308 19.2944 129.897 19.4146 129.616 19.6196C129.341 19.8247 129.203 20.106 129.203 20.4634C129.203 20.8208 129.341 21.105 129.616 21.3159C129.897 21.521 130.272 21.6235 130.741 21.6235ZM129.906 23.4956C129.437 23.4956 129.004 23.4253 128.605 23.2847C128.213 23.144 127.87 22.9478 127.577 22.6958C127.284 22.438 127.056 22.1333 126.892 21.7817C126.727 21.4243 126.645 21.0288 126.645 20.5952C126.645 19.7104 126.971 19.0249 127.621 18.5386C128.271 18.0522 129.218 17.771 130.46 17.6948L132.877 17.5454V16.9038C132.877 16.4351 132.727 16.0776 132.429 15.8315C132.13 15.5854 131.714 15.4624 131.181 15.4624C130.712 15.4624 130.325 15.5737 130.02 15.7964C129.722 16.019 129.54 16.3062 129.476 16.6577H127.129C127.146 16.1948 127.258 15.7729 127.463 15.3921C127.674 15.0112 127.961 14.6831 128.324 14.4077C128.693 14.1323 129.127 13.9185 129.625 13.7661C130.129 13.6138 130.683 13.5376 131.286 13.5376C131.907 13.5376 132.47 13.6138 132.974 13.7661C133.483 13.9185 133.917 14.1353 134.274 14.4165C134.632 14.6978 134.907 15.0376 135.101 15.436C135.3 15.8286 135.399 16.2651 135.399 16.7456V23.3813H132.921V21.8872H132.868C132.733 22.1392 132.56 22.3647 132.35 22.564C132.144 22.7632 131.913 22.9331 131.655 23.0737C131.397 23.2085 131.119 23.311 130.82 23.3813C130.521 23.4575 130.217 23.4956 129.906 23.4956ZM142.518 23.3813H139.636L136.278 13.7046H139.02L141.077 21.0874H141.13L143.178 13.7046H145.858L142.518 23.3813ZM150.27 21.6235C150.569 21.6235 150.848 21.5796 151.105 21.4917C151.363 21.4038 151.589 21.2808 151.782 21.1226C151.976 20.9644 152.128 20.7769 152.239 20.5601C152.351 20.3374 152.406 20.0942 152.406 19.8306V19.1187L150.376 19.2593C149.837 19.2944 149.427 19.4146 149.145 19.6196C148.87 19.8247 148.732 20.106 148.732 20.4634C148.732 20.8208 148.87 21.105 149.145 21.3159C149.427 21.521 149.802 21.6235 150.27 21.6235ZM149.435 23.4956C148.967 23.4956 148.533 23.4253 148.135 23.2847C147.742 23.144 147.399 22.9478 147.106 22.6958C146.813 22.438 146.585 22.1333 146.421 21.7817C146.257 21.4243 146.175 21.0288 146.175 20.5952C146.175 19.7104 146.5 19.0249 147.15 18.5386C147.801 18.0522 148.747 17.771 149.989 17.6948L152.406 17.5454V16.9038C152.406 16.4351 152.257 16.0776 151.958 15.8315C151.659 15.5854 151.243 15.4624 150.71 15.4624C150.241 15.4624 149.854 15.5737 149.55 15.7964C149.251 16.019 149.069 16.3062 149.005 16.6577H146.658C146.676 16.1948 146.787 15.7729 146.992 15.3921C147.203 15.0112 147.49 14.6831 147.853 14.4077C148.223 14.1323 148.656 13.9185 149.154 13.7661C149.658 13.6138 150.212 13.5376 150.815 13.5376C151.436 13.5376 151.999 13.6138 152.503 13.7661C153.013 13.9185 153.446 14.1353 153.804 14.4165C154.161 14.6978 154.436 15.0376 154.63 15.436C154.829 15.8286 154.929 16.2651 154.929 16.7456V23.3813H152.45V21.8872H152.397C152.263 22.1392 152.09 22.3647 151.879 22.564C151.674 22.7632 151.442 22.9331 151.185 23.0737C150.927 23.2085 150.648 23.311 150.35 23.3813C150.051 23.4575 149.746 23.4956 149.435 23.4956ZM156.493 16.5522C156.493 16.0952 156.59 15.6821 156.783 15.313C156.976 14.9438 157.249 14.6274 157.601 14.3638C157.952 14.1001 158.377 13.8979 158.875 13.7573C159.373 13.6108 159.93 13.5376 160.545 13.5376C161.143 13.5376 161.685 13.6108 162.171 13.7573C162.663 13.9038 163.085 14.1118 163.436 14.3813C163.788 14.6509 164.06 14.9731 164.254 15.3481C164.447 15.7231 164.55 16.1421 164.561 16.605H162.188C162.159 16.2183 161.995 15.9136 161.696 15.6909C161.403 15.4683 161.008 15.3569 160.51 15.3569C160.047 15.3569 159.675 15.4507 159.393 15.6382C159.112 15.8257 158.972 16.0776 158.972 16.394C158.972 16.8687 159.402 17.2056 160.264 17.4048L162.083 17.8003C162.569 17.9116 162.982 18.0435 163.322 18.1958C163.668 18.3481 163.949 18.5298 164.166 18.7407C164.389 18.9517 164.55 19.1978 164.649 19.479C164.749 19.7544 164.799 20.0708 164.799 20.4282C164.799 20.897 164.693 21.3247 164.482 21.7114C164.277 22.0923 163.987 22.4204 163.612 22.6958C163.243 22.9653 162.795 23.1763 162.268 23.3286C161.746 23.4751 161.169 23.5483 160.536 23.5483C159.897 23.5483 159.32 23.4751 158.805 23.3286C158.295 23.1821 157.855 22.9741 157.486 22.7046C157.123 22.4292 156.836 22.104 156.625 21.729C156.414 21.3481 156.291 20.9233 156.256 20.4546H158.761C158.825 20.8647 159.016 21.1812 159.332 21.4038C159.648 21.6206 160.073 21.729 160.606 21.729C161.122 21.729 161.523 21.6382 161.81 21.4565C162.103 21.269 162.25 21.0171 162.25 20.7007C162.25 20.4487 162.156 20.2495 161.969 20.103C161.787 19.9565 161.476 19.8306 161.037 19.7251L159.253 19.3208C158.339 19.1157 157.65 18.7817 157.187 18.3188C156.725 17.8501 156.493 17.2612 156.493 16.5522ZM172.489 17.2729C172.454 17.021 172.384 16.7925 172.278 16.5874C172.179 16.3765 172.044 16.1948 171.874 16.0425C171.71 15.8901 171.514 15.7729 171.285 15.6909C171.062 15.603 170.81 15.5591 170.529 15.5591C170.201 15.5591 169.902 15.6294 169.633 15.77C169.369 15.9048 169.143 16.1011 168.956 16.3589C168.768 16.6108 168.625 16.9214 168.525 17.2905C168.426 17.6597 168.376 18.0757 168.376 18.5386C168.376 19.0132 168.426 19.4351 168.525 19.8042C168.625 20.1733 168.768 20.4868 168.956 20.7446C169.143 20.9966 169.369 21.1899 169.633 21.3247C169.902 21.4536 170.204 21.5181 170.538 21.5181C171.083 21.5181 171.525 21.3774 171.865 21.0962C172.205 20.8091 172.416 20.3989 172.498 19.8657H174.889C174.853 20.4282 174.725 20.938 174.502 21.395C174.279 21.8462 173.977 22.2329 173.597 22.5552C173.216 22.8716 172.765 23.1177 172.243 23.2935C171.722 23.4634 171.144 23.5483 170.512 23.5483C169.791 23.5483 169.138 23.4341 168.552 23.2056C167.966 22.9712 167.468 22.6401 167.058 22.2124C166.647 21.7788 166.331 21.2544 166.108 20.6392C165.886 20.0181 165.774 19.3179 165.774 18.5386C165.774 17.771 165.886 17.0796 166.108 16.4644C166.331 15.8491 166.647 15.3247 167.058 14.8911C167.468 14.4575 167.963 14.1235 168.543 13.8892C169.123 13.6548 169.773 13.5376 170.494 13.5376C171.144 13.5376 171.733 13.6313 172.261 13.8188C172.788 14.0063 173.239 14.2671 173.614 14.6011C173.995 14.9292 174.294 15.3218 174.511 15.7788C174.727 16.2358 174.851 16.7339 174.88 17.2729H172.489ZM176.172 13.7046H178.65V15.436H178.703C178.867 14.8325 179.148 14.3755 179.547 14.0649C179.945 13.7485 180.432 13.5903 181.006 13.5903C181.135 13.5903 181.264 13.5991 181.393 13.6167C181.521 13.6343 181.633 13.6577 181.726 13.687V15.9634C181.621 15.9165 181.48 15.8784 181.305 15.8491C181.129 15.8198 180.962 15.8052 180.804 15.8052C180.147 15.8052 179.638 15.9956 179.274 16.3765C178.917 16.7573 178.738 17.2876 178.738 17.9673V23.3813H176.172V13.7046ZM182.895 13.7046H185.462V23.3813H182.895V13.7046ZM184.179 12.6499C183.991 12.6499 183.812 12.6177 183.643 12.5532C183.478 12.4829 183.332 12.3892 183.203 12.272C183.08 12.1489 182.98 12.0054 182.904 11.8413C182.834 11.6772 182.799 11.4985 182.799 11.3052C182.799 11.1118 182.834 10.936 182.904 10.7778C182.98 10.6138 183.08 10.4731 183.203 10.356C183.332 10.2329 183.478 10.1392 183.643 10.0747C183.812 10.0044 183.991 9.96924 184.179 9.96924C184.372 9.96924 184.551 10.0044 184.715 10.0747C184.885 10.1392 185.031 10.2329 185.154 10.356C185.283 10.4731 185.383 10.6138 185.453 10.7778C185.529 10.936 185.567 11.1118 185.567 11.3052C185.567 11.4985 185.529 11.6772 185.453 11.8413C185.383 12.0054 185.283 12.1489 185.154 12.272C185.031 12.3892 184.885 12.4829 184.715 12.5532C184.551 12.6177 184.372 12.6499 184.179 12.6499ZM192.836 13.5903C193.451 13.5903 194.002 13.7046 194.488 13.9331C194.98 14.1616 195.396 14.4897 195.736 14.9175C196.082 15.3394 196.346 15.8579 196.527 16.4731C196.715 17.0825 196.809 17.771 196.809 18.5386C196.809 19.3062 196.718 19.9976 196.536 20.6128C196.354 21.2222 196.091 21.7407 195.745 22.1685C195.405 22.5962 194.992 22.9243 194.506 23.1528C194.019 23.3813 193.475 23.4956 192.871 23.4956C192.168 23.4956 191.556 23.3433 191.034 23.0386C190.518 22.7339 190.129 22.3062 189.865 21.7554H189.812V26.4224H187.246V13.7046H189.777V15.3569H189.83C189.959 15.0874 190.123 14.8442 190.322 14.6274C190.521 14.4048 190.75 14.2173 191.008 14.0649C191.271 13.9126 191.556 13.7954 191.86 13.7134C192.171 13.6313 192.496 13.5903 192.836 13.5903ZM191.983 21.4214C192.317 21.4214 192.619 21.354 192.889 21.2192C193.158 21.0845 193.387 20.8911 193.574 20.6392C193.768 20.3872 193.917 20.0854 194.022 19.7339C194.128 19.3765 194.181 18.978 194.181 18.5386C194.181 18.105 194.128 17.7124 194.022 17.3608C193.917 17.0034 193.768 16.7017 193.574 16.4556C193.387 16.2036 193.158 16.0103 192.889 15.8755C192.619 15.7349 192.317 15.6646 191.983 15.6646C191.655 15.6646 191.356 15.7349 191.087 15.8755C190.823 16.0103 190.595 16.2036 190.401 16.4556C190.214 16.7075 190.067 17.0122 189.962 17.3696C189.856 17.7212 189.804 18.1138 189.804 18.5474C189.804 18.981 189.856 19.3765 189.962 19.7339C190.067 20.0854 190.214 20.3872 190.401 20.6392C190.595 20.8911 190.823 21.0845 191.087 21.2192C191.356 21.354 191.655 21.4214 191.983 21.4214ZM201.432 11.5513V13.7046H203.225V15.647H201.432V20.3491C201.432 21.0874 201.815 21.4565 202.583 21.4565C202.7 21.4565 202.814 21.4536 202.926 21.4478C203.043 21.436 203.143 21.4243 203.225 21.4126V23.311C203.09 23.3403 202.914 23.3638 202.697 23.3813C202.486 23.4048 202.249 23.4165 201.985 23.4165C201.423 23.4165 200.945 23.3667 200.553 23.2671C200.16 23.1675 199.838 23.0122 199.586 22.8013C199.334 22.5903 199.149 22.3179 199.032 21.9839C198.921 21.6499 198.865 21.2456 198.865 20.771V15.647H197.556V13.7046H198.865V11.5513H201.432Z" fill="#3C3370"/>
<rect x="231.74" y="1.88135" width="72.2666" height="28.0648" rx="4.5" stroke="#3C3370"/>
<path d="M252.616 22.8802V17.5365H246.903V22.8802H244.248V10.1976H246.903V15.348H252.616V10.1976H255.27V22.8802H252.616ZM260.455 22.8802V12.3861H256.746V10.1976H266.828V12.3861H263.11V22.8802H260.455ZM281.725 22.8802H279.361V14.3197H279.29L275.845 22.7572H274.175L270.73 14.3197H270.66V22.8802H268.295V10.1976H271.371L274.975 19.1888H275.045L278.649 10.1976H281.725V22.8802ZM292.035 22.8802H283.834V10.1976H286.489V20.683H292.035V22.8802Z" fill="#3C3370"/>
<rect x="318.206" y="1.38019" width="64.0286" height="28.0648" rx="4.5" stroke="#3C3370"/>
<path d="M339.093 22.5988C338.167 22.5988 337.335 22.4494 336.597 22.1506C335.859 21.8517 335.229 21.4211 334.707 20.8586C334.186 20.2902 333.784 19.6017 333.503 18.7932C333.228 17.9787 333.09 17.0588 333.09 16.0334C333.09 15.0139 333.231 14.0998 333.512 13.2912C333.793 12.4767 334.195 11.7883 334.716 11.2258C335.237 10.6574 335.867 10.2238 336.606 9.92499C337.344 9.62616 338.173 9.47675 339.093 9.47675C339.855 9.47675 340.564 9.59393 341.22 9.82831C341.876 10.0568 342.45 10.382 342.943 10.8039C343.441 11.2199 343.839 11.7209 344.138 12.3068C344.437 12.8928 344.612 13.5402 344.665 14.2492H342.081C342.017 13.8625 341.897 13.5109 341.721 13.1945C341.551 12.8723 341.334 12.5998 341.07 12.3771C340.813 12.1545 340.514 11.9816 340.174 11.8586C339.84 11.7355 339.48 11.674 339.093 11.674C338.589 11.674 338.135 11.7766 337.731 11.9816C337.326 12.1808 336.981 12.4709 336.694 12.8517C336.406 13.2267 336.184 13.6838 336.026 14.2228C335.873 14.756 335.797 15.3566 335.797 16.0246C335.797 16.7043 335.873 17.3137 336.026 17.8527C336.184 18.3918 336.403 18.8517 336.685 19.2326C336.972 19.6076 337.318 19.8976 337.722 20.1027C338.132 20.3019 338.592 20.4016 339.102 20.4016C339.494 20.4016 339.858 20.3459 340.192 20.2346C340.526 20.1232 340.821 19.9621 341.079 19.7512C341.337 19.5402 341.551 19.2853 341.721 18.9865C341.897 18.6877 342.02 18.3508 342.09 17.9758H344.674C344.598 18.6848 344.41 19.3234 344.111 19.8918C343.813 20.4601 343.42 20.9465 342.934 21.3508C342.453 21.7492 341.888 22.0568 341.237 22.2736C340.587 22.4904 339.872 22.5988 339.093 22.5988ZM348.401 18.7668C348.43 19.0305 348.518 19.2678 348.664 19.4787C348.811 19.6896 348.998 19.8713 349.227 20.0236C349.461 20.176 349.731 20.2932 350.035 20.3752C350.34 20.4572 350.668 20.4982 351.02 20.4982C351.371 20.4982 351.694 20.4601 351.986 20.384C352.279 20.3019 352.531 20.1906 352.742 20.05C352.953 19.9035 353.114 19.7336 353.226 19.5402C353.343 19.341 353.402 19.1242 353.402 18.8898C353.402 18.4797 353.235 18.1486 352.901 17.8967C352.572 17.6447 352.028 17.4338 351.266 17.2639L349.613 16.9035C347.287 16.4055 346.124 15.2248 346.124 13.3615C346.124 12.7756 346.244 12.2453 346.485 11.7707C346.725 11.2902 347.059 10.8801 347.486 10.5402C347.92 10.2004 348.433 9.93964 349.025 9.758C349.616 9.5705 350.267 9.47675 350.976 9.47675C351.714 9.47675 352.379 9.56757 352.971 9.74921C353.569 9.93085 354.075 10.1887 354.491 10.5226C354.913 10.8566 355.238 11.258 355.467 11.7267C355.695 12.1955 355.816 12.717 355.827 13.2912H353.34C353.317 13.0217 353.243 12.7814 353.12 12.5705C352.997 12.3596 352.833 12.1808 352.628 12.0344C352.423 11.882 352.18 11.7678 351.899 11.6916C351.623 11.6096 351.319 11.5685 350.985 11.5685C350.656 11.5685 350.358 11.6066 350.088 11.6828C349.819 11.759 349.587 11.8644 349.394 11.9992C349.206 12.134 349.06 12.298 348.954 12.4914C348.849 12.6848 348.796 12.8986 348.796 13.133C348.796 13.5256 348.957 13.842 349.279 14.0822C349.608 14.3224 350.138 14.5246 350.87 14.6887L352.408 15.0139C353.041 15.1486 353.586 15.3215 354.043 15.5324C354.506 15.7375 354.887 15.9865 355.186 16.2795C355.485 16.5666 355.704 16.9035 355.845 17.2902C355.986 17.6711 356.056 18.1017 356.056 18.5822C356.056 19.1974 355.936 19.7541 355.695 20.2521C355.455 20.7443 355.112 21.1662 354.667 21.5178C354.222 21.8635 353.68 22.1301 353.041 22.3176C352.408 22.5051 351.699 22.5988 350.914 22.5988C350.153 22.5988 349.464 22.5109 348.849 22.3351C348.234 22.1594 347.706 21.9074 347.267 21.5793C346.827 21.2453 346.485 20.8439 346.238 20.3752C345.992 19.9006 345.861 19.3644 345.843 18.7668H348.401ZM359.774 18.7668C359.803 19.0305 359.891 19.2678 360.037 19.4787C360.184 19.6896 360.371 19.8713 360.6 20.0236C360.834 20.176 361.104 20.2932 361.408 20.3752C361.713 20.4572 362.041 20.4982 362.393 20.4982C362.744 20.4982 363.067 20.4601 363.36 20.384C363.653 20.3019 363.904 20.1906 364.115 20.05C364.326 19.9035 364.487 19.7336 364.599 19.5402C364.716 19.341 364.775 19.1242 364.775 18.8898C364.775 18.4797 364.608 18.1486 364.274 17.8967C363.945 17.6447 363.401 17.4338 362.639 17.2639L360.986 16.9035C358.66 16.4055 357.497 15.2248 357.497 13.3615C357.497 12.7756 357.617 12.2453 357.858 11.7707C358.098 11.2902 358.432 10.8801 358.86 10.5402C359.293 10.2004 359.806 9.93964 360.398 9.758C360.989 9.5705 361.64 9.47675 362.349 9.47675C363.087 9.47675 363.752 9.56757 364.344 9.74921C364.942 9.93085 365.448 10.1887 365.864 10.5226C366.286 10.8566 366.611 11.258 366.84 11.7267C367.069 12.1955 367.189 12.717 367.2 13.2912H364.713C364.69 13.0217 364.616 12.7814 364.493 12.5705C364.37 12.3596 364.206 12.1808 364.001 12.0344C363.796 11.882 363.553 11.7678 363.272 11.6916C362.996 11.6096 362.692 11.5685 362.358 11.5685C362.029 11.5685 361.731 11.6066 361.461 11.6828C361.192 11.759 360.96 11.8644 360.767 11.9992C360.579 12.134 360.433 12.298 360.327 12.4914C360.222 12.6848 360.169 12.8986 360.169 13.133C360.169 13.5256 360.33 13.842 360.653 14.0822C360.981 14.3224 361.511 14.5246 362.243 14.6887L363.781 15.0139C364.414 15.1486 364.959 15.3215 365.416 15.5324C365.879 15.7375 366.26 15.9865 366.559 16.2795C366.858 16.5666 367.077 16.9035 367.218 17.2902C367.359 17.6711 367.429 18.1017 367.429 18.5822C367.429 19.1974 367.309 19.7541 367.069 20.2521C366.828 20.7443 366.486 21.1662 366.04 21.5178C365.595 21.8635 365.053 22.1301 364.414 22.3176C363.781 22.5051 363.072 22.5988 362.287 22.5988C361.526 22.5988 360.837 22.5109 360.222 22.3351C359.607 22.1594 359.079 21.9074 358.64 21.5793C358.2 21.2453 357.858 20.8439 357.611 20.3752C357.365 19.9006 357.234 19.3644 357.216 18.7668H359.774Z" fill="#3C3370"/>
</svg>
