<svg width="160" height="24" viewBox="0 0 160 24" fill="none" xmlns="http://www.w3.org/2000/svg">
<path d="M9.124 15.8328C11.884 15.8328 13.3 13.8408 13.3 13.8408L12.388 12.7848C12.388 12.7848 11.404 14.3928 9.124 14.3928H6.964V6.23276H4.324V7.55276H5.524V18.9528C5.524 20.4648 5.188 21.5928 3.964 21.5928C2.74 21.5928 2.404 20.4648 2.404 18.9528H0.964C0.964 21.2808 1.588 23.0328 3.964 23.0328C6.34 23.0328 6.964 21.2808 6.964 18.9528V15.8328H9.124ZM4.924 2.63276C4.924 3.30476 5.452 3.83276 6.124 3.83276C6.796 3.83276 7.324 3.30476 7.324 2.63276C7.324 1.96076 6.796 1.43276 6.124 1.43276C5.452 1.43276 4.924 1.96076 4.924 2.63276ZM20.0584 11.0328C20.0584 12.8808 18.5464 14.3928 16.6984 14.3928C14.8504 14.3928 13.3384 12.8808 13.3384 11.0328V6.23276H11.8984V11.0328C11.8984 13.6728 14.0584 15.8328 16.6984 15.8328H21.9304C24.6904 15.8328 26.1064 13.8408 26.1064 13.8408L25.1944 12.7848C25.1944 12.7848 24.2104 14.3928 21.9304 14.3928H20.1064C20.9704 13.5288 21.4984 12.3528 21.4984 11.0328V6.23276H20.0584V11.0328ZM24.7656 11.0328C24.7656 13.6728 26.9256 15.8328 29.5656 15.8328C32.3256 15.8328 33.7416 13.8408 33.7416 13.8408L32.8296 12.7848C32.8296 12.7848 31.8456 14.3928 29.5656 14.3928C27.7176 14.3928 26.2056 12.8808 26.2056 11.0328V0.232763H24.7656V11.0328ZM31.8766 2.63276C31.8766 3.30476 32.4046 3.83276 33.0766 3.83276C33.7486 3.83276 34.2766 3.30476 34.2766 2.63276C34.2766 1.96076 33.7486 1.43276 33.0766 1.43276C32.4046 1.43276 31.8766 1.96076 31.8766 2.63276ZM32.4766 11.0328C32.4766 13.6728 34.6366 15.8328 37.2766 15.8328C40.0366 15.8328 41.4526 13.8408 41.4526 13.8408L40.5406 12.7848C40.5406 12.7848 39.5566 14.3928 37.2766 14.3928C35.4286 14.3928 33.9166 12.8808 33.9166 11.0328V6.23276H32.4766V11.0328ZM40.4063 12.8568C41.1503 15.1848 43.4303 15.8328 44.8703 15.8328H50.3903C53.1503 15.8328 54.5663 13.8408 54.5663 13.8408L53.6543 12.7848C53.6543 12.7848 52.6703 14.3928 50.3903 14.3928H48.2783C49.1423 13.5288 49.6703 12.3528 49.6703 11.0328C49.6703 8.89676 48.1583 7.04876 45.9743 6.23276L40.4063 12.8568ZM44.9183 14.3928C43.7423 14.3928 42.4943 13.7448 42.1103 12.9768L46.3823 8.03276C47.4623 8.58476 48.2303 9.73676 48.2303 11.0328C48.2303 12.8328 46.7903 14.3208 44.9183 14.3928ZM53.5782 12.8568C54.3222 15.1848 56.6022 15.8328 58.0422 15.8328H63.5622C66.3222 15.8328 67.7382 13.8408 67.7382 13.8408L66.8262 12.7848C66.8262 12.7848 65.8422 14.3928 63.5622 14.3928H61.4502C62.3142 13.5288 62.8422 12.3528 62.8422 11.0328C62.8422 8.89676 61.3302 7.04876 59.1462 6.23276L53.5782 12.8568ZM58.0902 14.3928C56.9142 14.3928 55.6662 13.7448 55.2822 12.9768L59.5542 8.03276C60.6342 8.58476 61.4022 9.73676 61.4022 11.0328C61.4022 12.8328 59.9622 14.3208 58.0902 14.3928ZM74.5741 15.8328H77.9581C80.6941 15.8328 82.1101 13.8408 82.1101 13.8408L81.1981 12.7848C81.1981 12.7848 80.2141 14.3928 77.9581 14.3928H76.0141V6.23276H74.5741V7.60076C73.7101 6.76076 72.5101 6.23276 71.2141 6.23276C68.5741 6.23276 66.4141 8.39276 66.4141 11.0328C66.4141 13.6728 68.5741 15.8328 71.2141 15.8328C72.5101 15.8328 74.4061 14.8248 74.5741 14.4648V15.8328ZM67.8541 11.0328C67.8541 9.18476 69.3661 7.67276 71.2141 7.67276C73.0621 7.67276 74.5741 9.18476 74.5741 11.0328C74.5741 12.8808 73.0621 14.3928 71.2141 14.3928C69.3661 14.3928 67.8541 12.8808 67.8541 11.0328ZM84.4047 14.6328C84.4047 15.3048 84.9327 15.8328 85.6047 15.8328C86.2767 15.8328 86.8047 15.3048 86.8047 14.6328C86.8047 13.9608 86.2767 13.4328 85.6047 13.4328C84.9327 13.4328 84.4047 13.9608 84.4047 14.6328ZM102.137 15.8328H105.521C108.257 15.8328 109.673 13.8408 109.673 13.8408L108.761 12.7848C108.761 12.7848 107.777 14.3928 105.521 14.3928H103.577V6.23276H102.137V7.60076C101.273 6.76076 100.073 6.23276 98.7766 6.23276C96.1366 6.23276 93.9766 8.39276 93.9766 11.0328C93.9766 13.6728 96.1366 15.8328 98.7766 15.8328C100.073 15.8328 101.969 14.8248 102.137 14.4648V15.8328ZM95.4166 11.0328C95.4166 9.18476 96.9286 7.67276 98.7766 7.67276C100.625 7.67276 102.137 9.18476 102.137 11.0328C102.137 12.8808 100.625 14.3928 98.7766 14.3928C96.9286 14.3928 95.4166 12.8808 95.4166 11.0328ZM108.367 19.1928C108.367 21.8328 110.527 23.9928 113.167 23.9928C115.807 23.9928 117.967 21.8328 117.967 19.1928C117.967 17.8968 117.439 16.6968 116.599 15.8328H118.687C121.447 15.8328 122.863 13.8408 122.863 13.8408L121.951 12.7848C121.951 12.7848 120.967 14.3928 118.687 14.3928H116.575C117.439 13.5288 117.967 12.3528 117.967 11.0328V6.23276H116.527V11.0328C116.527 12.8808 115.015 14.3928 113.167 14.3928C111.319 14.3928 109.807 12.8808 109.807 11.0328V6.23276H108.367V11.0328C108.367 12.7608 109.279 14.2728 110.647 15.1128C109.279 15.9528 108.367 17.4648 108.367 19.1928ZM109.807 19.1928C109.807 17.3448 111.319 15.8328 113.167 15.8328H113.287C115.087 15.9048 116.527 17.3928 116.527 19.1928C116.527 21.0408 115.015 22.5528 113.167 22.5528C111.319 22.5528 109.807 21.0408 109.807 19.1928ZM129.699 15.8328H133.083C135.819 15.8328 137.235 13.8408 137.235 13.8408L136.323 12.7848C136.323 12.7848 135.339 14.3928 133.083 14.3928H131.139V6.23276H129.699V7.60076C128.835 6.76076 127.635 6.23276 126.339 6.23276C123.699 6.23276 121.539 8.39276 121.539 11.0328C121.539 13.6728 123.699 15.8328 126.339 15.8328C127.635 15.8328 129.531 14.8248 129.699 14.4648V15.8328ZM122.979 11.0328C122.979 9.18476 124.491 7.67276 126.339 7.67276C128.187 7.67276 129.699 9.18476 129.699 11.0328C129.699 12.8808 128.187 14.3928 126.339 14.3928C124.491 14.3928 122.979 12.8808 122.979 11.0328ZM135.93 11.0328C135.93 13.6728 138.09 15.8328 140.73 15.8328C143.49 15.8328 144.906 13.8408 144.906 13.8408L143.994 12.7848C143.994 12.7848 143.01 14.3928 140.73 14.3928C138.882 14.3928 137.37 12.8808 137.37 11.0328V0.232763H135.93V11.0328ZM151.801 15.8328H155.185C157.921 15.8328 159.337 13.8408 159.337 13.8408L158.425 12.7848C158.425 12.7848 157.441 14.3928 155.185 14.3928H153.241V6.23276H151.801V7.60076C150.937 6.76076 149.737 6.23276 148.441 6.23276C145.801 6.23276 143.641 8.39276 143.641 11.0328C143.641 13.6728 145.801 15.8328 148.441 15.8328C149.737 15.8328 151.633 14.8248 151.801 14.4648V15.8328ZM145.081 11.0328C145.081 9.18476 146.593 7.67276 148.441 7.67276C150.289 7.67276 151.801 9.18476 151.801 11.0328C151.801 12.8808 150.289 14.3928 148.441 14.3928C146.593 14.3928 145.081 12.8808 145.081 11.0328Z" fill="black"/>
</svg>
