<svg width="238" height="29" viewBox="0 0 238 29" fill="none" xmlns="http://www.w3.org/2000/svg">
<path d="M13.8311 21L16.1162 12.4219H16.2041L18.4805 21H20.5195L23.71 9.00293H21.2842L19.4121 17.8799H19.2979L17.1357 9.00293H15.1846L13.0137 17.8799H12.9082L11.0273 9.00293H8.60156L11.8008 21H13.8311ZM28.7021 21.1582C29.3467 21.1582 29.9062 21.0703 30.3809 20.8945C30.8555 20.7188 31.2451 20.4932 31.5498 20.2178C31.8604 19.9365 32.0977 19.6377 32.2617 19.3213C32.4258 19.0049 32.5195 18.7061 32.543 18.4248H30.46C30.4248 18.6123 30.3281 18.7881 30.1699 18.9521C30.0117 19.1104 29.8066 19.2363 29.5547 19.3301C29.3027 19.4238 29.0127 19.4707 28.6846 19.4707C28.0518 19.4707 27.5508 19.2656 27.1816 18.8555C26.8184 18.4395 26.6367 17.915 26.6367 17.2822V16.834H32.6396V15.7617C32.6396 14.8887 32.4668 14.1357 32.1211 13.5029C31.7754 12.8701 31.2979 12.3838 30.6885 12.0439C30.0791 11.6982 29.376 11.5254 28.5791 11.5254C27.8115 11.5254 27.1201 11.6895 26.5049 12.0176C25.8896 12.3457 25.4004 12.8262 25.0371 13.459C24.6797 14.0859 24.501 14.8535 24.501 15.7617V16.9219C24.501 17.8184 24.6709 18.583 25.0107 19.2158C25.3564 19.8486 25.8428 20.332 26.4697 20.666C27.1025 20.9941 27.8467 21.1582 28.7021 21.1582ZM26.6367 15.4893C26.6367 15.4658 26.6367 15.4482 26.6367 15.4365C26.6367 15.4189 26.6367 15.3984 26.6367 15.375C26.6367 14.9355 26.7188 14.5518 26.8828 14.2236C27.0469 13.8955 27.2754 13.6406 27.5684 13.459C27.8613 13.2773 28.2012 13.1865 28.5879 13.1865C28.9805 13.1865 29.3203 13.2773 29.6074 13.459C29.9004 13.6406 30.126 13.8955 30.2842 14.2236C30.4482 14.5518 30.5303 14.9355 30.5303 15.375C30.5303 15.3984 30.5303 15.4189 30.5303 15.4365C30.5303 15.4482 30.5303 15.4658 30.5303 15.4893H26.6367ZM39.873 21.123C40.6055 21.123 41.2354 20.959 41.7627 20.6309C42.29 20.2969 42.6943 19.8223 42.9756 19.207C43.2568 18.5918 43.3975 17.8564 43.3975 17.001V15.6738C43.3975 14.8184 43.2568 14.0859 42.9756 13.4766C42.7002 12.8613 42.3018 12.3896 41.7803 12.0615C41.2588 11.7275 40.6348 11.5605 39.9082 11.5605C39.5742 11.5605 39.2607 11.5986 38.9678 11.6748C38.6748 11.751 38.4082 11.8594 38.168 12C37.9336 12.1406 37.7344 12.3105 37.5703 12.5098C37.4062 12.7031 37.2861 12.9199 37.21 13.1602H37.1045V8.37012H34.9336V21H37.0605V19.585H37.166C37.2949 19.9014 37.4883 20.1768 37.7461 20.4111C38.0098 20.6396 38.3203 20.8154 38.6777 20.9385C39.041 21.0615 39.4395 21.123 39.873 21.123ZM39.1963 19.3828C38.7861 19.3828 38.4229 19.2832 38.1064 19.084C37.79 18.8848 37.5439 18.6094 37.3682 18.2578C37.1924 17.9004 37.1045 17.4902 37.1045 17.0273V15.7969C37.1045 15.2812 37.1865 14.8389 37.3506 14.4697C37.5205 14.1006 37.7607 13.8164 38.0713 13.6172C38.3818 13.418 38.748 13.3184 39.1699 13.3184C39.5977 13.3184 39.9609 13.4209 40.2598 13.626C40.5586 13.8311 40.7871 14.1299 40.9453 14.5225C41.1035 14.9092 41.1826 15.3809 41.1826 15.9375V16.7812C41.1826 17.332 41.1035 17.8008 40.9453 18.1875C40.793 18.5742 40.5674 18.8701 40.2686 19.0752C39.9756 19.2803 39.6182 19.3828 39.1963 19.3828ZM50.8154 17.0449V15.1113H45.2783V17.0449H50.8154ZM58.0664 21.123C58.7988 21.123 59.4287 20.959 59.9561 20.6309C60.4834 20.2969 60.8877 19.8223 61.1689 19.207C61.4502 18.5918 61.5908 17.8564 61.5908 17.001V15.6738C61.5908 14.8184 61.4502 14.0859 61.1689 13.4766C60.8936 12.8613 60.4951 12.3896 59.9736 12.0615C59.4521 11.7275 58.8281 11.5605 58.1016 11.5605C57.7676 11.5605 57.4541 11.5986 57.1611 11.6748C56.8682 11.751 56.6016 11.8594 56.3613 12C56.127 12.1406 55.9277 12.3105 55.7637 12.5098C55.5996 12.7031 55.4795 12.9199 55.4033 13.1602H55.2979V8.37012H53.127V21H55.2539V19.585H55.3594C55.4883 19.9014 55.6816 20.1768 55.9395 20.4111C56.2031 20.6396 56.5137 20.8154 56.8711 20.9385C57.2344 21.0615 57.6328 21.123 58.0664 21.123ZM57.3896 19.3828C56.9795 19.3828 56.6162 19.2832 56.2998 19.084C55.9834 18.8848 55.7373 18.6094 55.5615 18.2578C55.3857 17.9004 55.2979 17.4902 55.2979 17.0273V15.7969C55.2979 15.2812 55.3799 14.8389 55.5439 14.4697C55.7139 14.1006 55.9541 13.8164 56.2646 13.6172C56.5752 13.418 56.9414 13.3184 57.3633 13.3184C57.791 13.3184 58.1543 13.4209 58.4531 13.626C58.752 13.8311 58.9805 14.1299 59.1387 14.5225C59.2969 14.9092 59.376 15.3809 59.376 15.9375V16.7812C59.376 17.332 59.2969 17.8008 59.1387 18.1875C58.9863 18.5742 58.7607 18.8701 58.4619 19.0752C58.1689 19.2803 57.8115 19.3828 57.3896 19.3828ZM66.4688 21.1406C66.9316 21.1406 67.3301 21.0791 67.6641 20.9561C67.998 20.8271 68.2764 20.6631 68.499 20.4639C68.7217 20.2588 68.8975 20.0391 69.0264 19.8047H69.1318V21H71.1797V14.7246C71.1797 13.9395 71.0098 13.3154 70.6699 12.8525C70.3359 12.3896 69.8848 12.0557 69.3164 11.8506C68.7539 11.6455 68.1299 11.543 67.4443 11.543C66.835 11.543 66.3018 11.6104 65.8447 11.7451C65.3936 11.8799 65.0186 12.0703 64.7197 12.3164C64.4209 12.5625 64.1924 12.8496 64.0342 13.1777C63.876 13.5 63.7852 13.8545 63.7617 14.2412H65.8184C65.8652 14.042 65.9473 13.8662 66.0645 13.7139C66.1875 13.5615 66.3574 13.4414 66.5742 13.3535C66.791 13.2656 67.0635 13.2217 67.3916 13.2217C67.8896 13.2217 68.2852 13.3418 68.5781 13.582C68.877 13.8223 69.0264 14.1885 69.0264 14.6807V15.5332H66.7236C65.6455 15.5332 64.8252 15.7852 64.2627 16.2891C63.7002 16.793 63.4189 17.4609 63.4189 18.293C63.4189 19.1719 63.7002 19.8662 64.2627 20.376C64.8311 20.8857 65.5664 21.1406 66.4688 21.1406ZM67.1631 19.5146C66.7529 19.5146 66.3867 19.4062 66.0645 19.1895C65.7422 18.9668 65.5811 18.627 65.5811 18.1699C65.5811 17.7949 65.707 17.4902 65.959 17.2559C66.2109 17.0156 66.6035 16.8955 67.1367 16.8955H69.0264V17.8711C69.0264 18.1875 68.9414 18.4688 68.7715 18.7148C68.6074 18.9609 68.3848 19.1572 68.1035 19.3037C67.8223 19.4443 67.5088 19.5146 67.1631 19.5146ZM73.4824 14.417C73.4824 15.0264 73.6201 15.5068 73.8955 15.8584C74.1709 16.21 74.54 16.4795 75.0029 16.667C75.4658 16.8486 75.9756 16.9951 76.5322 17.1064C76.9482 17.1826 77.3291 17.2646 77.6748 17.3525C78.0264 17.4346 78.3105 17.5547 78.5273 17.7129C78.7441 17.8652 78.8525 18.0967 78.8525 18.4072C78.8525 18.6299 78.791 18.835 78.668 19.0225C78.5508 19.21 78.3662 19.3594 78.1143 19.4707C77.8623 19.5762 77.5342 19.6289 77.1299 19.6289C76.7607 19.6289 76.4531 19.582 76.207 19.4883C75.9668 19.3887 75.7822 19.251 75.6533 19.0752C75.5244 18.8994 75.4424 18.6943 75.4072 18.46H73.3066C73.3066 19.0107 73.4561 19.4883 73.7549 19.8926C74.0537 20.2969 74.4814 20.6104 75.0381 20.833C75.5947 21.0498 76.2568 21.1582 77.0244 21.1582C77.8389 21.1582 78.5391 21.041 79.125 20.8066C79.7109 20.5664 80.1621 20.2236 80.4785 19.7783C80.7949 19.3271 80.9531 18.7852 80.9531 18.1523C80.9531 17.5723 80.8213 17.1094 80.5576 16.7637C80.2998 16.418 79.9424 16.1514 79.4854 15.9639C79.0342 15.7705 78.5186 15.627 77.9385 15.5332C77.6865 15.4922 77.4199 15.4482 77.1387 15.4014C76.8633 15.3486 76.6055 15.2783 76.3652 15.1904C76.125 15.1025 75.9287 14.9854 75.7764 14.8389C75.6299 14.6865 75.5566 14.4844 75.5566 14.2324C75.5566 13.8691 75.6973 13.582 75.9785 13.3711C76.2656 13.1602 76.6465 13.0547 77.1211 13.0547C77.4785 13.0547 77.7715 13.1133 78 13.2305C78.2344 13.3418 78.4131 13.4883 78.5361 13.6699C78.6592 13.8457 78.7295 14.0303 78.7471 14.2236H80.6807C80.6807 13.6553 80.5312 13.1719 80.2324 12.7734C79.9395 12.3691 79.5293 12.0615 79.002 11.8506C78.4746 11.6338 77.8652 11.5254 77.1738 11.5254C76.5293 11.5254 75.9258 11.625 75.3633 11.8242C74.8008 12.0176 74.3467 12.3281 74.001 12.7559C73.6553 13.1777 73.4824 13.7314 73.4824 14.417ZM86.9561 21.1582C87.6006 21.1582 88.1602 21.0703 88.6348 20.8945C89.1094 20.7188 89.499 20.4932 89.8037 20.2178C90.1143 19.9365 90.3516 19.6377 90.5156 19.3213C90.6797 19.0049 90.7734 18.7061 90.7969 18.4248H88.7139C88.6787 18.6123 88.582 18.7881 88.4238 18.9521C88.2656 19.1104 88.0605 19.2363 87.8086 19.3301C87.5566 19.4238 87.2666 19.4707 86.9385 19.4707C86.3057 19.4707 85.8047 19.2656 85.4355 18.8555C85.0723 18.4395 84.8906 17.915 84.8906 17.2822V16.834H90.8936V15.7617C90.8936 14.8887 90.7207 14.1357 90.375 13.5029C90.0293 12.8701 89.5518 12.3838 88.9424 12.0439C88.333 11.6982 87.6299 11.5254 86.833 11.5254C86.0654 11.5254 85.374 11.6895 84.7588 12.0176C84.1436 12.3457 83.6543 12.8262 83.291 13.459C82.9336 14.0859 82.7549 14.8535 82.7549 15.7617V16.9219C82.7549 17.8184 82.9248 18.583 83.2646 19.2158C83.6104 19.8486 84.0967 20.332 84.7236 20.666C85.3564 20.9941 86.1006 21.1582 86.9561 21.1582ZM84.8906 15.4893C84.8906 15.4658 84.8906 15.4482 84.8906 15.4365C84.8906 15.4189 84.8906 15.3984 84.8906 15.375C84.8906 14.9355 84.9727 14.5518 85.1367 14.2236C85.3008 13.8955 85.5293 13.6406 85.8223 13.459C86.1152 13.2773 86.4551 13.1865 86.8418 13.1865C87.2344 13.1865 87.5742 13.2773 87.8613 13.459C88.1543 13.6406 88.3799 13.8955 88.5381 14.2236C88.7021 14.5518 88.7842 14.9355 88.7842 15.375C88.7842 15.3984 88.7842 15.4189 88.7842 15.4365C88.7842 15.4482 88.7842 15.4658 88.7842 15.4893H84.8906ZM96.2725 11.5605C95.5635 11.5605 94.9453 11.7246 94.418 12.0527C93.8906 12.375 93.4775 12.8379 93.1787 13.4414C92.8857 14.0391 92.7393 14.7598 92.7393 15.6035V17.0801C92.7393 17.9121 92.8828 18.6328 93.1699 19.2422C93.4629 19.8457 93.8701 20.3086 94.3916 20.6309C94.9189 20.9531 95.5371 21.1143 96.2461 21.1143C96.5801 21.1143 96.8965 21.0762 97.1953 21C97.4941 20.9238 97.7637 20.8154 98.0039 20.6748C98.25 20.5283 98.4551 20.3584 98.6191 20.165C98.7891 19.9658 98.9092 19.749 98.9795 19.5146H99.085V21H101.212V8.37012H99.041V13.0986H98.9355C98.8184 12.7822 98.6309 12.5098 98.373 12.2812C98.1211 12.0527 97.8164 11.877 97.459 11.7539C97.1016 11.625 96.7061 11.5605 96.2725 11.5605ZM96.9492 13.3184C97.3535 13.3184 97.7109 13.415 98.0215 13.6084C98.3379 13.7959 98.5869 14.0625 98.7686 14.4082C98.9502 14.7539 99.041 15.1641 99.041 15.6387V16.9219C99.041 17.4316 98.9561 17.8711 98.7861 18.2402C98.6162 18.6035 98.376 18.8848 98.0654 19.084C97.7607 19.2773 97.4004 19.374 96.9844 19.374C96.5684 19.374 96.208 19.2744 95.9033 19.0752C95.6045 18.876 95.373 18.5859 95.209 18.2051C95.0449 17.8242 94.9629 17.3613 94.9629 16.8164V15.8584C94.9629 15.3193 95.042 14.8623 95.2002 14.4873C95.3643 14.1064 95.5957 13.8164 95.8945 13.6172C96.1934 13.418 96.5449 13.3184 96.9492 13.3184Z" fill="#37A0DE"/>
<rect x="0.5" y="0.5" width="110" height="28" rx="4.5" stroke="#37A0DE"/>
<path d="M134.831 21L135.815 17.8184H139.902L140.896 21H143.251L139.199 9.00293H136.642L132.572 21H134.831ZM137.916 11.209L139.445 16.1484H136.29L137.819 11.209H137.916ZM147.259 21V9.00293H145.035V21H147.259Z" fill="#37A0DE"/>
<rect x="124.5" y="0.5" width="32" height="28" rx="4.5" stroke="#37A0DE"/>
<path d="M181.931 21V16.1484H186.8V14.3379H181.931V10.8574H187.257V9.00293H179.707V21H181.931ZM189.489 21H191.651V11.6924H189.489V21ZM189.182 8.91504C189.182 9.28418 189.311 9.58301 189.568 9.81152C189.826 10.04 190.157 10.1543 190.562 10.1543C190.978 10.1543 191.314 10.04 191.572 9.81152C191.83 9.58301 191.959 9.28418 191.959 8.91504C191.959 8.5459 191.827 8.24707 191.563 8.01855C191.306 7.78418 190.972 7.66699 190.562 7.66699C190.151 7.66699 189.817 7.78418 189.56 8.01855C189.308 8.24707 189.182 8.5459 189.182 8.91504ZM198.243 22.7666C197.897 22.7666 197.593 22.7197 197.329 22.626C197.065 22.5381 196.854 22.415 196.696 22.2568C196.538 22.1045 196.438 21.9287 196.397 21.7295H194.271C194.306 22.1982 194.467 22.6348 194.754 23.0391C195.041 23.4492 195.466 23.7803 196.028 24.0322C196.597 24.2842 197.314 24.4102 198.182 24.4102C198.756 24.4102 199.304 24.3428 199.825 24.208C200.347 24.0791 200.807 23.8711 201.205 23.584C201.609 23.3027 201.929 22.9307 202.163 22.4678C202.397 22.0107 202.515 21.4541 202.515 20.7979V11.6924H200.396V13.1162H200.291C200.191 12.8408 200.019 12.5859 199.772 12.3516C199.526 12.1172 199.222 11.9268 198.858 11.7803C198.495 11.6338 198.085 11.5605 197.628 11.5605C196.948 11.5605 196.339 11.7217 195.8 12.0439C195.267 12.3604 194.845 12.8232 194.534 13.4326C194.229 14.042 194.077 14.7832 194.077 15.6562V16.7461C194.077 17.6133 194.229 18.3516 194.534 18.9609C194.845 19.5703 195.267 20.0332 195.8 20.3496C196.339 20.666 196.951 20.8242 197.637 20.8242C197.965 20.8242 198.267 20.7891 198.542 20.7188C198.823 20.6426 199.075 20.5371 199.298 20.4023C199.521 20.2676 199.711 20.1123 199.869 19.9365C200.027 19.7607 200.15 19.5703 200.238 19.3652H200.353V20.6924C200.353 21.3486 200.177 21.8584 199.825 22.2217C199.479 22.585 198.952 22.7666 198.243 22.7666ZM198.366 13.3184C198.782 13.3184 199.137 13.4238 199.43 13.6348C199.723 13.8457 199.948 14.1299 200.106 14.4873C200.271 14.8447 200.353 15.2461 200.353 15.6914V16.8252C200.353 17.2588 200.273 17.6543 200.115 18.0117C199.963 18.3633 199.74 18.6445 199.447 18.8555C199.154 19.0664 198.8 19.1719 198.384 19.1719C197.974 19.1719 197.61 19.0693 197.294 18.8643C196.978 18.6533 196.731 18.3574 196.556 17.9766C196.38 17.5957 196.292 17.1445 196.292 16.623V15.8672C196.292 15.3457 196.377 14.8945 196.547 14.5137C196.717 14.127 196.957 13.8311 197.268 13.626C197.578 13.4209 197.944 13.3184 198.366 13.3184ZM205.248 21H207.41V15.2783C207.41 14.8682 207.483 14.5195 207.63 14.2324C207.782 13.9453 207.987 13.7256 208.245 13.5732C208.509 13.4209 208.805 13.3447 209.133 13.3447C209.461 13.3447 209.751 13.415 210.003 13.5557C210.261 13.6963 210.46 13.9043 210.601 14.1797C210.747 14.4492 210.82 14.7861 210.82 15.1904V21H212.921V15.2959C212.921 14.8857 212.997 14.5371 213.149 14.25C213.308 13.9629 213.519 13.7402 213.782 13.582C214.046 13.4238 214.342 13.3447 214.67 13.3447C215.01 13.3447 215.303 13.415 215.549 13.5557C215.801 13.6904 215.994 13.8926 216.129 14.1621C216.27 14.4258 216.34 14.7539 216.34 15.1465V21H218.502V14.4873C218.502 13.5732 218.235 12.8555 217.702 12.334C217.175 11.8066 216.437 11.543 215.487 11.543C214.96 11.543 214.506 11.6309 214.125 11.8066C213.744 11.9766 213.434 12.1963 213.193 12.4658C212.953 12.7295 212.777 13.0049 212.666 13.292H212.578C212.484 12.958 212.323 12.6592 212.095 12.3955C211.872 12.1318 211.588 11.9238 211.242 11.7715C210.896 11.6191 210.486 11.543 210.012 11.543C209.449 11.543 208.995 11.6367 208.649 11.8242C208.304 12.0059 208.04 12.2256 207.858 12.4834C207.677 12.7412 207.548 12.9844 207.472 13.2129H207.366V11.6924H205.248V21ZM223.749 21.1406C224.212 21.1406 224.61 21.0791 224.944 20.9561C225.278 20.8271 225.557 20.6631 225.779 20.4639C226.002 20.2588 226.178 20.0391 226.307 19.8047H226.412V21H228.46V14.7246C228.46 13.9395 228.29 13.3154 227.95 12.8525C227.616 12.3896 227.165 12.0557 226.597 11.8506C226.034 11.6455 225.41 11.543 224.725 11.543C224.115 11.543 223.582 11.6104 223.125 11.7451C222.674 11.8799 222.299 12.0703 222 12.3164C221.701 12.5625 221.473 12.8496 221.314 13.1777C221.156 13.5 221.065 13.8545 221.042 14.2412H223.099C223.146 14.042 223.228 13.8662 223.345 13.7139C223.468 13.5615 223.638 13.4414 223.854 13.3535C224.071 13.2656 224.344 13.2217 224.672 13.2217C225.17 13.2217 225.565 13.3418 225.858 13.582C226.157 13.8223 226.307 14.1885 226.307 14.6807V15.5332H224.004C222.926 15.5332 222.105 15.7852 221.543 16.2891C220.98 16.793 220.699 17.4609 220.699 18.293C220.699 19.1719 220.98 19.8662 221.543 20.376C222.111 20.8857 222.847 21.1406 223.749 21.1406ZM224.443 19.5146C224.033 19.5146 223.667 19.4062 223.345 19.1895C223.022 18.9668 222.861 18.627 222.861 18.1699C222.861 17.7949 222.987 17.4902 223.239 17.2559C223.491 17.0156 223.884 16.8955 224.417 16.8955H226.307V17.8711C226.307 18.1875 226.222 18.4688 226.052 18.7148C225.888 18.9609 225.665 19.1572 225.384 19.3037C225.103 19.4443 224.789 19.5146 224.443 19.5146Z" fill="#37A0DE"/>
<rect x="170.5" y="0.5" width="67" height="28" rx="4.5" stroke="#37A0DE"/>
</svg>
