<svg width="949" height="827" viewBox="0 0 949 827" fill="none" xmlns="http://www.w3.org/2000/svg">
<path fill-rule="evenodd" clip-rule="evenodd" d="M473.148 192.122L346.205 283.891L473.148 375.654L600.092 283.891L473.148 192.122Z" fill="#91A000"/>
<path fill-rule="evenodd" clip-rule="evenodd" d="M228.531 15.2842C246.291 28.8805 257.756 50.2869 257.756 74.3755V219.958L346.198 283.891L473.141 192.122L228.531 15.2842Z" fill="#9DC538"/>
<path fill-rule="evenodd" clip-rule="evenodd" d="M228.531 552.484C246.291 538.888 257.756 517.481 257.756 493.393V347.81L346.198 283.891L473.141 375.647L228.531 552.484Z" fill="#FBD202"/>
<path fill-rule="evenodd" clip-rule="evenodd" d="M228.532 15.2844L224.884 12.6595C213.032 4.67054 198.755 0.00732422 183.377 0.00732422C142.307 0.00732422 109.005 33.3079 109.005 74.3757C109.005 99.2867 121.265 121.315 140.069 134.819V134.876L257.757 219.965V74.3757C257.757 50.2871 246.291 28.8807 228.532 15.2844Z" fill="#843F18"/>
<path fill-rule="evenodd" clip-rule="evenodd" d="M257.756 493.393V347.817L140.068 432.893V432.964C121.271 446.453 109.012 468.496 109.012 493.4C109.012 534.468 142.307 567.768 183.384 567.768C198.755 567.768 213.031 563.105 224.89 555.116L228.531 552.484C246.298 538.888 257.756 517.481 257.756 493.393Z" fill="#EB4918"/>
<path fill-rule="evenodd" clip-rule="evenodd" d="M140.069 134.819C121.265 121.322 109.005 99.2794 109.005 74.3755V493.278C109.005 468.374 121.265 446.346 140.069 432.835L257.757 347.703V219.951L140.069 134.819Z" fill="#F17522"/>
<path fill-rule="evenodd" clip-rule="evenodd" d="M717.76 15.2842C700 28.8805 688.534 50.2869 688.534 74.3755V219.958L600.093 283.891L473.149 192.122L717.76 15.2842Z" fill="#FBD202"/>
<path fill-rule="evenodd" clip-rule="evenodd" d="M717.76 552.484C700 538.888 688.534 517.481 688.534 493.393V347.81L600.093 283.891L473.149 375.654L717.76 552.484Z" fill="#9DC538"/>
<path fill-rule="evenodd" clip-rule="evenodd" d="M688.542 74.3755V219.951L806.23 134.876V134.804C825.027 121.322 837.287 99.2722 837.287 74.3683C837.287 33.3005 803.992 0 762.914 0C747.543 0 733.267 4.66322 721.408 12.6522L717.767 15.2842C700 28.8805 688.542 50.2869 688.542 74.3755Z" fill="#00A013"/>
<path fill-rule="evenodd" clip-rule="evenodd" d="M717.758 552.484L721.406 555.116C733.258 563.098 747.534 567.761 762.912 567.761C803.982 567.761 837.285 534.461 837.285 493.393C837.285 468.482 825.025 446.46 806.221 432.957V432.893L688.533 347.81V493.393C688.533 517.481 699.999 538.888 717.758 552.484Z" fill="#01722F"/>
<path fill-rule="evenodd" clip-rule="evenodd" d="M806.221 134.819C825.025 121.322 837.285 99.2794 837.285 74.3755V493.278C837.285 468.374 825.025 446.346 806.221 432.835L688.533 347.703V219.951L806.221 134.819Z" fill="#37A0DE"/>
<path d="M0 822.29V663.775H32.9827L82.8734 737.278L134.471 663.775H166.223V822.29H135.106V711.362L83.7863 781.292H80.2539L30.9188 711.997V822.29H0Z" fill="#7F7F7F"/>
<path d="M255.247 825.584C241.184 826.21 227.173 823.489 214.366 817.646C204.376 812.792 196.219 804.844 191.108 794.984C185.945 784.362 183.4 772.659 183.686 760.852V758.788C183.473 746.505 186.411 734.371 192.219 723.545C198.006 713.203 206.7 704.785 217.224 699.335C229.528 693.181 243.163 690.168 256.914 690.564C270.676 690.055 284.339 693.074 296.605 699.335C306.737 704.725 315.029 713.017 320.419 723.148C325.792 733.429 328.521 744.887 328.357 756.486V770.02H215.24C215.782 774.348 217.182 778.525 219.355 782.307C221.529 786.088 224.434 789.399 227.901 792.047C234.728 797.087 244.412 799.588 257.033 799.588C264.525 799.869 271.988 798.515 278.903 795.619C284.064 793.285 288.267 789.25 290.81 784.189H326.531C321.985 797.328 312.873 808.398 300.852 815.384C286.819 822.755 271.083 826.274 255.247 825.584ZM257.47 715.766C247.417 715.301 237.48 718.085 229.131 723.704C222.004 729.064 217.192 736.943 215.676 745.731H295.692C293.046 725.781 280.305 715.793 257.47 715.766V715.766Z" fill="#7F7F7F"/>
<path d="M413.772 825.584C399.709 826.21 385.698 823.49 372.891 817.646C362.916 812.785 354.774 804.838 349.673 794.984C344.496 784.366 341.937 772.662 342.211 760.852V758.789C341.989 746.499 344.942 734.36 350.784 723.546C356.571 713.203 365.265 704.786 375.789 699.336C388.089 693.172 401.727 690.158 415.479 690.565C429.241 690.054 442.905 693.073 455.169 699.336C465.297 704.731 473.588 713.021 478.984 723.149C484.338 733.437 487.065 744.89 486.922 756.487V770.02H374.201C374.751 774.351 376.157 778.529 378.338 782.31C380.518 786.092 383.43 789.402 386.902 792.047C393.689 797.088 403.413 799.588 415.995 799.588C423.5 799.875 430.977 798.521 437.904 795.619C443.069 793.291 447.274 789.254 449.811 784.189H485.533C481 797.323 471.901 808.393 459.893 815.384C445.703 822.834 429.78 826.355 413.772 825.584ZM415.995 715.767C405.943 715.313 396.01 718.095 387.656 723.704C380.529 729.058 375.727 736.942 374.241 745.731H454.257C451.558 725.781 438.804 715.793 415.995 715.767V715.767Z" fill="#7F7F7F"/>
<path d="M562.531 825.465C551.435 825.695 540.447 823.244 530.501 818.321C521.13 813.444 513.492 805.793 508.632 796.413C502.953 784.892 500.225 772.141 500.693 759.305V757.519C500.311 745.009 503.038 732.599 508.632 721.403C513.53 711.911 521.143 704.091 530.501 698.939C540.718 693.654 552.103 691.033 563.603 691.319C573.637 691.031 583.58 693.298 592.497 697.907C600.331 702.124 606.801 708.484 611.152 716.243V658.537H642.904V822.29H615.319L612.461 796.532C608.56 805.295 602.08 812.66 593.886 817.647C584.367 823.123 573.507 825.831 562.531 825.465V825.465ZM572.295 798.12C585.022 798.12 594.879 794.667 601.864 787.761C605.471 783.928 608.258 779.399 610.053 774.452C611.848 769.504 612.613 764.242 612.303 758.987V757.678C612.583 752.354 611.804 747.028 610.013 742.007C608.221 736.987 605.451 732.371 601.864 728.428C598.092 724.749 593.598 721.894 588.665 720.043C583.732 718.191 578.469 717.384 573.208 717.672C559.991 717.672 550.227 721.165 543.837 728.229C537.447 735.294 534.272 745.057 534.272 757.678V759.226C534.272 772.243 537.566 782.007 544.075 788.436C550.584 794.866 559.991 798.12 572.295 798.12Z" fill="#7F7F7F"/>
<path d="M707.361 826.259C691.908 826.259 680.239 823.176 672.354 817.012C668.435 813.973 665.307 810.035 663.234 805.53C661.161 801.026 660.205 796.088 660.447 791.135C660.048 784.665 661.538 778.219 664.738 772.582C667.937 766.944 672.707 762.359 678.467 759.384C682.296 757.138 686.371 755.341 690.612 754.026C695.808 752.473 701.116 751.319 706.488 750.574C712.838 749.621 721.213 748.589 731.572 747.557C740.565 747.083 749.467 745.524 758.085 742.914C760.261 742.308 762.174 740.997 763.524 739.187C764.875 737.377 765.586 735.17 765.547 732.912V732.674C765.528 730.232 764.897 727.833 763.712 725.697C762.526 723.562 760.824 721.758 758.76 720.45C754.236 717.196 746.297 715.569 734.946 715.569C722.192 715.569 713.05 717.606 707.52 721.68C704.727 723.787 702.433 726.483 700.8 729.577C699.168 732.67 698.237 736.086 698.074 739.58H664.019C664.508 732.536 666.538 725.685 669.968 719.512C673.397 713.34 678.141 707.996 683.864 703.86C695.533 695.42 711.674 691.2 732.287 691.2C754.672 691.2 770.972 695.05 781.185 702.749C791.399 710.449 796.572 722.514 796.704 738.945V822.29H770.231L766.897 794.985C761.854 804.331 754.273 812.063 745.027 817.289C733.512 823.625 720.496 826.724 707.361 826.259V826.259ZM717.8 802.009C726.484 802.203 735.079 800.225 742.805 796.255C749.514 792.817 755.268 787.772 759.554 781.57C763.375 776.255 765.48 769.898 765.587 763.353V758.789C762.432 761.233 758.792 762.979 754.91 763.909C748.989 765.438 742.968 766.552 736.891 767.243C727.286 768.274 720.036 769.267 715.14 770.219C710.974 770.853 706.947 772.195 703.233 774.188C700.862 775.349 698.862 777.15 697.46 779.387C696.057 781.624 695.307 784.208 695.295 786.849V787.087C695.19 789.189 695.61 791.284 696.518 793.182C697.426 795.081 698.792 796.724 700.495 797.961C705.711 801.056 711.753 802.469 717.8 802.009V802.009Z" fill="#7F7F7F"/>
<path d="M814.96 822.487V694.691H842.744L845.641 721.362C849.486 712.463 855.81 704.858 863.859 699.454C872.998 693.615 883.702 690.707 894.54 691.12C911.845 691.12 925.141 696.2 934.428 706.36C943.716 716.52 948.346 730.186 948.32 747.358V822.487H915.417V755.335C915.926 745.834 913.486 736.408 908.431 728.347C903.748 721.759 895.558 718.465 883.863 718.465C871.559 718.465 862.483 722.09 856.635 729.339C850.761 736.602 847.864 746.762 847.864 759.78V822.487H814.96Z" fill="#7F7F7F"/>
</svg>
