<svg width="256" height="70" viewBox="0 0 256 70" fill="none" xmlns="http://www.w3.org/2000/svg">
<path d="M37.9108 17.401H18.7304V0.177734H55.7213V40.5937C55.7213 46.661 54.5144 51.9128 52.1005 56.3491C49.6866 60.7202 46.3594 64.0474 42.1188 66.3308C37.9435 68.6142 33.2788 69.7559 28.1249 69.7559C23.1667 69.7559 18.5673 68.5163 14.3267 66.0372C10.1513 63.5581 6.82412 60.2309 4.34501 56.0556C1.8659 51.815 0.626343 47.2156 0.626343 42.2574H18.4368C18.4368 45.2584 19.2849 47.7701 20.9811 49.7925C22.7426 51.815 25.0912 52.8262 28.027 52.8262C31.1585 52.8262 33.5724 51.8476 35.2686 49.8904C37.0301 47.868 37.9108 44.9322 37.9108 41.083V17.401Z" fill="#6F6F6F"/>
<path d="M53.0987 0.266793H101.797V17.4877H53.0987V0.266793Z" fill="#6F6F6F"/>
<path d="M53.0987 27.2363H93.2908V44.4572H53.0987V27.2363Z" fill="#6F6F6F"/>
<path d="M101.901 0.266793V68.288H84.6804V0.266792L101.901 0.266793Z" fill="#6F6F6F"/>
<path d="M117.38 25.2054C116.528 25.2054 115.736 25.0134 115.004 24.6294C114.272 24.2334 113.672 23.6934 113.204 23.0094C112.736 22.3254 112.46 21.5694 112.376 20.7414H113.042C113.126 21.4494 113.372 22.0974 113.78 22.6854C114.188 23.2614 114.704 23.7174 115.328 24.0534C115.964 24.3774 116.648 24.5394 117.38 24.5394C118.184 24.5394 118.922 24.3414 119.594 23.9454C120.266 23.5494 120.8 23.0034 121.196 22.3074C121.592 21.6114 121.79 20.8314 121.79 19.9674V13.0734H116.174V12.4074H122.438V19.9674C122.438 20.9514 122.21 21.8454 121.754 22.6494C121.31 23.4414 120.698 24.0654 119.918 24.5214C119.15 24.9774 118.304 25.2054 117.38 25.2054ZM125.862 12.4074H126.528V20.1474C126.528 20.9394 126.726 21.6714 127.122 22.3434C127.518 23.0154 128.052 23.5494 128.724 23.9454C129.396 24.3414 130.128 24.5394 130.92 24.5394C131.712 24.5394 132.444 24.3414 133.116 23.9454C133.788 23.5494 134.322 23.0154 134.718 22.3434C135.114 21.6714 135.312 20.9394 135.312 20.1474V12.4074H135.978V20.1474C135.978 21.0594 135.75 21.9054 135.294 22.6854C134.838 23.4534 134.22 24.0654 133.44 24.5214C132.672 24.9774 131.832 25.2054 130.92 25.2054C130.008 25.2054 129.162 24.9774 128.382 24.5214C127.614 24.0654 127.002 23.4534 126.546 22.6854C126.09 21.9054 125.862 21.0594 125.862 20.1474V12.4074ZM140.374 24.9354V12.4074H141.04V24.2694H149.77V24.9354H140.374ZM161.637 12.4074V13.0734H157.893V24.2694H161.637V24.9354H153.519V24.2694H157.245V13.0734H153.519V12.4074H161.637ZM171.163 18.9414C170.143 18.7374 169.309 18.5154 168.661 18.2754C168.025 18.0234 167.521 17.6874 167.149 17.2674C166.789 16.8354 166.609 16.2834 166.609 15.6114C166.609 14.9154 166.789 14.3034 167.149 13.7754C167.521 13.2474 168.037 12.8394 168.697 12.5514C169.369 12.2634 170.143 12.1194 171.019 12.1194C171.859 12.1194 172.627 12.2994 173.323 12.6594C174.031 13.0074 174.589 13.4994 174.997 14.1354C175.405 14.7714 175.609 15.4974 175.609 16.3134H174.943C174.943 15.6054 174.769 14.9814 174.421 14.4414C174.073 13.9014 173.599 13.4874 172.999 13.1994C172.399 12.8994 171.733 12.7494 171.001 12.7494C170.353 12.7494 169.747 12.8514 169.183 13.0554C168.619 13.2594 168.157 13.5714 167.797 13.9914C167.449 14.4114 167.275 14.9394 167.275 15.5754C167.275 16.1514 167.443 16.6134 167.779 16.9614C168.115 17.2974 168.553 17.5554 169.093 17.7354C169.633 17.9154 170.389 18.1074 171.361 18.3114C172.345 18.5154 173.107 18.7134 173.647 18.9054C174.199 19.0854 174.661 19.3914 175.033 19.8234C175.417 20.2554 175.609 20.8614 175.609 21.6414C175.609 22.4214 175.399 23.0814 174.979 23.6214C174.571 24.1494 174.025 24.5454 173.341 24.8094C172.657 25.0734 171.913 25.2054 171.109 25.2054C170.113 25.2054 169.237 25.0194 168.481 24.6474C167.725 24.2754 167.143 23.7534 166.735 23.0814C166.339 22.3974 166.141 21.6174 166.141 20.7414H166.807C166.807 21.5094 166.975 22.1814 167.311 22.7574C167.659 23.3334 168.157 23.7834 168.805 24.1074C169.453 24.4194 170.221 24.5754 171.109 24.5754C172.213 24.5754 173.125 24.3114 173.845 23.7834C174.577 23.2554 174.943 22.5354 174.943 21.6234C174.943 20.9994 174.787 20.5194 174.475 20.1834C174.163 19.8474 173.767 19.6074 173.287 19.4634C172.819 19.3074 172.111 19.1334 171.163 18.9414ZM184.487 18.9414C183.467 18.7374 182.633 18.5154 181.985 18.2754C181.349 18.0234 180.845 17.6874 180.473 17.2674C180.113 16.8354 179.933 16.2834 179.933 15.6114C179.933 14.9154 180.113 14.3034 180.473 13.7754C180.845 13.2474 181.361 12.8394 182.021 12.5514C182.693 12.2634 183.467 12.1194 184.343 12.1194C185.183 12.1194 185.951 12.2994 186.647 12.6594C187.355 13.0074 187.913 13.4994 188.321 14.1354C188.729 14.7714 188.933 15.4974 188.933 16.3134H188.267C188.267 15.6054 188.093 14.9814 187.745 14.4414C187.397 13.9014 186.923 13.4874 186.323 13.1994C185.723 12.8994 185.057 12.7494 184.325 12.7494C183.677 12.7494 183.071 12.8514 182.507 13.0554C181.943 13.2594 181.481 13.5714 181.121 13.9914C180.773 14.4114 180.599 14.9394 180.599 15.5754C180.599 16.1514 180.767 16.6134 181.103 16.9614C181.439 17.2974 181.877 17.5554 182.417 17.7354C182.957 17.9154 183.713 18.1074 184.685 18.3114C185.669 18.5154 186.431 18.7134 186.971 18.9054C187.523 19.0854 187.985 19.3914 188.357 19.8234C188.741 20.2554 188.933 20.8614 188.933 21.6414C188.933 22.4214 188.723 23.0814 188.303 23.6214C187.895 24.1494 187.349 24.5454 186.665 24.8094C185.981 25.0734 185.237 25.2054 184.433 25.2054C183.437 25.2054 182.561 25.0194 181.805 24.6474C181.049 24.2754 180.467 23.7534 180.059 23.0814C179.663 22.3974 179.465 21.6174 179.465 20.7414H180.131C180.131 21.5094 180.299 22.1814 180.635 22.7574C180.983 23.3334 181.481 23.7834 182.129 24.1074C182.777 24.4194 183.545 24.5754 184.433 24.5754C185.537 24.5754 186.449 24.3114 187.169 23.7834C187.901 23.2554 188.267 22.5354 188.267 21.6234C188.267 20.9994 188.111 20.5194 187.799 20.1834C187.487 19.8474 187.091 19.6074 186.611 19.4634C186.143 19.3074 185.435 19.1334 184.487 18.9414ZM197.199 12.4074H197.901L203.049 24.9354H202.329L200.637 20.7954H194.463L192.753 24.9354H192.051L197.199 12.4074ZM194.733 20.1474H200.367L197.541 13.2714L194.733 20.1474ZM117.254 40.4074H117.956L123.104 52.9354H122.384L120.692 48.7954H114.518L112.808 52.9354H112.106L117.254 40.4074ZM114.788 48.1474H120.422L117.596 41.2714L114.788 48.1474ZM126.492 40.4074L130.938 47.1034L135.348 40.4074H136.14L131.262 47.8054V52.9354H130.596V47.8054L125.7 40.4074H126.492ZM143.902 40.4074H144.604L149.752 52.9354H149.032L147.34 48.7954H141.166L139.456 52.9354H138.754L143.902 40.4074ZM141.436 48.1474H147.07L144.244 41.2714L141.436 48.1474ZM153.699 52.9354V40.4074H154.365V52.2694H163.095V52.9354H153.699ZM170.551 40.4074H171.253L176.401 52.9354H175.681L173.989 48.7954H167.815L166.105 52.9354H165.403L170.551 40.4074ZM168.085 48.1474H173.719L170.893 41.2714L168.085 48.1474Z" fill="#6F6F6F"/>
</svg>
