<svg width="129" height="89" viewBox="0 0 129 89" fill="none" xmlns="http://www.w3.org/2000/svg">
<path d="M47.3478 22.7706H23.0843V0.982941H69.8782V52.1096C69.8782 59.7848 68.3514 66.4284 65.2978 72.0403C62.2443 77.5698 58.0353 81.7787 52.6709 84.6672C47.3891 87.5557 41.4883 89 34.9685 89C28.6963 89 22.878 87.432 17.5136 84.2959C12.2318 81.1598 8.0228 76.9508 4.8867 71.6689C1.7506 66.3046 0.182556 60.4863 0.182556 54.2141H22.7129C22.7129 58.0104 23.7858 61.1878 25.9316 63.7462C28.1598 66.3046 31.1309 67.5838 34.8447 67.5838C38.8061 67.5838 41.8596 66.3458 44.0054 63.87C46.2337 61.3116 47.3478 57.5978 47.3478 52.7286V22.7706Z" fill="white"/>
<path d="M66.5605 1.0956H128.164V22.8802H66.5605V1.0956Z" fill="white"/>
<path d="M66.5605 35.2123H117.404V56.9969H66.5605V35.2123Z" fill="white"/>
<path d="M128.296 1.0956V87.1431H106.512V1.0956L128.296 1.0956Z" fill="white"/>
</svg>
