<svg width="256" height="70" viewBox="0 0 256 70" fill="none" xmlns="http://www.w3.org/2000/svg">
<path d="M37.9108 17.4662H18.7304V0.242889H55.7213V40.6589C55.7213 46.7262 54.5144 51.978 52.1005 56.4143C49.6866 60.7853 46.3594 64.1126 42.1188 66.396C37.9435 68.6794 33.2788 69.8211 28.1249 69.8211C23.1667 69.8211 18.5673 68.5815 14.3267 66.1024C10.1513 63.6233 6.82412 60.296 4.34501 56.1207C1.8659 51.8801 0.626343 47.2807 0.626343 42.3225H18.4368C18.4368 45.3235 19.2849 47.8353 20.9811 49.8577C22.7426 51.8801 25.0912 52.8913 28.027 52.8913C31.1585 52.8913 33.5724 51.9127 35.2686 49.9556C37.0301 47.9331 37.9108 44.9973 37.9108 41.1482V17.4662Z" fill="white"/>
<path d="M53.0987 0.331948H101.797V17.5528H53.0987V0.331948Z" fill="white"/>
<path d="M53.0987 27.3015H93.2908V44.5223H53.0987V27.3015Z" fill="white"/>
<path d="M101.901 0.331948V68.3532H84.6804V0.331947L101.901 0.331948Z" fill="white"/>
<path d="M117.38 25.2705C116.528 25.2705 115.736 25.0785 115.004 24.6945C114.272 24.2985 113.672 23.7585 113.204 23.0745C112.736 22.3905 112.46 21.6345 112.376 20.8065H113.042C113.126 21.5145 113.372 22.1625 113.78 22.7505C114.188 23.3265 114.704 23.7825 115.328 24.1185C115.964 24.4425 116.648 24.6045 117.38 24.6045C118.184 24.6045 118.922 24.4065 119.594 24.0105C120.266 23.6145 120.8 23.0685 121.196 22.3725C121.592 21.6765 121.79 20.8965 121.79 20.0325V13.1385H116.174V12.4725H122.438V20.0325C122.438 21.0165 122.21 21.9105 121.754 22.7145C121.31 23.5065 120.698 24.1305 119.918 24.5865C119.15 25.0425 118.304 25.2705 117.38 25.2705ZM125.862 12.4725H126.528V20.2125C126.528 21.0045 126.726 21.7365 127.122 22.4085C127.518 23.0805 128.052 23.6145 128.724 24.0105C129.396 24.4065 130.128 24.6045 130.92 24.6045C131.712 24.6045 132.444 24.4065 133.116 24.0105C133.788 23.6145 134.322 23.0805 134.718 22.4085C135.114 21.7365 135.312 21.0045 135.312 20.2125V12.4725H135.978V20.2125C135.978 21.1245 135.75 21.9705 135.294 22.7505C134.838 23.5185 134.22 24.1305 133.44 24.5865C132.672 25.0425 131.832 25.2705 130.92 25.2705C130.008 25.2705 129.162 25.0425 128.382 24.5865C127.614 24.1305 127.002 23.5185 126.546 22.7505C126.09 21.9705 125.862 21.1245 125.862 20.2125V12.4725ZM140.374 25.0005V12.4725H141.04V24.3345H149.77V25.0005H140.374ZM161.637 12.4725V13.1385H157.893V24.3345H161.637V25.0005H153.519V24.3345H157.245V13.1385H153.519V12.4725H161.637ZM171.163 19.0065C170.143 18.8025 169.309 18.5805 168.661 18.3405C168.025 18.0885 167.521 17.7525 167.149 17.3325C166.789 16.9005 166.609 16.3485 166.609 15.6765C166.609 14.9805 166.789 14.3685 167.149 13.8405C167.521 13.3125 168.037 12.9045 168.697 12.6165C169.369 12.3285 170.143 12.1845 171.019 12.1845C171.859 12.1845 172.627 12.3645 173.323 12.7245C174.031 13.0725 174.589 13.5645 174.997 14.2005C175.405 14.8365 175.609 15.5625 175.609 16.3785H174.943C174.943 15.6705 174.769 15.0465 174.421 14.5065C174.073 13.9665 173.599 13.5525 172.999 13.2645C172.399 12.9645 171.733 12.8145 171.001 12.8145C170.353 12.8145 169.747 12.9165 169.183 13.1205C168.619 13.3245 168.157 13.6365 167.797 14.0565C167.449 14.4765 167.275 15.0045 167.275 15.6405C167.275 16.2165 167.443 16.6785 167.779 17.0265C168.115 17.3625 168.553 17.6205 169.093 17.8005C169.633 17.9805 170.389 18.1725 171.361 18.3765C172.345 18.5805 173.107 18.7785 173.647 18.9705C174.199 19.1505 174.661 19.4565 175.033 19.8885C175.417 20.3205 175.609 20.9265 175.609 21.7065C175.609 22.4865 175.399 23.1465 174.979 23.6865C174.571 24.2145 174.025 24.6105 173.341 24.8745C172.657 25.1385 171.913 25.2705 171.109 25.2705C170.113 25.2705 169.237 25.0845 168.481 24.7125C167.725 24.3405 167.143 23.8185 166.735 23.1465C166.339 22.4625 166.141 21.6825 166.141 20.8065H166.807C166.807 21.5745 166.975 22.2465 167.311 22.8225C167.659 23.3985 168.157 23.8485 168.805 24.1725C169.453 24.4845 170.221 24.6405 171.109 24.6405C172.213 24.6405 173.125 24.3765 173.845 23.8485C174.577 23.3205 174.943 22.6005 174.943 21.6885C174.943 21.0645 174.787 20.5845 174.475 20.2485C174.163 19.9125 173.767 19.6725 173.287 19.5285C172.819 19.3725 172.111 19.1985 171.163 19.0065ZM184.487 19.0065C183.467 18.8025 182.633 18.5805 181.985 18.3405C181.349 18.0885 180.845 17.7525 180.473 17.3325C180.113 16.9005 179.933 16.3485 179.933 15.6765C179.933 14.9805 180.113 14.3685 180.473 13.8405C180.845 13.3125 181.361 12.9045 182.021 12.6165C182.693 12.3285 183.467 12.1845 184.343 12.1845C185.183 12.1845 185.951 12.3645 186.647 12.7245C187.355 13.0725 187.913 13.5645 188.321 14.2005C188.729 14.8365 188.933 15.5625 188.933 16.3785H188.267C188.267 15.6705 188.093 15.0465 187.745 14.5065C187.397 13.9665 186.923 13.5525 186.323 13.2645C185.723 12.9645 185.057 12.8145 184.325 12.8145C183.677 12.8145 183.071 12.9165 182.507 13.1205C181.943 13.3245 181.481 13.6365 181.121 14.0565C180.773 14.4765 180.599 15.0045 180.599 15.6405C180.599 16.2165 180.767 16.6785 181.103 17.0265C181.439 17.3625 181.877 17.6205 182.417 17.8005C182.957 17.9805 183.713 18.1725 184.685 18.3765C185.669 18.5805 186.431 18.7785 186.971 18.9705C187.523 19.1505 187.985 19.4565 188.357 19.8885C188.741 20.3205 188.933 20.9265 188.933 21.7065C188.933 22.4865 188.723 23.1465 188.303 23.6865C187.895 24.2145 187.349 24.6105 186.665 24.8745C185.981 25.1385 185.237 25.2705 184.433 25.2705C183.437 25.2705 182.561 25.0845 181.805 24.7125C181.049 24.3405 180.467 23.8185 180.059 23.1465C179.663 22.4625 179.465 21.6825 179.465 20.8065H180.131C180.131 21.5745 180.299 22.2465 180.635 22.8225C180.983 23.3985 181.481 23.8485 182.129 24.1725C182.777 24.4845 183.545 24.6405 184.433 24.6405C185.537 24.6405 186.449 24.3765 187.169 23.8485C187.901 23.3205 188.267 22.6005 188.267 21.6885C188.267 21.0645 188.111 20.5845 187.799 20.2485C187.487 19.9125 187.091 19.6725 186.611 19.5285C186.143 19.3725 185.435 19.1985 184.487 19.0065ZM197.199 12.4725H197.901L203.049 25.0005H202.329L200.637 20.8605H194.463L192.753 25.0005H192.051L197.199 12.4725ZM194.733 20.2125H200.367L197.541 13.3365L194.733 20.2125ZM117.254 40.4725H117.956L123.104 53.0005H122.384L120.692 48.8605H114.518L112.808 53.0005H112.106L117.254 40.4725ZM114.788 48.2125H120.422L117.596 41.3365L114.788 48.2125ZM126.492 40.4725L130.938 47.1685L135.348 40.4725H136.14L131.262 47.8705V53.0005H130.596V47.8705L125.7 40.4725H126.492ZM143.902 40.4725H144.604L149.752 53.0005H149.032L147.34 48.8605H141.166L139.456 53.0005H138.754L143.902 40.4725ZM141.436 48.2125H147.07L144.244 41.3365L141.436 48.2125ZM153.699 53.0005V40.4725H154.365V52.3345H163.095V53.0005H153.699ZM170.551 40.4725H171.253L176.401 53.0005H175.681L173.989 48.8605H167.815L166.105 53.0005H165.403L170.551 40.4725ZM168.085 48.2125H173.719L170.893 41.3365L168.085 48.2125Z" fill="white"/>
</svg>
