<svg width="292" height="31" viewBox="0 0 292 31" fill="none" xmlns="http://www.w3.org/2000/svg">
<rect x="1.16602" y="2.35278" width="87.24" height="28.0648" rx="4.5" stroke="#2792AB"/>
<path d="M31.0399 13.1738H33.6063V22.8506H31.0399V13.1738ZM32.3231 12.1191C32.1356 12.1191 31.9569 12.0869 31.787 12.0225C31.6229 11.9521 31.4764 11.8584 31.3475 11.7412C31.2245 11.6182 31.1249 11.4746 31.0487 11.3105C30.9784 11.1465 30.9432 10.9678 30.9432 10.7744C30.9432 10.5811 30.9784 10.4053 31.0487 10.2471C31.1249 10.083 31.2245 9.94238 31.3475 9.8252C31.4764 9.70215 31.6229 9.6084 31.787 9.54395C31.9569 9.47363 32.1356 9.43848 32.3231 9.43848C32.5165 9.43848 32.6952 9.47363 32.8593 9.54395C33.0292 9.6084 33.1757 9.70215 33.2987 9.8252C33.4276 9.94238 33.5272 10.083 33.5975 10.2471C33.6737 10.4053 33.7118 10.5811 33.7118 10.7744C33.7118 10.9678 33.6737 11.1465 33.5975 11.3105C33.5272 11.4746 33.4276 11.6182 33.2987 11.7412C33.1757 11.8584 33.0292 11.9521 32.8593 12.0225C32.6952 12.0869 32.5165 12.1191 32.3231 12.1191ZM41.2968 9.94824C42.2343 9.94824 43.0809 10.1006 43.8368 10.4053C44.5927 10.71 45.2343 11.1465 45.7616 11.7148C46.2948 12.2832 46.702 12.9746 46.9833 13.7891C47.2704 14.5977 47.4139 15.5059 47.4139 16.5137C47.4139 17.5215 47.2704 18.4297 46.9833 19.2383C46.702 20.0469 46.2948 20.7354 45.7616 21.3037C45.2343 21.8721 44.5927 22.3086 43.8368 22.6133C43.0809 22.918 42.2343 23.0703 41.2968 23.0703C40.3534 23.0703 39.5038 22.918 38.7479 22.6133C37.9979 22.3086 37.3563 21.8721 36.8231 21.3037C36.2958 20.7354 35.8886 20.0469 35.6014 19.2383C35.3202 18.4297 35.1796 17.5215 35.1796 16.5137C35.1796 15.5059 35.3202 14.5977 35.6014 13.7891C35.8886 12.9746 36.2958 12.2832 36.8231 11.7148C37.3563 11.1465 37.9979 10.71 38.7479 10.4053C39.5038 10.1006 40.3534 9.94824 41.2968 9.94824ZM41.2968 12.1631C40.7753 12.1631 40.3036 12.2656 39.8817 12.4707C39.4657 12.6699 39.1083 12.96 38.8095 13.3408C38.5165 13.7158 38.288 14.1729 38.1239 14.7119C37.9657 15.2451 37.8866 15.8457 37.8866 16.5137C37.8866 17.1758 37.9657 17.7764 38.1239 18.3154C38.288 18.8486 38.5165 19.3027 38.8095 19.6777C39.1083 20.0527 39.4657 20.3428 39.8817 20.5479C40.3036 20.7471 40.7753 20.8467 41.2968 20.8467C41.8124 20.8467 42.2811 20.7471 42.703 20.5479C43.1249 20.3428 43.4823 20.0527 43.7753 19.6777C44.0682 19.3027 44.2938 18.8486 44.452 18.3154C44.6161 17.7764 44.6981 17.1758 44.6981 16.5137C44.6981 15.8457 44.6161 15.2451 44.452 14.7119C44.2938 14.1729 44.0682 13.7158 43.7753 13.3408C43.4823 12.96 43.1249 12.6699 42.703 12.4707C42.2811 12.2656 41.8124 12.1631 41.2968 12.1631ZM51.2108 19.2383C51.2401 19.502 51.328 19.7393 51.4745 19.9502C51.621 20.1611 51.8085 20.3428 52.037 20.4951C52.2714 20.6475 52.5409 20.7646 52.8456 20.8467C53.1503 20.9287 53.4784 20.9697 53.83 20.9697C54.1815 20.9697 54.5038 20.9316 54.7968 20.8555C55.0897 20.7734 55.3417 20.6621 55.5526 20.5215C55.7636 20.375 55.9247 20.2051 56.036 20.0117C56.1532 19.8125 56.2118 19.5957 56.2118 19.3613C56.2118 18.9512 56.0448 18.6201 55.7108 18.3682C55.3827 18.1162 54.8378 17.9053 54.0761 17.7354L52.4237 17.375C50.0975 16.877 48.9345 15.6963 48.9345 13.833C48.9345 13.2471 49.0546 12.7168 49.2948 12.2422C49.535 11.7617 49.869 11.3516 50.2968 11.0117C50.7304 10.6719 51.243 10.4111 51.8348 10.2295C52.4266 10.042 53.077 9.94824 53.786 9.94824C54.5243 9.94824 55.1893 10.0391 55.7811 10.2207C56.3788 10.4023 56.8856 10.6602 57.3016 10.9941C57.7235 11.3281 58.0487 11.7295 58.2772 12.1982C58.5057 12.667 58.6259 13.1885 58.6376 13.7627H56.1503C56.1268 13.4932 56.0536 13.2529 55.9305 13.042C55.8075 12.8311 55.6434 12.6523 55.4384 12.5059C55.2333 12.3535 54.9901 12.2393 54.7089 12.1631C54.4335 12.0811 54.1288 12.04 53.7948 12.04C53.4667 12.04 53.1679 12.0781 52.8983 12.1543C52.6288 12.2305 52.3973 12.3359 52.204 12.4707C52.0165 12.6055 51.87 12.7695 51.7645 12.9629C51.6591 13.1562 51.6063 13.3701 51.6063 13.6045C51.6063 13.9971 51.7675 14.3135 52.0897 14.5537C52.4179 14.7939 52.9481 14.9961 53.6805 15.1602L55.2186 15.4854C55.8514 15.6201 56.3964 15.793 56.8534 16.0039C57.3163 16.209 57.6971 16.458 57.996 16.751C58.2948 17.0381 58.5145 17.375 58.6552 17.7617C58.7958 18.1426 58.8661 18.5732 58.8661 19.0537C58.8661 19.6689 58.746 20.2256 58.5057 20.7236C58.2655 21.2158 57.9227 21.6377 57.4774 21.9893C57.0321 22.335 56.4901 22.6016 55.8514 22.7891C55.2186 22.9766 54.5096 23.0703 53.7245 23.0703C52.9628 23.0703 52.2743 22.9824 51.6591 22.8066C51.0438 22.6309 50.5165 22.3789 50.077 22.0508C49.6376 21.7168 49.2948 21.3154 49.0487 20.8467C48.8026 20.3721 48.6708 19.8359 48.6532 19.2383H51.2108Z" fill="#2792AB"/>
<rect x="102.605" y="2.35278" width="87.24" height="28.0648" rx="4.5" stroke="#2792AB"/>
<path d="M117.107 10.168C118.056 10.168 118.906 10.3086 119.656 10.5898C120.406 10.8652 121.038 11.2725 121.554 11.8115C122.076 12.3447 122.471 13.001 122.741 13.7803C123.016 14.5596 123.154 15.4531 123.154 16.4609C123.154 17.4688 123.016 18.3682 122.741 19.1592C122.471 19.9502 122.076 20.6211 121.554 21.1719C121.038 21.7168 120.406 22.1328 119.656 22.4199C118.906 22.707 118.056 22.8506 117.107 22.8506H112.22V10.168H117.107ZM114.874 20.6533H116.79C117.986 20.6533 118.894 20.3018 119.515 19.5986C120.136 18.8896 120.447 17.8467 120.447 16.4697C120.447 15.8076 120.365 15.2217 120.201 14.7119C120.042 14.1963 119.808 13.7656 119.497 13.4199C119.187 13.0684 118.803 12.8047 118.346 12.6289C117.895 12.4473 117.376 12.3564 116.79 12.3564H114.874V20.6533ZM128.99 14.9229C128.697 14.9229 128.424 14.9756 128.172 15.0811C127.926 15.1807 127.709 15.3242 127.522 15.5117C127.34 15.6934 127.191 15.9131 127.074 16.1709C126.962 16.4229 126.895 16.7041 126.871 17.0146H131.046C131.035 16.6982 130.976 16.4111 130.87 16.1533C130.765 15.8955 130.621 15.6758 130.44 15.4941C130.264 15.3125 130.053 15.1719 129.807 15.0723C129.561 14.9727 129.288 14.9229 128.99 14.9229ZM133.446 19.8975C133.375 20.3662 133.217 20.7939 132.971 21.1807C132.725 21.5615 132.412 21.8896 132.031 22.165C131.65 22.4346 131.204 22.6455 130.695 22.7979C130.191 22.9443 129.646 23.0176 129.06 23.0176C128.322 23.0176 127.66 22.9033 127.074 22.6748C126.488 22.4463 125.99 22.1182 125.579 21.6904C125.175 21.2627 124.862 20.7412 124.639 20.126C124.422 19.5107 124.314 18.8193 124.314 18.0518C124.314 17.2842 124.422 16.5898 124.639 15.9688C124.856 15.3477 125.166 14.8174 125.571 14.3779C125.975 13.9385 126.464 13.6016 127.038 13.3672C127.613 13.127 128.254 13.0068 128.963 13.0068C129.661 13.0068 130.29 13.1211 130.853 13.3496C131.415 13.5723 131.893 13.8916 132.286 14.3076C132.684 14.7236 132.989 15.2275 133.2 15.8193C133.416 16.4111 133.525 17.0762 133.525 17.8145V18.6055H126.845V18.7637C126.845 19.1152 126.898 19.4346 127.003 19.7217C127.115 20.0088 127.267 20.2549 127.46 20.46C127.66 20.665 127.897 20.8232 128.172 20.9346C128.453 21.0459 128.764 21.1016 129.104 21.1016C129.59 21.1016 130.009 20.9961 130.361 20.7852C130.718 20.5684 130.958 20.2725 131.081 19.8975H133.446ZM134.738 16.0215C134.738 15.5645 134.834 15.1514 135.028 14.7822C135.221 14.4131 135.494 14.0967 135.845 13.833C136.197 13.5693 136.621 13.3672 137.12 13.2266C137.618 13.0801 138.174 13.0068 138.789 13.0068C139.387 13.0068 139.929 13.0801 140.415 13.2266C140.908 13.373 141.329 13.5811 141.681 13.8506C142.033 14.1201 142.305 14.4424 142.498 14.8174C142.692 15.1924 142.794 15.6113 142.806 16.0742H140.433C140.404 15.6875 140.24 15.3828 139.941 15.1602C139.648 14.9375 139.252 14.8262 138.754 14.8262C138.291 14.8262 137.919 14.9199 137.638 15.1074C137.357 15.2949 137.216 15.5469 137.216 15.8633C137.216 16.3379 137.647 16.6748 138.508 16.874L140.328 17.2695C140.814 17.3809 141.227 17.5127 141.567 17.665C141.912 17.8174 142.194 17.999 142.411 18.21C142.633 18.4209 142.794 18.667 142.894 18.9482C142.994 19.2236 143.043 19.54 143.043 19.8975C143.043 20.3662 142.938 20.7939 142.727 21.1807C142.522 21.5615 142.232 21.8896 141.857 22.165C141.488 22.4346 141.039 22.6455 140.512 22.7979C139.991 22.9443 139.413 23.0176 138.781 23.0176C138.142 23.0176 137.565 22.9443 137.049 22.7979C136.539 22.6514 136.1 22.4434 135.731 22.1738C135.368 21.8984 135.08 21.5732 134.87 21.1982C134.659 20.8174 134.536 20.3926 134.5 19.9238H137.005C137.07 20.334 137.26 20.6504 137.577 20.873C137.893 21.0898 138.318 21.1982 138.851 21.1982C139.367 21.1982 139.768 21.1074 140.055 20.9258C140.348 20.7383 140.495 20.4863 140.495 20.1699C140.495 19.918 140.401 19.7188 140.213 19.5723C140.032 19.4258 139.721 19.2998 139.282 19.1943L137.497 18.79C136.583 18.585 135.895 18.251 135.432 17.7881C134.969 17.3193 134.738 16.7305 134.738 16.0215ZM150.4 13.1738H153.318L149.591 17.3311L153.494 22.8506H150.54L147.71 18.8779L147.016 19.625V22.8506H144.45V9.56152H147.016V17.085H147.051L150.4 13.1738ZM157.528 11.0205V13.1738H159.321V15.1162H157.528V19.8184C157.528 20.5566 157.912 20.9258 158.679 20.9258C158.796 20.9258 158.911 20.9229 159.022 20.917C159.139 20.9053 159.239 20.8936 159.321 20.8818V22.7803C159.186 22.8096 159.01 22.833 158.793 22.8506C158.582 22.874 158.345 22.8857 158.081 22.8857C157.519 22.8857 157.041 22.8359 156.649 22.7363C156.256 22.6367 155.934 22.4814 155.682 22.2705C155.43 22.0596 155.245 21.7871 155.128 21.4531C155.017 21.1191 154.961 20.7148 154.961 20.2402V15.1162H153.652V13.1738H154.961V11.0205H157.528ZM165.069 23.0176C164.336 23.0176 163.674 22.9033 163.082 22.6748C162.496 22.4463 161.995 22.1182 161.579 21.6904C161.169 21.2568 160.853 20.7324 160.63 20.1172C160.408 19.4961 160.296 18.793 160.296 18.0078C160.296 17.2344 160.408 16.54 160.63 15.9248C160.859 15.3037 161.178 14.7793 161.588 14.3516C162.004 13.918 162.505 13.5869 163.091 13.3584C163.683 13.124 164.342 13.0068 165.069 13.0068C165.795 13.0068 166.452 13.124 167.037 13.3584C167.629 13.5869 168.133 13.918 168.549 14.3516C168.965 14.7793 169.285 15.3037 169.507 15.9248C169.73 16.54 169.841 17.2344 169.841 18.0078C169.841 18.793 169.73 19.4961 169.507 20.1172C169.285 20.7324 168.965 21.2568 168.549 21.6904C168.139 22.1182 167.638 22.4463 167.046 22.6748C166.46 22.9033 165.801 23.0176 165.069 23.0176ZM165.069 21.04C165.748 21.04 166.279 20.7764 166.66 20.249C167.04 19.7217 167.231 18.9746 167.231 18.0078C167.231 17.5332 167.181 17.1084 167.081 16.7334C166.982 16.3525 166.838 16.0332 166.651 15.7754C166.469 15.5176 166.244 15.3213 165.974 15.1865C165.704 15.0459 165.403 14.9756 165.069 14.9756C164.729 14.9756 164.424 15.0459 164.155 15.1865C163.891 15.3213 163.665 15.5205 163.478 15.7842C163.29 16.042 163.147 16.3584 163.047 16.7334C162.948 17.1084 162.898 17.5332 162.898 18.0078C162.898 18.9746 163.088 19.7217 163.469 20.249C163.856 20.7764 164.389 21.04 165.069 21.04ZM176.811 13.0596C177.426 13.0596 177.977 13.1738 178.463 13.4023C178.955 13.6309 179.371 13.959 179.711 14.3867C180.057 14.8086 180.321 15.3271 180.502 15.9424C180.69 16.5518 180.784 17.2402 180.784 18.0078C180.784 18.7754 180.693 19.4668 180.511 20.082C180.329 20.6914 180.066 21.21 179.72 21.6377C179.38 22.0654 178.967 22.3936 178.481 22.6221C177.995 22.8506 177.45 22.9648 176.846 22.9648C176.143 22.9648 175.531 22.8125 175.009 22.5078C174.494 22.2031 174.104 21.7754 173.84 21.2246H173.787V25.8916H171.221V13.1738H173.752V14.8262H173.805C173.934 14.5566 174.098 14.3135 174.297 14.0967C174.496 13.874 174.725 13.6865 174.983 13.5342C175.246 13.3818 175.531 13.2646 175.835 13.1826C176.146 13.1006 176.471 13.0596 176.811 13.0596ZM175.958 20.8906C176.292 20.8906 176.594 20.8232 176.864 20.6885C177.133 20.5537 177.362 20.3604 177.549 20.1084C177.743 19.8564 177.892 19.5547 177.997 19.2031C178.103 18.8457 178.156 18.4473 178.156 18.0078C178.156 17.5742 178.103 17.1816 177.997 16.8301C177.892 16.4727 177.743 16.1709 177.549 15.9248C177.362 15.6729 177.133 15.4795 176.864 15.3447C176.594 15.2041 176.292 15.1338 175.958 15.1338C175.63 15.1338 175.331 15.2041 175.062 15.3447C174.798 15.4795 174.57 15.6729 174.376 15.9248C174.189 16.1768 174.042 16.4814 173.937 16.8389C173.831 17.1904 173.779 17.583 173.779 18.0166C173.779 18.4502 173.831 18.8457 173.937 19.2031C174.042 19.5547 174.189 19.8564 174.376 20.1084C174.57 20.3604 174.798 20.5537 175.062 20.6885C175.331 20.8232 175.63 20.8906 175.958 20.8906Z" fill="#2792AB"/>
<rect x="204.044" y="2.35278" width="87.2369" height="28.0648" rx="4.5" stroke="#2792AB"/>
<path d="M234.057 22.8506H231.693V14.29H231.622L228.177 22.7275H226.507L223.062 14.29H222.991V22.8506H220.627V10.168H223.703L227.307 19.1592H227.377L230.981 10.168H234.057V22.8506ZM240.394 23.0176C239.661 23.0176 238.999 22.9033 238.408 22.6748C237.822 22.4463 237.321 22.1182 236.905 21.6904C236.494 21.2568 236.178 20.7324 235.955 20.1172C235.733 19.4961 235.621 18.793 235.621 18.0078C235.621 17.2344 235.733 16.54 235.955 15.9248C236.184 15.3037 236.503 14.7793 236.913 14.3516C237.329 13.918 237.83 13.5869 238.416 13.3584C239.008 13.124 239.667 13.0068 240.394 13.0068C241.12 13.0068 241.777 13.124 242.363 13.3584C242.954 13.5869 243.458 13.918 243.874 14.3516C244.29 14.7793 244.61 15.3037 244.832 15.9248C245.055 16.54 245.166 17.2344 245.166 18.0078C245.166 18.793 245.055 19.4961 244.832 20.1172C244.61 20.7324 244.29 21.2568 243.874 21.6904C243.464 22.1182 242.963 22.4463 242.371 22.6748C241.785 22.9033 241.126 23.0176 240.394 23.0176ZM240.394 21.04C241.074 21.04 241.604 20.7764 241.985 20.249C242.366 19.7217 242.556 18.9746 242.556 18.0078C242.556 17.5332 242.506 17.1084 242.407 16.7334C242.307 16.3525 242.163 16.0332 241.976 15.7754C241.794 15.5176 241.569 15.3213 241.299 15.1865C241.03 15.0459 240.728 14.9756 240.394 14.9756C240.054 14.9756 239.749 15.0459 239.48 15.1865C239.216 15.3213 238.991 15.5205 238.803 15.7842C238.616 16.042 238.472 16.3584 238.372 16.7334C238.273 17.1084 238.223 17.5332 238.223 18.0078C238.223 18.9746 238.413 19.7217 238.794 20.249C239.181 20.7764 239.714 21.04 240.394 21.04ZM252.233 22.9648C251.524 22.9648 250.906 22.8125 250.378 22.5078C249.857 22.1973 249.461 21.7607 249.192 21.1982H249.139V22.8506H246.616V9.56152H249.183V14.8262H249.236C249.505 14.2637 249.898 13.8301 250.413 13.5254C250.929 13.2148 251.533 13.0596 252.224 13.0596C252.833 13.0596 253.381 13.1738 253.867 13.4023C254.36 13.6309 254.776 13.959 255.116 14.3867C255.455 14.8086 255.716 15.3271 255.898 15.9424C256.079 16.5518 256.17 17.2402 256.17 18.0078C256.17 18.7754 256.079 19.4668 255.898 20.082C255.716 20.6914 255.455 21.21 255.116 21.6377C254.776 22.0654 254.363 22.3936 253.876 22.6221C253.39 22.8506 252.842 22.9648 252.233 22.9648ZM251.363 15.1338C251.034 15.1338 250.736 15.2041 250.466 15.3447C250.197 15.4795 249.965 15.6729 249.772 15.9248C249.578 16.1768 249.429 16.4814 249.324 16.8389C249.218 17.1904 249.165 17.583 249.165 18.0166C249.165 18.4502 249.218 18.8457 249.324 19.2031C249.429 19.5547 249.578 19.8564 249.772 20.1084C249.965 20.3545 250.197 20.5479 250.466 20.6885C250.736 20.8232 251.034 20.8906 251.363 20.8906C251.697 20.8906 251.995 20.8232 252.259 20.6885C252.529 20.5537 252.757 20.3604 252.945 20.1084C253.138 19.8564 253.284 19.5547 253.384 19.2031C253.49 18.8457 253.542 18.4473 253.542 18.0078C253.542 17.5684 253.49 17.1729 253.384 16.8213C253.284 16.4697 253.138 16.168 252.945 15.916C252.757 15.6641 252.529 15.4707 252.259 15.3359C251.99 15.2012 251.691 15.1338 251.363 15.1338ZM257.594 13.1738H260.16V22.8506H257.594V13.1738ZM258.877 12.1191C258.69 12.1191 258.511 12.0869 258.341 12.0225C258.177 11.9521 258.031 11.8584 257.902 11.7412C257.779 11.6182 257.679 11.4746 257.603 11.3105C257.533 11.1465 257.497 10.9678 257.497 10.7744C257.497 10.5811 257.533 10.4053 257.603 10.2471C257.679 10.083 257.779 9.94238 257.902 9.8252C258.031 9.70215 258.177 9.6084 258.341 9.54395C258.511 9.47363 258.69 9.43848 258.877 9.43848C259.071 9.43848 259.249 9.47363 259.413 9.54395C259.583 9.6084 259.73 9.70215 259.853 9.8252C259.982 9.94238 260.081 10.083 260.152 10.2471C260.228 10.4053 260.266 10.5811 260.266 10.7744C260.266 10.9678 260.228 11.1465 260.152 11.3105C260.081 11.4746 259.982 11.6182 259.853 11.7412C259.73 11.8584 259.583 11.9521 259.413 12.0225C259.249 12.0869 259.071 12.1191 258.877 12.1191ZM262.015 9.56152H264.581V22.8506H262.015V9.56152ZM270.707 14.9229C270.414 14.9229 270.142 14.9756 269.89 15.0811C269.644 15.1807 269.427 15.3242 269.24 15.5117C269.058 15.6934 268.908 15.9131 268.791 16.1709C268.68 16.4229 268.613 16.7041 268.589 17.0146H272.764C272.752 16.6982 272.694 16.4111 272.588 16.1533C272.483 15.8955 272.339 15.6758 272.158 15.4941C271.982 15.3125 271.771 15.1719 271.525 15.0723C271.279 14.9727 271.006 14.9229 270.707 14.9229ZM275.163 19.8975C275.093 20.3662 274.935 20.7939 274.689 21.1807C274.443 21.5615 274.129 21.8896 273.748 22.165C273.367 22.4346 272.922 22.6455 272.412 22.7979C271.908 22.9443 271.364 23.0176 270.778 23.0176C270.039 23.0176 269.377 22.9033 268.791 22.6748C268.205 22.4463 267.707 22.1182 267.297 21.6904C266.893 21.2627 266.579 20.7412 266.357 20.126C266.14 19.5107 266.032 18.8193 266.032 18.0518C266.032 17.2842 266.14 16.5898 266.357 15.9688C266.574 15.3477 266.884 14.8174 267.288 14.3779C267.693 13.9385 268.182 13.6016 268.756 13.3672C269.33 13.127 269.972 13.0068 270.681 13.0068C271.378 13.0068 272.008 13.1211 272.571 13.3496C273.133 13.5723 273.611 13.8916 274.003 14.3076C274.402 14.7236 274.706 15.2275 274.917 15.8193C275.134 16.4111 275.242 17.0762 275.242 17.8145V18.6055H268.563V18.7637C268.563 19.1152 268.616 19.4346 268.721 19.7217C268.832 20.0088 268.985 20.2549 269.178 20.46C269.377 20.665 269.615 20.8232 269.89 20.9346C270.171 21.0459 270.482 21.1016 270.822 21.1016C271.308 21.1016 271.727 20.9961 272.078 20.7852C272.436 20.5684 272.676 20.2725 272.799 19.8975H275.163Z" fill="#2792AB"/>
</svg>
