<svg width="323" height="32" viewBox="0 0 323 32" fill="none" xmlns="http://www.w3.org/2000/svg">
<rect x="1.16602" y="2.85364" width="87.24" height="28.0648" rx="4.5" stroke="#2792AB"/>
<path d="M31.04 14.1758H33.6064V23.8525H31.04V14.1758ZM32.3232 13.1211C32.1357 13.1211 31.957 13.0889 31.787 13.0244C31.623 12.9541 31.4765 12.8604 31.3476 12.7432C31.2245 12.6201 31.1249 12.4766 31.0488 12.3125C30.9784 12.1484 30.9433 11.9697 30.9433 11.7764C30.9433 11.583 30.9784 11.4072 31.0488 11.249C31.1249 11.085 31.2245 10.9443 31.3476 10.8271C31.4765 10.7041 31.623 10.6104 31.787 10.5459C31.957 10.4756 32.1357 10.4404 32.3232 10.4404C32.5165 10.4404 32.6952 10.4756 32.8593 10.5459C33.0292 10.6104 33.1757 10.7041 33.2988 10.8271C33.4277 10.9443 33.5273 11.085 33.5976 11.249C33.6738 11.4072 33.7118 11.583 33.7118 11.7764C33.7118 11.9697 33.6738 12.1484 33.5976 12.3125C33.5273 12.4766 33.4277 12.6201 33.2988 12.7432C33.1757 12.8604 33.0292 12.9541 32.8593 13.0244C32.6952 13.0889 32.5165 13.1211 32.3232 13.1211ZM41.2968 10.9502C42.2343 10.9502 43.081 11.1025 43.8368 11.4072C44.5927 11.7119 45.2343 12.1484 45.7616 12.7168C46.2948 13.2852 46.7021 13.9766 46.9833 14.791C47.2704 15.5996 47.414 16.5078 47.414 17.5156C47.414 18.5234 47.2704 19.4316 46.9833 20.2402C46.7021 21.0488 46.2948 21.7373 45.7616 22.3057C45.2343 22.874 44.5927 23.3105 43.8368 23.6152C43.081 23.9199 42.2343 24.0723 41.2968 24.0723C40.3534 24.0723 39.5038 23.9199 38.748 23.6152C37.998 23.3105 37.3564 22.874 36.8232 22.3057C36.2958 21.7373 35.8886 21.0488 35.6015 20.2402C35.3202 19.4316 35.1796 18.5234 35.1796 17.5156C35.1796 16.5078 35.3202 15.5996 35.6015 14.791C35.8886 13.9766 36.2958 13.2852 36.8232 12.7168C37.3564 12.1484 37.998 11.7119 38.748 11.4072C39.5038 11.1025 40.3534 10.9502 41.2968 10.9502ZM41.2968 13.165C40.7753 13.165 40.3036 13.2676 39.8818 13.4727C39.4657 13.6719 39.1083 13.9619 38.8095 14.3428C38.5165 14.7178 38.288 15.1748 38.1239 15.7139C37.9657 16.2471 37.8866 16.8477 37.8866 17.5156C37.8866 18.1777 37.9657 18.7783 38.1239 19.3174C38.288 19.8506 38.5165 20.3047 38.8095 20.6797C39.1083 21.0547 39.4657 21.3447 39.8818 21.5498C40.3036 21.749 40.7753 21.8486 41.2968 21.8486C41.8124 21.8486 42.2812 21.749 42.7031 21.5498C43.1249 21.3447 43.4823 21.0547 43.7753 20.6797C44.0683 20.3047 44.2939 19.8506 44.4521 19.3174C44.6161 18.7783 44.6982 18.1777 44.6982 17.5156C44.6982 16.8477 44.6161 16.2471 44.4521 15.7139C44.2939 15.1748 44.0683 14.7178 43.7753 14.3428C43.4823 13.9619 43.1249 13.6719 42.7031 13.4727C42.2812 13.2676 41.8124 13.165 41.2968 13.165ZM51.2109 20.2402C51.2402 20.5039 51.3281 20.7412 51.4745 20.9521C51.621 21.1631 51.8085 21.3447 52.037 21.4971C52.2714 21.6494 52.5409 21.7666 52.8456 21.8486C53.1503 21.9307 53.4784 21.9717 53.83 21.9717C54.1816 21.9717 54.5038 21.9336 54.7968 21.8574C55.0898 21.7754 55.3417 21.6641 55.5527 21.5234C55.7636 21.377 55.9247 21.207 56.0361 21.0137C56.1532 20.8145 56.2118 20.5977 56.2118 20.3633C56.2118 19.9531 56.0448 19.6221 55.7109 19.3701C55.3827 19.1182 54.8378 18.9072 54.0761 18.7373L52.4238 18.377C50.0976 17.8789 48.9345 16.6982 48.9345 14.835C48.9345 14.249 49.0546 13.7188 49.2948 13.2441C49.5351 12.7637 49.8691 12.3535 50.2968 12.0137C50.7304 11.6738 51.2431 11.4131 51.8349 11.2314C52.4267 11.0439 53.0771 10.9502 53.7861 10.9502C54.5243 10.9502 55.1894 11.041 55.7812 11.2227C56.3788 11.4043 56.8857 11.6621 57.3017 11.9961C57.7236 12.3301 58.0488 12.7314 58.2773 13.2002C58.5058 13.6689 58.6259 14.1904 58.6376 14.7646H56.1503C56.1269 14.4951 56.0536 14.2549 55.9306 14.0439C55.8075 13.833 55.6435 13.6543 55.4384 13.5078C55.2333 13.3555 54.9902 13.2412 54.7089 13.165C54.4335 13.083 54.1288 13.042 53.7948 13.042C53.4667 13.042 53.1679 13.0801 52.8984 13.1562C52.6288 13.2324 52.3974 13.3379 52.204 13.4727C52.0165 13.6074 51.87 13.7715 51.7646 13.9648C51.6591 14.1582 51.6064 14.3721 51.6064 14.6064C51.6064 14.999 51.7675 15.3154 52.0898 15.5557C52.4179 15.7959 52.9482 15.998 53.6806 16.1621L55.2187 16.4873C55.8515 16.6221 56.3964 16.7949 56.8534 17.0059C57.3163 17.2109 57.6972 17.46 57.996 17.7529C58.2948 18.04 58.5146 18.377 58.6552 18.7637C58.7958 19.1445 58.8661 19.5752 58.8661 20.0557C58.8661 20.6709 58.746 21.2275 58.5058 21.7256C58.2656 22.2178 57.9228 22.6396 57.4775 22.9912C57.0322 23.3369 56.4902 23.6035 55.8515 23.791C55.2187 23.9785 54.5097 24.0723 53.7245 24.0723C52.9628 24.0723 52.2743 23.9844 51.6591 23.8086C51.0439 23.6328 50.5165 23.3809 50.0771 23.0527C49.6376 22.7188 49.2948 22.3174 49.0488 21.8486C48.8027 21.374 48.6708 20.8379 48.6532 20.2402H51.2109Z" fill="#2792AB"/>
<rect x="103.308" y="1.85156" width="106.903" height="28.0648" rx="4.5" stroke="#2792AB"/>
<path d="M123.299 19.7743H118.843L117.876 22.8505H115.152L119.555 10.1678H122.675L127.087 22.8505H124.266L123.299 19.7743ZM119.414 17.788H122.728L121.102 12.5936H121.04L119.414 17.788ZM131.456 22.9647C130.852 22.9647 130.307 22.8505 129.821 22.6219C129.334 22.3876 128.918 22.0565 128.573 21.6288C128.227 21.1952 127.96 20.6737 127.773 20.0643C127.585 19.4491 127.492 18.7606 127.492 17.9989C127.492 17.243 127.585 16.5604 127.773 15.951C127.96 15.3417 128.227 14.8231 128.573 14.3954C128.918 13.9677 129.334 13.6395 129.821 13.411C130.313 13.1766 130.861 13.0594 131.464 13.0594C132.167 13.0594 132.774 13.2206 133.284 13.5428C133.799 13.8593 134.18 14.287 134.426 14.826H134.479V9.5614H137.045V22.8505H134.514V21.1981H134.47C134.353 21.4618 134.195 21.705 133.996 21.9276C133.802 22.1444 133.577 22.329 133.319 22.4813C133.061 22.6337 132.774 22.7538 132.457 22.8417C132.147 22.9237 131.813 22.9647 131.456 22.9647ZM132.308 15.1337C131.974 15.1337 131.672 15.201 131.403 15.3358C131.133 15.4706 130.902 15.6639 130.708 15.9159C130.521 16.162 130.374 16.4637 130.269 16.8212C130.169 17.1727 130.12 17.5682 130.12 18.0077C130.12 18.453 130.169 18.8544 130.269 19.2118C130.374 19.5634 130.521 19.8651 130.708 20.1171C130.902 20.3632 131.133 20.5536 131.403 20.6884C131.672 20.8231 131.974 20.8905 132.308 20.8905C132.642 20.8905 132.944 20.8231 133.213 20.6884C133.483 20.5536 133.711 20.3602 133.899 20.1083C134.092 19.8563 134.239 19.5546 134.338 19.203C134.444 18.8514 134.497 18.4559 134.497 18.0165C134.497 17.577 134.444 17.1815 134.338 16.83C134.239 16.4725 134.092 16.1708 133.899 15.9247C133.711 15.6727 133.483 15.4794 133.213 15.3446C132.944 15.204 132.642 15.1337 132.308 15.1337ZM143.25 23.0175C142.518 23.0175 141.856 22.9032 141.264 22.6747C140.678 22.4462 140.177 22.118 139.761 21.6903C139.351 21.2567 139.035 20.7323 138.812 20.1171C138.589 19.496 138.478 18.7928 138.478 18.0077C138.478 17.2343 138.589 16.5399 138.812 15.9247C139.04 15.3036 139.36 14.7792 139.77 14.3514C140.186 13.9178 140.687 13.5868 141.273 13.3583C141.865 13.1239 142.524 13.0067 143.25 13.0067C143.977 13.0067 144.633 13.1239 145.219 13.3583C145.811 13.5868 146.315 13.9178 146.731 14.3514C147.147 14.7792 147.466 15.3036 147.689 15.9247C147.912 16.5399 148.023 17.2343 148.023 18.0077C148.023 18.7928 147.912 19.496 147.689 20.1171C147.466 20.7323 147.147 21.2567 146.731 21.6903C146.321 22.118 145.82 22.4462 145.228 22.6747C144.642 22.9032 143.983 23.0175 143.25 23.0175ZM143.25 21.0399C143.93 21.0399 144.46 20.7762 144.841 20.2489C145.222 19.7216 145.413 18.9745 145.413 18.0077C145.413 17.5331 145.363 17.1083 145.263 16.7333C145.164 16.3524 145.02 16.0331 144.832 15.7753C144.651 15.5175 144.425 15.3212 144.156 15.1864C143.886 15.0458 143.584 14.9755 143.25 14.9755C142.911 14.9755 142.606 15.0458 142.336 15.1864C142.073 15.3212 141.847 15.5204 141.66 15.7841C141.472 16.0419 141.329 16.3583 141.229 16.7333C141.129 17.1083 141.08 17.5331 141.08 18.0077C141.08 18.9745 141.27 19.7216 141.651 20.2489C142.038 20.7762 142.571 21.0399 143.25 21.0399ZM155.089 22.9647C154.38 22.9647 153.762 22.8124 153.235 22.5077C152.713 22.1971 152.318 21.7606 152.048 21.1981H151.996V22.8505H149.473V9.5614H152.039V14.826H152.092C152.362 14.2635 152.754 13.83 153.27 13.5253C153.786 13.2147 154.389 13.0594 155.081 13.0594C155.69 13.0594 156.238 13.1737 156.724 13.4022C157.216 13.6307 157.632 13.9589 157.972 14.3866C158.312 14.8085 158.573 15.327 158.754 15.9423C158.936 16.5516 159.027 17.2401 159.027 18.0077C159.027 18.7753 158.936 19.4667 158.754 20.0819C158.573 20.6913 158.312 21.2098 157.972 21.6376C157.632 22.0653 157.219 22.3934 156.733 22.6219C156.247 22.8505 155.699 22.9647 155.089 22.9647ZM154.219 15.1337C153.891 15.1337 153.592 15.204 153.323 15.3446C153.053 15.4794 152.822 15.6727 152.628 15.9247C152.435 16.1766 152.286 16.4813 152.18 16.8387C152.075 17.1903 152.022 17.5829 152.022 18.0165C152.022 18.4501 152.075 18.8456 152.18 19.203C152.286 19.5546 152.435 19.8563 152.628 20.1083C152.822 20.3544 153.053 20.5477 153.323 20.6884C153.592 20.8231 153.891 20.8905 154.219 20.8905C154.553 20.8905 154.852 20.8231 155.116 20.6884C155.385 20.5536 155.614 20.3602 155.801 20.1083C155.995 19.8563 156.141 19.5546 156.241 19.203C156.346 18.8456 156.399 18.4471 156.399 18.0077C156.399 17.5682 156.346 17.1727 156.241 16.8212C156.141 16.4696 155.995 16.1678 155.801 15.9159C155.614 15.6639 155.385 15.4706 155.116 15.3358C154.846 15.201 154.547 15.1337 154.219 15.1337ZM164.722 14.9227C164.429 14.9227 164.157 14.9755 163.905 15.0809C163.659 15.1805 163.442 15.3241 163.254 15.5116C163.073 15.6932 162.923 15.913 162.806 16.1708C162.695 16.4227 162.627 16.704 162.604 17.0145H166.779C166.767 16.6981 166.708 16.411 166.603 16.1532C166.498 15.8954 166.354 15.6757 166.172 15.494C165.997 15.3124 165.786 15.1718 165.539 15.0721C165.293 14.9725 165.021 14.9227 164.722 14.9227ZM169.178 19.8973C169.108 20.3661 168.95 20.7938 168.704 21.1805C168.457 21.5614 168.144 21.8895 167.763 22.1649C167.382 22.4344 166.937 22.6454 166.427 22.7977C165.923 22.9442 165.378 23.0175 164.792 23.0175C164.054 23.0175 163.392 22.9032 162.806 22.6747C162.22 22.4462 161.722 22.118 161.312 21.6903C160.908 21.2626 160.594 20.7411 160.372 20.1259C160.155 19.5106 160.046 18.8192 160.046 18.0516C160.046 17.2841 160.155 16.5897 160.372 15.9686C160.588 15.3475 160.899 14.8173 161.303 14.3778C161.707 13.9384 162.197 13.6014 162.771 13.3671C163.345 13.1268 163.987 13.0067 164.696 13.0067C165.393 13.0067 166.023 13.121 166.585 13.3495C167.148 13.5721 167.625 13.8915 168.018 14.3075C168.416 14.7235 168.721 15.2274 168.932 15.8192C169.149 16.411 169.257 17.076 169.257 17.8143V18.6053H162.578V18.7635C162.578 19.1151 162.63 19.4344 162.736 19.7216C162.847 20.0087 162.999 20.2548 163.193 20.4598C163.392 20.6649 163.629 20.8231 163.905 20.9344C164.186 21.0458 164.497 21.1014 164.836 21.1014C165.323 21.1014 165.742 20.996 166.093 20.785C166.451 20.5682 166.691 20.2723 166.814 19.8973H169.178ZM178.038 16.496V16.4257L174.039 10.1678H177.159L179.848 14.7382H179.918L182.634 10.1678H185.596L181.448 16.4784V16.5399L185.543 22.8505H182.52L179.743 18.412H179.672L176.877 22.8505H174.012L178.038 16.496ZM191.915 10.1678C192.865 10.1678 193.714 10.3085 194.464 10.5897C195.214 10.8651 195.847 11.2723 196.363 11.8114C196.884 12.3446 197.28 13.0009 197.549 13.7802C197.825 14.5594 197.962 15.453 197.962 16.4608C197.962 17.4686 197.825 18.368 197.549 19.1591C197.28 19.9501 196.884 20.621 196.363 21.1718C195.847 21.7167 195.214 22.1327 194.464 22.4198C193.714 22.7069 192.865 22.8505 191.915 22.8505H187.029V10.1678H191.915ZM189.683 20.6532H191.599C192.794 20.6532 193.703 20.3016 194.324 19.5985C194.945 18.8895 195.255 17.8466 195.255 16.4696C195.255 15.8075 195.173 15.2216 195.009 14.7118C194.851 14.1962 194.617 13.7655 194.306 13.4198C193.996 13.0682 193.612 12.8046 193.155 12.6288C192.704 12.4471 192.185 12.3563 191.599 12.3563H189.683V20.6532Z" fill="#2792AB"/>
<rect x="225.113" y="1.85144" width="97.0699" height="28.0648" rx="4.5" stroke="#2792AB"/>
<path d="M249.091 22.8503V10.1677H257.397V12.3562H251.745V15.7576H256.905V17.8582H251.745V22.8503H249.091ZM258.829 13.1736H261.396V22.8503H258.829V13.1736ZM260.113 12.1189C259.925 12.1189 259.746 12.0867 259.577 12.0222C259.412 11.9519 259.266 11.8582 259.137 11.741C259.014 11.6179 258.914 11.4744 258.838 11.3103C258.768 11.1462 258.733 10.9675 258.733 10.7742C258.733 10.5808 258.768 10.405 258.838 10.2468C258.914 10.0828 259.014 9.94214 259.137 9.82495C259.266 9.7019 259.412 9.60815 259.577 9.5437C259.746 9.47339 259.925 9.43823 260.113 9.43823C260.306 9.43823 260.485 9.47339 260.649 9.5437C260.819 9.60815 260.965 9.7019 261.088 9.82495C261.217 9.94214 261.317 10.0828 261.387 10.2468C261.463 10.405 261.501 10.5808 261.501 10.7742C261.501 10.9675 261.463 11.1462 261.387 11.3103C261.317 11.4744 261.217 11.6179 261.088 11.741C260.965 11.8582 260.819 11.9519 260.649 12.0222C260.485 12.0867 260.306 12.1189 260.113 12.1189ZM267.619 20.8025C267.952 20.8025 268.254 20.738 268.524 20.6091C268.793 20.4802 269.025 20.2957 269.218 20.0554C269.411 19.8093 269.558 19.5134 269.658 19.1677C269.763 18.822 269.816 18.4324 269.816 17.9988C269.816 17.5652 269.763 17.1726 269.658 16.821C269.558 16.4636 269.411 16.1619 269.218 15.9158C269.025 15.6638 268.793 15.4705 268.524 15.3357C268.254 15.2009 267.952 15.1335 267.619 15.1335C267.285 15.1335 266.983 15.2009 266.713 15.3357C266.45 15.4705 266.224 15.6609 266.036 15.907C265.849 16.1531 265.702 16.4519 265.597 16.8035C265.497 17.155 265.448 17.5505 265.448 17.99C265.448 18.4294 265.497 18.825 265.597 19.1765C265.697 19.5222 265.84 19.8152 266.028 20.0554C266.221 20.2957 266.45 20.4802 266.713 20.6091C266.983 20.738 267.285 20.8025 267.619 20.8025ZM267.592 26.3923C266.959 26.3923 266.376 26.325 265.843 26.1902C265.31 26.0554 264.847 25.8621 264.454 25.6101C264.068 25.364 263.76 25.0652 263.532 24.7136C263.303 24.3621 263.171 23.9695 263.136 23.5359H265.667C265.708 23.6941 265.787 23.8376 265.905 23.9666C266.022 24.0955 266.168 24.2039 266.344 24.2917C266.52 24.3855 266.719 24.4558 266.942 24.5027C267.164 24.5554 267.402 24.5818 267.654 24.5818C267.976 24.5818 268.269 24.5408 268.533 24.4587C268.802 24.3767 269.031 24.2595 269.218 24.1072C269.406 23.9607 269.549 23.7791 269.649 23.5623C269.754 23.3455 269.807 23.0994 269.807 22.824V21.0925H269.754C269.637 21.3503 269.479 21.5847 269.28 21.7957C269.086 22.0066 268.861 22.1853 268.603 22.3318C268.345 22.4783 268.061 22.5925 267.75 22.6746C267.44 22.7507 267.109 22.7888 266.757 22.7888C266.165 22.7888 265.626 22.6775 265.14 22.4548C264.66 22.2322 264.246 21.9158 263.901 21.5056C263.561 21.0896 263.294 20.5857 263.101 19.9939C262.913 19.3962 262.82 18.7253 262.82 17.9812C262.82 17.2253 262.911 16.5427 263.092 15.9333C263.28 15.324 263.546 14.8083 263.892 14.3865C264.238 13.9587 264.654 13.6306 265.14 13.4021C265.632 13.1736 266.186 13.0593 266.801 13.0593C267.147 13.0593 267.472 13.1033 267.777 13.1912C268.087 13.2732 268.371 13.3904 268.629 13.5427C268.887 13.6951 269.113 13.8796 269.306 14.0964C269.505 14.3132 269.669 14.5564 269.798 14.8259H269.842V13.1736H272.373V22.6306C272.373 23.2048 272.259 23.7234 272.031 24.1863C271.808 24.655 271.489 25.0505 271.073 25.3728C270.657 25.7009 270.153 25.9529 269.561 26.1287C268.975 26.3044 268.319 26.3923 267.592 26.3923ZM274.114 13.1736H276.592V14.9314H276.645C276.75 14.6384 276.891 14.3748 277.067 14.1404C277.248 13.906 277.456 13.7068 277.691 13.5427C277.931 13.3787 278.195 13.2527 278.482 13.1648C278.775 13.0769 279.082 13.033 279.405 13.033C280.102 13.033 280.685 13.2029 281.154 13.5427C281.622 13.8826 281.939 14.3718 282.103 15.0105H282.156C282.267 14.7058 282.419 14.4333 282.613 14.1931C282.806 13.947 283.032 13.739 283.289 13.5691C283.553 13.3992 283.843 13.2673 284.16 13.1736C284.476 13.0798 284.81 13.033 285.161 13.033C285.636 13.033 286.067 13.1121 286.453 13.2703C286.846 13.4226 287.18 13.6423 287.455 13.9294C287.737 14.2107 287.953 14.5505 288.106 14.949C288.258 15.3474 288.334 15.7898 288.334 16.2761V22.8503H285.768V16.9177C285.768 16.3494 285.63 15.9158 285.355 15.6169C285.079 15.3123 284.678 15.1599 284.151 15.1599C283.899 15.1599 283.667 15.2039 283.456 15.2917C283.251 15.3796 283.076 15.5056 282.929 15.6697C282.783 15.8279 282.668 16.0212 282.586 16.2498C282.504 16.4724 282.463 16.7214 282.463 16.9968V22.8503H279.985V16.821C279.985 16.2996 279.844 15.8923 279.563 15.5994C279.282 15.3064 278.892 15.1599 278.394 15.1599C278.142 15.1599 277.911 15.2068 277.7 15.3005C277.489 15.3884 277.307 15.5173 277.155 15.6873C277.008 15.8513 276.891 16.0476 276.803 16.2761C276.721 16.5046 276.68 16.7566 276.68 17.032V22.8503H274.114V13.1736ZM293.74 21.0925C294.038 21.0925 294.317 21.0486 294.575 20.9607C294.832 20.8728 295.058 20.7498 295.251 20.5916C295.445 20.4333 295.597 20.2458 295.708 20.0291C295.82 19.8064 295.875 19.5632 295.875 19.2996V18.5876L293.845 18.7283C293.306 18.7634 292.896 18.8835 292.615 19.0886C292.339 19.2937 292.202 19.575 292.202 19.9324C292.202 20.2898 292.339 20.574 292.615 20.7849C292.896 20.99 293.271 21.0925 293.74 21.0925ZM292.905 22.9646C292.436 22.9646 292.002 22.8943 291.604 22.7537C291.211 22.613 290.869 22.4167 290.576 22.1648C290.283 21.907 290.054 21.6023 289.89 21.2507C289.726 20.8933 289.644 20.4978 289.644 20.0642C289.644 19.1794 289.969 18.4939 290.619 18.0076C291.27 17.5212 292.216 17.24 293.458 17.1638L295.875 17.0144V16.3728C295.875 15.9041 295.726 15.5466 295.427 15.3005C295.128 15.0544 294.712 14.9314 294.179 14.9314C293.71 14.9314 293.324 15.0427 293.019 15.2654C292.72 15.488 292.538 15.7751 292.474 16.1267H290.127C290.145 15.6638 290.256 15.2419 290.461 14.8611C290.672 14.4802 290.959 14.1521 291.323 13.8767C291.692 13.6013 292.125 13.3875 292.623 13.2351C293.127 13.0828 293.681 13.0066 294.285 13.0066C294.906 13.0066 295.468 13.0828 295.972 13.2351C296.482 13.3875 296.915 13.6042 297.273 13.8855C297.63 14.1667 297.906 14.5066 298.099 14.905C298.298 15.2976 298.398 15.7341 298.398 16.2146V22.8503H295.919V21.3562H295.867C295.732 21.6082 295.559 21.8337 295.348 22.033C295.143 22.2322 294.911 22.4021 294.654 22.5427C294.396 22.6775 294.118 22.78 293.819 22.8503C293.52 22.9265 293.215 22.9646 292.905 22.9646Z" fill="#2792AB"/>
</svg>
