<svg width="292" height="31" viewBox="0 0 292 31" fill="none" xmlns="http://www.w3.org/2000/svg">
<rect x="1.06378" y="2.01221" width="87.24" height="28.0648" rx="4.5" stroke="#00CFFF"/>
<path d="M30.9377 12.8333H33.5041V22.51H30.9377V12.8333ZM32.2209 11.7786C32.0334 11.7786 31.8547 11.7463 31.6848 11.6819C31.5207 11.6116 31.3742 11.5178 31.2453 11.4006C31.1223 11.2776 31.0226 11.134 30.9465 10.97C30.8762 10.8059 30.841 10.6272 30.841 10.4338C30.841 10.2405 30.8762 10.0647 30.9465 9.90649C31.0226 9.74243 31.1223 9.60181 31.2453 9.48462C31.3742 9.36157 31.5207 9.26782 31.6848 9.20337C31.8547 9.13306 32.0334 9.0979 32.2209 9.0979C32.4142 9.0979 32.593 9.13306 32.757 9.20337C32.9269 9.26782 33.0734 9.36157 33.1965 9.48462C33.3254 9.60181 33.425 9.74243 33.4953 9.90649C33.5715 10.0647 33.6096 10.2405 33.6096 10.4338C33.6096 10.6272 33.5715 10.8059 33.4953 10.97C33.425 11.134 33.3254 11.2776 33.1965 11.4006C33.0734 11.5178 32.9269 11.6116 32.757 11.6819C32.593 11.7463 32.4142 11.7786 32.2209 11.7786ZM41.1945 9.60767C42.132 9.60767 42.9787 9.76001 43.7346 10.0647C44.4904 10.3694 45.132 10.8059 45.6594 11.3743C46.1926 11.9426 46.5998 12.634 46.881 13.4485C47.1682 14.2571 47.3117 15.1653 47.3117 16.1731C47.3117 17.1809 47.1682 18.0891 46.881 18.8977C46.5998 19.7063 46.1926 20.3948 45.6594 20.9631C45.132 21.5315 44.4904 21.968 43.7346 22.2727C42.9787 22.5774 42.132 22.7297 41.1945 22.7297C40.2512 22.7297 39.4016 22.5774 38.6457 22.2727C37.8957 21.968 37.2541 21.5315 36.7209 20.9631C36.1935 20.3948 35.7863 19.7063 35.4992 18.8977C35.218 18.0891 35.0773 17.1809 35.0773 16.1731C35.0773 15.1653 35.218 14.2571 35.4992 13.4485C35.7863 12.634 36.1935 11.9426 36.7209 11.3743C37.2541 10.8059 37.8957 10.3694 38.6457 10.0647C39.4016 9.76001 40.2512 9.60767 41.1945 9.60767ZM41.1945 11.8225C40.673 11.8225 40.2014 11.925 39.7795 12.1301C39.3635 12.3293 39.006 12.6194 38.7072 13.0002C38.4142 13.3752 38.1857 13.8323 38.0217 14.3713C37.8635 14.9045 37.7844 15.5051 37.7844 16.1731C37.7844 16.8352 37.8635 17.4358 38.0217 17.9749C38.1857 18.5081 38.4142 18.9622 38.7072 19.3372C39.006 19.7122 39.3635 20.0022 39.7795 20.2073C40.2014 20.4065 40.673 20.5061 41.1945 20.5061C41.7101 20.5061 42.1789 20.4065 42.6008 20.2073C43.0226 20.0022 43.3801 19.7122 43.673 19.3372C43.966 18.9622 44.1916 18.5081 44.3498 17.9749C44.5139 17.4358 44.5959 16.8352 44.5959 16.1731C44.5959 15.5051 44.5139 14.9045 44.3498 14.3713C44.1916 13.8323 43.966 13.3752 43.673 13.0002C43.3801 12.6194 43.0226 12.3293 42.6008 12.1301C42.1789 11.925 41.7101 11.8225 41.1945 11.8225ZM51.1086 18.8977C51.1379 19.1614 51.2258 19.3987 51.3723 19.6096C51.5187 19.8206 51.7062 20.0022 51.9348 20.1545C52.1691 20.3069 52.4387 20.4241 52.7434 20.5061C53.048 20.5881 53.3762 20.6292 53.7277 20.6292C54.0793 20.6292 54.4016 20.5911 54.6945 20.5149C54.9875 20.4329 55.2394 20.3215 55.4504 20.1809C55.6613 20.0344 55.8225 19.8645 55.9338 19.6711C56.051 19.4719 56.1096 19.2551 56.1096 19.0208C56.1096 18.6106 55.9426 18.2795 55.6086 18.0276C55.2805 17.7756 54.7355 17.5647 53.9738 17.3948L52.3215 17.0344C49.9953 16.5364 48.8322 15.3557 48.8322 13.4924C48.8322 12.9065 48.9523 12.3762 49.1926 11.9016C49.4328 11.4211 49.7668 11.011 50.1945 10.6711C50.6281 10.3313 51.1408 10.0706 51.7326 9.88892C52.3244 9.70142 52.9748 9.60767 53.6838 9.60767C54.4221 9.60767 55.0871 9.69849 55.6789 9.88013C56.2766 10.0618 56.7834 10.3196 57.1994 10.6536C57.6213 10.9875 57.9465 11.3889 58.175 11.8577C58.4035 12.3264 58.5236 12.8479 58.5353 13.4221H56.048C56.0246 13.1526 55.9514 12.9124 55.8283 12.7014C55.7053 12.4905 55.5412 12.3118 55.3361 12.1653C55.131 12.0129 54.8879 11.8987 54.6066 11.8225C54.3312 11.7405 54.0266 11.6995 53.6926 11.6995C53.3644 11.6995 53.0656 11.7375 52.7961 11.8137C52.5266 11.8899 52.2951 11.9954 52.1017 12.1301C51.9142 12.2649 51.7678 12.429 51.6623 12.6223C51.5568 12.8157 51.5041 13.0295 51.5041 13.2639C51.5041 13.6565 51.6652 13.9729 51.9875 14.2131C52.3156 14.4534 52.8459 14.6555 53.5783 14.8196L55.1164 15.1448C55.7492 15.2795 56.2941 15.4524 56.7512 15.6633C57.2141 15.8684 57.5949 16.1174 57.8937 16.4104C58.1926 16.6975 58.4123 17.0344 58.5529 17.4211C58.6935 17.802 58.7639 18.2327 58.7639 18.7131C58.7639 19.3284 58.6437 19.885 58.4035 20.3831C58.1633 20.8752 57.8205 21.2971 57.3752 21.6487C56.9299 21.9944 56.3879 22.261 55.7492 22.4485C55.1164 22.636 54.4074 22.7297 53.6223 22.7297C52.8605 22.7297 52.1721 22.6418 51.5568 22.4661C50.9416 22.2903 50.4142 22.0383 49.9748 21.7102C49.5353 21.3762 49.1926 20.9749 48.9465 20.5061C48.7004 20.0315 48.5685 19.4954 48.551 18.8977H51.1086Z" fill="#00CFFF"/>
<rect x="102.503" y="2.01221" width="87.24" height="28.0648" rx="4.5" stroke="#00CFFF"/>
<path d="M117.005 9.82739C117.954 9.82739 118.803 9.96802 119.553 10.2493C120.303 10.5247 120.936 10.9319 121.452 11.4709C121.973 12.0042 122.369 12.6604 122.638 13.4397C122.914 14.219 123.051 15.1125 123.051 16.1204C123.051 17.1282 122.914 18.0276 122.638 18.8186C122.369 19.6096 121.973 20.2805 121.452 20.8313C120.936 21.3762 120.303 21.7922 119.553 22.0793C118.803 22.3665 117.954 22.51 117.005 22.51H112.118V9.82739H117.005ZM114.772 20.3127H116.688C117.883 20.3127 118.792 19.9612 119.413 19.2581C120.034 18.5491 120.344 17.5061 120.344 16.1292C120.344 15.467 120.262 14.8811 120.098 14.3713C119.94 13.8557 119.706 13.425 119.395 13.0793C119.085 12.7278 118.701 12.4641 118.244 12.2883C117.793 12.1067 117.274 12.0159 116.688 12.0159H114.772V20.3127ZM128.887 14.5823C128.594 14.5823 128.322 14.635 128.07 14.7405C127.824 14.8401 127.607 14.9836 127.42 15.1711C127.238 15.3528 127.089 15.5725 126.971 15.8303C126.86 16.0823 126.793 16.3635 126.769 16.6741H130.944C130.932 16.3577 130.874 16.0706 130.768 15.8127C130.663 15.5549 130.519 15.3352 130.338 15.1536C130.162 14.9719 129.951 14.8313 129.705 14.7317C129.459 14.6321 129.186 14.5823 128.887 14.5823ZM133.343 19.5569C133.273 20.0256 133.115 20.4534 132.869 20.8401C132.623 21.2209 132.309 21.5491 131.928 21.8245C131.548 22.094 131.102 22.3049 130.592 22.4573C130.089 22.6038 129.544 22.677 128.958 22.677C128.219 22.677 127.557 22.5627 126.971 22.3342C126.385 22.1057 125.887 21.7776 125.477 21.3499C125.073 20.9221 124.759 20.4006 124.537 19.7854C124.32 19.1702 124.212 18.4788 124.212 17.7112C124.212 16.9436 124.32 16.2493 124.537 15.6282C124.754 15.0071 125.064 14.4768 125.468 14.0374C125.873 13.5979 126.362 13.261 126.936 13.0266C127.51 12.7864 128.152 12.6663 128.861 12.6663C129.558 12.6663 130.188 12.7805 130.751 13.009C131.313 13.2317 131.791 13.551 132.183 13.967C132.582 14.3831 132.886 14.887 133.097 15.4788C133.314 16.0706 133.423 16.7356 133.423 17.4739V18.2649H126.743V18.4231C126.743 18.7747 126.796 19.094 126.901 19.3811C127.012 19.6682 127.165 19.9143 127.358 20.1194C127.557 20.3245 127.795 20.4827 128.07 20.594C128.351 20.7053 128.662 20.761 129.002 20.761C129.488 20.761 129.907 20.6555 130.258 20.4446C130.616 20.2278 130.856 19.9319 130.979 19.5569H133.343ZM134.635 15.6809C134.635 15.2239 134.732 14.8108 134.925 14.4417C135.119 14.0725 135.391 13.7561 135.743 13.4924C136.094 13.2288 136.519 13.0266 137.017 12.886C137.515 12.7395 138.072 12.6663 138.687 12.6663C139.285 12.6663 139.827 12.7395 140.313 12.886C140.805 13.0325 141.227 13.2405 141.579 13.51C141.93 13.7795 142.203 14.1018 142.396 14.4768C142.59 14.8518 142.692 15.2708 142.704 15.7336H140.331C140.301 15.3469 140.137 15.0422 139.839 14.8196C139.546 14.5969 139.15 14.4856 138.652 14.4856C138.189 14.4856 137.817 14.5793 137.536 14.7668C137.255 14.9543 137.114 15.2063 137.114 15.5227C137.114 15.9973 137.545 16.3342 138.406 16.5334L140.225 16.929C140.712 17.0403 141.125 17.1721 141.465 17.3245C141.81 17.4768 142.091 17.6584 142.308 17.8694C142.531 18.0803 142.692 18.3264 142.792 18.6077C142.891 18.8831 142.941 19.1995 142.941 19.5569C142.941 20.0256 142.836 20.4534 142.625 20.8401C142.42 21.2209 142.13 21.5491 141.755 21.8245C141.385 22.094 140.937 22.3049 140.41 22.4573C139.888 22.6038 139.311 22.677 138.678 22.677C138.04 22.677 137.463 22.6038 136.947 22.4573C136.437 22.3108 135.998 22.1028 135.629 21.8333C135.265 21.5579 134.978 21.2327 134.767 20.8577C134.556 20.4768 134.433 20.052 134.398 19.5833H136.903C136.967 19.9934 137.158 20.3098 137.474 20.5325C137.791 20.7493 138.216 20.8577 138.749 20.8577C139.264 20.8577 139.666 20.7668 139.953 20.5852C140.246 20.3977 140.392 20.1458 140.392 19.8293C140.392 19.5774 140.299 19.3782 140.111 19.2317C139.929 19.0852 139.619 18.9592 139.179 18.8538L137.395 18.4495C136.481 18.2444 135.793 17.9104 135.33 17.4475C134.867 16.9788 134.635 16.3899 134.635 15.6809ZM150.298 12.8333H153.216L149.489 16.9905L153.391 22.51H150.438L147.608 18.5374L146.914 19.2844V22.51H144.347V9.22095H146.914V16.7444H146.949L150.298 12.8333ZM157.425 10.6799V12.8333H159.218V14.7756H157.425V19.4778C157.425 20.2161 157.809 20.5852 158.577 20.5852C158.694 20.5852 158.808 20.5823 158.92 20.5764C159.037 20.5647 159.136 20.553 159.218 20.5413V22.4397C159.084 22.469 158.908 22.4924 158.691 22.51C158.48 22.5334 158.243 22.5452 157.979 22.5452C157.417 22.5452 156.939 22.4954 156.547 22.3958C156.154 22.2961 155.832 22.1409 155.58 21.9299C155.328 21.719 155.143 21.4465 155.026 21.1125C154.915 20.7786 154.859 20.3743 154.859 19.8997V14.7756H153.55V12.8333H154.859V10.6799H157.425ZM164.966 22.677C164.234 22.677 163.572 22.5627 162.98 22.3342C162.394 22.1057 161.893 21.7776 161.477 21.3499C161.067 20.9163 160.751 20.3918 160.528 19.7766C160.305 19.1555 160.194 18.4524 160.194 17.6672C160.194 16.8938 160.305 16.1995 160.528 15.5842C160.757 14.9631 161.076 14.4387 161.486 14.011C161.902 13.5774 162.403 13.2463 162.989 13.0178C163.581 12.7834 164.24 12.6663 164.966 12.6663C165.693 12.6663 166.349 12.7834 166.935 13.0178C167.527 13.2463 168.031 13.5774 168.447 14.011C168.863 14.4387 169.182 14.9631 169.405 15.5842C169.628 16.1995 169.739 16.8938 169.739 17.6672C169.739 18.4524 169.628 19.1555 169.405 19.7766C169.182 20.3918 168.863 20.9163 168.447 21.3499C168.037 21.7776 167.536 22.1057 166.944 22.3342C166.358 22.5627 165.699 22.677 164.966 22.677ZM164.966 20.6995C165.646 20.6995 166.176 20.4358 166.557 19.9084C166.938 19.3811 167.129 18.634 167.129 17.6672C167.129 17.1926 167.079 16.7678 166.979 16.3928C166.88 16.012 166.736 15.6926 166.549 15.4348C166.367 15.177 166.141 14.9807 165.872 14.8459C165.602 14.7053 165.3 14.635 164.966 14.635C164.627 14.635 164.322 14.7053 164.052 14.8459C163.789 14.9807 163.563 15.1799 163.376 15.4436C163.188 15.7014 163.045 16.0178 162.945 16.3928C162.845 16.7678 162.796 17.1926 162.796 17.6672C162.796 18.634 162.986 19.3811 163.367 19.9084C163.754 20.4358 164.287 20.6995 164.966 20.6995ZM176.709 12.719C177.324 12.719 177.875 12.8333 178.361 13.0618C178.853 13.2903 179.269 13.6184 179.609 14.0461C179.955 14.468 180.218 14.9866 180.4 15.6018C180.588 16.2112 180.681 16.8997 180.681 17.6672C180.681 18.4348 180.591 19.1262 180.409 19.7415C180.227 20.3508 179.964 20.8694 179.618 21.2971C179.278 21.7249 178.865 22.053 178.379 22.2815C177.892 22.51 177.347 22.6243 176.744 22.6243C176.041 22.6243 175.428 22.4719 174.907 22.1672C174.391 21.8625 174.002 21.4348 173.738 20.884H173.685V25.551H171.119V12.8333H173.65V14.4856H173.703C173.832 14.2161 173.996 13.9729 174.195 13.7561C174.394 13.5334 174.623 13.3459 174.881 13.1936C175.144 13.0413 175.428 12.9241 175.733 12.842C176.044 12.76 176.369 12.719 176.709 12.719ZM175.856 20.55C176.19 20.55 176.492 20.4827 176.761 20.3479C177.031 20.2131 177.259 20.0198 177.447 19.7678C177.64 19.5159 177.79 19.2141 177.895 18.8625C178.001 18.5051 178.053 18.1067 178.053 17.6672C178.053 17.2336 178.001 16.8411 177.895 16.4895C177.79 16.1321 177.64 15.8303 177.447 15.5842C177.259 15.3323 177.031 15.1389 176.761 15.0042C176.492 14.8635 176.19 14.7932 175.856 14.7932C175.528 14.7932 175.229 14.8635 174.96 15.0042C174.696 15.1389 174.467 15.3323 174.274 15.5842C174.087 15.8362 173.94 16.1409 173.835 16.4983C173.729 16.8499 173.676 17.2424 173.676 17.676C173.676 18.1096 173.729 18.5051 173.835 18.8625C173.94 19.2141 174.087 19.5159 174.274 19.7678C174.467 20.0198 174.696 20.2131 174.96 20.3479C175.229 20.4827 175.528 20.55 175.856 20.55Z" fill="#00CFFF"/>
<rect x="203.942" y="2.01221" width="87.2369" height="28.0648" rx="4.5" stroke="#00CFFF"/>
<path d="M233.955 22.51H231.59V13.9495H231.52L228.075 22.387H226.405L222.96 13.9495H222.889V22.51H220.525V9.82739H223.601L227.205 18.8186H227.275L230.879 9.82739H233.955V22.51ZM240.292 22.677C239.559 22.677 238.897 22.5627 238.305 22.3342C237.719 22.1057 237.218 21.7776 236.802 21.3499C236.392 20.9163 236.076 20.3918 235.853 19.7766C235.63 19.1555 235.519 18.4524 235.519 17.6672C235.519 16.8938 235.63 16.1995 235.853 15.5842C236.082 14.9631 236.401 14.4387 236.811 14.011C237.227 13.5774 237.728 13.2463 238.314 13.0178C238.906 12.7834 239.565 12.6663 240.292 12.6663C241.018 12.6663 241.674 12.7834 242.26 13.0178C242.852 13.2463 243.356 13.5774 243.772 14.011C244.188 14.4387 244.507 14.9631 244.73 15.5842C244.953 16.1995 245.064 16.8938 245.064 17.6672C245.064 18.4524 244.953 19.1555 244.73 19.7766C244.507 20.3918 244.188 20.9163 243.772 21.3499C243.362 21.7776 242.861 22.1057 242.269 22.3342C241.683 22.5627 241.024 22.677 240.292 22.677ZM240.292 20.6995C240.971 20.6995 241.502 20.4358 241.882 19.9084C242.263 19.3811 242.454 18.634 242.454 17.6672C242.454 17.1926 242.404 16.7678 242.304 16.3928C242.205 16.012 242.061 15.6926 241.874 15.4348C241.692 15.177 241.466 14.9807 241.197 14.8459C240.927 14.7053 240.626 14.635 240.292 14.635C239.952 14.635 239.647 14.7053 239.378 14.8459C239.114 14.9807 238.888 15.1799 238.701 15.4436C238.513 15.7014 238.37 16.0178 238.27 16.3928C238.171 16.7678 238.121 17.1926 238.121 17.6672C238.121 18.634 238.311 19.3811 238.692 19.9084C239.079 20.4358 239.612 20.6995 240.292 20.6995ZM252.13 22.6243C251.421 22.6243 250.803 22.4719 250.276 22.1672C249.754 21.8567 249.359 21.4202 249.089 20.8577H249.037V22.51H246.514V9.22095H249.081V14.4856H249.133C249.403 13.9231 249.796 13.4895 250.311 13.1848C250.827 12.8743 251.43 12.719 252.122 12.719C252.731 12.719 253.279 12.8333 253.765 13.0618C254.257 13.2903 254.673 13.6184 255.013 14.0461C255.353 14.468 255.614 14.9866 255.796 15.6018C255.977 16.2112 256.068 16.8997 256.068 17.6672C256.068 18.4348 255.977 19.1262 255.796 19.7415C255.614 20.3508 255.353 20.8694 255.013 21.2971C254.673 21.7249 254.26 22.053 253.774 22.2815C253.288 22.51 252.74 22.6243 252.13 22.6243ZM251.26 14.7932C250.932 14.7932 250.633 14.8635 250.364 15.0042C250.094 15.1389 249.863 15.3323 249.67 15.5842C249.476 15.8362 249.327 16.1409 249.221 16.4983C249.116 16.8499 249.063 17.2424 249.063 17.676C249.063 18.1096 249.116 18.5051 249.221 18.8625C249.327 19.2141 249.476 19.5159 249.67 19.7678C249.863 20.0139 250.094 20.2073 250.364 20.3479C250.633 20.4827 250.932 20.55 251.26 20.55C251.594 20.55 251.893 20.4827 252.157 20.3479C252.426 20.2131 252.655 20.0198 252.842 19.7678C253.036 19.5159 253.182 19.2141 253.282 18.8625C253.387 18.5051 253.44 18.1067 253.44 17.6672C253.44 17.2278 253.387 16.8323 253.282 16.4807C253.182 16.1292 253.036 15.8274 252.842 15.5754C252.655 15.3235 252.426 15.1301 252.157 14.9954C251.887 14.8606 251.588 14.7932 251.26 14.7932ZM257.492 12.8333H260.058V22.51H257.492V12.8333ZM258.775 11.7786C258.587 11.7786 258.409 11.7463 258.239 11.6819C258.075 11.6116 257.928 11.5178 257.799 11.4006C257.676 11.2776 257.577 11.134 257.501 10.97C257.43 10.8059 257.395 10.6272 257.395 10.4338C257.395 10.2405 257.43 10.0647 257.501 9.90649C257.577 9.74243 257.676 9.60181 257.799 9.48462C257.928 9.36157 258.075 9.26782 258.239 9.20337C258.409 9.13306 258.587 9.0979 258.775 9.0979C258.968 9.0979 259.147 9.13306 259.311 9.20337C259.481 9.26782 259.628 9.36157 259.751 9.48462C259.879 9.60181 259.979 9.74243 260.049 9.90649C260.126 10.0647 260.164 10.2405 260.164 10.4338C260.164 10.6272 260.126 10.8059 260.049 10.97C259.979 11.134 259.879 11.2776 259.751 11.4006C259.628 11.5178 259.481 11.6116 259.311 11.6819C259.147 11.7463 258.968 11.7786 258.775 11.7786ZM261.913 9.22095H264.479V22.51H261.913V9.22095ZM270.605 14.5823C270.312 14.5823 270.04 14.635 269.788 14.7405C269.542 14.8401 269.325 14.9836 269.137 15.1711C268.956 15.3528 268.806 15.5725 268.689 15.8303C268.578 16.0823 268.51 16.3635 268.487 16.6741H272.662C272.65 16.3577 272.591 16.0706 272.486 15.8127C272.38 15.5549 272.237 15.3352 272.055 15.1536C271.879 14.9719 271.669 14.8313 271.422 14.7317C271.176 14.6321 270.904 14.5823 270.605 14.5823ZM275.061 19.5569C274.991 20.0256 274.833 20.4534 274.587 20.8401C274.34 21.2209 274.027 21.5491 273.646 21.8245C273.265 22.094 272.82 22.3049 272.31 22.4573C271.806 22.6038 271.261 22.677 270.675 22.677C269.937 22.677 269.275 22.5627 268.689 22.3342C268.103 22.1057 267.605 21.7776 267.195 21.3499C266.791 20.9221 266.477 20.4006 266.254 19.7854C266.038 19.1702 265.929 18.4788 265.929 17.7112C265.929 16.9436 266.038 16.2493 266.254 15.6282C266.471 15.0071 266.782 14.4768 267.186 14.0374C267.59 13.5979 268.08 13.261 268.654 13.0266C269.228 12.7864 269.87 12.6663 270.579 12.6663C271.276 12.6663 271.906 12.7805 272.468 13.009C273.031 13.2317 273.508 13.551 273.901 13.967C274.299 14.3831 274.604 14.887 274.815 15.4788C275.032 16.0706 275.14 16.7356 275.14 17.4739V18.2649H268.461V18.4231C268.461 18.7747 268.513 19.094 268.619 19.3811C268.73 19.6682 268.882 19.9143 269.076 20.1194C269.275 20.3245 269.512 20.4827 269.788 20.594C270.069 20.7053 270.379 20.761 270.719 20.761C271.206 20.761 271.625 20.6555 271.976 20.4446C272.334 20.2278 272.574 19.9319 272.697 19.5569H275.061Z" fill="#00CFFF"/>
</svg>
