<svg width="219" height="136" viewBox="0 0 219 136" fill="none" xmlns="http://www.w3.org/2000/svg">
<path d="M24.6214 81.5831C25.2999 82.5932 26.1291 83.4536 27.1091 84.1644C28.1268 84.8378 29.2576 85.3242 30.5014 85.6234C31.0291 85.7731 31.5756 85.8479 32.141 85.8479C32.7064 85.8479 33.2718 85.8105 33.8372 85.7357C35.3072 85.5486 36.6641 85.1371 37.9079 84.5011C39.1894 83.8651 40.3768 83.0795 41.4698 82.1442C41.8467 81.845 42.186 81.5457 42.4875 81.2464C42.8267 80.9097 43.1848 80.5917 43.5617 80.2924C43.8633 79.9931 44.146 79.8809 44.4098 79.9557C44.6737 79.9931 44.8056 80.2176 44.8056 80.6291C44.881 80.9284 44.881 81.2651 44.8056 81.6392C44.7302 81.9759 44.6171 82.2939 44.4663 82.5932C43.2602 84.8378 41.7525 86.7832 39.9433 88.4292C38.1341 90.0753 35.8537 91.1789 33.1022 91.7401C28.956 92.6005 25.2057 91.9271 21.8511 89.7199C19.778 88.3357 18.1949 86.6896 17.1019 84.7817C16.0465 82.8737 15.4246 80.7226 15.2361 78.3284C14.8215 71.9311 16.6873 66.039 20.8334 60.6518C21.8888 59.1928 23.2268 57.6964 24.8476 56.1625C26.5061 54.5913 28.3153 53.2445 30.2753 52.1222C32.2729 50.9999 34.346 50.2142 36.4945 49.7653C38.6429 49.279 40.7537 49.3912 42.8267 50.102C46.1436 51.2617 47.8963 53.5064 48.0848 56.8359C48.1602 58.8561 47.7644 60.7266 46.8975 62.4475C46.0306 64.131 44.7867 65.6648 43.166 67.049C42.3744 67.7598 41.4887 68.2088 40.5087 68.3958C39.5664 68.5455 38.6618 68.4893 37.7948 68.2275C36.9279 67.9282 36.1741 67.4419 35.5333 66.7685C34.9302 66.0951 34.5722 65.2533 34.4591 64.2432C34.3083 62.6346 34.7606 61.1007 35.816 59.6417C36.5322 58.8561 37.3048 58.3885 38.1341 58.2388C38.3602 58.164 38.5864 58.1453 38.8125 58.1827C39.0764 58.1827 39.3214 58.2014 39.5475 58.2388C40.1883 58.3137 40.5087 58.6316 40.5087 59.1928C40.5087 59.6791 40.2071 60.0158 39.6041 60.2029C38.511 60.577 37.8702 61.3252 37.6818 62.4475C37.6064 62.8216 37.5875 63.0835 37.6252 63.2332C37.7383 64.0562 38.1152 64.5986 38.756 64.8605C39.3968 65.1224 40.0941 65.0289 40.8479 64.5799C41.0364 64.5051 41.206 64.3929 41.3567 64.2432C41.5452 64.0936 41.7337 63.944 41.9221 63.7943C42.6006 62.859 43.166 61.9051 43.6183 60.9324C44.0706 59.9223 44.2967 58.8374 44.2967 57.6777C44.3344 56.705 44.014 55.8445 43.3356 55.0963C42.6571 54.3481 41.8279 53.8805 40.8479 53.6934C38.8879 53.5438 36.9845 53.8805 35.1375 54.7035C33.3283 55.5266 31.6699 56.6863 30.1622 58.1827C28.6545 59.6417 27.3541 61.3626 26.261 63.3454C25.168 65.3281 24.3388 67.3857 23.7734 69.5181C23.2457 71.6131 23.0195 73.7081 23.0949 75.8031C23.208 77.8981 23.7168 79.8248 24.6214 81.5831Z" fill="#3DCEFD"/>
<path d="M52.0748 62.8403V88.9343H48.92V62.8403H52.0748Z" fill="#3DCEFD"/>
<path d="M71.9836 74.9951V88.9343H68.8287V86.6447C68.3312 87.2957 67.6075 87.9017 66.6577 88.4629C65.7078 89.0016 64.6336 89.271 63.435 89.271C62.1007 89.271 60.8908 88.9904 59.8052 88.4292C58.7423 87.8456 57.8942 87.0039 57.261 85.904C56.6504 84.8041 56.3451 83.491 56.3451 81.9647C56.3451 80.4383 56.6617 79.114 57.2949 77.9917C57.9508 76.8469 58.8215 75.9715 59.907 75.3654C61.0152 74.7369 62.2364 74.4227 63.5707 74.4227C64.7693 74.4227 65.8096 74.6808 66.6916 75.1971C67.5736 75.7133 68.286 76.3867 68.8287 77.2173L69.0662 74.9951H71.9836ZM64.2831 86.6784C65.4364 86.6784 66.4202 86.3642 67.2344 85.7357C68.0711 85.0847 68.6026 84.2093 68.8287 83.1094V80.3485C68.5573 79.3609 67.992 78.564 67.1326 77.958C66.2732 77.3295 65.2894 77.0152 64.1813 77.0152C63.3445 77.0152 62.5643 77.2173 61.8406 77.6213C61.1395 78.0253 60.5742 78.5977 60.1445 79.3384C59.7374 80.0567 59.5339 80.876 59.5339 81.7963C59.5339 82.6942 59.7487 83.5135 60.1784 84.2542C60.6081 84.9949 61.1848 85.5898 61.9085 86.0387C62.6321 86.4652 63.4237 86.6784 64.2831 86.6784Z" fill="#3DCEFD"/>
<path d="M81.4451 89.2373C80.4048 89.2373 79.4098 89.0577 78.4599 88.6986C77.5327 88.3394 76.7751 87.812 76.1871 87.1161L77.544 85.298C78.1094 85.8367 78.6974 86.2519 79.308 86.5437C79.9412 86.8355 80.5631 86.9814 81.1738 86.9814C81.9201 86.9814 82.5307 86.8355 83.0056 86.5437C83.4805 86.2519 83.718 85.803 83.718 85.197C83.718 84.7256 83.571 84.344 83.277 84.0522C82.983 83.7604 82.6437 83.5471 82.2593 83.4125C81.8974 83.2778 81.2755 83.0758 80.3935 82.8064C77.9963 82.0432 76.7977 80.6852 76.7977 78.7324C76.7977 77.5652 77.2274 76.5663 78.0868 75.7358C78.9688 74.9053 80.19 74.49 81.7504 74.49C82.7455 74.49 83.6275 74.6135 84.3964 74.8604C85.1653 75.1073 85.8777 75.5001 86.5336 76.0388L85.2784 77.958C84.9166 77.5764 84.453 77.2734 83.8876 77.0489C83.3448 76.8244 82.8247 76.701 82.3271 76.6785C81.6939 76.6785 81.1511 76.8357 80.6988 77.1499C80.2465 77.4417 80.0204 77.8458 80.0204 78.362C80.0204 78.7885 80.1674 79.1476 80.4614 79.4394C80.7554 79.7088 81.0607 79.9108 81.3773 80.0455C81.6939 80.1577 82.3158 80.3598 83.243 80.6516C84.3964 81.0331 85.2897 81.527 85.923 82.133C86.5788 82.7391 86.9067 83.5584 86.9067 84.5909C86.9067 85.9377 86.4318 87.0488 85.482 87.9242C84.5321 88.7996 83.1865 89.2373 81.4451 89.2373Z" fill="#3DCEFD"/>
<path d="M95.2926 89.2373C94.2523 89.2373 93.2572 89.0577 92.3074 88.6986C91.3801 88.3394 90.6225 87.812 90.0345 87.1161L91.3914 85.298C91.9568 85.8367 92.5448 86.2519 93.1554 86.5437C93.7887 86.8355 94.4106 86.9814 95.0212 86.9814C95.7675 86.9814 96.3781 86.8355 96.853 86.5437C97.3279 86.2519 97.5654 85.803 97.5654 85.197C97.5654 84.7256 97.4184 84.344 97.1244 84.0522C96.8304 83.7604 96.4912 83.5471 96.1067 83.4125C95.7449 83.2778 95.123 83.0758 94.241 82.8064C91.8437 82.0432 90.6451 80.6852 90.6451 78.7324C90.6451 77.5652 91.0748 76.5663 91.9342 75.7358C92.8162 74.9053 94.0374 74.49 95.5979 74.49C96.5929 74.49 97.4749 74.6135 98.2439 74.8604C99.0128 75.1073 99.7252 75.5001 100.381 76.0388L99.1259 77.958C98.764 77.5764 98.3004 77.2734 97.735 77.0489C97.1923 76.8244 96.6721 76.701 96.1746 76.6785C95.5413 76.6785 94.9986 76.8357 94.5463 77.1499C94.094 77.4417 93.8678 77.8458 93.8678 78.362C93.8678 78.7885 94.0148 79.1476 94.3088 79.4394C94.6028 79.7088 94.9081 79.9108 95.2247 80.0455C95.5413 80.1577 96.1633 80.3598 97.0905 80.6516C98.2439 81.0331 99.1372 81.527 99.7704 82.133C100.426 82.7391 100.754 83.5584 100.754 84.5909C100.754 85.9377 100.279 87.0488 99.3294 87.9242C98.3795 88.7996 97.034 89.2373 95.2926 89.2373Z" fill="#3DCEFD"/>
<path d="M109.208 75.6011L109.615 74.9614L119.656 64.5912H123.896L113.754 75.0287L124.473 88.9343H120.301L111.345 77.1162L109.276 79.1028L109.31 88.9343H105.951V64.5912H109.31V74.389L109.208 75.6011Z" fill="#3DCEFD"/>
<path d="M142.215 74.9951V88.9343H139.06V86.6447C138.562 87.2957 137.839 87.9017 136.889 88.4629C135.939 89.0016 134.865 89.271 133.666 89.271C132.332 89.271 131.122 88.9904 130.036 88.4292C128.973 87.8456 128.125 87.0039 127.492 85.904C126.881 84.8041 126.576 83.491 126.576 81.9647C126.576 80.4383 126.893 79.114 127.526 77.9917C128.182 76.8469 129.052 75.9715 130.138 75.3654C131.246 74.7369 132.467 74.4227 133.802 74.4227C135 74.4227 136.041 74.6808 136.923 75.1971C137.805 75.7133 138.517 76.3867 139.06 77.2173L139.297 74.9951H142.215ZM134.514 86.6784C135.667 86.6784 136.651 86.3642 137.465 85.7357C138.302 85.0847 138.834 84.2093 139.06 83.1094V80.3485C138.788 79.3609 138.223 78.564 137.364 77.958C136.504 77.3295 135.52 77.0152 134.412 77.0152C133.576 77.0152 132.795 77.2173 132.072 77.6213C131.371 78.0253 130.805 78.5977 130.375 79.3384C129.968 80.0567 129.765 80.876 129.765 81.7963C129.765 82.6942 129.98 83.5135 130.409 84.2542C130.839 84.9949 131.416 85.5898 132.139 86.0387C132.863 86.4652 133.655 86.6784 134.514 86.6784Z" fill="#3DCEFD"/>
<path d="M150.76 78.2947C151.122 77.5315 151.631 76.8581 152.287 76.2745C152.965 75.6909 153.678 75.242 154.424 74.9277C155.17 74.6135 155.826 74.4451 156.391 74.4227L156.256 77.554C155.238 77.5091 154.311 77.7111 153.474 78.16C152.66 78.6089 152.015 79.2374 151.54 80.0455C151.088 80.8311 150.862 81.6729 150.862 82.5707V88.9343H147.707V74.9951H150.523L150.76 78.2947Z" fill="#3DCEFD"/>
<path d="M178.474 74.4227C179.831 74.4227 180.906 74.8043 181.697 75.5674C182.511 76.3306 182.941 77.3407 182.986 78.5977V88.9343H179.831V79.7425C179.764 78.1039 179.017 77.2397 177.592 77.1499C176.778 77.1499 176.043 77.3968 175.387 77.8906C174.754 78.362 174.257 78.9905 173.895 79.7761C173.533 80.5618 173.341 81.4035 173.318 82.3014V88.9343H170.129V79.7425C170.062 78.1039 169.293 77.2397 167.823 77.1499C167.031 77.1499 166.307 77.3968 165.652 77.8906C165.018 78.362 164.521 79.0017 164.159 79.8098C163.797 80.5954 163.616 81.4372 163.616 82.335V88.9343H160.461V74.9951H163.311L163.548 77.6213C164.091 76.6112 164.826 75.8256 165.753 75.2644C166.703 74.7033 167.777 74.4227 168.976 74.4227C170.107 74.4227 171.057 74.692 171.826 75.2308C172.594 75.747 173.092 76.4653 173.318 77.3856C173.906 76.4653 174.652 75.747 175.557 75.2308C176.462 74.692 177.434 74.4227 178.474 74.4227Z" fill="#3DCEFD"/>
<path d="M202.872 74.9951V88.9343H199.717V86.6447C199.219 87.2957 198.496 87.9017 197.546 88.4629C196.596 89.0016 195.522 89.271 194.323 89.271C192.989 89.271 191.779 88.9904 190.693 88.4292C189.63 87.8456 188.782 87.0039 188.149 85.904C187.538 84.8041 187.233 83.491 187.233 81.9647C187.233 80.4383 187.55 79.114 188.183 77.9917C188.839 76.8469 189.71 75.9715 190.795 75.3654C191.903 74.7369 193.124 74.4227 194.459 74.4227C195.657 74.4227 196.698 74.6808 197.58 75.1971C198.462 75.7133 199.174 76.3867 199.717 77.2173L199.954 74.9951H202.872ZM195.171 86.6784C196.325 86.6784 197.308 86.3642 198.122 85.7357C198.959 85.0847 199.491 84.2093 199.717 83.1094V80.3485C199.445 79.3609 198.88 78.564 198.021 77.958C197.161 77.3295 196.178 77.0152 195.069 77.0152C194.233 77.0152 193.452 77.2173 192.729 77.6213C192.028 78.0253 191.462 78.5977 191.033 79.3384C190.625 80.0567 190.422 80.876 190.422 81.7963C190.422 82.6942 190.637 83.5135 191.066 84.2542C191.496 84.9949 192.073 85.5898 192.797 86.0387C193.52 86.4652 194.312 86.6784 195.171 86.6784Z" fill="#3DCEFD"/>
<path d="M6.24332 83.6053C6.91707 82.2509 8.71989 81.9601 9.70666 83.0467L18.4138 92.6342C19.5344 93.8682 18.7793 95.9024 17.1001 96.1732L2.44787 98.5366C0.768634 98.8075 -0.466967 97.0944 0.298199 95.5563L6.24332 83.6053Z" fill="#3DCEFD"/>
<path d="M215.757 72.1048C215.46 73.5931 213.884 74.4072 212.683 73.6929L201.906 67.2861C200.498 66.4488 200.658 64.208 202.182 63.4206L215.622 56.478C217.146 55.6906 218.768 57.0107 218.42 58.7553L215.757 72.1048Z" fill="#3DCEFD"/>
<path d="M117.617 107.106C116.724 105.958 115.297 105.347 113.843 105.491C112.388 105.634 111.11 106.511 110.462 107.811C103.259 122.244 91.0903 131.096 77.8901 131.096C66.9051 131.096 56.6844 124.999 49.3741 114.624C48.3133 113.119 46.3912 112.47 44.6257 113.022C41.9861 113.847 39.1263 114.301 36.1298 114.301C23.0873 114.301 13.1514 105.92 11.6661 95.9544C11.498 94.8262 10.5697 93.9169 9.4206 93.9169C8.22519 93.9169 7.2543 94.8979 7.39934 96.0756C8.95254 108.688 21.223 118.51 36.1298 118.51C38.8227 118.51 41.4296 118.189 43.9028 117.59C45.1016 117.299 46.3746 117.725 47.1207 118.7C54.9594 128.951 65.85 135.304 77.8901 135.304C91.7875 135.304 104.153 126.84 112.062 113.688C112.076 113.665 112.089 113.643 112.103 113.62C113.17 111.839 115.761 111.583 117.18 113.104C117.196 113.121 117.213 113.139 117.229 113.156C124.944 121.397 134.986 126.379 145.965 126.379C157.679 126.379 168.326 120.709 176.218 111.459C176.873 110.692 177.873 110.305 178.881 110.401C179.847 110.493 180.826 110.54 181.815 110.54C192.429 110.54 201.83 105.116 207.616 96.7754C208.209 95.9202 208.008 94.766 207.199 94.1073C206.203 93.2955 204.714 93.5649 203.973 94.6116C198.907 101.759 190.804 106.332 181.815 106.332C180.48 106.332 179.169 106.232 177.889 106.04C176.387 105.816 174.878 106.405 173.934 107.586C166.597 116.767 156.673 122.171 145.965 122.171C135.073 122.171 124.989 116.578 117.617 107.106Z" fill="#3DCEFD"/>
<path d="M211.041 66.435C210.058 67.8075 207.839 67.4115 207.204 65.85C203.195 55.9971 194.169 49.0364 183.702 48.2939C182.17 48.1852 180.817 47.2632 180.165 45.8833C173.017 30.7585 160.121 21.2488 145.965 21.2488C144.467 21.2488 142.99 21.3539 141.537 21.5584C139.981 21.7776 138.43 21.1243 137.508 19.8611C130.696 10.5311 121.269 5.06478 111.142 5.06478C99.0794 5.06478 87.9442 12.8614 81.158 25.6613C80.4349 27.0252 79.0186 27.8877 77.466 27.9097C64.8523 28.0886 53.1195 36.4752 45.9774 49.8776C45.5958 50.5936 44.853 51.0541 44.0369 51.0541C42.4706 51.0541 41.4344 49.4474 42.1626 48.071C49.5665 34.0756 61.7774 24.654 75.7269 23.7667C76.7599 23.7009 77.7005 23.1319 78.2106 22.2379C85.6023 9.28115 97.5993 0.856079 111.142 0.856079C122.382 0.856079 132.557 6.65892 139.918 16.0391C140.562 16.8596 141.59 17.2908 142.633 17.194C143.733 17.092 144.844 17.0401 145.965 17.0401C161.683 17.0401 175.479 27.2501 183.279 42.616C183.74 43.5234 184.639 44.1304 185.655 44.2579C197.281 45.7176 206.98 53.7213 211.277 64.6402C211.513 65.2382 211.415 65.9118 211.041 66.435Z" fill="#3DCEFD"/>
</svg>
