<svg width="620" height="229" viewBox="0 0 620 229" fill="none" xmlns="http://www.w3.org/2000/svg">
<rect x="4.18555" y="0.449219" width="104.604" height="185.922" fill="#3DCEFD"/>
<rect x="129.428" y="0.449219" width="104.604" height="185.922" fill="#FD7254"/>
<rect x="255.608" y="0.449219" width="104.604" height="185.922" fill="#ED9682"/>
<rect x="505.155" y="0.449219" width="104.604" height="185.922" fill="#CECECE"/>
<rect x="379.913" y="0.449219" width="104.604" height="185.922" fill="#9E9E9E"/>
<path d="M34.3844 211.733L33.9644 213.677H35.6444V214.673H33.7604L33.2324 217.121H32.2004L32.7284 214.673H30.1964L29.6684 217.121H28.6364L29.1644 214.673H27.2924V213.677H29.3684L29.7884 211.733H27.9764V210.725H30.0044L30.5324 208.241H31.5644L31.0364 210.725H33.5684L34.0964 208.241H35.1284L34.6004 210.725H36.3164V211.733H34.3844ZM33.3524 211.733H30.8204L30.4004 213.677H32.9324L33.3524 211.733ZM40.2473 208.433C40.7913 208.433 41.2593 208.529 41.6513 208.721C42.0433 208.913 42.3393 209.177 42.5393 209.513C42.7393 209.849 42.8393 210.229 42.8393 210.653C42.8393 211.181 42.6833 211.625 42.3713 211.985C42.0673 212.345 41.6193 212.561 41.0273 212.633V212.705C41.6433 212.865 42.1233 213.113 42.4673 213.449C42.8193 213.785 42.9953 214.249 42.9953 214.841C42.9953 215.537 42.7633 216.105 42.2993 216.545C41.8353 216.985 41.1673 217.205 40.2953 217.205C39.4233 217.205 38.7153 216.981 38.1713 216.533C37.6353 216.077 37.3193 215.413 37.2233 214.541H38.3033C38.3753 215.069 38.5753 215.489 38.9033 215.801C39.2393 216.113 39.6913 216.269 40.2593 216.269C40.7953 216.269 41.2073 216.133 41.4953 215.861C41.7833 215.581 41.9273 215.221 41.9273 214.781C41.9273 214.253 41.7193 213.853 41.3033 213.581C40.8953 213.301 40.3113 213.161 39.5513 213.161H39.2633V212.249H39.5513C41.0233 212.249 41.7593 211.757 41.7593 210.773C41.7593 210.341 41.6233 209.997 41.3513 209.741C41.0793 209.485 40.7033 209.357 40.2233 209.357C39.7433 209.357 39.3393 209.497 39.0113 209.777C38.6833 210.049 38.4913 210.453 38.4353 210.989H37.3673C37.4233 210.189 37.6993 209.565 38.1953 209.117C38.6993 208.661 39.3833 208.433 40.2473 208.433ZM51.7297 212.885C51.7297 213.741 51.5577 214.489 51.2137 215.129C50.8697 215.761 50.3617 216.253 49.6897 216.605C49.0257 216.949 48.2257 217.121 47.2897 217.121H44.6017V208.661H47.2897C48.2257 208.661 49.0257 208.833 49.6897 209.177C50.3617 209.513 50.8697 210.001 51.2137 210.641C51.5577 211.273 51.7297 212.021 51.7297 212.885ZM47.2057 216.137C48.3097 216.137 49.1537 215.853 49.7377 215.285C50.3217 214.717 50.6137 213.917 50.6137 212.885C50.6137 211.853 50.3217 211.053 49.7377 210.485C49.1617 209.909 48.3177 209.621 47.2057 209.621H45.6937V216.137H47.2057ZM56.9472 208.577C57.9792 208.577 58.8312 208.833 59.5032 209.345C60.1752 209.849 60.6392 210.541 60.8952 211.421H59.7432C59.5272 210.861 59.1792 210.417 58.6992 210.089C58.2192 209.753 57.6312 209.585 56.9352 209.585C56.3832 209.585 55.8872 209.721 55.4472 209.993C55.0152 210.257 54.6712 210.641 54.4152 211.145C54.1672 211.641 54.0432 212.225 54.0432 212.897C54.0432 213.561 54.1672 214.141 54.4152 214.637C54.6712 215.133 55.0152 215.517 55.4472 215.789C55.8872 216.053 56.3832 216.185 56.9352 216.185C57.6312 216.185 58.2192 216.021 58.6992 215.693C59.1792 215.357 59.5272 214.909 59.7432 214.349H60.8952C60.6392 215.229 60.1752 215.925 59.5032 216.437C58.8312 216.941 57.9792 217.193 56.9472 217.193C56.1552 217.193 55.4552 217.013 54.8472 216.653C54.2392 216.285 53.7632 215.777 53.4192 215.129C53.0832 214.473 52.9152 213.729 52.9152 212.897C52.9152 212.057 53.0832 211.309 53.4192 210.653C53.7632 209.997 54.2392 209.489 54.8472 209.129C55.4552 208.761 56.1552 208.577 56.9472 208.577ZM63.4476 209.549V212.441H66.6636V213.281H63.4476V216.233H67.0236V217.121H62.3556V208.661H67.0236V209.549H63.4476ZM73.2139 208.661V209.549H69.5179V212.477H72.6499V213.329H69.5179V217.121H68.4259V208.661H73.2139ZM81.6359 212.885C81.6359 213.741 81.4639 214.489 81.1199 215.129C80.7759 215.761 80.2679 216.253 79.5959 216.605C78.9319 216.949 78.1319 217.121 77.1959 217.121H74.5079V208.661H77.1959C78.1319 208.661 78.9319 208.833 79.5959 209.177C80.2679 209.513 80.7759 210.001 81.1199 210.641C81.4639 211.273 81.6359 212.021 81.6359 212.885ZM77.1119 216.137C78.2159 216.137 79.0599 215.853 79.6439 215.285C80.2279 214.717 80.5199 213.917 80.5199 212.885C80.5199 211.853 80.2279 211.053 79.6439 210.485C79.0679 209.909 78.2239 209.621 77.1119 209.621H75.5999V216.137H77.1119Z" fill="#9E9E9E"/>
<path d="M161.215 214.159L160.795 216.103H162.475V217.099H160.591L160.063 219.547H159.031L159.559 217.099H157.027L156.499 219.547H155.467L155.995 217.099H154.123V216.103H156.199L156.619 214.159H154.807V213.151H156.835L157.363 210.667H158.395L157.867 213.151H160.399L160.927 210.667H161.959L161.431 213.151H163.147V214.159H161.215ZM160.183 214.159H157.651L157.231 216.103H159.763L160.183 214.159ZM169.154 211.087V211.975H165.458V214.903H168.59V215.755H165.458V219.547H164.366V211.087H169.154ZM177.576 215.311C177.576 216.167 177.404 216.915 177.06 217.555C176.716 218.187 176.208 218.679 175.536 219.031C174.872 219.375 174.072 219.547 173.136 219.547H170.448V211.087H173.136C174.072 211.087 174.872 211.259 175.536 211.603C176.208 211.939 176.716 212.427 177.06 213.067C177.404 213.699 177.576 214.447 177.576 215.311ZM173.052 218.563C174.156 218.563 175 218.279 175.584 217.711C176.168 217.143 176.46 216.343 176.46 215.311C176.46 214.279 176.168 213.479 175.584 212.911C175.008 212.335 174.164 212.047 173.052 212.047H171.54V218.563H173.052ZM183.886 211.879L180.682 219.547H179.53L182.782 211.987H178.342V211.039H183.886V211.879ZM184.748 218.707C186.108 217.795 187.196 216.891 188.012 215.995C188.828 215.091 189.236 214.251 189.236 213.475C189.236 212.995 189.112 212.611 188.864 212.323C188.624 212.027 188.232 211.879 187.688 211.879C187.128 211.879 186.704 212.059 186.416 212.419C186.128 212.771 185.968 213.259 185.936 213.883H184.856C184.912 212.939 185.204 212.215 185.732 211.711C186.26 211.199 186.94 210.943 187.772 210.943C188.564 210.943 189.192 211.155 189.656 211.579C190.12 212.003 190.352 212.603 190.352 213.379C190.352 214.019 190.144 214.671 189.728 215.335C189.32 215.991 188.804 216.603 188.18 217.171C187.564 217.731 186.928 218.207 186.272 218.599H190.568V219.499H184.748V218.707ZM197.437 211.951H193.093V214.783C193.293 214.511 193.581 214.295 193.957 214.135C194.333 213.975 194.745 213.895 195.193 213.895C195.793 213.895 196.289 214.023 196.681 214.279C197.081 214.527 197.373 214.859 197.557 215.275C197.749 215.683 197.845 216.139 197.845 216.643C197.845 217.515 197.601 218.227 197.113 218.779C196.625 219.331 195.909 219.607 194.965 219.607C194.117 219.607 193.425 219.379 192.889 218.923C192.353 218.459 192.053 217.839 191.989 217.063H193.069C193.157 217.559 193.361 217.947 193.681 218.227C194.009 218.499 194.421 218.635 194.917 218.635C195.533 218.635 195.997 218.451 196.309 218.083C196.621 217.715 196.777 217.231 196.777 216.631C196.777 216.047 196.617 215.591 196.297 215.263C195.977 214.935 195.525 214.771 194.941 214.771C194.525 214.771 194.161 214.863 193.849 215.047C193.537 215.223 193.301 215.463 193.141 215.767H192.085V210.979H197.437V211.951ZM198.819 217.603V216.691L203.163 211.027H204.339V216.655H205.587V217.603H204.339V219.547H203.235V217.603H198.819ZM203.307 212.359L199.971 216.655H203.307V212.359Z" fill="#9E9E9E"/>
<path d="M537.064 211.733L536.644 213.677H538.324V214.673H536.44L535.912 217.121H534.88L535.408 214.673H532.876L532.348 217.121H531.316L531.844 214.673H529.972V213.677H532.048L532.468 211.733H530.656V210.725H532.684L533.212 208.241H534.244L533.716 210.725H536.248L536.776 208.241H537.808L537.28 210.725H538.996V211.733H537.064ZM536.032 211.733H533.5L533.08 213.677H535.612L536.032 211.733ZM543.959 208.577C544.991 208.577 545.843 208.833 546.515 209.345C547.187 209.849 547.651 210.541 547.907 211.421H546.755C546.539 210.861 546.191 210.417 545.711 210.089C545.231 209.753 544.643 209.585 543.947 209.585C543.395 209.585 542.899 209.721 542.459 209.993C542.027 210.257 541.683 210.641 541.427 211.145C541.179 211.641 541.055 212.225 541.055 212.897C541.055 213.561 541.179 214.141 541.427 214.637C541.683 215.133 542.027 215.517 542.459 215.789C542.899 216.053 543.395 216.185 543.947 216.185C544.643 216.185 545.231 216.021 545.711 215.693C546.191 215.357 546.539 214.909 546.755 214.349H547.907C547.651 215.229 547.187 215.925 546.515 216.437C545.843 216.941 544.991 217.193 543.959 217.193C543.167 217.193 542.467 217.013 541.859 216.653C541.251 216.285 540.775 215.777 540.431 215.129C540.095 214.473 539.927 213.729 539.927 212.897C539.927 212.057 540.095 211.309 540.431 210.653C540.775 209.997 541.251 209.489 541.859 209.129C542.467 208.761 543.167 208.577 543.959 208.577ZM550.459 209.549V212.441H553.675V213.281H550.459V216.233H554.035V217.121H549.367V208.661H554.035V209.549H550.459ZM559.181 208.577C560.213 208.577 561.065 208.833 561.737 209.345C562.409 209.849 562.873 210.541 563.129 211.421H561.977C561.761 210.861 561.413 210.417 560.933 210.089C560.453 209.753 559.865 209.585 559.169 209.585C558.617 209.585 558.121 209.721 557.681 209.993C557.249 210.257 556.905 210.641 556.649 211.145C556.401 211.641 556.277 212.225 556.277 212.897C556.277 213.561 556.401 214.141 556.649 214.637C556.905 215.133 557.249 215.517 557.681 215.789C558.121 216.053 558.617 216.185 559.169 216.185C559.865 216.185 560.453 216.021 560.933 215.693C561.413 215.357 561.761 214.909 561.977 214.349H563.129C562.873 215.229 562.409 215.925 561.737 216.437C561.065 216.941 560.213 217.193 559.181 217.193C558.389 217.193 557.689 217.013 557.081 216.653C556.473 216.285 555.997 215.777 555.653 215.129C555.317 214.473 555.149 213.729 555.149 212.897C555.149 212.057 555.317 211.309 555.653 210.653C555.997 209.997 556.473 209.489 557.081 209.129C557.689 208.761 558.389 208.577 559.181 208.577ZM565.682 209.549V212.441H568.898V213.281H565.682V216.233H569.258V217.121H564.59V208.661H569.258V209.549H565.682ZM574.404 208.577C575.436 208.577 576.288 208.833 576.96 209.345C577.632 209.849 578.096 210.541 578.352 211.421H577.2C576.984 210.861 576.636 210.417 576.156 210.089C575.676 209.753 575.088 209.585 574.392 209.585C573.84 209.585 573.344 209.721 572.904 209.993C572.472 210.257 572.128 210.641 571.872 211.145C571.624 211.641 571.5 212.225 571.5 212.897C571.5 213.561 571.624 214.141 571.872 214.637C572.128 215.133 572.472 215.517 572.904 215.789C573.344 216.053 573.84 216.185 574.392 216.185C575.088 216.185 575.676 216.021 576.156 215.693C576.636 215.357 576.984 214.909 577.2 214.349H578.352C578.096 215.229 577.632 215.925 576.96 216.437C576.288 216.941 575.436 217.193 574.404 217.193C573.612 217.193 572.912 217.013 572.304 216.653C571.696 216.285 571.22 215.777 570.876 215.129C570.54 214.473 570.372 213.729 570.372 212.897C570.372 212.057 570.54 211.309 570.876 210.653C571.22 209.997 571.696 209.489 572.304 209.129C572.912 208.761 573.612 208.577 574.404 208.577ZM580.904 209.549V212.441H584.12V213.281H580.904V216.233H584.48V217.121H579.812V208.661H584.48V209.549H580.904Z" fill="#9E9E9E"/>
<path d="M414.741 211.733L414.321 213.677H416.001V214.673H414.117L413.589 217.121H412.557L413.085 214.673H410.553L410.025 217.121H408.993L409.521 214.673H407.649V213.677H409.725L410.145 211.733H408.333V210.725H410.361L410.889 208.241H411.921L411.393 210.725H413.925L414.453 208.241H415.485L414.957 210.725H416.673V211.733H414.741ZM413.709 211.733H411.177L410.757 213.677H413.289L413.709 211.733ZM418.936 214.745C419.008 215.249 419.184 215.637 419.464 215.909C419.744 216.181 420.128 216.317 420.616 216.317C421.288 216.317 421.796 216.057 422.14 215.537C422.484 215.017 422.656 214.193 422.656 213.065C422.656 212.849 422.652 212.685 422.644 212.573C422.532 213.053 422.26 213.437 421.828 213.725C421.396 214.013 420.888 214.157 420.304 214.157C419.464 214.157 418.804 213.905 418.324 213.401C417.844 212.897 417.604 212.193 417.604 211.289C417.604 210.761 417.708 210.281 417.916 209.849C418.124 209.417 418.44 209.077 418.864 208.829C419.296 208.573 419.828 208.445 420.46 208.445C421.676 208.445 422.508 208.821 422.956 209.573C423.412 210.317 423.64 211.341 423.64 212.645C423.64 214.133 423.408 215.269 422.944 216.053C422.48 216.829 421.704 217.217 420.616 217.217C419.808 217.217 419.172 216.989 418.708 216.533C418.252 216.069 417.984 215.473 417.904 214.745H418.936ZM422.536 211.457C422.536 210.881 422.364 210.393 422.02 209.993C421.684 209.593 421.176 209.393 420.496 209.393C419.936 209.393 419.488 209.561 419.152 209.897C418.816 210.233 418.648 210.701 418.648 211.301C418.648 211.941 418.816 212.433 419.152 212.777C419.488 213.121 419.948 213.293 420.532 213.293C420.868 213.293 421.188 213.225 421.492 213.089C421.804 212.953 422.056 212.745 422.248 212.465C422.44 212.185 422.536 211.849 422.536 211.457ZM426.285 209.549V212.441H429.501V213.281H426.285V216.233H429.861V217.121H425.193V208.661H429.861V209.549H426.285ZM432.307 214.745C432.379 215.249 432.555 215.637 432.835 215.909C433.115 216.181 433.499 216.317 433.987 216.317C434.659 216.317 435.167 216.057 435.511 215.537C435.855 215.017 436.027 214.193 436.027 213.065C436.027 212.849 436.023 212.685 436.015 212.573C435.903 213.053 435.631 213.437 435.199 213.725C434.767 214.013 434.259 214.157 433.675 214.157C432.835 214.157 432.175 213.905 431.695 213.401C431.215 212.897 430.975 212.193 430.975 211.289C430.975 210.761 431.079 210.281 431.287 209.849C431.495 209.417 431.811 209.077 432.235 208.829C432.667 208.573 433.199 208.445 433.831 208.445C435.047 208.445 435.879 208.821 436.327 209.573C436.783 210.317 437.011 211.341 437.011 212.645C437.011 214.133 436.779 215.269 436.315 216.053C435.851 216.829 435.075 217.217 433.987 217.217C433.179 217.217 432.543 216.989 432.079 216.533C431.623 216.069 431.355 215.473 431.275 214.745H432.307ZM435.907 211.457C435.907 210.881 435.735 210.393 435.391 209.993C435.055 209.593 434.547 209.393 433.867 209.393C433.307 209.393 432.859 209.561 432.523 209.897C432.187 210.233 432.019 210.701 432.019 211.301C432.019 211.941 432.187 212.433 432.523 212.777C432.859 213.121 433.319 213.293 433.903 213.293C434.239 213.293 434.559 213.225 434.863 213.089C435.175 212.953 435.427 212.745 435.619 212.465C435.811 212.185 435.907 211.849 435.907 211.457ZM439.656 209.549V212.441H442.872V213.281H439.656V216.233H443.232V217.121H438.564V208.661H443.232V209.549H439.656ZM445.678 214.745C445.75 215.249 445.926 215.637 446.206 215.909C446.486 216.181 446.87 216.317 447.358 216.317C448.03 216.317 448.538 216.057 448.882 215.537C449.226 215.017 449.398 214.193 449.398 213.065C449.398 212.849 449.394 212.685 449.386 212.573C449.274 213.053 449.002 213.437 448.57 213.725C448.138 214.013 447.63 214.157 447.046 214.157C446.206 214.157 445.546 213.905 445.066 213.401C444.586 212.897 444.346 212.193 444.346 211.289C444.346 210.761 444.45 210.281 444.658 209.849C444.866 209.417 445.182 209.077 445.606 208.829C446.038 208.573 446.57 208.445 447.202 208.445C448.418 208.445 449.25 208.821 449.698 209.573C450.154 210.317 450.382 211.341 450.382 212.645C450.382 214.133 450.15 215.269 449.686 216.053C449.222 216.829 448.446 217.217 447.358 217.217C446.55 217.217 445.914 216.989 445.45 216.533C444.994 216.069 444.726 215.473 444.646 214.745H445.678ZM449.278 211.457C449.278 210.881 449.106 210.393 448.762 209.993C448.426 209.593 447.918 209.393 447.238 209.393C446.678 209.393 446.23 209.561 445.894 209.897C445.558 210.233 445.39 210.701 445.39 211.301C445.39 211.941 445.558 212.433 445.894 212.777C446.23 213.121 446.69 213.293 447.274 213.293C447.61 213.293 447.93 213.225 448.234 213.089C448.546 212.953 448.798 212.745 448.99 212.465C449.182 212.185 449.278 211.849 449.278 211.457ZM453.027 209.549V212.441H456.243V213.281H453.027V216.233H456.603V217.121H451.935V208.661H456.603V209.549H453.027Z" fill="#9E9E9E"/>
<path d="M285.789 211.733L285.369 213.677H287.049V214.673H285.165L284.637 217.121H283.605L284.133 214.673H281.601L281.073 217.121H280.041L280.569 214.673H278.697V213.677H280.773L281.193 211.733H279.381V210.725H281.409L281.937 208.241H282.969L282.441 210.725H284.973L285.501 208.241H286.533L286.005 210.725H287.721V211.733H285.789ZM284.757 211.733H282.225L281.805 213.677H284.337L284.757 211.733ZM290.032 209.549V212.441H293.248V213.281H290.032V216.233H293.608V217.121H288.94V208.661H293.608V209.549H290.032ZM302.138 212.885C302.138 213.741 301.966 214.489 301.622 215.129C301.278 215.761 300.77 216.253 300.098 216.605C299.434 216.949 298.634 217.121 297.698 217.121H295.01V208.661H297.698C298.634 208.661 299.434 208.833 300.098 209.177C300.77 209.513 301.278 210.001 301.622 210.641C301.966 211.273 302.138 212.021 302.138 212.885ZM297.614 216.137C298.718 216.137 299.562 215.853 300.146 215.285C300.73 214.717 301.022 213.917 301.022 212.885C301.022 211.853 300.73 211.053 300.146 210.485C299.57 209.909 298.726 209.621 297.614 209.621H296.102V216.137H297.614ZM304.656 214.745C304.728 215.249 304.904 215.637 305.184 215.909C305.464 216.181 305.848 216.317 306.336 216.317C307.008 216.317 307.516 216.057 307.86 215.537C308.204 215.017 308.376 214.193 308.376 213.065C308.376 212.849 308.372 212.685 308.364 212.573C308.252 213.053 307.98 213.437 307.548 213.725C307.116 214.013 306.608 214.157 306.024 214.157C305.184 214.157 304.524 213.905 304.044 213.401C303.564 212.897 303.324 212.193 303.324 211.289C303.324 210.761 303.428 210.281 303.636 209.849C303.844 209.417 304.16 209.077 304.584 208.829C305.016 208.573 305.548 208.445 306.18 208.445C307.396 208.445 308.228 208.821 308.676 209.573C309.132 210.317 309.36 211.341 309.36 212.645C309.36 214.133 309.128 215.269 308.664 216.053C308.2 216.829 307.424 217.217 306.336 217.217C305.528 217.217 304.892 216.989 304.428 216.533C303.972 216.069 303.704 215.473 303.624 214.745H304.656ZM308.256 211.457C308.256 210.881 308.084 210.393 307.74 209.993C307.404 209.593 306.896 209.393 306.216 209.393C305.656 209.393 305.208 209.561 304.872 209.897C304.536 210.233 304.368 210.701 304.368 211.301C304.368 211.941 304.536 212.433 304.872 212.777C305.208 213.121 305.668 213.293 306.252 213.293C306.588 213.293 306.908 213.225 307.212 213.089C307.524 212.953 307.776 212.745 307.968 212.465C308.16 212.185 308.256 211.849 308.256 211.457ZM315.497 210.917C315.433 210.413 315.261 210.025 314.981 209.753C314.709 209.473 314.329 209.333 313.841 209.333C313.161 209.333 312.645 209.597 312.293 210.125C311.949 210.653 311.777 211.489 311.777 212.633L311.789 213.077C311.909 212.597 312.185 212.217 312.617 211.937C313.049 211.649 313.557 211.505 314.141 211.505C314.981 211.505 315.637 211.757 316.109 212.261C316.589 212.765 316.829 213.469 316.829 214.373C316.829 214.901 316.725 215.381 316.517 215.813C316.309 216.237 315.989 216.577 315.557 216.833C315.133 217.081 314.605 217.205 313.973 217.205C312.765 217.205 311.933 216.825 311.477 216.065C311.029 215.305 310.805 214.273 310.805 212.969C310.805 211.465 311.045 210.337 311.525 209.585C312.013 208.825 312.805 208.445 313.901 208.445C314.709 208.445 315.329 208.673 315.761 209.129C316.201 209.585 316.461 210.181 316.541 210.917H315.497ZM311.909 214.193C311.909 214.777 312.077 215.269 312.413 215.669C312.757 216.061 313.269 216.257 313.949 216.257C314.509 216.257 314.957 216.093 315.293 215.765C315.629 215.429 315.797 214.961 315.797 214.361C315.797 213.713 315.629 213.221 315.293 212.885C314.957 212.541 314.493 212.369 313.901 212.369C313.565 212.369 313.245 212.437 312.941 212.573C312.637 212.709 312.389 212.917 312.197 213.197C312.005 213.469 311.909 213.801 311.909 214.193ZM318.342 210.653C318.342 210.237 318.454 209.857 318.678 209.513C318.902 209.169 319.234 208.897 319.674 208.697C320.114 208.497 320.638 208.397 321.246 208.397C321.854 208.397 322.374 208.497 322.806 208.697C323.246 208.897 323.578 209.169 323.802 209.513C324.026 209.857 324.138 210.237 324.138 210.653C324.138 211.125 324.01 211.533 323.754 211.877C323.498 212.221 323.11 212.465 322.59 212.609C323.15 212.761 323.586 213.025 323.898 213.401C324.21 213.777 324.366 214.241 324.366 214.793C324.366 215.593 324.082 216.221 323.514 216.677C322.946 217.133 322.19 217.361 321.246 217.361C320.302 217.361 319.546 217.133 318.978 216.677C318.41 216.221 318.126 215.593 318.126 214.793C318.126 214.241 318.278 213.777 318.582 213.401C318.894 213.025 319.33 212.761 319.89 212.609C319.37 212.465 318.982 212.221 318.726 211.877C318.47 211.533 318.342 211.125 318.342 210.653ZM319.422 210.809C319.422 211.289 319.586 211.661 319.914 211.925C320.242 212.181 320.686 212.309 321.246 212.309C321.806 212.309 322.246 212.181 322.566 211.925C322.894 211.661 323.058 211.289 323.058 210.809C323.058 210.329 322.894 209.961 322.566 209.705C322.238 209.441 321.798 209.309 321.246 209.309C320.694 209.309 320.25 209.441 319.914 209.705C319.586 209.961 319.422 210.329 319.422 210.809ZM319.194 214.733C319.194 215.277 319.378 215.701 319.746 216.005C320.114 216.301 320.614 216.449 321.246 216.449C321.87 216.449 322.366 216.297 322.734 215.993C323.102 215.689 323.286 215.269 323.286 214.733C323.286 214.189 323.094 213.777 322.71 213.497C322.326 213.217 321.838 213.077 321.246 213.077C320.646 213.077 320.154 213.217 319.77 213.497C319.386 213.777 319.194 214.189 319.194 214.733ZM325.494 216.281C326.854 215.369 327.942 214.465 328.758 213.569C329.574 212.665 329.982 211.825 329.982 211.049C329.982 210.569 329.858 210.185 329.61 209.897C329.37 209.601 328.978 209.453 328.434 209.453C327.874 209.453 327.45 209.633 327.162 209.993C326.874 210.345 326.714 210.833 326.682 211.457H325.602C325.658 210.513 325.95 209.789 326.478 209.285C327.006 208.773 327.686 208.517 328.518 208.517C329.31 208.517 329.938 208.729 330.402 209.153C330.866 209.577 331.098 210.177 331.098 210.953C331.098 211.593 330.89 212.245 330.474 212.909C330.066 213.565 329.55 214.177 328.926 214.745C328.31 215.305 327.674 215.781 327.018 216.173H331.314V217.073H325.494V216.281Z" fill="#9E9E9E"/>
</svg>
