<svg xmlns="http://www.w3.org/2000/svg" viewBox="0 0 835 1098" width="835" height="1098"><defs><style type="text/css">@import url('https://fonts.googleapis.com/css?family=Roboto+Mono:400|Roboto:400,&amp;subset=cyrillic,cyrillic-ext,greek,greek-ext,latin-ext')</style></defs><g transform="translate(5,5)"><g><g><g transform="translate(0, 34)"><path d="M55 34 L110 34 L165 34 C184 34 199 49 199 68 L199 68 L199 68 C199 87 184 102 165 102 L110 102 L55 102 C36 102 21 87 21 68 L21 68 L21 68 C21 49 36 34 55 34 Z" fill="#ffffff" stroke="#4d9ef6" stroke-width="2"/><g transform="translate(40, 49)"><text font-size="14" font-family="Roboto,sans-serif" x="70" y="24" text-anchor="middle" fill="#52565f">Create account</text></g></g><g transform="translate(275, 0)"><path d="M93 53 L163 23 A4.875 4.875 0 0 1 167 23 L237 53 L307 83 A2.1666666666666665 2.1666666666666665 0 0 1 307 87 L237 117 L167 147 A4.875 4.875 0 0 1 163 147 L93 117 L23 87 A2.1666666666666665 2.1666666666666665 0 0 1 23 83 Z" fill="#ffffff" stroke="#4d9ef6" stroke-width="2"/><g transform="translate(93, 53)"><text font-size="14" font-family="Roboto,sans-serif" x="72" y="17" text-anchor="middle" fill="#52565f">New username and</text><text font-size="14" font-family="Roboto,sans-serif" x="72" y="37" text-anchor="middle" fill="#52565f">password or sign up via</text><text font-size="14" font-family="Roboto,sans-serif" x="72" y="57" text-anchor="middle" fill="#52565f">FB or Gmail?</text></g></g><g transform="translate(55, 204)"><path d="M24.5 34 L110 34 L195.5 34 C197.5 34 199 35.5 199 37.5 L199 68 L199 98.5 C199 100.5 197.5 102 195.5 102 L110 102 L24.5 102 C22.5 102 21 100.5 21 98.5 L21 68 L21 37.5 C21 35.5 22.5 34 24.5 34 Z" fill="#ffffff" stroke="#4d9ef6" stroke-width="2"/><g transform="translate(36, 49)"><text font-size="14" font-family="Roboto,sans-serif" x="74" y="14" text-anchor="middle" fill="#52565f">New username and</text><text font-size="14" font-family="Roboto,sans-serif" x="74" y="34" text-anchor="middle" fill="#52565f">password</text></g></g><g transform="translate(330, 204)"><path d="M24.5 34 L110 34 L195.5 34 C197.5 34 199 35.5 199 37.5 L199 68 L199 98.5 C199 100.5 197.5 102 195.5 102 L110 102 L24.5 102 C22.5 102 21 100.5 21 98.5 L21 68 L21 37.5 C21 35.5 22.5 34 24.5 34 Z" fill="#ffffff" stroke="#4d9ef6" stroke-width="2"/><g transform="translate(36, 49)"><text font-size="14" font-family="Roboto,sans-serif" x="74" y="24" text-anchor="middle" fill="#52565f">Facebook</text></g></g><g transform="translate(605, 204)"><path d="M24.5 34 L110 34 L195.5 34 C197.5 34 199 35.5 199 37.5 L199 68 L199 98.5 C199 100.5 197.5 102 195.5 102 L110 102 L24.5 102 C22.5 102 21 100.5 21 98.5 L21 68 L21 37.5 C21 35.5 22.5 34 24.5 34 Z" fill="#ffffff" stroke="#4d9ef6" stroke-width="2"/><g transform="translate(36, 49)"><text font-size="14" font-family="Roboto,sans-serif" x="74" y="24" text-anchor="middle" fill="#52565f">Gmail</text></g></g><g transform="translate(55, 340)"><path d="M24.5 34 L110 34 L195.5 34 C197.5 34 199 35.5 199 37.5 L199 68 L199 98.5 C199 100.5 197.5 102 195.5 102 L110 102 L24.5 102 C22.5 102 21 100.5 21 98.5 L21 68 L21 37.5 C21 35.5 22.5 34 24.5 34 Z" fill="#ffffff" stroke="#4d9ef6" stroke-width="2"/><g transform="translate(36, 49)"><text font-size="14" font-family="Roboto,sans-serif" x="74" y="14" text-anchor="middle" fill="#52565f">Enter account</text><text font-size="14" font-family="Roboto,sans-serif" x="74" y="34" text-anchor="middle" fill="#52565f">information</text></g></g><g transform="translate(330, 510)"><path d="M24.5 34 L110 34 L195.5 34 C197.5 34 199 35.5 199 37.5 L199 68 L199 98.5 C199 100.5 197.5 102 195.5 102 L110 102 L24.5 102 C22.5 102 21 100.5 21 98.5 L21 68 L21 37.5 C21 35.5 22.5 34 24.5 34 Z" fill="#ffffff" stroke="#4d9ef6" stroke-width="2"/><g transform="translate(36, 49)"><text font-size="14" font-family="Roboto,sans-serif" x="74" y="24" text-anchor="middle" fill="#52565f">Dashboard</text></g></g><g transform="translate(330, 646)"><path d="M65.5 44.5 L108 23 A4.340425531914893 4.340425531914893 0 0 1 112 23 L154.5 44.5 L197 66 A2.2921348314606744 2.2921348314606744 0 0 1 197 70 L154.5 91.5 L112 113 A4.340425531914893 4.340425531914893 0 0 1 108 113 L65.5 91.5 L23 70 A2.2921348314606744 2.2921348314606744 0 0 1 23 66 Z" fill="#ffffff" stroke="#4d9ef6" stroke-width="2"/><g transform="translate(65.5, 44.5)"><text font-size="14" font-family="Roboto,sans-serif" x="44.5" y="18.5" text-anchor="middle" fill="#52565f">Join existing</text><text font-size="14" font-family="Roboto,sans-serif" x="44.5" y="38.5" text-anchor="middle" fill="#52565f">class?</text></g></g><g transform="translate(330, 816)"><path d="M24.5 34 L110 34 L195.5 34 C197.5 34 199 35.5 199 37.5 L199 68 L199 98.5 C199 100.5 197.5 102 195.5 102 L110 102 L24.5 102 C22.5 102 21 100.5 21 98.5 L21 68 L21 37.5 C21 35.5 22.5 34 24.5 34 Z" fill="#ffffff" stroke="#4d9ef6" stroke-width="2"/><g transform="translate(36, 49)"><text font-size="14" font-family="Roboto,sans-serif" x="74" y="24" text-anchor="middle" fill="#52565f">Enter class details</text></g></g><g transform="translate(330, 340)"><path d="M24.5 34 L110 34 L195.5 34 C197.5 34 199 35.5 199 37.5 L199 68 L199 98.5 C199 100.5 197.5 102 195.5 102 L110 102 L24.5 102 C22.5 102 21 100.5 21 98.5 L21 68 L21 37.5 C21 35.5 22.5 34 24.5 34 Z" fill="#ffffff" stroke="#4d9ef6" stroke-width="2"/><g transform="translate(36, 49)"><text font-size="14" font-family="Roboto,sans-serif" x="74" y="24" text-anchor="middle" fill="#52565f">Grant FB access</text></g></g><g transform="translate(605, 340)"><path d="M24.5 34 L110 34 L195.5 34 C197.5 34 199 35.5 199 37.5 L199 68 L199 98.5 C199 100.5 197.5 102 195.5 102 L110 102 L24.5 102 C22.5 102 21 100.5 21 98.5 L21 68 L21 37.5 C21 35.5 22.5 34 24.5 34 Z" fill="#ffffff" stroke="#4d9ef6" stroke-width="2"/><g transform="translate(36, 49)"><text font-size="14" font-family="Roboto,sans-serif" x="74" y="24" text-anchor="middle" fill="#52565f">Grant Gmail access</text></g></g><g transform="translate(330, 952)"><path d="M55 34 L110 34 L165 34 C184 34 199 49 199 68 L199 68 L199 68 C199 87 184 102 165 102 L110 102 L55 102 C36 102 21 87 21 68 L21 68 L21 68 C21 49 36 34 55 34 Z" fill="#ffffff" stroke="#4d9ef6" stroke-width="2"/><g transform="translate(40, 49)"><text font-size="14" font-family="Roboto,sans-serif" x="70" y="24" text-anchor="middle" fill="#52565f">Class dashboard</text></g></g></g><g><g><path fill="none" stroke="#4d9ef6" stroke-width="2" stroke-dasharray="0px 0px" d="M 200,102L 220,102L 265,102Q275,102 275,92L 275,95Q275,85 285,85L 294,85"/><path transform="translate( 202, 99 ) rotate( 450 )" d="M3 6C4.65685 6 6 4.65685 6 3C6 1.34315 4.65685 0 3 0C1.34315 0 0 1.34315 0 3C0 4.65685 1.34315 6 3 6Z" fill="#4d9ef6"/><path transform="translate( 296, 78 ) rotate( 450 )" d="M6.34003 0.275664C6.70452 -0.0918881 7.29548 -0.0918881 7.65997 0.275664L13.7266 6.39331C14.0911 6.76086 14.0911 7.35678 13.7266 7.72434C13.3621 8.09189 12.7712 8.09189 12.4067 7.72434L7 2.2722L1.5933 7.72434C1.22881 8.09189 0.637856 8.09189 0.273367 7.72434C-0.0911224 7.35678 -0.0911224 6.76086 0.273367 6.39331L6.34003 0.275664Z" fill="#4d9ef6"/></g><g><path fill="none" stroke="#4d9ef6" stroke-width="2" stroke-dasharray="0px 0px" d="M 440,148.5L 440,170L 440,194Q440,204 430,204L 175,204Q165,204 165,214L 165,235"/><path transform="translate( 443, 150.5 ) rotate( 180 )" d="M3 6C4.65685 6 6 4.65685 6 3C6 1.34315 4.65685 0 3 0C1.34315 0 0 1.34315 0 3C0 4.65685 1.34315 6 3 6Z" fill="#4d9ef6"/><path transform="translate( 172, 237 ) rotate( 540 )" d="M6.34003 0.275664C6.70452 -0.0918881 7.29548 -0.0918881 7.65997 0.275664L13.7266 6.39331C14.0911 6.76086 14.0911 7.35678 13.7266 7.72434C13.3621 8.09189 12.7712 8.09189 12.4067 7.72434L7 2.2722L1.5933 7.72434C1.22881 8.09189 0.637856 8.09189 0.273367 7.72434C-0.0911224 7.35678 -0.0911224 6.76086 0.273367 6.39331L6.34003 0.275664Z" fill="#4d9ef6"/></g><g><path fill="none" stroke="#4d9ef6" stroke-width="2" stroke-dasharray="0px 0px" d="M 440,148.5L 440,170L 440,204L 440,235"/><path transform="translate( 443, 150.5 ) rotate( 180 )" d="M3 6C4.65685 6 6 4.65685 6 3C6 1.34315 4.65685 0 3 0C1.34315 0 0 1.34315 0 3C0 4.65685 1.34315 6 3 6Z" fill="#4d9ef6"/><path transform="translate( 447, 237 ) rotate( 540 )" d="M6.34003 0.275664C6.70452 -0.0918881 7.29548 -0.0918881 7.65997 0.275664L13.7266 6.39331C14.0911 6.76086 14.0911 7.35678 13.7266 7.72434C13.3621 8.09189 12.7712 8.09189 12.4067 7.72434L7 2.2722L1.5933 7.72434C1.22881 8.09189 0.637856 8.09189 0.273367 7.72434C-0.0911224 7.35678 -0.0911224 6.76086 0.273367 6.39331L6.34003 0.275664Z" fill="#4d9ef6"/></g><g><path fill="none" stroke="#4d9ef6" stroke-width="2" stroke-dasharray="0px 0px" d="M 440,148.5L 440,170L 440,194Q440,204 450,204L 705,204Q715,204 715,214L 715,235"/><path transform="translate( 443, 150.5 ) rotate( 180 )" d="M3 6C4.65685 6 6 4.65685 6 3C6 1.34315 4.65685 0 3 0C1.34315 0 0 1.34315 0 3C0 4.65685 1.34315 6 3 6Z" fill="#4d9ef6"/><path transform="translate( 722, 237 ) rotate( 540 )" d="M6.34003 0.275664C6.70452 -0.0918881 7.29548 -0.0918881 7.65997 0.275664L13.7266 6.39331C14.0911 6.76086 14.0911 7.35678 13.7266 7.72434C13.3621 8.09189 12.7712 8.09189 12.4067 7.72434L7 2.2722L1.5933 7.72434C1.22881 8.09189 0.637856 8.09189 0.273367 7.72434C-0.0911224 7.35678 -0.0911224 6.76086 0.273367 6.39331L6.34003 0.275664Z" fill="#4d9ef6"/></g><g><path fill="none" stroke="#4d9ef6" stroke-width="2" stroke-dasharray="0px 0px" d="M 165,307L 165,340L 165,340L 165,371"/><path transform="translate( 168, 309 ) rotate( 180 )" d="M3 6C4.65685 6 6 4.65685 6 3C6 1.34315 4.65685 0 3 0C1.34315 0 0 1.34315 0 3C0 4.65685 1.34315 6 3 6Z" fill="#4d9ef6"/><path transform="translate( 172, 373 ) rotate( 540 )" d="M6.34003 0.275664C6.70452 -0.0918881 7.29548 -0.0918881 7.65997 0.275664L13.7266 6.39331C14.0911 6.76086 14.0911 7.35678 13.7266 7.72434C13.3621 8.09189 12.7712 8.09189 12.4067 7.72434L7 2.2722L1.5933 7.72434C1.22881 8.09189 0.637856 8.09189 0.273367 7.72434C-0.0911224 7.35678 -0.0911224 6.76086 0.273367 6.39331L6.34003 0.275664Z" fill="#4d9ef6"/></g><g><path fill="none" stroke="#4d9ef6" stroke-width="2" stroke-dasharray="0px 0px" d="M 440,307L 440,340L 440,340L 440,371"/><path transform="translate( 443, 309 ) rotate( 180 )" d="M3 6C4.65685 6 6 4.65685 6 3C6 1.34315 4.65685 0 3 0C1.34315 0 0 1.34315 0 3C0 4.65685 1.34315 6 3 6Z" fill="#4d9ef6"/><path transform="translate( 447, 373 ) rotate( 540 )" d="M6.34003 0.275664C6.70452 -0.0918881 7.29548 -0.0918881 7.65997 0.275664L13.7266 6.39331C14.0911 6.76086 14.0911 7.35678 13.7266 7.72434C13.3621 8.09189 12.7712 8.09189 12.4067 7.72434L7 2.2722L1.5933 7.72434C1.22881 8.09189 0.637856 8.09189 0.273367 7.72434C-0.0911224 7.35678 -0.0911224 6.76086 0.273367 6.39331L6.34003 0.275664Z" fill="#4d9ef6"/></g><g><path fill="none" stroke="#4d9ef6" stroke-width="2" stroke-dasharray="0px 0px" d="M 715,307L 715,340L 715,340L 715,371"/><path transform="translate( 718, 309 ) rotate( 180 )" d="M3 6C4.65685 6 6 4.65685 6 3C6 1.34315 4.65685 0 3 0C1.34315 0 0 1.34315 0 3C0 4.65685 1.34315 6 3 6Z" fill="#4d9ef6"/><path transform="translate( 722, 373 ) rotate( 540 )" d="M6.34003 0.275664C6.70452 -0.0918881 7.29548 -0.0918881 7.65997 0.275664L13.7266 6.39331C14.0911 6.76086 14.0911 7.35678 13.7266 7.72434C13.3621 8.09189 12.7712 8.09189 12.4067 7.72434L7 2.2722L1.5933 7.72434C1.22881 8.09189 0.637856 8.09189 0.273367 7.72434C-0.0911224 7.35678 -0.0911224 6.76086 0.273367 6.39331L6.34003 0.275664Z" fill="#4d9ef6"/></g><g><path fill="none" stroke="#4d9ef6" stroke-width="2" stroke-dasharray="0px 0px" d="M 165,443L 165,476L 165,500Q165,510 175,510L 430,510Q440,510 440,520L 440,541"/><path transform="translate( 168, 445 ) rotate( 180 )" d="M3 6C4.65685 6 6 4.65685 6 3C6 1.34315 4.65685 0 3 0C1.34315 0 0 1.34315 0 3C0 4.65685 1.34315 6 3 6Z" fill="#4d9ef6"/><path transform="translate( 447, 543 ) rotate( 540 )" d="M6.34003 0.275664C6.70452 -0.0918881 7.29548 -0.0918881 7.65997 0.275664L13.7266 6.39331C14.0911 6.76086 14.0911 7.35678 13.7266 7.72434C13.3621 8.09189 12.7712 8.09189 12.4067 7.72434L7 2.2722L1.5933 7.72434C1.22881 8.09189 0.637856 8.09189 0.273367 7.72434C-0.0911224 7.35678 -0.0911224 6.76086 0.273367 6.39331L6.34003 0.275664Z" fill="#4d9ef6"/></g><g><path fill="none" stroke="#4d9ef6" stroke-width="2" stroke-dasharray="0px 0px" d="M 440,613L 440,646L 440,646L 440,665.5"/><path transform="translate( 443, 615 ) rotate( 180 )" d="M3 6C4.65685 6 6 4.65685 6 3C6 1.34315 4.65685 0 3 0C1.34315 0 0 1.34315 0 3C0 4.65685 1.34315 6 3 6Z" fill="#4d9ef6"/><path transform="translate( 447, 667.5 ) rotate( 540 )" d="M6.34003 0.275664C6.70452 -0.0918881 7.29548 -0.0918881 7.65997 0.275664L13.7266 6.39331C14.0911 6.76086 14.0911 7.35678 13.7266 7.72434C13.3621 8.09189 12.7712 8.09189 12.4067 7.72434L7 2.2722L1.5933 7.72434C1.22881 8.09189 0.637856 8.09189 0.273367 7.72434C-0.0911224 7.35678 -0.0911224 6.76086 0.273367 6.39331L6.34003 0.275664Z" fill="#4d9ef6"/></g><g><path fill="none" stroke="#4d9ef6" stroke-width="2" stroke-dasharray="0px 0px" d="M 440,760.5L 440,782L 440,816L 440,847"/><path transform="translate( 443, 762.5 ) rotate( 180 )" d="M3 6C4.65685 6 6 4.65685 6 3C6 1.34315 4.65685 0 3 0C1.34315 0 0 1.34315 0 3C0 4.65685 1.34315 6 3 6Z" fill="#4d9ef6"/><path transform="translate( 447, 849 ) rotate( 540 )" d="M6.34003 0.275664C6.70452 -0.0918881 7.29548 -0.0918881 7.65997 0.275664L13.7266 6.39331C14.0911 6.76086 14.0911 7.35678 13.7266 7.72434C13.3621 8.09189 12.7712 8.09189 12.4067 7.72434L7 2.2722L1.5933 7.72434C1.22881 8.09189 0.637856 8.09189 0.273367 7.72434C-0.0911224 7.35678 -0.0911224 6.76086 0.273367 6.39331L6.34003 0.275664Z" fill="#4d9ef6"/></g><g><path fill="none" stroke="#4d9ef6" stroke-width="2" stroke-dasharray="0px 0px" d="M 529,714L 540,714Q550,714 550,704L 550,588Q550,578 540,578L 532,578"/><path transform="translate( 531, 711 ) rotate( 450 )" d="M3 6C4.65685 6 6 4.65685 6 3C6 1.34315 4.65685 0 3 0C1.34315 0 0 1.34315 0 3C0 4.65685 1.34315 6 3 6Z" fill="#4d9ef6"/><path transform="translate( 530, 585 ) rotate( 630 )" d="M6.34003 0.275664C6.70452 -0.0918881 7.29548 -0.0918881 7.65997 0.275664L13.7266 6.39331C14.0911 6.76086 14.0911 7.35678 13.7266 7.72434C13.3621 8.09189 12.7712 8.09189 12.4067 7.72434L7 2.2722L1.5933 7.72434C1.22881 8.09189 0.637856 8.09189 0.273367 7.72434C-0.0911224 7.35678 -0.0911224 6.76086 0.273367 6.39331L6.34003 0.275664Z" fill="#4d9ef6"/></g><g><path fill="none" stroke="#4d9ef6" stroke-width="2" stroke-dasharray="0px 0px" d="M 440,919L 440,952L 440,952L 440,983"/><path transform="translate( 443, 921 ) rotate( 180 )" d="M3 6C4.65685 6 6 4.65685 6 3C6 1.34315 4.65685 0 3 0C1.34315 0 0 1.34315 0 3C0 4.65685 1.34315 6 3 6Z" fill="#4d9ef6"/><path transform="translate( 447, 985 ) rotate( 540 )" d="M6.34003 0.275664C6.70452 -0.0918881 7.29548 -0.0918881 7.65997 0.275664L13.7266 6.39331C14.0911 6.76086 14.0911 7.35678 13.7266 7.72434C13.3621 8.09189 12.7712 8.09189 12.4067 7.72434L7 2.2722L1.5933 7.72434C1.22881 8.09189 0.637856 8.09189 0.273367 7.72434C-0.0911224 7.35678 -0.0911224 6.76086 0.273367 6.39331L6.34003 0.275664Z" fill="#4d9ef6"/></g><g><path fill="none" stroke="#4d9ef6" stroke-width="2" stroke-dasharray="0px 0px" d="M 440,443L 440,476L 440,510L 440,541"/><path transform="translate( 443, 445 ) rotate( 180 )" d="M3 6C4.65685 6 6 4.65685 6 3C6 1.34315 4.65685 0 3 0C1.34315 0 0 1.34315 0 3C0 4.65685 1.34315 6 3 6Z" fill="#4d9ef6"/><path transform="translate( 447, 543 ) rotate( 540 )" d="M6.34003 0.275664C6.70452 -0.0918881 7.29548 -0.0918881 7.65997 0.275664L13.7266 6.39331C14.0911 6.76086 14.0911 7.35678 13.7266 7.72434C13.3621 8.09189 12.7712 8.09189 12.4067 7.72434L7 2.2722L1.5933 7.72434C1.22881 8.09189 0.637856 8.09189 0.273367 7.72434C-0.0911224 7.35678 -0.0911224 6.76086 0.273367 6.39331L6.34003 0.275664Z" fill="#4d9ef6"/></g><g><path fill="none" stroke="#4d9ef6" stroke-width="2" stroke-dasharray="0px 0px" d="M 715,443L 715,476L 715,500Q715,510 705,510L 450,510Q440,510 440,520L 440,541"/><path transform="translate( 718, 445 ) rotate( 180 )" d="M3 6C4.65685 6 6 4.65685 6 3C6 1.34315 4.65685 0 3 0C1.34315 0 0 1.34315 0 3C0 4.65685 1.34315 6 3 6Z" fill="#4d9ef6"/><path transform="translate( 447, 543 ) rotate( 540 )" d="M6.34003 0.275664C6.70452 -0.0918881 7.29548 -0.0918881 7.65997 0.275664L13.7266 6.39331C14.0911 6.76086 14.0911 7.35678 13.7266 7.72434C13.3621 8.09189 12.7712 8.09189 12.4067 7.72434L7 2.2722L1.5933 7.72434C1.22881 8.09189 0.637856 8.09189 0.273367 7.72434C-0.0911224 7.35678 -0.0911224 6.76086 0.273367 6.39331L6.34003 0.275664Z" fill="#4d9ef6"/></g></g><g><g transform="translate( 440, 799 )"><circle r="13" cx="0" cy="0" fill="#4d9ef6"/><g transform="translate( -12, -12 )"><svg width="24" height="24" fill="none" viewBox="0 0 24 24" id="svgSk2if5izec0" xmlns="http://www.w3.org/2000/svg">
        <g>
            <path d="M12 21a9 9 0 1 0 0-18 9 9 0 0 0 0 18z" fill="#55D45B"/>
            <path fill-rule="evenodd" clip-rule="evenodd" d="M17.707 9.707L11.5 15.914l-4.207-4.207 1.414-1.414 2.793 2.793 4.793-4.793 1.414 1.414z" fill="#fff"/>
        </g>
    <desc>Created with Snap</desc><defs/></svg></g></g><g transform="translate( 550, 646 )"><circle r="13" cx="0" cy="0" fill="#4d9ef6"/><g transform="translate( -12, -12 )"><svg width="24" height="24" fill="none" viewBox="0 0 24 24" id="svgSk2if5izec6" xmlns="http://www.w3.org/2000/svg">
        <g>
            <path d="M12 21a9 9 0 1 0 0-18 9 9 0 0 0 0 18z" fill="#FD6764"/>
            <path d="M12 10.546L9.455 8 8 9.455 10.546 12 8 14.546 9.455 16 12 13.454 14.546 16 16 14.546 13.454 12 16 9.455 14.546 8 12 10.546z" fill="#fff"/>
        </g>
    <desc>Created with Snap</desc><defs/></svg></g></g></g></g></g></svg>