<svg width="322" height="42" viewBox="0 0 322 42" fill="none" xmlns="http://www.w3.org/2000/svg">
<path d="M50.0445 41.379H53.5064V28.6689C55.1879 32.3781 59.3917 34.8509 64.3867 34.8509C71.6073 34.8509 77.1463 29.2624 77.1463 21.9924C77.1463 14.7718 71.6073 9.18331 64.3867 9.18331C59.4411 9.18331 55.1879 11.6561 53.457 15.4147L53.5064 9.5295H50.0445V41.379ZM63.4471 31.8835C57.7596 31.8835 53.3086 27.5314 53.3086 22.0913C53.3086 16.5522 57.7596 12.2001 63.4471 12.2001C69.1839 12.2001 73.5855 16.5522 73.5855 22.0913C73.5855 27.5809 69.1839 31.8835 63.4471 31.8835Z" fill="#092040"/>
<path d="M97.4745 34.8509C102.123 34.8509 106.179 33.2683 109.443 29.4107L106.723 27.7292C103.805 30.9933 100.739 31.8341 97.4745 31.8341C91.985 31.8341 87.6823 28.2732 87.435 23.3771H110.531C111.075 15.118 105.338 9.13386 97.2273 9.13386C89.3638 9.13386 83.8742 14.7224 83.8742 21.9429C83.8742 29.2624 89.3638 34.8509 97.4745 34.8509ZM87.435 20.4592C87.6823 15.6126 91.7871 12.1507 97.2767 12.1507C102.915 12.1507 106.822 15.4642 107.118 20.4592H87.435Z" fill="#092040"/>
<path d="M138.669 34.4552H142.18V21.5473C142.18 13.6343 139.114 9.23277 131.745 9.23277C127.047 9.23277 123.882 11.8045 122.348 14.8213V9.48005H118.887V34.4552H122.348V21.8934C122.348 16.3049 125.365 12.2001 131.003 12.2001C136.542 12.2001 138.669 15.4642 138.669 21.6462V34.4552Z" fill="#092040"/>
<path d="M183.441 9.0844L185.964 7.10617C183.046 3.89154 179.633 2.40787 175.578 2.45733C169.841 2.55624 165.835 6.01814 165.885 10.9143C165.885 15.0685 168.506 17.937 173.649 19.4207L177.111 20.4592C181.018 21.5967 182.551 23.2288 182.601 26.0972C182.65 29.3613 180.029 31.5868 176.122 31.6362C173.006 31.6857 169.891 30.3998 167.517 28.1249L164.846 30.202C167.813 33.3177 171.621 34.8014 176.073 34.8014C182.007 34.8014 186.161 31.1417 186.161 26.0477C186.112 21.7945 183.54 18.9261 178.446 17.4424L174.836 16.4039C171.176 15.3653 169.445 13.6343 169.445 10.9637C169.396 7.848 171.918 5.77086 175.776 5.72141C178.545 5.72141 181.018 6.80944 183.441 9.0844Z" fill="#092040"/>
<path d="M194.548 41.379H198.01V28.6689C199.692 32.3781 203.895 34.8509 208.89 34.8509C216.111 34.8509 221.65 29.2624 221.65 21.9924C221.65 14.7718 216.111 9.18331 208.89 9.18331C203.945 9.18331 199.692 11.6561 197.961 15.4147L198.01 9.5295H194.548V41.379ZM207.951 31.8835C202.263 31.8835 197.812 27.5314 197.812 22.0913C197.812 16.5522 202.263 12.2001 207.951 12.2001C213.687 12.2001 218.089 16.5522 218.089 22.0913C218.089 27.5809 213.687 31.8835 207.951 31.8835Z" fill="#092040"/>
<path d="M241.137 34.8014C246.083 34.8014 250.336 32.3286 252.067 28.57L252.018 34.4552H255.48V9.5295H252.018L252.067 15.3158C250.336 11.6066 246.083 9.18331 241.137 9.18331C233.917 9.18331 228.378 14.7224 228.378 21.9429C228.378 29.2129 233.917 34.8014 241.137 34.8014ZM242.077 31.7846C236.34 31.7846 231.889 27.4819 231.889 21.8934C231.889 16.4039 236.34 12.1507 242.077 12.1507C247.715 12.1507 252.166 16.4533 252.166 21.8934C252.166 27.4325 247.764 31.7846 242.077 31.7846Z" fill="#092040"/>
<path d="M277.094 34.8509C281.149 34.8509 284.957 33.6639 289.458 29.114L287.034 27.0863C283.177 30.9438 280.358 31.7846 277.291 31.7846C271.505 31.7846 267.252 27.4325 267.252 21.9429C267.252 16.5028 271.505 12.1507 277.291 12.1507C280.259 12.1507 283.127 12.9419 286.738 16.5028L289.111 14.574C284.759 10.2713 281.1 9.13386 277.094 9.13386C269.329 9.13386 263.741 14.9202 263.741 21.9924C263.741 29.0645 269.329 34.8509 277.094 34.8509Z" fill="#092040"/>
<path d="M308.84 34.8509C313.489 34.8509 317.544 33.2683 320.808 29.4107L318.088 27.7292C315.17 30.9933 312.104 31.8341 308.84 31.8341C303.35 31.8341 299.048 28.2732 298.8 23.3771H321.896C322.44 15.118 316.703 9.13386 308.593 9.13386C300.729 9.13386 295.24 14.7224 295.24 21.9429C295.24 29.2624 300.729 34.8509 308.84 34.8509ZM298.8 20.4592C299.048 15.6126 303.153 12.1507 308.642 12.1507C314.28 12.1507 318.187 15.4642 318.484 20.4592H298.8Z" fill="#092040"/>
<path d="M20.3578 0.944092C9.32887 0.944092 0.305176 9.96778 0.305176 20.9967C0.305176 32.0257 9.32887 41.0494 20.3578 41.0494C31.3868 41.0494 40.4105 32.0257 40.4105 20.9967C40.4105 9.96778 31.3868 0.944092 20.3578 0.944092ZM33.392 14.229C34.3947 14.229 35.1466 14.9809 36.1493 14.9809C35.3973 15.9836 32.1387 15.9836 31.1361 14.7303C31.8881 14.4796 32.3894 14.229 33.392 14.229ZM2.81176 20.9967C2.81176 19.9941 2.81176 18.9915 3.06241 17.7382C3.31307 17.7382 3.56373 17.9888 3.81439 17.9888C3.81439 17.9888 4.06505 18.2395 4.06505 18.4902C4.06505 19.2421 4.81702 19.7434 5.31834 19.7434C7.3236 19.9941 8.07558 21.7487 9.83018 22.25C10.3315 22.5007 10.0808 23.002 9.83018 23.5033C8.32623 25.5086 9.57952 27.0125 10.8328 28.2658C12.0861 29.2684 12.0861 30.2711 12.3368 31.775C12.3368 33.5296 12.5874 35.5349 13.3394 37.2895C7.07294 34.2816 2.81176 28.2658 2.81176 20.9967ZM20.3578 38.5428C18.6032 38.5428 16.5979 38.2921 15.094 37.7908C14.8433 37.2895 14.8433 36.7882 15.094 36.2869C16.0966 34.2816 17.0993 32.527 18.3526 30.7724C18.8539 30.2711 19.3552 29.7698 19.3552 29.0178C19.3552 28.5165 19.6058 27.7645 19.8565 27.2632C20.6085 26.0099 20.3578 25.2579 19.3552 25.0073C17.3499 24.5059 16.3473 22.7513 14.8433 21.9994C13.3394 21.2474 11.8354 20.7461 10.5822 21.4981C10.0808 21.7487 9.32887 21.9994 9.32887 21.2474C9.32887 20.2448 8.07557 19.4928 8.32623 18.4902C8.07557 18.4902 7.82492 18.4902 7.57426 18.7408C7.3236 18.9915 7.07294 19.2421 6.57163 18.9915C6.07031 18.4902 6.32097 17.9888 6.32097 17.4875C6.57163 16.9862 6.82229 16.7355 7.3236 16.4849C8.32623 16.2342 9.32887 16.2342 9.83018 17.4875C10.5822 15.2316 12.0861 13.9783 13.5901 12.9757C13.5901 12.9757 15.5953 11.2211 15.846 11.2211C16.0966 11.2211 16.3473 11.7224 16.8486 11.973C17.3499 11.973 17.6006 11.973 17.6006 11.4717C17.8512 10.2184 17.0993 8.71449 16.0966 8.46383C16.0966 8.21317 16.3473 8.21318 16.3473 8.21318C17.0993 7.96252 18.1019 7.4612 17.8512 6.70923C17.8512 5.70659 16.8486 5.20528 15.846 5.20528C15.3447 5.20528 14.8433 5.20528 14.342 5.45594C13.3394 5.95725 12.0861 6.45857 10.5822 6.45857C13.3394 4.4533 16.8486 3.45067 20.3578 3.45067C21.1098 3.45067 21.6111 3.45067 22.3631 3.45067C20.8591 3.70133 19.3552 4.20265 18.3526 4.70396C19.8565 4.95462 20.1072 5.70659 19.6058 6.95989C19.3552 7.4612 19.6058 7.96252 20.1072 8.21318C20.6085 8.46383 21.1098 8.46383 21.3605 7.96252C21.8618 7.21054 22.8644 6.95989 23.6164 6.70923C24.619 6.45857 25.371 5.95725 26.123 4.95462C26.123 4.70396 26.3736 4.70396 26.6243 4.4533C28.1282 4.95462 29.6322 5.95725 31.1361 6.95989C30.8855 6.95989 30.8855 7.21054 30.6348 7.21054C30.1335 7.71186 29.3815 7.96252 30.1335 8.96515C30.3841 9.46646 30.1335 9.71712 29.8828 9.96778C29.3815 10.2184 29.1308 9.96778 28.8802 9.71712C28.6295 9.46646 28.6295 8.96515 27.8776 8.96515C27.6269 9.46646 26.8749 9.71712 26.8749 10.4691C28.1282 10.4691 27.8776 11.4717 28.1282 12.2237C26.6243 12.4744 26.123 13.2263 26.8749 14.4796C27.1256 14.9809 26.6243 15.2316 26.3736 15.4823C25.371 16.9862 24.3683 17.9888 24.3683 19.7434C24.3683 21.4981 25.6216 23.2527 27.6269 23.002C29.8828 22.7513 29.8828 22.7513 30.6348 24.7566C30.6348 25.0073 30.8855 25.2579 30.8855 25.5086C31.1361 26.0099 31.3868 26.5112 31.1361 27.0125C30.3841 29.0178 31.3868 30.5217 32.1387 32.0257C32.3894 32.527 32.6401 32.7777 32.8907 33.0283C29.6322 36.5375 25.371 38.5428 20.3578 38.5428Z" fill="#092040"/>
</svg>
