<svg width="322" height="42" viewBox="0 0 322 42" fill="none" xmlns="http://www.w3.org/2000/svg">
<path d="M49.8941 41.0055H53.356V28.2954C55.0375 32.0045 59.2413 34.4773 64.2363 34.4773C71.4569 34.4773 76.9959 28.8888 76.9959 21.6188C76.9959 14.3983 71.4569 8.80978 64.2363 8.80978C59.2907 8.80978 55.0375 11.2826 53.3066 15.0412L53.356 9.15597H49.8941V41.0055ZM63.2967 31.51C57.6092 31.51 53.1582 27.1579 53.1582 21.7177C53.1582 16.1787 57.6092 11.8266 63.2967 11.8266C69.0335 11.8266 73.4351 16.1787 73.4351 21.7177C73.4351 27.2073 69.0335 31.51 63.2967 31.51Z" fill="#F4AD93"/>
<path d="M97.3242 34.4773C101.973 34.4773 106.028 32.8947 109.292 29.0372L106.572 27.3557C103.654 30.6198 100.588 31.4605 97.3242 31.4605C91.8346 31.4605 87.5319 27.8997 87.2846 23.0036H110.38C110.924 14.7445 105.188 8.76032 97.0769 8.76032C89.2134 8.76032 83.7238 14.3488 83.7238 21.5694C83.7238 28.8888 89.2134 34.4773 97.3242 34.4773ZM87.2846 20.0857C87.5319 15.239 91.6367 11.7771 97.1263 11.7771C102.764 11.7771 106.671 15.0907 106.968 20.0857H87.2846Z" fill="#F4AD93"/>
<path d="M138.518 34.0817H142.03V21.1737C142.03 13.2608 138.964 8.85923 131.595 8.85923C126.896 8.85923 123.731 11.4309 122.198 14.4477V9.10651H118.736V34.0817H122.198V21.5199C122.198 15.9314 125.215 11.8266 130.853 11.8266C136.392 11.8266 138.518 15.0907 138.518 21.2726V34.0817Z" fill="#F4AD93"/>
<path d="M183.291 8.71087L185.813 6.73263C182.895 3.51801 179.483 2.03434 175.428 2.08379C169.691 2.1827 165.685 5.64461 165.734 10.5407C165.734 14.695 168.355 17.5634 173.499 19.0471L176.961 20.0857C180.868 21.2232 182.401 22.8552 182.45 25.7236C182.5 28.9877 179.879 31.2132 175.972 31.2627C172.856 31.3122 169.74 30.0263 167.366 27.7513L164.696 29.8285C167.663 32.9442 171.471 34.4279 175.922 34.4279C181.857 34.4279 186.011 30.7681 186.011 25.6742C185.962 21.421 183.39 18.5526 178.296 17.0689L174.686 16.0303C171.026 14.9917 169.295 13.2608 169.295 10.5902C169.246 7.47447 171.768 5.39733 175.625 5.34787C178.395 5.34787 180.868 6.4359 183.291 8.71087Z" fill="#F4AD93"/>
<path d="M194.398 41.0055H197.86V28.2954C199.541 32.0045 203.745 34.4773 208.74 34.4773C215.96 34.4773 221.499 28.8888 221.499 21.6188C221.499 14.3983 215.96 8.80978 208.74 8.80978C203.794 8.80978 199.541 11.2826 197.81 15.0412L197.86 9.15597H194.398V41.0055ZM207.8 31.51C202.113 31.51 197.662 27.1579 197.662 21.7177C197.662 16.1787 202.113 11.8266 207.8 11.8266C213.537 11.8266 217.939 16.1787 217.939 21.7177C217.939 27.2073 213.537 31.51 207.8 31.51Z" fill="#F4AD93"/>
<path d="M240.987 34.4279C245.933 34.4279 250.186 31.9551 251.917 28.1964L251.867 34.0817H255.329V9.15597H251.867L251.917 14.9423C250.186 11.2331 245.933 8.80978 240.987 8.80978C233.766 8.80978 228.227 14.3488 228.227 21.5694C228.227 28.8394 233.766 34.4279 240.987 34.4279ZM241.927 31.4111C236.19 31.4111 231.739 27.1084 231.739 21.5199C231.739 16.0303 236.19 11.7771 241.927 11.7771C247.565 11.7771 252.016 16.0798 252.016 21.5199C252.016 27.059 247.614 31.4111 241.927 31.4111Z" fill="#F4AD93"/>
<path d="M276.943 34.4773C280.999 34.4773 284.807 33.2904 289.307 28.7405L286.884 26.7128C283.026 30.5703 280.207 31.4111 277.141 31.4111C271.355 31.4111 267.102 27.059 267.102 21.5694C267.102 16.1292 271.355 11.7771 277.141 11.7771C280.108 11.7771 282.977 12.5684 286.587 16.1292L288.961 14.2005C284.609 9.8978 280.949 8.76032 276.943 8.76032C269.179 8.76032 263.59 14.5466 263.59 21.6188C263.59 28.691 269.179 34.4773 276.943 34.4773Z" fill="#F4AD93"/>
<path d="M308.69 34.4773C313.338 34.4773 317.394 32.8947 320.658 29.0372L317.938 27.3557C315.02 30.6198 311.954 31.4605 308.69 31.4605C303.2 31.4605 298.897 27.8997 298.65 23.0036H321.746C322.29 14.7445 316.553 8.76032 308.442 8.76032C300.579 8.76032 295.089 14.3488 295.089 21.5694C295.089 28.8888 300.579 34.4773 308.69 34.4773ZM298.65 20.0857C298.897 15.239 303.002 11.7771 308.492 11.7771C314.13 11.7771 318.037 15.0907 318.333 20.0857H298.65Z" fill="#F4AD93"/>
<path d="M20.2074 0.570557C9.17847 0.570557 0.154785 9.59424 0.154785 20.6232C0.154785 31.6522 9.17847 40.6758 20.2074 40.6758C31.2364 40.6758 40.2601 31.6522 40.2601 20.6232C40.2601 9.59424 31.2364 0.570557 20.2074 0.570557ZM33.2416 13.8554C34.2443 13.8554 34.9963 14.6074 35.9989 14.6074C35.2469 15.61 31.9884 15.61 30.9857 14.3567C31.7377 14.1061 32.239 13.8554 33.2416 13.8554ZM2.66137 20.6232C2.66137 19.6206 2.66137 18.6179 2.91202 17.3646C3.16268 17.3646 3.41334 17.6153 3.664 17.6153C3.664 17.6153 3.91466 17.866 3.91466 18.1166C3.91466 18.8686 4.66663 19.3699 5.16795 19.3699C7.17321 19.6206 7.92518 21.3752 9.67979 21.8765C10.1811 22.1271 9.93045 22.6285 9.67979 23.1298C8.17584 25.135 9.42913 26.639 10.6824 27.8923C11.9357 28.8949 11.9357 29.8975 12.1864 31.4015C12.1864 33.1561 12.437 35.1614 13.189 36.916C6.92255 33.9081 2.66137 27.8923 2.66137 20.6232ZM20.2074 38.1693C18.4528 38.1693 16.4476 37.9186 14.9436 37.4173C14.693 36.916 14.693 36.4147 14.9436 35.9133C15.9462 33.9081 16.9489 32.1535 18.2022 30.3989C18.7035 29.8975 19.2048 29.3962 19.2048 28.6443C19.2048 28.1429 19.4555 27.391 19.7061 26.8897C20.4581 25.6364 20.2074 24.8844 19.2048 24.6337C17.1995 24.1324 16.1969 22.3778 14.693 21.6258C13.189 20.8739 11.6851 20.3725 10.4318 21.1245C9.93045 21.3752 9.17847 21.6258 9.17847 20.8739C9.17847 19.8712 7.92518 19.1193 8.17584 18.1166C7.92518 18.1166 7.67453 18.1166 7.42387 18.3673C7.17321 18.6179 6.92255 18.8686 6.42124 18.6179C5.91992 18.1166 6.17058 17.6153 6.17058 17.114C6.42124 16.6127 6.6719 16.362 7.17321 16.1114C8.17584 15.8607 9.17848 15.8607 9.67979 17.114C10.4318 14.8581 11.9357 13.6048 13.4397 12.6021C13.4397 12.6021 15.4449 10.8475 15.6956 10.8475C15.9462 10.8475 16.1969 11.3489 16.6982 11.5995C17.1995 11.5995 17.4502 11.5995 17.4502 11.0982C17.7008 9.8449 16.9489 8.34096 15.9462 8.0903C15.9462 7.83964 16.1969 7.83964 16.1969 7.83964C16.9489 7.58898 17.9515 7.08767 17.7008 6.33569C17.7008 5.33306 16.6982 4.83174 15.6956 4.83174C15.1943 4.83174 14.693 4.83174 14.1916 5.0824C13.189 5.58372 11.9357 6.08503 10.4318 6.08503C13.189 4.07977 16.6982 3.07714 20.2074 3.07714C20.9594 3.07714 21.4607 3.07714 22.2127 3.07714C20.7087 3.3278 19.2048 3.82911 18.2022 4.33043C19.7061 4.58109 19.9568 5.33306 19.4555 6.58635C19.2048 7.08767 19.4555 7.58898 19.9568 7.83964C20.4581 8.0903 20.9594 8.0903 21.2101 7.58898C21.7114 6.83701 22.714 6.58635 23.466 6.33569C24.4686 6.08503 25.2206 5.58372 25.9726 4.58109C25.9726 4.33043 26.2232 4.33043 26.4739 4.07977C27.9778 4.58109 29.4818 5.58372 30.9857 6.58635C30.7351 6.58635 30.7351 6.83701 30.4844 6.83701C29.9831 7.33832 29.2311 7.58898 29.9831 8.59161C30.2337 9.09293 29.9831 9.34359 29.7324 9.59425C29.2311 9.8449 28.9805 9.59425 28.7298 9.34359C28.4791 9.09293 28.4791 8.59161 27.7272 8.59161C27.4765 9.09293 26.7245 9.34359 26.7245 10.0956C27.9778 10.0956 27.7272 11.0982 27.9778 11.8502C26.4739 12.1008 25.9726 12.8528 26.7245 14.1061C26.9752 14.6074 26.4739 14.8581 26.2232 15.1087C25.2206 16.6127 24.218 17.6153 24.218 19.3699C24.218 21.1245 25.4712 22.8791 27.4765 22.6285C29.7324 22.3778 29.7324 22.3778 30.4844 24.3831C30.4844 24.6337 30.7351 24.8844 30.7351 25.135C30.9857 25.6364 31.2364 26.1377 30.9857 26.639C30.2337 28.6443 31.2364 30.1482 31.9884 31.6522C32.239 32.1535 32.4897 32.4041 32.7403 32.6548C29.4818 36.164 25.2206 38.1693 20.2074 38.1693Z" fill="#F4AD93"/>
</svg>
