<svg width="322" height="41" viewBox="0 0 322 41" fill="none" xmlns="http://www.w3.org/2000/svg">
<path d="M49.8941 40.8578H53.356V28.1476C55.0375 31.8568 59.2413 34.3296 64.2363 34.3296C71.4569 34.3296 76.9959 28.7411 76.9959 21.4711C76.9959 14.2506 71.4569 8.66207 64.2363 8.66207C59.2907 8.66207 55.0375 11.1349 53.3066 14.8935L53.356 9.00826H49.8941V40.8578ZM63.2967 31.3623C57.6092 31.3623 53.1582 27.0102 53.1582 21.57C53.1582 16.031 57.6092 11.6789 63.2967 11.6789C69.0335 11.6789 73.4351 16.031 73.4351 21.57C73.4351 27.0596 69.0335 31.3623 63.2967 31.3623Z" fill="#2792AB"/>
<path d="M97.3242 34.3296C101.973 34.3296 106.028 32.747 109.292 28.8895L106.572 27.208C103.654 30.4721 100.588 31.3128 97.3242 31.3128C91.8346 31.3128 87.5319 27.752 87.2846 22.8559H110.38C110.924 14.5968 105.188 8.61262 97.0769 8.61262C89.2134 8.61262 83.7238 14.2011 83.7238 21.4217C83.7238 28.7411 89.2134 34.3296 97.3242 34.3296ZM87.2846 19.938C87.5319 15.0913 91.6367 11.6294 97.1263 11.6294C102.764 11.6294 106.671 14.943 106.968 19.938H87.2846Z" fill="#2792AB"/>
<path d="M138.518 33.934H142.03V21.026C142.03 13.1131 138.964 8.71153 131.595 8.71153C126.896 8.71153 123.731 11.2832 122.198 14.3V8.95881H118.736V33.934H122.198V21.3722C122.198 15.7837 125.215 11.6789 130.853 11.6789C136.392 11.6789 138.518 14.943 138.518 21.1249V33.934Z" fill="#2792AB"/>
<path d="M183.291 8.56316L185.813 6.58493C182.895 3.3703 179.483 1.88663 175.428 1.93609C169.691 2.035 165.685 5.4969 165.734 10.393C165.734 14.5473 168.355 17.4157 173.499 18.8994L176.961 19.938C180.868 21.0755 182.401 22.7075 182.45 25.5759C182.5 28.84 179.879 31.0655 175.972 31.115C172.856 31.1644 169.74 29.8786 167.366 27.6036L164.696 29.6808C167.663 32.7965 171.471 34.2802 175.922 34.2802C181.857 34.2802 186.011 30.6204 186.011 25.5265C185.962 21.2733 183.39 18.4049 178.296 16.9212L174.686 15.8826C171.026 14.844 169.295 13.1131 169.295 10.4425C169.246 7.32676 171.768 5.24962 175.625 5.20017C178.395 5.20017 180.868 6.2882 183.291 8.56316Z" fill="#2792AB"/>
<path d="M194.398 40.8578H197.86V28.1476C199.541 31.8568 203.745 34.3296 208.74 34.3296C215.96 34.3296 221.499 28.7411 221.499 21.4711C221.499 14.2506 215.96 8.66207 208.74 8.66207C203.794 8.66207 199.541 11.1349 197.81 14.8935L197.86 9.00826H194.398V40.8578ZM207.8 31.3623C202.113 31.3623 197.662 27.0102 197.662 21.57C197.662 16.031 202.113 11.6789 207.8 11.6789C213.537 11.6789 217.939 16.031 217.939 21.57C217.939 27.0596 213.537 31.3623 207.8 31.3623Z" fill="#2792AB"/>
<path d="M240.987 34.2802C245.933 34.2802 250.186 31.8074 251.917 28.0487L251.867 33.934H255.329V9.00826H251.867L251.917 14.7946C250.186 11.0854 245.933 8.66207 240.987 8.66207C233.766 8.66207 228.227 14.2011 228.227 21.4217C228.227 28.6917 233.766 34.2802 240.987 34.2802ZM241.927 31.2634C236.19 31.2634 231.739 26.9607 231.739 21.3722C231.739 15.8826 236.19 11.6294 241.927 11.6294C247.565 11.6294 252.016 15.9321 252.016 21.3722C252.016 26.9113 247.614 31.2634 241.927 31.2634Z" fill="#2792AB"/>
<path d="M276.943 34.3296C280.999 34.3296 284.807 33.1427 289.307 28.5927L286.884 26.5651C283.026 30.4226 280.207 31.2634 277.141 31.2634C271.355 31.2634 267.102 26.9112 267.102 21.4217C267.102 15.9815 271.355 11.6294 277.141 11.6294C280.108 11.6294 282.977 12.4207 286.587 15.9815L288.961 14.0528C284.609 9.7501 280.949 8.61262 276.943 8.61262C269.179 8.61262 263.59 14.3989 263.59 21.4711C263.59 28.5433 269.179 34.3296 276.943 34.3296Z" fill="#2792AB"/>
<path d="M308.69 34.3296C313.338 34.3296 317.394 32.747 320.658 28.8895L317.938 27.208C315.02 30.4721 311.954 31.3128 308.69 31.3128C303.2 31.3128 298.897 27.752 298.65 22.8559H321.746C322.29 14.5968 316.553 8.61262 308.442 8.61262C300.579 8.61262 295.089 14.2011 295.089 21.4217C295.089 28.7411 300.579 34.3296 308.69 34.3296ZM298.65 19.938C298.897 15.0913 303.002 11.6294 308.492 11.6294C314.13 11.6294 318.037 14.943 318.333 19.938H298.65Z" fill="#2792AB"/>
<path d="M20.2074 0.422852C9.17847 0.422852 0.154785 9.44654 0.154785 20.4755C0.154785 31.5044 9.17847 40.5281 20.2074 40.5281C31.2364 40.5281 40.2601 31.5044 40.2601 20.4755C40.2601 9.44654 31.2364 0.422852 20.2074 0.422852ZM33.2416 13.7077C34.2443 13.7077 34.9963 14.4597 35.9989 14.4597C35.2469 15.4623 31.9884 15.4623 30.9857 14.209C31.7377 13.9584 32.239 13.7077 33.2416 13.7077ZM2.66137 20.4755C2.66137 19.4729 2.66137 18.4702 2.91202 17.2169C3.16268 17.2169 3.41334 17.4676 3.664 17.4676C3.664 17.4676 3.91466 17.7183 3.91466 17.9689C3.91466 18.7209 4.66663 19.2222 5.16795 19.2222C7.17321 19.4729 7.92518 21.2275 9.67979 21.7288C10.1811 21.9794 9.93045 22.4808 9.67979 22.9821C8.17584 24.9873 9.42913 26.4913 10.6824 27.7446C11.9357 28.7472 11.9357 29.7498 12.1864 31.2538C12.1864 33.0084 12.437 35.0137 13.189 36.7683C6.92255 33.7604 2.66137 27.7446 2.66137 20.4755ZM20.2074 38.0216C18.4528 38.0216 16.4476 37.7709 14.9436 37.2696C14.693 36.7683 14.693 36.267 14.9436 35.7656C15.9462 33.7604 16.9489 32.0058 18.2022 30.2512C18.7035 29.7498 19.2048 29.2485 19.2048 28.4966C19.2048 27.9952 19.4555 27.2433 19.7061 26.7419C20.4581 25.4887 20.2074 24.7367 19.2048 24.486C17.1995 23.9847 16.1969 22.2301 14.693 21.4781C13.189 20.7262 11.6851 20.2248 10.4318 20.9768C9.93045 21.2275 9.17847 21.4781 9.17847 20.7262C9.17847 19.7235 7.92518 18.9715 8.17584 17.9689C7.92518 17.9689 7.67453 17.9689 7.42387 18.2196C7.17321 18.4702 6.92255 18.7209 6.42124 18.4702C5.91992 17.9689 6.17058 17.4676 6.17058 16.9663C6.42124 16.465 6.6719 16.2143 7.17321 15.9636C8.17584 15.713 9.17848 15.713 9.67979 16.9663C10.4318 14.7104 11.9357 13.4571 13.4397 12.4544C13.4397 12.4544 15.4449 10.6998 15.6956 10.6998C15.9462 10.6998 16.1969 11.2011 16.6982 11.4518C17.1995 11.4518 17.4502 11.4518 17.4502 10.9505C17.7008 9.6972 16.9489 8.19325 15.9462 7.94259C15.9462 7.69193 16.1969 7.69194 16.1969 7.69194C16.9489 7.44128 17.9515 6.93996 17.7008 6.18799C17.7008 5.18535 16.6982 4.68404 15.6956 4.68404C15.1943 4.68404 14.693 4.68404 14.1916 4.9347C13.189 5.43601 11.9357 5.93733 10.4318 5.93733C13.189 3.93206 16.6982 2.92943 20.2074 2.92943C20.9594 2.92943 21.4607 2.92943 22.2127 2.92943C20.7087 3.18009 19.2048 3.68141 18.2022 4.18272C19.7061 4.43338 19.9568 5.18535 19.4555 6.43864C19.2048 6.93996 19.4555 7.44128 19.9568 7.69194C20.4581 7.94259 20.9594 7.94259 21.2101 7.44128C21.7114 6.6893 22.714 6.43864 23.466 6.18799C24.4686 5.93733 25.2206 5.43601 25.9726 4.43338C25.9726 4.18272 26.2232 4.18272 26.4739 3.93206C27.9778 4.43338 29.4818 5.43601 30.9857 6.43864C30.7351 6.43864 30.7351 6.6893 30.4844 6.6893C29.9831 7.19062 29.2311 7.44128 29.9831 8.44391C30.2337 8.94522 29.9831 9.19588 29.7324 9.44654C29.2311 9.6972 28.9805 9.44654 28.7298 9.19588C28.4791 8.94522 28.4791 8.44391 27.7272 8.44391C27.4765 8.94522 26.7245 9.19588 26.7245 9.94786C27.9778 9.94786 27.7272 10.9505 27.9778 11.7025C26.4739 11.9531 25.9726 12.7051 26.7245 13.9584C26.9752 14.4597 26.4739 14.7104 26.2232 14.961C25.2206 16.465 24.218 17.4676 24.218 19.2222C24.218 20.9768 25.4712 22.7314 27.4765 22.4808C29.7324 22.2301 29.7324 22.2301 30.4844 24.2354C30.4844 24.486 30.7351 24.7367 30.7351 24.9873C30.9857 25.4887 31.2364 25.99 30.9857 26.4913C30.2337 28.4966 31.2364 30.0005 31.9884 31.5044C32.239 32.0058 32.4897 32.2564 32.7403 32.5071C29.4818 36.0163 25.2206 38.0216 20.2074 38.0216Z" fill="#2792AB"/>
</svg>
