<svg width="322" height="41" viewBox="0 0 322 41" fill="none" xmlns="http://www.w3.org/2000/svg">
<path d="M50.0445 40.6922H53.5064V27.9821C55.1879 31.6913 59.3917 34.1641 64.3867 34.1641C71.6073 34.1641 77.1463 28.5756 77.1463 21.3056C77.1463 14.085 71.6073 8.49654 64.3867 8.49654C59.4411 8.49654 55.1879 10.9693 53.457 14.728L53.5064 8.84274H50.0445V40.6922ZM63.4471 31.1967C57.7596 31.1967 53.3086 26.8446 53.3086 21.4045C53.3086 15.8655 57.7596 11.5133 63.4471 11.5133C69.1839 11.5133 73.5855 15.8655 73.5855 21.4045C73.5855 26.8941 69.1839 31.1967 63.4471 31.1967Z" fill="#092040"/>
<path d="M97.4745 34.1641C102.123 34.1641 106.179 32.5815 109.443 28.724L106.723 27.0425C103.805 30.3065 100.739 31.1473 97.4745 31.1473C91.985 31.1473 87.6823 27.5865 87.435 22.6903H110.531C111.075 14.4312 105.338 8.44709 97.2273 8.44709C89.3638 8.44709 83.8742 14.0356 83.8742 21.2561C83.8742 28.5756 89.3638 34.1641 97.4745 34.1641ZM87.435 19.7725C87.6823 14.9258 91.7871 11.4639 97.2767 11.4639C102.915 11.4639 106.822 14.7774 107.118 19.7725H87.435Z" fill="#092040"/>
<path d="M138.669 33.7684H142.18V20.8605C142.18 12.9476 139.114 8.546 131.745 8.546C127.047 8.546 123.882 11.1177 122.348 14.1345V8.79328H118.887V33.7684H122.348V21.2067C122.348 15.6182 125.365 11.5133 131.003 11.5133C136.542 11.5133 138.669 14.7774 138.669 20.9594V33.7684Z" fill="#092040"/>
<path d="M183.441 8.39763L185.964 6.4194C183.046 3.20478 179.633 1.7211 175.578 1.77056C169.841 1.86947 165.835 5.33137 165.885 10.2275C165.885 14.3818 168.506 17.2502 173.649 18.7339L177.111 19.7725C181.018 20.9099 182.551 22.542 182.601 25.4104C182.65 28.6745 180.029 30.9 176.122 30.9495C173.006 30.9989 169.891 29.7131 167.517 27.4381L164.846 29.5152C167.813 32.631 171.621 34.1146 176.073 34.1146C182.007 34.1146 186.161 30.4549 186.161 25.361C186.112 21.1078 183.54 18.2393 178.446 16.7557L174.836 15.7171C171.176 14.6785 169.445 12.9476 169.445 10.277C169.396 7.16124 171.918 5.0841 175.776 5.03464C178.545 5.03464 181.018 6.12267 183.441 8.39763Z" fill="#092040"/>
<path d="M194.548 40.6922H198.01V27.9821C199.692 31.6913 203.895 34.1641 208.89 34.1641C216.111 34.1641 221.65 28.5756 221.65 21.3056C221.65 14.085 216.111 8.49654 208.89 8.49654C203.945 8.49654 199.692 10.9693 197.961 14.728L198.01 8.84274H194.548V40.6922ZM207.951 31.1967C202.263 31.1967 197.812 26.8446 197.812 21.4045C197.812 15.8655 202.263 11.5133 207.951 11.5133C213.687 11.5133 218.089 15.8655 218.089 21.4045C218.089 26.8941 213.687 31.1967 207.951 31.1967Z" fill="#092040"/>
<path d="M241.137 34.1146C246.083 34.1146 250.336 31.6418 252.067 27.8832L252.018 33.7684H255.48V8.84274H252.018L252.067 14.6291C250.336 10.9199 246.083 8.49654 241.137 8.49654C233.917 8.49654 228.378 14.0356 228.378 21.2561C228.378 28.5261 233.917 34.1146 241.137 34.1146ZM242.077 31.0978C236.34 31.0978 231.889 26.7952 231.889 21.2067C231.889 15.7171 236.34 11.4639 242.077 11.4639C247.715 11.4639 252.166 15.7665 252.166 21.2067C252.166 26.7457 247.764 31.0978 242.077 31.0978Z" fill="#092040"/>
<path d="M277.094 34.1641C281.149 34.1641 284.957 32.9771 289.458 28.4272L287.034 26.3995C283.177 30.2571 280.358 31.0978 277.291 31.0978C271.505 31.0978 267.252 26.7457 267.252 21.2561C267.252 15.816 271.505 11.4639 277.291 11.4639C280.259 11.4639 283.127 12.2552 286.738 15.816L289.111 13.8872C284.759 9.58457 281.1 8.44709 277.094 8.44709C269.329 8.44709 263.741 14.2334 263.741 21.3056C263.741 28.3778 269.329 34.1641 277.094 34.1641Z" fill="#092040"/>
<path d="M308.84 34.1641C313.489 34.1641 317.544 32.5815 320.808 28.724L318.088 27.0425C315.17 30.3065 312.104 31.1473 308.84 31.1473C303.35 31.1473 299.048 27.5865 298.8 22.6903H321.896C322.44 14.4312 316.703 8.44709 308.593 8.44709C300.729 8.44709 295.24 14.0356 295.24 21.2561C295.24 28.5756 300.729 34.1641 308.84 34.1641ZM298.8 19.7725C299.048 14.9258 303.153 11.4639 308.642 11.4639C314.28 11.4639 318.187 14.7774 318.484 19.7725H298.8Z" fill="#092040"/>
<path d="M20.3578 0.257324C9.32887 0.257324 0.305176 9.28101 0.305176 20.31C0.305176 31.3389 9.32887 40.3626 20.3578 40.3626C31.3868 40.3626 40.4105 31.3389 40.4105 20.31C40.4105 9.28101 31.3868 0.257324 20.3578 0.257324ZM33.392 13.5422C34.3947 13.5422 35.1466 14.2942 36.1493 14.2942C35.3973 15.2968 32.1387 15.2968 31.1361 14.0435C31.8881 13.7929 32.3894 13.5422 33.392 13.5422ZM2.81176 20.31C2.81176 19.3073 2.81176 18.3047 3.06241 17.0514C3.31307 17.0514 3.56373 17.3021 3.81439 17.3021C3.81439 17.3021 4.06505 17.5527 4.06505 17.8034C4.06505 18.5554 4.81702 19.0567 5.31834 19.0567C7.3236 19.3073 8.07558 21.0619 9.83018 21.5633C10.3315 21.8139 10.0808 22.3152 9.83018 22.8165C8.32623 24.8218 9.57952 26.3258 10.8328 27.5791C12.0861 28.5817 12.0861 29.5843 12.3368 31.0883C12.3368 32.8429 12.5874 34.8481 13.3394 36.6027C7.07294 33.5948 2.81176 27.5791 2.81176 20.31ZM20.3578 37.856C18.6032 37.856 16.5979 37.6054 15.094 37.1041C14.8433 36.6027 14.8433 36.1014 15.094 35.6001C16.0966 33.5948 17.0993 31.8402 18.3526 30.0856C18.8539 29.5843 19.3552 29.083 19.3552 28.331C19.3552 27.8297 19.6058 27.0777 19.8565 26.5764C20.6085 25.3231 20.3578 24.5712 19.3552 24.3205C17.3499 23.8192 16.3473 22.0646 14.8433 21.3126C13.3394 20.5606 11.8354 20.0593 10.5822 20.8113C10.0808 21.0619 9.32887 21.3126 9.32887 20.5606C9.32887 19.558 8.07557 18.806 8.32623 17.8034C8.07557 17.8034 7.82492 17.8034 7.57426 18.054C7.3236 18.3047 7.07294 18.5554 6.57163 18.3047C6.07031 17.8034 6.32097 17.3021 6.32097 16.8008C6.57163 16.2994 6.82229 16.0488 7.3236 15.7981C8.32623 15.5475 9.32887 15.5475 9.83018 16.8008C10.5822 14.5448 12.0861 13.2915 13.5901 12.2889C13.5901 12.2889 15.5953 10.5343 15.846 10.5343C16.0966 10.5343 16.3473 11.0356 16.8486 11.2863C17.3499 11.2863 17.6006 11.2863 17.6006 10.785C17.8512 9.53167 17.0993 8.02772 16.0966 7.77707C16.0966 7.52641 16.3473 7.52641 16.3473 7.52641C17.0993 7.27575 18.1019 6.77443 17.8512 6.02246C17.8512 5.01983 16.8486 4.51851 15.846 4.51851C15.3447 4.51851 14.8433 4.51851 14.342 4.76917C13.3394 5.27048 12.0861 5.7718 10.5822 5.7718C13.3394 3.76654 16.8486 2.7639 20.3578 2.7639C21.1098 2.7639 21.6111 2.7639 22.3631 2.7639C20.8591 3.01456 19.3552 3.51588 18.3526 4.01719C19.8565 4.26785 20.1072 5.01983 19.6058 6.27312C19.3552 6.77443 19.6058 7.27575 20.1072 7.52641C20.6085 7.77707 21.1098 7.77707 21.3605 7.27575C21.8618 6.52378 22.8644 6.27312 23.6164 6.02246C24.619 5.7718 25.371 5.27048 26.123 4.26785C26.123 4.01719 26.3736 4.0172 26.6243 3.76654C28.1282 4.26785 29.6322 5.27049 31.1361 6.27312C30.8855 6.27312 30.8855 6.52378 30.6348 6.52378C30.1335 7.02509 29.3815 7.27575 30.1335 8.27838C30.3841 8.7797 30.1335 9.03036 29.8828 9.28101C29.3815 9.53167 29.1308 9.28101 28.8802 9.03036C28.6295 8.7797 28.6295 8.27838 27.8776 8.27838C27.6269 8.7797 26.8749 9.03036 26.8749 9.78233C28.1282 9.78233 27.8776 10.785 28.1282 11.5369C26.6243 11.7876 26.123 12.5396 26.8749 13.7929C27.1256 14.2942 26.6243 14.5448 26.3736 14.7955C25.371 16.2994 24.3683 17.3021 24.3683 19.0567C24.3683 20.8113 25.6216 22.5659 27.6269 22.3152C29.8828 22.0646 29.8828 22.0646 30.6348 24.0698C30.6348 24.3205 30.8855 24.5712 30.8855 24.8218C31.1361 25.3231 31.3868 25.8244 31.1361 26.3258C30.3841 28.331 31.3868 29.835 32.1387 31.3389C32.3894 31.8402 32.6401 32.0909 32.8907 32.3416C29.6322 35.8508 25.371 37.856 20.3578 37.856Z" fill="#092040"/>
</svg>
