<svg xmlns="http://www.w3.org/2000/svg" viewBox="0 0 2464.13 2108.97"><defs><style>.cls-1{isolation:isolate;}.cls-2,.cls-6,.cls-9{fill:#f4ad93;}.cls-2,.cls-3{opacity:0.49;}.cls-3{fill:#092040;}.cls-4{opacity:0.3;}.cls-5{fill:#2792ab;}.cls-33,.cls-6{opacity:0.17;}.cls-35,.cls-36,.cls-6{mix-blend-mode:multiply;}.cls-7{fill:#7892b2;opacity:0.29;}.cls-11,.cls-19,.cls-8{fill:#fff;}.cls-8{opacity:0.39;}.cls-9{opacity:0.25;}.cls-10{fill:#9894ce;}.cls-11,.cls-31,.cls-34{opacity:0.31;}.cls-12{fill:#8f8cc4;}.cls-13{fill:#8885b9;}.cls-14{fill:#908dc6;}.cls-15{fill:#7876a4;}.cls-16{fill:#7b78a6;}.cls-17{fill:#8986bb;}.cls-18{fill:#9390c9;}.cls-20{fill:#c2d7f0;}.cls-21{fill:#5ae0d5;}.cls-22{fill:#65fcef;}.cls-23{fill:#ff8090;}.cls-24{fill:#618fb8;}.cls-25{fill:#6fa3d1;}.cls-26{fill:#53679c;}.cls-27{fill:#5e74b0;}.cls-28{fill:#ff9775;}.cls-29{fill:#4f4266;}.cls-30{fill:#5d4d78;}.cls-32,.cls-33,.cls-34,.cls-35,.cls-36{fill:#8e75d1;}.cls-35{opacity:0.24;}.cls-36{opacity:0.15;}.cls-37{fill:#f2b5a2;}.cls-38{fill:#ff5268;}</style></defs><title>OSchallengepicnew</title><g class="cls-1"><g id="Layer_1" data-name="Layer 1"><path class="cls-2" d="M3258.61,914.84c-372.36,10.63-349.72-520.38,11.49-566.92C3680.66,295,3689.7,902.59,3258.61,914.84Z" transform="translate(-1115.84 -27)"/><path class="cls-3" d="M1209.36,1707.6c-109.43-440.87,506.17-547.56,653.94-129C2031.25,2054.34,1336,2218,1209.36,1707.6Z" transform="translate(-1115.84 -27)"/><g class="cls-4"><path class="cls-5" d="M3564,1081.49A1057.86,1057.86,0,0,1,3537,1319.27q-6.54,28.38-14.59,56.17c-127.27,439.34-532.6,760.53-1013,760.53s-885.7-321.19-1013-760.53q-6.7-23.16-12.37-46.73c-.76-3.14-1.49-6.28-2.22-9.44a1062.67,1062.67,0,0,1,7.78-507.1q4.71-17.92,10-35.58C1630.53,342.87,2033.11,27,2509.48,27,3091.86,27,3564,499.11,3564,1081.49Z" transform="translate(-1115.84 -27)"/></g><path class="cls-6" d="M2065.66,1117.61c-583.21,16.08-547.75-787.34,18-857.76C2726.7,179.8,2740.86,1099.08,2065.66,1117.61Z" transform="translate(-1115.84 -27)"/><path class="cls-7" d="M1279.46,387.08C1121.69,216.27,1365.62,6.31,1534.68,157,1726.84,328.17,1462.1,584.85,1279.46,387.08Z" transform="translate(-1115.84 -27)"/><path class="cls-8" d="M2880.07,635.17c-90.14,2.57-84.66-126,2.78-137.24C2982.24,485.12,2984.43,632.2,2880.07,635.17Z" transform="translate(-1115.84 -27)"/><path class="cls-9" d="M3390.2,2132.24c-190.84,5.45-179.24-266.71,5.89-290.57C3606.52,1814.56,3611.15,2126,3390.2,2132.24Z" transform="translate(-1115.84 -27)"/><path class="cls-8" d="M1925.14,2053.91c-102.49-111,54.41-245.95,164.13-147.93C2214,2017.39,2043.78,2182.46,1925.14,2053.91Z" transform="translate(-1115.84 -27)"/><path class="cls-9" d="M1217.36,840c-202.69-86.64-72.3-349.21,132.39-283.46C1582.4,631.31,1452,940.38,1217.36,840Z" transform="translate(-1115.84 -27)"/><rect class="cls-10" x="1047.06" y="173.01" width="973.2" height="973.35"/><path class="cls-11" d="M3017.4,385.45a48.49,48.49,0,0,0,.79-8.74c0-26.16-20.86-47.37-46.61-47.45-13.78-24.39-39.64-40.86-69.33-40.86a79.41,79.41,0,0,0-65.18,34.21,47,47,0,0,1-53.39,18.13,78.34,78.34,0,0,0-24.48-3.89c-32.75,0-60.89,20-73.25,48.6Z" transform="translate(-1115.84 -27)"/><path class="cls-11" d="M2601.26,505.45a29.93,29.93,0,0,0,.49-5.39A29.06,29.06,0,0,0,2573,470.78a48.9,48.9,0,0,0-83-4.11A29,29,0,0,1,2457,477.86a48.44,48.44,0,0,0-15.11-2.4,49.31,49.31,0,0,0-45.2,30Z" transform="translate(-1115.84 -27)"/><path class="cls-12" d="M2586.23,752.79H2557V686.73a20.41,20.41,0,0,0-20.38-20.38h-70.87V637.13h70.87a49.66,49.66,0,0,1,49.6,49.6Z" transform="translate(-1115.84 -27)"/><path class="cls-13" d="M2140.23,962.47h310.44V320.72l-310.44-96.19Z" transform="translate(-1115.84 -27)"/><rect class="cls-12" x="1321.58" y="554.11" width="19.23" height="47.73"/><rect class="cls-12" x="1359.11" y="554.11" width="19.23" height="47.73"/><rect class="cls-12" x="1396.64" y="554.11" width="19.23" height="47.73"/><rect class="cls-14" x="1203.2" y="586.6" width="229.87" height="146.18"/><path class="cls-12" d="M2415.63,817.6h-29.21V751.54A20.4,20.4,0,0,0,2366,731.17h-70.87V702H2366a49.64,49.64,0,0,1,49.59,49.59Z" transform="translate(-1115.84 -27)"/><polygon class="cls-12" points="1239.56 714.12 1147.48 714.12 1147.48 641.1 1239.56 613.35 1239.56 714.12"/><path class="cls-15" d="M2140.23,689h610.52v1.14H2140.23Z" transform="translate(-1115.84 -27)"/><path class="cls-15" d="M2140.23,709.61h610.52v1.13H2140.23Z" transform="translate(-1115.84 -27)"/><path class="cls-16" d="M2140.23,741.12h629.29v440.33H2140.23Z" transform="translate(-1115.84 -27)"/><path class="cls-14" d="M2140.23,751.07h629.29V1191.4H2140.23Z" transform="translate(-1115.84 -27)"/><rect class="cls-15" x="1050.48" y="767.59" width="59.28" height="106.07"/><rect class="cls-14" x="1078.8" y="767.59" width="2.63" height="106.07"/><rect class="cls-15" x="1187.29" y="767.59" width="59.28" height="106.07"/><rect class="cls-14" x="1215.61" y="767.59" width="2.63" height="106.07"/><rect class="cls-15" x="1324.1" y="767.59" width="59.28" height="106.07"/><rect class="cls-14" x="1352.42" y="767.59" width="2.63" height="106.07"/><rect class="cls-15" x="1460.91" y="767.59" width="59.28" height="106.07"/><rect class="cls-14" x="1489.23" y="767.59" width="2.63" height="106.07"/><rect class="cls-15" x="1050.48" y="981.42" width="59.28" height="106.07"/><rect class="cls-14" x="1078.8" y="981.42" width="2.63" height="106.07"/><rect class="cls-15" x="1187.29" y="981.42" width="59.28" height="106.07"/><rect class="cls-14" x="1215.61" y="981.42" width="2.63" height="106.07"/><rect class="cls-15" x="1324.1" y="981.42" width="59.28" height="106.07"/><rect class="cls-14" x="1352.42" y="981.42" width="2.63" height="106.07"/><rect class="cls-15" x="1460.91" y="981.42" width="59.28" height="106.07"/><rect class="cls-14" x="1489.23" y="981.42" width="2.63" height="106.07"/><polygon class="cls-16" points="1611.38 911.31 1599.33 911.31 1599.33 623.52 1579.12 582.7 1589.92 577.36 1611.38 620.71 1611.38 911.31"/><polygon class="cls-17" points="1947.2 1206.63 1620.62 1206.63 1620.62 564.88 1947.2 463.69 1947.2 1206.63"/><polygon class="cls-16" points="1945.53 470.54 1945.53 458.37 1571.98 574.43 1571.98 586.6 1945.53 470.54"/><path class="cls-16" d="M2140.23,222.65l341.71,106.17v8.1L2140.23,230.76Z" transform="translate(-1115.84 -27)"/><rect class="cls-15" x="1530.64" y="848.64" width="439.45" height="1.51"/><rect class="cls-15" x="1530.64" y="875.92" width="439.45" height="1.51"/><rect class="cls-16" x="1540.25" y="899.32" width="482.63" height="179.29"/><rect class="cls-15" x="1512.8" y="899.32" width="35.69" height="179.29"/><polygon class="cls-16" points="1542.48 1078.61 1506.79 1078.61 1506.79 841.46 1542.48 830.4 1542.48 1078.61"/><polygon class="cls-15" points="1542.48 831.12 1542.48 826.81 1502.6 839.17 1502.6 843.48 1542.48 831.12"/><rect class="cls-15" x="2680.2" y="948.34" width="56.29" height="57.53" transform="translate(2569.62 -1758.24) rotate(90)"/><rect class="cls-15" x="1669.28" y="921.96" width="84.35" height="156.64"/><rect class="cls-13" x="2682.83" y="950.97" width="53.67" height="54.9" transform="translate(2572.24 -1758.24) rotate(90)"/><rect class="cls-15" x="1568.53" y="926.75" width="50.59" height="49.35"/><rect class="cls-13" x="1671.91" y="924.59" width="81.72" height="154.02"/><path class="cls-15" d="M2789.91,1105.6V953.75h77.4V1105.6Z" transform="translate(-1115.84 -27)"/><rect class="cls-13" x="1579.52" y="926.75" width="1.61" height="49.35"/><rect class="cls-13" x="1588.51" y="926.75" width="1.61" height="49.35"/><rect class="cls-13" x="1597.51" y="926.75" width="1.61" height="49.35"/><rect class="cls-13" x="1606.51" y="926.75" width="1.61" height="49.35"/><rect class="cls-13" x="1702.87" y="939.81" width="20.6" height="67.84"/><rect class="cls-13" x="1701.25" y="925.96" width="1.61" height="152.64"/><rect class="cls-13" x="1723.46" y="925.96" width="1.61" height="152.64"/><path class="cls-18" d="M3157.91,201.45v1293.2h-96.63V201.45Z" transform="translate(-1115.84 -27)"/><path class="cls-17" d="M3157.91,201.45v1293.2h-79.53V201.45Z" transform="translate(-1115.84 -27)"/><path class="cls-18" d="M3157.91,1436.64h-23.32V1277.25h23.32Z" transform="translate(-1115.84 -27)"/><path class="cls-13" d="M3157.91,1438.74h-25.68V1274.52h25.68V1281h-19.19v151.24h19.19Z" transform="translate(-1115.84 -27)"/><path class="cls-18" d="M3157.91,1203.34h-23.32V1044h23.32Z" transform="translate(-1115.84 -27)"/><path class="cls-13" d="M3157.91,1205.44h-25.68V1041.22h25.68v6.49h-19.19V1199h19.19Z" transform="translate(-1115.84 -27)"/><path class="cls-18" d="M3157.91,970h-23.32V810.65h23.32Z" transform="translate(-1115.84 -27)"/><path class="cls-13" d="M3157.91,972.14h-25.68V807.92h25.68v6.49h-19.19V965.65h19.19Z" transform="translate(-1115.84 -27)"/><path class="cls-18" d="M3157.91,736.74h-23.32V577.35h23.32Z" transform="translate(-1115.84 -27)"/><path class="cls-13" d="M3157.91,738.84h-25.68V574.62h25.68v6.49h-19.19V732.35h19.19Z" transform="translate(-1115.84 -27)"/><rect class="cls-16" x="1678.27" y="624.74" width="186.87" height="110"/><rect class="cls-18" x="1736.23" y="624.74" width="3.64" height="110"/><rect class="cls-18" x="1803.54" y="624.74" width="3.64" height="110"/><path class="cls-18" d="M3157.91,499.05h-23.32V339.65h23.32Z" transform="translate(-1115.84 -27)"/><path class="cls-13" d="M3157.91,501.14h-25.68V336.92h25.68v6.5h-19.19V494.65h19.19Z" transform="translate(-1115.84 -27)"/><rect class="cls-16" x="1484.14" y="1064.43" width="461.3" height="18.42"/><rect class="cls-13" x="1484.14" y="1152.2" width="461.3" height="315.45"/><rect class="cls-16" x="1484.14" y="1218.09" width="461.3" height="5.46"/><rect class="cls-16" x="1768.79" y="1218.09" width="122.31" height="249.55"/><path class="cls-15" d="M2945.78,1271.9a42.14,42.14,0,0,0-42.14,42.14v97.48h84.29V1314A42.15,42.15,0,0,0,2945.78,1271.9Z" transform="translate(-1115.84 -27)"/><path class="cls-13" d="M2995.08,1317.2v-1.61a49.34,49.34,0,0,0-43.09-48.87l.8-5h-14l.8,5a49.34,49.34,0,0,0-43.09,48.87v1.61h1.62v89.89h-1.62v9.68h98.6v-9.68h-1.62V1317.2Zm-9.73,89.89h-79.13v-91.5a39.55,39.55,0,0,1,34.88-39.26l.49,3.11H2950l.49-3.11a39.55,39.55,0,0,1,34.88,39.26v1.61h0Z" transform="translate(-1115.84 -27)"/><rect class="cls-13" x="1829.02" y="1242.95" width="1.85" height="140.58"/><rect class="cls-13" x="2944.86" y="1285.12" width="1.85" height="84.46" transform="translate(502.59 4246.14) rotate(-90)"/><rect class="cls-13" x="2944.86" y="1327.33" width="1.85" height="84.46" transform="translate(460.38 4288.34) rotate(-90)"/><rect class="cls-16" x="1537.84" y="1218.09" width="122.31" height="249.55"/><path class="cls-15" d="M2714.84,1271.9A42.14,42.14,0,0,0,2672.7,1314v97.48H2757V1314A42.15,42.15,0,0,0,2714.84,1271.9Z" transform="translate(-1115.84 -27)"/><path class="cls-13" d="M2764.14,1317.2v-1.61a49.34,49.34,0,0,0-43.09-48.87l.8-5h-14l.8,5a49.34,49.34,0,0,0-43.09,48.87v1.61h1.62v89.89h-1.62v9.68h98.6v-9.68h-1.62V1317.2Zm-9.74,89.89h-79.12v-91.5a39.55,39.55,0,0,1,34.87-39.26l.5,3.11H2719l.5-3.11a39.54,39.54,0,0,1,34.87,39.26v1.61h0Z" transform="translate(-1115.84 -27)"/><rect class="cls-13" x="1598.08" y="1242.95" width="1.85" height="140.58"/><rect class="cls-13" x="2713.92" y="1285.12" width="1.85" height="84.46" transform="translate(271.65 4015.19) rotate(-90)"/><rect class="cls-13" x="2713.92" y="1327.33" width="1.85" height="84.46" transform="translate(229.44 4057.4) rotate(-90)"/><rect class="cls-16" x="1485.26" y="1155.99" width="461.3" height="10.27"/><polygon class="cls-16" points="1520.18 1182.23 1499.08 1182.23 1495.29 1178.44 1499.08 1161.12 1520.18 1161.12 1520.18 1182.23"/><polygon class="cls-16" points="1590.2 1182.23 1569.1 1182.23 1565.31 1178.44 1569.1 1161.12 1590.2 1161.12 1590.2 1182.23"/><polygon class="cls-16" points="1660.23 1182.23 1639.12 1182.23 1635.33 1178.44 1639.12 1161.12 1660.23 1161.12 1660.23 1182.23"/><polygon class="cls-16" points="1730.25 1182.23 1709.14 1182.23 1705.35 1178.44 1709.14 1161.12 1730.25 1161.12 1730.25 1182.23"/><polygon class="cls-16" points="1800.27 1182.23 1779.16 1182.23 1775.38 1178.44 1779.16 1161.12 1800.27 1161.12 1800.27 1182.23"/><polygon class="cls-16" points="1870.29 1182.23 1849.18 1182.23 1845.4 1178.44 1849.18 1161.12 1870.29 1161.12 1870.29 1182.23"/><polygon class="cls-16" points="1940.31 1182.23 1919.21 1182.23 1915.42 1178.44 1919.21 1161.12 1940.31 1161.12 1940.31 1182.23"/><rect class="cls-13" x="1485.26" y="1152.2" width="461.3" height="10.27"/><rect class="cls-13" x="1495.29" y="1157.33" width="21.11" height="21.11"/><rect class="cls-13" x="1565.31" y="1157.33" width="21.11" height="21.11"/><rect class="cls-13" x="1635.33" y="1157.33" width="21.11" height="21.11"/><rect class="cls-13" x="1705.35" y="1157.33" width="21.11" height="21.11"/><rect class="cls-13" x="1775.38" y="1157.33" width="21.11" height="21.11"/><rect class="cls-13" x="1845.4" y="1157.33" width="21.11" height="21.11"/><rect class="cls-13" x="1915.42" y="1157.33" width="21.11" height="21.11"/><rect class="cls-14" x="1484.14" y="1073.64" width="461.3" height="77.37"/><rect class="cls-12" x="1484.14" y="1135.66" width="461.3" height="18.42"/><rect class="cls-15" x="1484.14" y="1133.21" width="461.3" height="4.91"/><rect class="cls-16" x="1484.14" y="1073.65" width="461.3" height="4.91"/><rect class="cls-15" x="1484.14" y="1004.24" width="462.42" height="1.62"/><rect class="cls-15" x="1484.14" y="1033.64" width="462.42" height="1.62"/><rect class="cls-15" x="1576.95" y="1005.05" width="1.62" height="59.38"/><rect class="cls-15" x="1795.67" y="1005.05" width="1.62" height="59.38"/><path class="cls-16" d="M2140.23,1091.43h475.5v18.43h-475.5Z" transform="translate(-1115.84 -27)"/><path class="cls-13" d="M2140.23,1494.65h475.5V1179.2h-475.5Z" transform="translate(-1115.84 -27)"/><path class="cls-16" d="M2140.23,1250.55h475.5v-5.46h-475.5Z" transform="translate(-1115.84 -27)"/><rect class="cls-16" x="1292.9" y="1218.09" width="122.31" height="249.55"/><path class="cls-15" d="M2469.9,1271.9a42.15,42.15,0,0,0-42.15,42.14v97.48H2512V1314A42.14,42.14,0,0,0,2469.9,1271.9Z" transform="translate(-1115.84 -27)"/><path class="cls-13" d="M2519.2,1317.2v-1.61a49.34,49.34,0,0,0-43.09-48.87l.8-5h-14l.8,5a49.34,49.34,0,0,0-43.09,48.87v1.61h1.62v89.89h-1.62v9.68h98.6v-9.68h-1.62V1317.2Zm-9.74,89.89h-79.13v-91.5a39.55,39.55,0,0,1,34.88-39.26l.49,3.11h8.39l.49-3.11a39.55,39.55,0,0,1,34.88,39.26v1.61h0Z" transform="translate(-1115.84 -27)"/><rect class="cls-13" x="1353.13" y="1242.95" width="1.85" height="140.58"/><rect class="cls-13" x="2468.97" y="1285.12" width="1.85" height="84.46" transform="translate(26.7 3770.25) rotate(-90)"/><rect class="cls-13" x="2468.97" y="1327.33" width="1.85" height="84.46" transform="translate(-15.51 3812.46) rotate(-90)"/><rect class="cls-16" x="1061.96" y="1218.09" width="122.31" height="249.55"/><path class="cls-15" d="M2239,1271.9a42.15,42.15,0,0,0-42.15,42.14v97.48h84.29V1314A42.14,42.14,0,0,0,2239,1271.9Z" transform="translate(-1115.84 -27)"/><path class="cls-13" d="M2288.26,1317.2v-1.61a49.34,49.34,0,0,0-43.09-48.87l.8-5h-14l.79,5a49.35,49.35,0,0,0-43.09,48.87v1.61h1.63v89.89h-1.63v9.68h98.61v-9.68h-1.62V1317.2Zm-9.74,89.89h-79.13v-91.5a39.55,39.55,0,0,1,34.88-39.26l.49,3.11h8.39l.49-3.11a39.55,39.55,0,0,1,34.88,39.26v1.61h0Z" transform="translate(-1115.84 -27)"/><rect class="cls-13" x="1122.19" y="1242.95" width="1.85" height="140.58"/><rect class="cls-13" x="2238.03" y="1285.12" width="1.85" height="84.46" transform="translate(-204.24 3539.31) rotate(-90)"/><rect class="cls-13" x="2238.03" y="1327.33" width="1.85" height="84.46" transform="translate(-246.45 3581.52) rotate(-90)"/><path class="cls-16" d="M2140.23,1193.26h475.5V1183h-475.5Z" transform="translate(-1115.84 -27)"/><path class="cls-16" d="M2140.23,1188.12h19.91v21.11h-19.91Z" transform="translate(-1115.84 -27)"/><polygon class="cls-16" points="1114.32 1182.23 1093.21 1182.23 1089.42 1178.44 1093.21 1161.12 1114.32 1161.12 1114.32 1182.23"/><polygon class="cls-16" points="1184.34 1182.23 1163.23 1182.23 1159.45 1178.44 1163.23 1161.12 1184.34 1161.12 1184.34 1182.23"/><polygon class="cls-16" points="1254.36 1182.23 1233.26 1182.23 1229.47 1178.44 1233.26 1161.12 1254.36 1161.12 1254.36 1182.23"/><polygon class="cls-16" points="1324.38 1182.23 1303.28 1182.23 1299.49 1178.44 1303.28 1161.12 1324.38 1161.12 1324.38 1182.23"/><polygon class="cls-16" points="1394.41 1182.23 1373.3 1182.23 1369.51 1178.44 1373.3 1161.12 1394.41 1161.12 1394.41 1182.23"/><polygon class="cls-16" points="1464.43 1182.23 1443.32 1182.23 1439.53 1178.44 1443.32 1161.12 1464.43 1161.12 1464.43 1182.23"/><path class="cls-13" d="M2140.23,1189.47h475.5V1179.2h-475.5Z" transform="translate(-1115.84 -27)"/><path class="cls-13" d="M2140.23,1184.33h16.12v21.11h-16.12Z" transform="translate(-1115.84 -27)"/><rect class="cls-13" x="1089.42" y="1157.33" width="21.11" height="21.11"/><rect class="cls-13" x="1159.45" y="1157.33" width="21.11" height="21.11"/><rect class="cls-13" x="1229.47" y="1157.33" width="21.11" height="21.11"/><rect class="cls-13" x="1299.49" y="1157.33" width="21.11" height="21.11"/><rect class="cls-13" x="1369.51" y="1157.33" width="21.11" height="21.11"/><rect class="cls-13" x="1439.53" y="1157.33" width="21.11" height="21.11"/><path class="cls-14" d="M2140.23,1178h475.5v-77.37h-475.5Z" transform="translate(-1115.84 -27)"/><path class="cls-12" d="M2140.23,1162.66h475.5v18.43h-475.5Z" transform="translate(-1115.84 -27)"/><path class="cls-15" d="M2140.23,1160.21h475.5v4.91h-475.5Z" transform="translate(-1115.84 -27)"/><path class="cls-16" d="M2140.23,1100.65h475.5v4.92h-475.5Z" transform="translate(-1115.84 -27)"/><path class="cls-15" d="M2140.23,1031.24h475.5v1.63h-475.5Z" transform="translate(-1115.84 -27)"/><path class="cls-15" d="M2140.23,1060.64h475.5v1.63h-475.5Z" transform="translate(-1115.84 -27)"/><rect class="cls-15" x="1101.06" y="1005.05" width="1.62" height="59.38"/><rect class="cls-15" x="1319.79" y="1005.05" width="1.62" height="59.38"/><path class="cls-16" d="M3009.93,576.07V557.22a17.91,17.91,0,0,1,17.91-17.91h0a17.91,17.91,0,0,1,17.91,17.91v18.85Z" transform="translate(-1115.84 -27)"/><rect class="cls-18" x="1673.21" y="732.77" width="197.26" height="8.74"/><path class="cls-14" d="M2360.52,631l-115.37,35.75v7.8l115.37-35.75Z" transform="translate(-1115.84 -27)"/><path class="cls-15" d="M2201.53,372a27.63,27.63,0,0,0-27.62,27.62v63.89h55.25V399.62A27.63,27.63,0,0,0,2201.53,372Z" transform="translate(-1115.84 -27)"/><rect class="cls-12" x="1085.09" y="343.72" width="1.21" height="92.14"/><rect class="cls-12" x="2200.93" y="380.67" width="1.21" height="55.36" transform="translate(677.35 2582.88) rotate(-90)"/><rect class="cls-12" x="2200.93" y="408.33" width="1.21" height="55.36" transform="translate(649.69 2610.54) rotate(-90)"/><path class="cls-12" d="M2169.22,467.09V400.73a32.32,32.32,0,0,1,64.63,0v66.36Zm32.31-92.29a25.92,25.92,0,0,0-25.92,25.93v60h51.85v-60A25.92,25.92,0,0,0,2201.53,374.8Z" transform="translate(-1115.84 -27)"/><path class="cls-15" d="M2201.53,563.25a27.62,27.62,0,0,0-27.62,27.62v63.89h55.25V590.87A27.62,27.62,0,0,0,2201.53,563.25Z" transform="translate(-1115.84 -27)"/><rect class="cls-12" x="1085.09" y="534.97" width="1.21" height="92.14"/><rect class="cls-12" x="2200.93" y="571.91" width="1.21" height="55.36" transform="translate(486.1 2774.13) rotate(-90)"/><rect class="cls-12" x="2200.93" y="599.58" width="1.21" height="55.36" transform="translate(458.44 2801.79) rotate(-90)"/><path class="cls-12" d="M2169.22,658.34V592a32.32,32.32,0,0,1,64.63,0v66.36Zm32.31-92.29A25.92,25.92,0,0,0,2175.61,592v60h51.85V592A25.92,25.92,0,0,0,2201.53,566.05Z" transform="translate(-1115.84 -27)"/><path class="cls-19" d="M2130.1,1517.53V184H3168.91V1517.53ZM3124,229H2175.05V1472.59H3124Z" transform="translate(-1115.84 -27)"/><rect class="cls-19" x="1524.97" y="182.08" width="17.39" height="1274.33"/><rect class="cls-19" x="2647.79" y="141.18" width="17.39" height="1004.63" transform="translate(897.15 3272.99) rotate(-90)"/><rect class="cls-19" x="956.59" y="1445.59" width="1138.32" height="67"/><rect class="cls-19" x="1741.25" y="1101.44" width="26.38" height="943.04"/><rect class="cls-20" x="1759.97" y="1101.44" width="26.38" height="943.04"/><path class="cls-21" d="M2420.8,1316.24c-35.48-30.75-65.68,35.85-110,11.26-19.71-10.92-43.65-58.47-81.22-61.26-58.13-4.33-100.44,85.13-30.07,124.41,50.35,28.1,46.92,53,78.35,124.55l80.94-14.47C2365.41,1414.35,2458.42,1348.84,2420.8,1316.24Z" transform="translate(-1115.84 -27)"/><path class="cls-22" d="M2443.23,1390.71c-7-39.23-86-12-64.58-55.23,22.66-45.82,45.07-77.89,23.3-110-30.33-44.73-89.4-13.83-91.27,47.11-2,65.35-58.06-1.75-79.59,35.4-29.67,51.21,33.76,63.73,42.61,171.84l84,10.78C2365.1,1452.08,2453.32,1447,2443.23,1390.71Z" transform="translate(-1115.84 -27)"/><path class="cls-23" d="M2390.92,1477.84c1.14,15,1.73,30.46,1.73,46.35,0,69.9-11.53,132.3-29.59,173.22H2262c-18.05-40.92-29.59-103.32-29.59-173.22,0-15.89.6-31.4,1.73-46.35Z" transform="translate(-1115.84 -27)"/><rect class="cls-24" x="1170.54" y="1671.55" width="144.78" height="372.93"/><rect class="cls-25" x="1089.52" y="1671.55" width="82.94" height="372.93"/><rect class="cls-19" x="1083.98" y="1107.05" width="26.38" height="924.24"/><rect class="cls-20" x="1102.7" y="1107.05" width="26.38" height="924.24"/><rect class="cls-20" x="2547.17" y="1619.2" width="26.38" height="630.9" transform="translate(3379.17 -652.71) rotate(90)"/><polygon class="cls-20" points="952.78 2044.48 1129.07 1998.6 1311.23 2044.48 952.78 2044.48"/><polygon class="cls-19" points="920.87 2044.48 1100.1 1998.6 1279.33 2044.48 920.87 2044.48"/><polygon class="cls-20" points="1610.32 2044.48 1786.61 1998.6 1968.77 2044.48 1610.32 2044.48"/><polygon class="cls-19" points="1578.41 2044.48 1757.63 1998.6 1936.86 2044.48 1578.41 2044.48"/><rect class="cls-20" x="1935.29" y="1342.44" width="26.38" height="702.04"/><rect class="cls-20" x="3167.92" y="1681.5" width="28.64" height="223.89" transform="translate(272.96 4948.68) rotate(-90)"/><rect class="cls-20" x="2168.62" y="1342.44" width="26.38" height="702.04"/><path class="cls-20" d="M1918.93,1273.22h300.29A9.77,9.77,0,0,1,2229,1283v59.44a0,0,0,0,1,0,0H1909.15a0,0,0,0,1,0,0V1283A9.77,9.77,0,0,1,1918.93,1273.22Z"/><path class="cls-19" d="M1813.3,1273.22h300.29a9.77,9.77,0,0,1,9.77,9.77v59.44a0,0,0,0,1,0,0H1803.52a0,0,0,0,1,0,0V1283A9.77,9.77,0,0,1,1813.3,1273.22Z"/><rect class="cls-19" x="1844.75" y="1342.44" width="26.38" height="702.04"/><rect class="cls-19" x="3077.39" y="1681.5" width="28.64" height="223.89" transform="translate(182.43 4858.15) rotate(-90)"/><rect class="cls-19" x="2078.08" y="1342.44" width="26.38" height="702.04"/><path class="cls-26" d="M3209.7,1221.05c-28.5-78.54-148.95-44.61-270.18,31s-170.07,92.33-148.37,142.28c17.42,40.11,87.8,24.19,218.38-34.46S3224.15,1260.86,3209.7,1221.05Z" transform="translate(-1115.84 -27)"/><path class="cls-27" d="M3195.7,1082.32c36.83,67.83,67.82,115.21,53.08,172.75-13,50.83-140,90-152.46-13.32s.24-125.09.24-125.09Z" transform="translate(-1115.84 -27)"/><polygon class="cls-28" points="1843.37 1624.8 1867.36 1590.02 1896.87 1673.51 1912.86 1682.57 1896.09 1767.26 1879.65 1757.72 1869.88 1699.22 1843.37 1624.8"/><path class="cls-29" d="M3013.61,1701c7,20-.25,53.64-7.72,73.31-1.27,3.32-11,6.17-10.4,10.39,3,22.1-11.1,47.42-14.38,61.11-1.33,5.59,6.53,10.49,6.53,10.49l29.24-33.72s20.13-26,19.91-54,16.8-59.48,8.12-64.13C3026.85,1694.82,3013.61,1701,3013.61,1701Z" transform="translate(-1115.84 -27)"/><path class="cls-26" d="M3012.84,1686.85c-20-59.4-50.14-163-74.93-218.16-36.65-81.59-100.48-140.57-127.22-127.28-39.28,19.53-20.85,58.43,10.57,109.85,23.73,38.82,106.46,153.51,151.17,255.82Z" transform="translate(-1115.84 -27)"/><path class="cls-27" d="M3217.9,1194.16c-33.92-76.4-129.58-3.16-239.48,109.3s-122.81,132.13-133.52,172.11c-5.14,19.17,24.42,50.81,69.09,35.24,48.44-16.89,103.88-72.46,168-123.69C3205.32,1288.63,3245.17,1255.58,3217.9,1194.16Z" transform="translate(-1115.84 -27)"/><polygon class="cls-28" points="1801.72 1743.63 1837.07 1720.48 1832.85 1808.94 1844.22 1823.37 1796.7 1895.44 1785.08 1880.4 1798.14 1822.54 1801.72 1743.63"/><path class="cls-29" d="M2949.32,1836.75c-1,21.21-20.5,49.57-34.85,65-2.42,2.6-12.49,1.58-13.55,5.7-5.58,21.59-28.2,39.7-36.41,51.15-3.35,4.66,2.08,12.17,2.08,12.17l39.82-20.17s28.45-16.44,38.83-42.44,38-48.73,31.75-56.31C2963.93,1836,2949.32,1836.75,2949.32,1836.75Z" transform="translate(-1115.84 -27)"/><path class="cls-27" d="M2953,1829.47c2.3-62.62,5.75-171.17,2-231.56-5.5-89.27-44.41-167-74.12-164-43.64,4.41-40.13,47.32-28.87,106.51,8.5,44.7,43.18,220,52.72,294.91Z" transform="translate(-1115.84 -27)"/><path class="cls-29" d="M3130.57,912.15a42.26,42.26,0,0,1-8.43-49.77,64.33,64.33,0,0,0,7-34.8c-1.49-17-9.93-32.21-23.21-44.36-17.24-15.76-24.23-39.76-17.36-62.08a92.08,92.08,0,0,0,3.33-38.68c-5.83-46.6-46.84-82-93.79-80.76a92.4,92.4,0,0,0-83.23,127.5c10.15,24.65,9.06,52.92-6,74.94-9.09,13.33-13.66,28.33-12.31,43.8a61.93,61.93,0,0,0,5.42,20.42c11.05,24.21,11.76,52.33-.13,76.14a72.15,72.15,0,0,0-7.74,38.84c4.54,51.87,66.63,88.8,138.69,82.49s126.79-53.47,122.24-105.34C3153.47,942.07,3144.58,925.53,3130.57,912.15Z" transform="translate(-1115.84 -27)"/><polygon class="cls-28" points="1920.12 626.95 1868.2 679.99 1943.55 835.79 1989.93 788.82 1920.12 626.95"/><path class="cls-28" d="M2917.36,1019.19c69.14,10.1,149.8,17.5,180.88,37s15.57,43.33-1.93,49.23-138.87-29-191.38-64.63C2878.34,1022.72,2917.36,1019.19,2917.36,1019.19Z" transform="translate(-1115.84 -27)"/><path class="cls-28" d="M2851.86,1029.16h0a6,6,0,0,1,3.1,7.9l-14.55,33.1a6,6,0,0,1-7.92,3.08h0a6,6,0,0,1-3.09-7.9l14.55-33.11A6,6,0,0,1,2851.86,1029.16Z" transform="translate(-1115.84 -27)"/><path class="cls-28" d="M2848,1034.24h0a6,6,0,0,1-.44,8.46l-27,24.16a6,6,0,0,1-8.49-.46h0a6,6,0,0,1,.45-8.46l26.95-24.16A6,6,0,0,1,2848,1034.24Z" transform="translate(-1115.84 -27)"/><path class="cls-28" d="M2916.13,1031.36h0a13.84,13.84,0,0,1,3.48,21l-1,1.17a13.89,13.89,0,0,1-13.68,4.38l-15-1.59c-5.27-.56-10.22,1.28-14.64,4.2l-5.89,3.84c-6.12,4.08-16.67,3.36-19-1.5h0a4.5,4.5,0,0,1,2.18-6l50.14-25.9A13.93,13.93,0,0,1,2916.13,1031.36Z" transform="translate(-1115.84 -27)"/><path class="cls-28" d="M2916.69,1018.82l-49.24.9a15.57,15.57,0,0,0-5.1,1l-60.71,22.51a2.67,2.67,0,0,0-1.44,3.74h0a10.88,10.88,0,0,0,12.24,5.52l41-10.06a28.19,28.19,0,0,1,15.58.62l19,6.29s23.46,19.47,39.26-2c9.91-13.49,3.16-21.85-2.14-25.81A13.74,13.74,0,0,0,2916.69,1018.82Z" transform="translate(-1115.84 -27)"/><path class="cls-22" d="M3048.47,828.85c-18,1.69-41.78,0-56.71,28.35-13.93,26.42,6.62,56.18-12,103.25-1.47,7.89,4.66,33.32,30.27,40.62,17.79,5.07,79.54,86,72.19,147.78-4.62,38.8,19,45.29,70.58,35.28s83.71-29.23,77.19-77.92-35.14-233.42-46.66-266.54c-5.27-15.15-23.81-18.11-34.66-22.38C3118.37,805.35,3072.82,826.55,3048.47,828.85Z" transform="translate(-1115.84 -27)"/><path class="cls-21" d="M3076.34,1012.5a44.13,44.13,0,0,0,46.24-59.33,44.18,44.18,0,1,1-78.35,39.64A44.12,44.12,0,0,0,3076.34,1012.5Z" transform="translate(-1115.84 -27)"/><path class="cls-28" d="M3066.49,875.36c-46.48,18.18-54.93-17.15-46.19-42.71,10.38-3.69,28.11-28.31,37.39-29.19,15.11-1.42,64.64,5.88,76.4,10.52,0,0-12.55-.2-23.77,16.94S3085,868.14,3066.49,875.36Z" transform="translate(-1115.84 -27)"/><path class="cls-28" d="M3062.62,713.19c5.18,42.81-27.53,91.63-50.69,94.93-19.69,2.82-84.81-58.6-78.64-123.16,2.78-29,38.86-22.88,53-27a121.66,121.66,0,0,1,21.09-4.2c2.3-.27,4.6-.41,6.86-.54a107.28,107.28,0,0,1,15.81.38,76,76,0,0,1,21.74,25.29A96.3,96.3,0,0,1,3062.62,713.19Z" transform="translate(-1115.84 -27)"/><path class="cls-30" d="M2944.07,699.79c3.8-27.66,28.23-30.09,13-63.58,0,0-17.25.13-21.59,13C2925.89,677.82,2944.07,699.79,2944.07,699.79Z" transform="translate(-1115.84 -27)"/><path class="cls-30" d="M3040.07,708.08c-28.38-53-58.34-32.69-73.93-41.87s-25.76-44.47-3.16-53.28,91.77-12.6,118.28,49.52c17.79,41.72-20.41,106.32-34.27,114C3056,756.6,3044.57,716.51,3040.07,708.08Z" transform="translate(-1115.84 -27)"/><path class="cls-28" d="M3129.54,1118.61c-25.5-6.08-28.07-39-22-95.17s-20-113.59,2.65-166.15,74.49-28.47,71.13,35.41-7.07,169.84-23.22,203S3129.54,1118.61,3129.54,1118.61Z" transform="translate(-1115.84 -27)"/><path class="cls-21" d="M3183.61,891.88c1.74-32.91-10.37-55.85-26-64.3-16.51-8.92-37-1.74-49.26,26.81-15.91,36.94-9.12,76.15-4.62,115.72l74.51,18.33C3180.65,954.34,3182.17,919.42,3183.61,891.88Z" transform="translate(-1115.84 -27)"/><path class="cls-28" d="M2991.51,935.81c62,80.19,138.43,100.55,156.74,137.21s-8.83,51-28.19,46.79S3010.47,1024.46,2980.72,960c-11.08-24-4.65-24-1.95-26.41C2983.3,929.49,2991.51,935.81,2991.51,935.81Z" transform="translate(-1115.84 -27)"/><path class="cls-28" d="M2992,930.65l-9.76,9.08-23.34-25.08a9.1,9.1,0,0,1,.46-12.87,4.21,4.21,0,0,1,6,.22Z" transform="translate(-1115.84 -27)"/><polygon class="cls-19" points="1804.86 941.74 1848.84 947.23 1873.35 857.46 1803.17 848.7 1804.86 941.74"/><path class="cls-19" d="M2914.57,869.26h79.21a0,0,0,0,1,0,0v10.14a2.74,2.74,0,0,1-2.74,2.74h-73.73a2.74,2.74,0,0,1-2.74-2.74V869.26A0,0,0,0,1,2914.57,869.26Z" transform="translate(4661.26 2083.65) rotate(-172.88)"/><g class="cls-31"><path class="cls-32" d="M2927.11,892.31A16.72,16.72,0,0,1,2923,925.5a16.42,16.42,0,0,1-3-.67l-.58-31.66A16.63,16.63,0,0,1,2927.11,892.31Z" transform="translate(-1115.84 -27)"/></g><path class="cls-28" d="M2963.73,972l0,.1a6,6,0,0,1-6.66,5.26l-40.8-4.91a6,6,0,0,1,1.36-12l40.89,4.91A6,6,0,0,1,2963.73,972Z" transform="translate(-1115.84 -27)"/><path class="cls-28" d="M2959.32,947.05h0a6,6,0,0,1-6.48,5.57l-50.63-3.83a6,6,0,0,1,.89-12l50.66,3.84A6,6,0,0,1,2959.32,947.05Z" transform="translate(-1115.84 -27)"/><path class="cls-28" d="M2962.57,959.39l0,.17a6,6,0,0,1-6.67,5.13l-49.78-6.48a6,6,0,1,1,1.55-12l49.79,6.48A6,6,0,0,1,2962.57,959.39Z" transform="translate(-1115.84 -27)"/><path class="cls-28" d="M2967.64,937.78h0a6,6,0,0,1-7.08,4.77l-49.35-9.7a6,6,0,1,1,2.3-11.84l49.37,9.7A6,6,0,0,1,2967.64,937.78Z" transform="translate(-1115.84 -27)"/><path class="cls-28" d="M2957.06,929.56c-14.81-3.25-8.39,46.53-8.39,46.53s65.43,11.68,58-14.64c-8.41-29.83-19.93-35.27-19.93-35.27S2971.87,932.82,2957.06,929.56Z" transform="translate(-1115.84 -27)"/><rect class="cls-19" x="2972.17" y="823.75" width="6.26" height="55.23" transform="translate(-488.4 -1191.77) rotate(24.68)"/><rect class="cls-29" x="2603.62" y="1081.36" width="231.88" height="8.59" transform="translate(4323.28 2144.3) rotate(180)"/><rect class="cls-29" x="2794.36" y="1081.36" width="231.88" height="8.59" transform="translate(4704.76 2144.3) rotate(180)"/><polygon class="cls-29" points="1671.14 1058.65 1552.4 859.48 1369.04 855.09 1361.67 859.48 1480.41 1058.65 1671.14 1058.65"/><polygon class="cls-30" points="1678.52 1054.25 1559.78 855.09 1369.04 855.09 1487.78 1054.25 1678.52 1054.25"/><polygon class="cls-19" points="1491.89 1047.02 1381.78 862.32 1555.67 862.32 1665.79 1047.02 1491.89 1047.02"/><path class="cls-33" d="M2757.67,1049c3.24,5.33,2.9,9.16-.82,9.16H2615.63c-2.62,0-6.43-2.78-8.51-6.2L2522,912.2c-2.09-3.43-1.66-6.21.95-6.21h142.89c2.61,0,6.42,2.78,8.51,6.21Z" transform="translate(-1115.84 -27)"/><path class="cls-34" d="M2677.25,916.9H2524.9l-2.86-4.7c-2.09-3.43-1.66-6.21.95-6.21h142.89c2.61,0,6.42,2.78,8.51,6.21Z" transform="translate(-1115.84 -27)"/><polygon class="cls-19" points="1612.71 1018.99 1552.36 1018.99 1520.43 966.53 1580.78 966.53 1612.71 1018.99"/><polygon class="cls-19" points="1577.71 961.49 1517.36 961.49 1501.39 935.26 1561.74 935.26 1577.71 961.49"/><path class="cls-34" d="M2640.16,975.54c2.06,3.51,1.52,6.28-1.21,6.18s-6.61-3-8.68-6.52-1.53-6.27,1.2-6.18S2638.09,972,2640.16,975.54Z" transform="translate(-1115.84 -27)"/><path class="cls-19" d="M2604.22,975.63c3.24,5.5,2.4,9.85-1.88,9.7s-10.38-4.72-13.62-10.22-2.39-9.85,1.89-9.7S2601,970.13,2604.22,975.63Z" transform="translate(-1115.84 -27)"/><path class="cls-34" d="M2659.19,1006.81c2.07,3.51,1.53,6.28-1.2,6.19s-6.62-3-8.68-6.52-1.53-6.28,1.2-6.19S2657.13,1003.3,2659.19,1006.81Z" transform="translate(-1115.84 -27)"/><polygon class="cls-34" points="1600.49 1010.91 1570.51 1010.91 1555.35 986 1585.33 986 1600.49 1010.91"/><polygon class="cls-34" points="1582.17 980.81 1552.19 980.81 1549.41 976.26 1579.4 976.26 1582.17 980.81"/><polygon class="cls-34" points="1568 957.52 1538.01 957.52 1533.25 949.7 1563.23 949.7 1568 957.52"/><polygon class="cls-34" points="1560.07 944.51 1530.09 944.51 1527.32 939.95 1557.3 939.95 1560.07 944.51"/><polygon class="cls-19" points="1510.4 970.72 1480.41 970.72 1477.64 966.17 1507.63 966.17 1510.4 970.72"/><polygon class="cls-19" points="1514.94 978.19 1484.96 978.19 1482.19 973.63 1512.17 973.63 1514.94 978.19"/><polygon class="cls-19" points="1519.48 985.65 1489.5 985.65 1486.73 981.1 1516.71 981.1 1519.48 985.65"/><polygon class="cls-19" points="1524.03 993.12 1494.05 993.12 1491.28 988.56 1521.26 988.56 1524.03 993.12"/><polygon class="cls-19" points="1558.04 929.17 1455.12 929.17 1435.68 897.22 1538.59 897.22 1558.04 929.17"/><path class="cls-35" d="M2564.44,945.45l6.52,10.72h102.92L2659,931.72C2620.49,923,2624.67,962.26,2564.44,945.45Z" transform="translate(-1115.84 -27)"/><path class="cls-36" d="M2566.1,948.18l4.56,7.5h102.92l-2.22-3.65C2585.65,893.94,2604.61,956.92,2566.1,948.18Z" transform="translate(-1115.84 -27)"/><path class="cls-19" d="M2529.17,911.45c.87,1.44.69,2.61-.41,2.61s-2.7-1.17-3.58-2.61-.7-2.62.4-2.62S2528.29,910,2529.17,911.45Z" transform="translate(-1115.84 -27)"/><path class="cls-19" d="M2536.62,911.45c.88,1.44.7,2.61-.4,2.61s-2.7-1.17-3.58-2.61-.7-2.62.4-2.62S2535.74,910,2536.62,911.45Z" transform="translate(-1115.84 -27)"/><path class="cls-19" d="M2544.08,911.45c.88,1.44.7,2.61-.4,2.61s-2.71-1.17-3.58-2.61-.7-2.62.4-2.62S2543.2,910,2544.08,911.45Z" transform="translate(-1115.84 -27)"/><rect class="cls-20" x="652.93" y="1342.44" width="26.38" height="702.04"/><rect class="cls-20" x="1885.56" y="1681.5" width="28.64" height="223.89" transform="translate(-1009.4 3666.32) rotate(-90)"/><rect class="cls-20" x="886.25" y="1342.44" width="26.38" height="702.04"/><path class="cls-37" d="M1811,895.67c57.12,42.75,147.82,99.89,187.85,109.46,51.14,18.62,92-29.21,28.18-74.64-35.68-24.13-34-56.32-113.08-100.34Z" transform="translate(-1115.84 -27)"/><path class="cls-23" d="M1871.48,790.22c22.27,16.34,55.14,36,73.31,54.41l-66.34,99c-29.1-10.45-57.55-28.6-77.48-60.09C1763.43,824.17,1825.16,756.23,1871.48,790.22Z" transform="translate(-1115.84 -27)"/><polygon class="cls-28" points="887.08 1606.56 855.09 1670.97 847.38 1717.98 807.87 1648.06 838.35 1639.56 857.23 1550.04 887.08 1606.56"/><path class="cls-24" d="M1899.18,1682.82l44.55-15.06s-10,7.94-.18,27.1c10.11,19.72,24.6,16.55,24.92,18.61s18.81,94.49,18.81,94.49l-15.89,15.59-70.19-117.22Z" transform="translate(-1115.84 -27)"/><rect class="cls-19" x="1843.63" y="1762.89" width="186.64" height="10.87" transform="translate(131.95 4271.9) rotate(-117.16)"/><path class="cls-19" d="M1984.38,1848.88c21.79-11.18,2.9-40.92,2.9-40.92l-22.54,2.64Z" transform="translate(-1115.84 -27)"/><polygon class="cls-19" points="866.03 1745.16 855.6 1747.02 855 1741.42 865.18 1740.9 866.03 1745.16"/><polygon class="cls-19" points="863.18 1729.13 852.74 1730.99 852.15 1725.4 862.33 1724.88 863.18 1729.13"/><polygon class="cls-19" points="860.33 1713.11 849.89 1714.97 849.3 1709.38 859.48 1708.85 860.33 1713.11"/><polygon class="cls-19" points="857.48 1697.09 847.04 1698.95 846.44 1693.35 856.63 1692.83 857.48 1697.09"/><path class="cls-24" d="M2079,1364.9c-19,33.36-165.75,302.88-165.75,302.88l86.6,52.27s165.52-233.71,224.23-345.69C2266.51,1293.35,2139.19,1259.42,2079,1364.9Z" transform="translate(-1115.84 -27)"/><path class="cls-19" d="M636.56,1273.22H936.85a9.77,9.77,0,0,1,9.77,9.77v59.44a0,0,0,0,1,0,0H626.79a0,0,0,0,1,0,0V1283A9.77,9.77,0,0,1,636.56,1273.22Z"/><path class="cls-19" d="M530.93,1273.22H831.22A9.77,9.77,0,0,1,841,1283v59.44a0,0,0,0,1,0,0H521.16a0,0,0,0,1,0,0V1283A9.77,9.77,0,0,1,530.93,1273.22Z"/><rect class="cls-19" x="562.39" y="1342.44" width="26.38" height="702.04"/><rect class="cls-19" x="1795.02" y="1681.5" width="28.64" height="223.89" transform="translate(-1099.94 3575.78) rotate(-90)"/><rect class="cls-19" x="795.72" y="1342.44" width="26.38" height="702.04"/><path class="cls-24" d="M2198,1294.44c-63.7-37.63-289.33-115.94-372.64-157.73-97-48.65-110.52,120.42,25.29,168.7,78.49,27.9,258.64,80.86,258.64,80.86s-3.62,12.36,1.92,20.06,23.59-2.92,27.16-4.8C2193.56,1427.63,2283,1344.64,2198,1294.44Z" transform="translate(-1115.84 -27)"/><polygon class="cls-28" points="1041.06 1787.63 1064.36 1844.57 1107.37 1865.06 1029.22 1883.55 1029.54 1851.9 990.48 1777.52 1041.06 1787.63"/><path class="cls-24" d="M2145.68,1936.26l-2.06-47s4.84,11.82,26,7.71c21.75-4.23,22.73-19,24.81-18.75s96,8.23,96,8.23l10.55,19.6-132.12,34.79Z" transform="translate(-1115.84 -27)"/><rect class="cls-19" x="2145" y="1918.36" width="186.64" height="10.87" transform="matrix(-0.98, 0.19, -0.19, -0.98, 3686.75, 3358.16)"/><path class="cls-19" d="M2328.89,1900.65c-4.68-24-38.49-14.17-38.49-14.17l-3.74,22.38Z" transform="translate(-1115.84 -27)"/><polygon class="cls-19" points="1138.66 1854.71 1137.55 1865.25 1132.01 1864.26 1134.34 1854.34 1138.66 1854.71"/><polygon class="cls-19" points="1122.48 1852.98 1121.36 1863.53 1115.82 1862.54 1118.15 1852.62 1122.48 1852.98"/><polygon class="cls-19" points="1106.29 1851.27 1105.18 1861.81 1099.64 1860.82 1101.97 1850.9 1106.29 1851.27"/><polygon class="cls-19" points="1090.11 1849.54 1088.99 1860.08 1083.45 1859.1 1085.78 1849.17 1090.11 1849.54"/><path class="cls-25" d="M1983.63,1559.4c11.66,36.61,124,323.15,124,323.15l83.71-24.43s-65.75-198.27-102.57-399.08C2072.33,1369.09,1946.78,1443.66,1983.63,1559.4Z" transform="translate(-1115.84 -27)"/><path class="cls-25" d="M2065.87,1414.45c-45.91-58-228.31-212.2-291-281.14-73-80.26-180,71.59-70.62,165.46,63.21,54.25,245.85,169.48,245.85,169.48s-7.82,10.24-5.41,19.42,23,5.76,27.06,5.28C2013.82,1537.13,2127.15,1491.85,2065.87,1414.45Z" transform="translate(-1115.84 -27)"/><path class="cls-38" d="M1646.57,1204.49c-18.92-241.22-15.37-299.16,62.67-377.2s166.72-73.38,172.63,8.25-29.56,101.72-24.83,170.3S1876,1156,1876,1156s-48.48,33.11-123,48.48S1646.57,1204.49,1646.57,1204.49Z" transform="translate(-1115.84 -27)"/><path class="cls-28" d="M1987.58,726.62l-71.3-47.52L1814.09,781.42c-15.45,15.45-9.65,43.08,5.79,58.54h0a39.58,39.58,0,0,0,56,0Z" transform="translate(-1115.84 -27)"/><path class="cls-28" d="M1961,625c66.48,5.21,77.32,41.44,61.89,89.43s-62,125.33-94.47,117.44-68.63-52.34-52-100.61S1923.46,622.11,1961,625Z" transform="translate(-1115.84 -27)"/><path class="cls-29" d="M2069.47,653.52c9.54,45.21-9.48,59.72-37.61,46.43s-57.77-35.57-57.77-35.57-71.25,73.12-57.64,93.6,32.59-1.16,64.63,27.7c19.68,17.72-30.82,84.9-57.48,72.51s-58-57.52-48.94-83.4,58.49-69,56.37-91.54-19.11-17.82-25.59-5.67-39.66,64.33-39.66,64.33S1880.4,674,1903,640.64s53.74-54.53,85.41-29,29.22,39.36,52.67,47.15S2069.47,653.52,2069.47,653.52Z" transform="translate(-1115.84 -27)"/><path class="cls-28" d="M1684.86,907c26.21,70.11,93.52,193.27,123.44,224.4,30.53,31.77,42.23,16.79,42.23,16.79,29-14.18,31.08-28.07,5.32-88-17.82-41.51,1.91-69-43-152.66Z" transform="translate(-1115.84 -27)"/><path class="cls-28" d="M2044,1019.17c-81.81,22.7-177.92,43.9-212.43,72.1s-12.18,54.6,9.83,59,163-56.13,220.87-107C2091.53,1017.48,2044,1019.17,2044,1019.17Z" transform="translate(-1115.84 -27)"/><path class="cls-23" d="M1798,848.18c10.4,27,28.3,63,33.89,89.57l-114.64,49.8c-19.77-25.73-34.61-57.86-34.35-97C1683.34,816.93,1776.34,791.93,1798,848.18Z" transform="translate(-1115.84 -27)"/><path class="cls-28" d="M2126.57,1030.53h0a7.31,7.31,0,0,0-3.76,9.6l17.67,40.23a7.34,7.34,0,0,0,9.63,3.74h0a7.31,7.31,0,0,0,3.76-9.6l-17.68-40.23A7.32,7.32,0,0,0,2126.57,1030.53Z" transform="translate(-1115.84 -27)"/><path class="cls-28" d="M2131.28,1036.7h0a7.3,7.3,0,0,0,.55,10.29l32.75,29.35a7.34,7.34,0,0,0,10.32-.55h0a7.3,7.3,0,0,0-.55-10.29l-32.75-29.35A7.34,7.34,0,0,0,2131.28,1036.7Z" transform="translate(-1115.84 -27)"/><path class="cls-28" d="M2048.48,1033.21h0a16.81,16.81,0,0,0-4.23,25.57l1.24,1.42a16.89,16.89,0,0,0,16.63,5.32l18.24-1.94c6.41-.68,12.42,1.56,17.79,5.1l7.16,4.68c7.44,5,20.26,4.08,23-1.83h0a5.48,5.48,0,0,0-2.65-7.28l-60.93-31.47A16.91,16.91,0,0,0,2048.48,1033.21Z" transform="translate(-1115.84 -27)"/><path class="cls-28" d="M2047.79,1018l59.84,1.09a19,19,0,0,1,6.2,1.17l73.77,27.35a3.25,3.25,0,0,1,1.75,4.54h0a13.23,13.23,0,0,1-14.87,6.72l-49.89-12.23a34.3,34.3,0,0,0-18.92.75l-23.12,7.64s-28.5,23.67-47.7-2.44c-12-16.38-3.84-26.55,2.6-31.36A16.71,16.71,0,0,1,2047.79,1018Z" transform="translate(-1115.84 -27)"/><rect class="cls-19" x="859.57" y="1063.37" width="701.48" height="43.68"/><rect class="cls-20" x="1237.7" y="1063.37" width="701.48" height="43.68"/><rect class="cls-29" x="1098.79" y="1054.72" width="231.88" height="8.59"/><rect class="cls-29" x="908.05" y="1054.72" width="231.88" height="8.59"/><rect class="cls-30" x="2202.52" y="979.57" width="231.88" height="8.59" transform="translate(-829.69 2444.47) rotate(-59.2)"/><polygon class="cls-29" points="1146.94 1058.65 1265.68 859.48 1456.42 859.48 1337.68 1058.65 1146.94 1058.65"/><polygon class="cls-30" points="1258.3 855.09 1449.04 855.09 1456.42 859.48 1265.68 859.48 1258.3 855.09"/><path class="cls-30" d="M2402.26,989.67c-4.69,10.35,1.55,18.74,13.95,18.74s26.25-8.39,30.94-18.74-1.55-18.74-14-18.74S2407,979.32,2402.26,989.67Z" transform="translate(-1115.84 -27)"/><path class="cls-37" d="M2062.57,862.76c-44.47,72.32-57.13,59.08-63.21,103.22s28.26,48.29,47.41,36.56,37.86-57.87,45.58-134.57C2096.26,829.12,2062.57,862.76,2062.57,862.76Z" transform="translate(-1115.84 -27)"/><path class="cls-37" d="M2047.55,803.81c9.24,2.87,23.48-.65,31.09,9.37,11,14.41,13.61,43.09,13.61,43.09l-25.71,13.61S2065,878,2032,860.55s-28-42.36-28-42.36Z" transform="translate(-1115.84 -27)"/><path class="cls-19" d="M1954.94,816.42c7.2,23.15,28,39.89,52.5,39.89,30.51,0,55.23-25.86,55.23-57.77,0-.25,0-.48,0-.73a117.82,117.82,0,0,0-38.1-6.2C1995.7,791.61,1970.26,801.43,1954.94,816.42Z" transform="translate(-1115.84 -27)"/><path class="cls-19" d="M2044.53,846.4c.9,6.17-10.78,13-26.09,15.19s-28.44-1-29.34-7.15,10.79-13,26.1-15.19S2043.64,840.23,2044.53,846.4Z" transform="translate(-1115.84 -27)"/></g></g></svg>