<svg width="424" height="138" viewBox="0 0 424 138" fill="none" xmlns="http://www.w3.org/2000/svg">
<rect x="0.0687866" y="0.553772" width="93.3103" height="114.517" fill="#2792AB"/>
<rect x="110.163" y="0.553772" width="93.3103" height="114.517" fill="#092040"/>
<rect x="220.258" y="0.553772" width="93.3103" height="114.517" fill="#F4AD93"/>
<rect x="330.352" y="0.553772" width="93.3103" height="114.517" fill="#7892B2"/>
<path d="M22.9739 135.185H23.4039L24.1939 132.905H26.5939L25.8039 135.185H26.2339L27.0239 132.905H28.7039L28.8639 132.505H27.1639L27.8439 130.525H29.4839L29.6439 130.125H27.9839L28.7339 127.945H28.3139L27.5539 130.125H25.1639L25.9239 127.945H25.5039L24.7439 130.125H23.0539L22.8939 130.525H24.6039L23.9139 132.505H22.2339L22.0739 132.905H23.7739L22.9739 135.185ZM24.3339 132.505L25.0239 130.525H27.4239L26.7339 132.505H24.3339ZM30.8954 135.185H36.3154V134.785H31.6054C35.5454 132.215 36.3454 131.415 36.3454 129.995C36.3454 128.615 35.2354 127.865 33.7154 127.865C32.2854 127.865 31.2654 128.575 30.9754 129.815L31.3654 129.865C31.6254 128.805 32.4754 128.265 33.7154 128.265C35.0154 128.265 35.9454 128.845 35.9454 129.995C35.9454 131.335 35.2454 132.005 30.8954 134.825V135.185ZM38.4357 135.185H38.8857L42.6257 128.355V127.945H37.4357V128.345H42.1757L38.4357 135.185ZM45.7737 135.185H46.4437C48.2037 133.705 49.4937 132.125 49.4937 130.475C49.4937 128.625 48.1037 127.815 46.6037 127.815C45.1337 127.815 43.7337 128.625 43.7337 130.475C43.7337 132.305 45.1437 133.115 46.6237 133.115C47.2137 133.115 47.8637 132.955 48.3937 132.585C47.8637 133.395 46.8237 134.475 45.7737 135.185ZM46.6237 132.715C45.0837 132.715 44.1337 131.845 44.1337 130.475C44.1337 129.085 45.0737 128.215 46.6037 128.215C48.1637 128.215 49.1037 129.085 49.1037 130.475C49.1037 131.845 48.1637 132.715 46.6237 132.715ZM50.8915 135.185H56.3115V134.785H51.6015C55.5415 132.215 56.3415 131.415 56.3415 129.995C56.3415 128.615 55.2315 127.865 53.7115 127.865C52.2815 127.865 51.2615 128.575 50.9715 129.815L51.3615 129.865C51.6215 128.805 52.4715 128.265 53.7115 128.265C55.0115 128.265 55.9415 128.845 55.9415 129.995C55.9415 131.335 55.2415 132.005 50.8915 134.825V135.185ZM63.7394 135.185H64.1894L60.8894 127.945H60.5294L57.2294 135.185H57.6794L58.4994 133.365H62.9194L63.7394 135.185ZM58.6794 132.965L60.7094 128.435L62.7394 132.965H58.6794ZM65.3872 135.185H67.3872C69.7072 135.185 70.6772 134.625 70.6772 133.225C70.6772 132.085 70.1172 131.585 68.6872 131.445C69.8772 131.255 70.4072 130.725 70.4072 129.715C70.4072 128.375 69.6572 127.945 67.2972 127.945H65.3872V135.185ZM65.7872 131.275V128.345H67.2972C69.3772 128.345 70.0072 128.665 70.0072 129.715C70.0072 130.835 69.1672 131.275 67.3472 131.275H65.7872ZM65.7872 134.785V131.675H67.4272C69.5572 131.675 70.2772 132.075 70.2772 133.265C70.2772 134.335 69.4272 134.785 67.3872 134.785H65.7872Z" fill="black"/>
<path d="M131.068 135.185H131.498L132.288 132.905H134.688L133.898 135.185H134.328L135.118 132.905H136.798L136.958 132.505H135.258L135.938 130.525H137.578L137.738 130.125H136.078L136.828 127.945H136.408L135.648 130.125H133.258L134.018 127.945H133.598L132.838 130.125H131.148L130.988 130.525H132.698L132.008 132.505H130.328L130.168 132.905H131.868L131.068 135.185ZM132.428 132.505L133.118 130.525H135.518L134.828 132.505H132.428ZM142.27 135.295C143.91 135.295 145.37 134.205 145.37 131.575C145.37 128.995 143.9 127.865 142.29 127.865C140.66 127.865 139.19 128.995 139.19 131.575C139.19 134.205 140.64 135.295 142.27 135.295ZM142.27 134.895C140.59 134.895 139.59 133.675 139.59 131.575C139.59 129.515 140.62 128.265 142.29 128.265C143.94 128.265 144.97 129.515 144.97 131.575C144.97 133.665 143.96 134.895 142.27 134.895ZM149.013 135.185H149.683C151.443 133.705 152.733 132.125 152.733 130.475C152.733 128.625 151.343 127.815 149.843 127.815C148.373 127.815 146.973 128.625 146.973 130.475C146.973 132.305 148.383 133.115 149.863 133.115C150.453 133.115 151.103 132.955 151.633 132.585C151.103 133.395 150.063 134.475 149.013 135.185ZM149.863 132.715C148.323 132.715 147.373 131.845 147.373 130.475C147.373 129.085 148.313 128.215 149.843 128.215C151.403 128.215 152.343 129.085 152.343 130.475C152.343 131.845 151.403 132.715 149.863 132.715ZM154.131 135.185H159.551V134.785H154.841C158.781 132.215 159.581 131.415 159.581 129.995C159.581 128.615 158.471 127.865 156.951 127.865C155.521 127.865 154.501 128.575 154.211 129.815L154.601 129.865C154.861 128.805 155.711 128.265 156.951 128.265C158.251 128.265 159.181 128.845 159.181 129.995C159.181 131.335 158.481 132.005 154.131 134.825V135.185ZM164.248 135.295C165.888 135.295 167.348 134.205 167.348 131.575C167.348 128.995 165.878 127.865 164.268 127.865C162.638 127.865 161.168 128.995 161.168 131.575C161.168 134.205 162.618 135.295 164.248 135.295ZM164.248 134.895C162.568 134.895 161.568 133.675 161.568 131.575C161.568 129.515 162.598 128.265 164.268 128.265C165.918 128.265 166.948 129.515 166.948 131.575C166.948 133.665 165.938 134.895 164.248 134.895ZM173.311 135.185H173.711V133.305H174.881V132.905H173.711V127.945H173.351L168.751 132.975V133.305H173.311V135.185ZM169.341 132.905L173.311 128.555V132.905H169.341ZM179.262 135.295C180.902 135.295 182.362 134.205 182.362 131.575C182.362 128.995 180.892 127.865 179.282 127.865C177.652 127.865 176.182 128.995 176.182 131.575C176.182 134.205 177.632 135.295 179.262 135.295ZM179.262 134.895C177.582 134.895 176.582 133.675 176.582 131.575C176.582 129.515 177.612 128.265 179.282 128.265C180.932 128.265 181.962 129.515 181.962 131.575C181.962 133.665 180.952 134.895 179.262 134.895Z" fill="black"/>
<path d="M242.663 135.185H243.093L243.883 132.905H246.283L245.493 135.185H245.923L246.713 132.905H248.393L248.553 132.505H246.853L247.533 130.525H249.173L249.333 130.125H247.673L248.423 127.945H248.003L247.243 130.125H244.853L245.613 127.945H245.193L244.433 130.125H242.743L242.583 130.525H244.293L243.603 132.505H241.923L241.763 132.905H243.463L242.663 135.185ZM244.023 132.505L244.713 130.525H247.113L246.423 132.505H244.023ZM250.985 135.185H251.385V131.855H255.095V131.455H251.385V128.345H255.275V127.945H250.985V135.185ZM260.984 135.185H261.384V133.305H262.554V132.905H261.384V127.945H261.024L256.424 132.975V133.305H260.984V135.185ZM257.014 132.905L260.984 128.555V132.905H257.014ZM269.665 135.185H270.115L266.815 127.945H266.455L263.155 135.185H263.605L264.425 133.365H268.845L269.665 135.185ZM264.605 132.965L266.635 128.435L268.665 132.965H264.605ZM271.313 135.185H272.833C275.793 135.185 277.043 134.105 277.043 131.555C277.043 129.005 275.793 127.945 272.833 127.945H271.313V135.185ZM271.713 134.785V128.345H272.833C275.463 128.345 276.643 129.265 276.643 131.555C276.643 133.855 275.463 134.785 272.833 134.785H271.713ZM280.682 135.185H281.352C283.112 133.705 284.402 132.125 284.402 130.475C284.402 128.625 283.012 127.815 281.512 127.815C280.042 127.815 278.642 128.625 278.642 130.475C278.642 132.305 280.052 133.115 281.532 133.115C282.122 133.115 282.772 132.955 283.302 132.585C282.772 133.395 281.732 134.475 280.682 135.185ZM281.532 132.715C279.992 132.715 279.042 131.845 279.042 130.475C279.042 129.085 279.982 128.215 281.512 128.215C283.072 128.215 284.012 129.085 284.012 130.475C284.012 131.845 283.072 132.715 281.532 132.715ZM288.572 135.315C290.322 135.315 291.352 134.455 291.352 133.215C291.352 132.155 290.752 131.525 289.502 131.455C290.572 131.295 291.092 130.715 291.092 129.815C291.092 128.605 290.202 127.855 288.522 127.855C287.342 127.855 286.422 128.365 285.932 129.475L286.322 129.575C286.762 128.655 287.532 128.255 288.522 128.255C289.982 128.255 290.692 128.815 290.692 129.815C290.692 130.745 289.932 131.275 288.442 131.275H288.152V131.675H288.602C290.342 131.675 290.952 132.135 290.952 133.215C290.952 134.235 290.102 134.915 288.572 134.915C287.272 134.915 286.462 134.365 286.072 133.375L285.672 133.465C286.102 134.645 287.092 135.315 288.572 135.315Z" fill="black"/>
<path d="M353.258 135.185H353.688L354.478 132.905H356.878L356.088 135.185H356.518L357.308 132.905H358.988L359.148 132.505H357.448L358.128 130.525H359.768L359.928 130.125H358.268L359.018 127.945H358.598L357.838 130.125H355.448L356.208 127.945H355.788L355.028 130.125H353.338L353.178 130.525H354.888L354.198 132.505H352.518L352.358 132.905H354.058L353.258 135.185ZM354.618 132.505L355.308 130.525H357.708L357.018 132.505H354.618ZM361.979 135.185H362.429L366.169 128.355V127.945H360.979V128.345H365.719L361.979 135.185ZM370.167 135.305C371.907 135.305 373.077 134.525 373.077 133.315C373.077 132.365 372.327 131.755 371.137 131.555C372.247 131.335 372.947 130.725 372.947 129.785C372.947 128.615 371.857 127.865 370.207 127.865C368.557 127.865 367.447 128.615 367.447 129.785C367.447 130.715 368.147 131.335 369.237 131.545C368.037 131.745 367.277 132.355 367.277 133.315C367.277 134.515 368.447 135.305 370.167 135.305ZM370.187 131.345C368.777 131.345 367.847 130.725 367.847 129.785C367.847 128.855 368.777 128.265 370.207 128.265C371.627 128.265 372.547 128.855 372.547 129.785C372.547 130.735 371.607 131.345 370.187 131.345ZM370.167 134.905C368.667 134.905 367.677 134.275 367.677 133.315C367.677 132.365 368.687 131.745 370.187 131.745C371.687 131.745 372.677 132.375 372.677 133.315C372.677 134.275 371.697 134.905 370.167 134.905ZM376.614 135.185H377.284C379.044 133.705 380.334 132.125 380.334 130.475C380.334 128.625 378.944 127.815 377.444 127.815C375.974 127.815 374.574 128.625 374.574 130.475C374.574 132.305 375.984 133.115 377.464 133.115C378.054 133.115 378.704 132.955 379.234 132.585C378.704 133.395 377.664 134.475 376.614 135.185ZM377.464 132.715C375.924 132.715 374.974 131.845 374.974 130.475C374.974 129.085 375.914 128.215 377.444 128.215C379.004 128.215 379.944 129.085 379.944 130.475C379.944 131.845 379.004 132.715 377.464 132.715ZM381.732 135.185H387.152V134.785H382.442C386.382 132.215 387.182 131.415 387.182 129.995C387.182 128.615 386.072 127.865 384.552 127.865C383.122 127.865 382.102 128.575 381.812 129.815L382.202 129.865C382.462 128.805 383.312 128.265 384.552 128.265C385.852 128.265 386.782 128.845 386.782 129.995C386.782 131.335 386.082 132.005 381.732 134.825V135.185ZM388.97 135.185H390.97C393.29 135.185 394.26 134.625 394.26 133.225C394.26 132.085 393.7 131.585 392.27 131.445C393.46 131.255 393.99 130.725 393.99 129.715C393.99 128.375 393.24 127.945 390.88 127.945H388.97V135.185ZM389.37 131.275V128.345H390.88C392.96 128.345 393.59 128.665 393.59 129.715C393.59 130.835 392.75 131.275 390.93 131.275H389.37ZM389.37 134.785V131.675H391.01C393.14 131.675 393.86 132.075 393.86 133.265C393.86 134.335 393.01 134.785 390.97 134.785H389.37ZM395.661 135.185H401.081V134.785H396.371C400.311 132.215 401.111 131.415 401.111 129.995C401.111 128.615 400.001 127.865 398.481 127.865C397.051 127.865 396.031 128.575 395.741 129.815L396.131 129.865C396.391 128.805 397.241 128.265 398.481 128.265C399.781 128.265 400.711 128.845 400.711 129.995C400.711 131.335 400.011 132.005 395.661 134.825V135.185Z" fill="black"/>
</svg>
