<svg width="366" height="610" viewBox="0 0 366 610" fill="none" xmlns="http://www.w3.org/2000/svg">
<circle cx="161.094" cy="209.885" r="133.359" fill="#092040"/>
<path d="M294.454 209.885C294.454 175.383 281.082 142.223 257.147 117.373C233.212 92.5221 200.578 77.9149 166.1 76.6199C131.622 75.3248 97.9837 87.4426 72.2522 110.428C46.5208 133.413 30.699 165.476 28.1106 199.881C25.5223 234.286 36.369 268.355 58.372 294.932C80.3749 321.508 111.822 338.522 146.105 342.4C180.389 346.278 214.842 336.717 242.225 315.727C269.608 294.738 287.791 263.952 292.953 229.838L161.094 209.885H294.454Z" fill="#7892B2"/>
<path d="M255.394 304.185C233.577 326.001 204.871 339.578 174.166 342.602C143.461 345.627 112.657 337.911 87.0038 320.77C61.3501 303.628 42.4335 278.122 33.4773 248.597C24.521 219.073 26.0792 187.356 37.8862 158.851C49.6933 130.346 71.0188 106.817 98.2291 92.2728C125.439 77.7286 156.851 73.0691 187.111 79.0883C217.372 85.1075 244.609 101.433 264.182 125.283C283.756 149.133 294.454 179.032 294.454 209.885L161.094 209.885L255.394 304.185Z" fill="#F4AD93"/>
<path d="M255.394 304.185C239.886 319.692 220.793 331.136 199.806 337.502C178.82 343.869 156.587 344.961 135.077 340.682C113.567 336.404 93.4449 326.886 76.492 312.973C59.539 299.061 46.2789 281.181 37.8862 260.92C29.4936 240.658 26.2274 218.639 28.377 196.814C30.5266 174.988 38.0257 154.03 50.21 135.795C62.3942 117.56 78.8876 102.611 98.2291 92.2728C117.571 81.9345 139.163 76.5259 161.094 76.5259L161.094 209.885L255.394 304.185Z" fill="#FFA672"/>
<path d="M255.394 304.185C239.886 319.692 220.793 331.136 199.806 337.502C178.82 343.868 156.587 344.961 135.077 340.682C113.568 336.404 93.445 326.886 76.492 312.974C59.5391 299.061 46.279 281.181 37.8863 260.92C29.4936 240.658 26.2274 218.639 28.377 196.814C30.5266 174.988 38.0256 154.03 50.2098 135.795C62.3941 117.56 78.8874 102.611 98.2288 92.2729C117.57 81.9346 139.163 76.5259 161.094 76.5259L161.094 209.885L255.394 304.185Z" fill="#2792AB"/>
<ellipse cx="161.094" cy="209.885" rx="50.1614" ry="52.195" fill="white"/>
<circle cx="7.27987" cy="412.6" r="7.06014" fill="#00B0B4"/>
<circle cx="7.27987" cy="412.6" r="7.06014" fill="#00B0B4"/>
<circle cx="7.27987" cy="472.743" r="7.06014" fill="#F4AD93"/>
<circle cx="7.27987" cy="533.826" r="7.06014" fill="#7892B2"/>
<circle cx="7.27987" cy="594.909" r="7.06014" fill="#092040"/>
<path d="M25.633 417.66H27.127V405.654H25.633V417.66ZM29.1296 416.508C30.0116 417.444 31.2176 417.876 32.6396 417.876C34.8896 417.876 36.0596 416.706 36.0596 415.248C36.0596 413.322 34.3136 412.89 32.8016 412.548C31.6676 412.278 30.6776 412.008 30.6776 411.162C30.6776 410.388 31.4156 409.848 32.6036 409.848C33.7196 409.848 34.6736 410.316 35.1956 410.946L35.8256 410.01C35.1236 409.308 34.0796 408.75 32.6036 408.75C30.5336 408.75 29.3636 409.902 29.3636 411.252C29.3636 413.052 31.0376 413.448 32.5136 413.79C33.6836 414.078 34.7456 414.384 34.7456 415.338C34.7456 416.184 34.0256 416.778 32.6936 416.778C31.5056 416.778 30.4076 416.202 29.8316 415.536L29.1296 416.508ZM42.0508 417.876C44.6968 417.876 46.3528 415.824 46.3528 413.304C46.3528 410.784 44.6968 408.75 42.0508 408.75C39.4048 408.75 37.7488 410.784 37.7488 413.304C37.7488 415.824 39.4048 417.876 42.0508 417.876ZM42.0508 416.67C40.1968 416.67 39.1528 415.086 39.1528 413.304C39.1528 411.54 40.1968 409.956 42.0508 409.956C43.9048 409.956 44.9308 411.54 44.9308 413.304C44.9308 415.086 43.9048 416.67 42.0508 416.67ZM48.5536 417.66H49.9036V405.654H48.5536V417.66ZM58.0326 417.66H59.3826V411.684C59.3826 409.578 57.8526 408.75 56.0166 408.75C54.5946 408.75 53.4786 409.218 52.5426 410.19L53.1726 411.126C53.9466 410.298 54.7926 409.92 55.8366 409.92C57.0966 409.92 58.0326 410.586 58.0326 411.756V413.322C57.3306 412.512 56.3406 412.134 55.1526 412.134C53.6766 412.134 52.1106 413.052 52.1106 414.996C52.1106 416.886 53.6766 417.876 55.1526 417.876C56.3226 417.876 57.3126 417.462 58.0326 416.67V417.66ZM58.0326 415.824C57.5106 416.544 56.5926 416.904 55.6386 416.904C54.3786 416.904 53.4966 416.112 53.4966 415.014C53.4966 413.898 54.3786 413.106 55.6386 413.106C56.5926 413.106 57.5106 413.466 58.0326 414.186V415.824ZM64.2848 417.876C65.0768 417.876 65.5628 417.642 65.9048 417.318L65.5088 416.31C65.3288 416.508 64.9688 416.67 64.5908 416.67C63.9968 416.67 63.7088 416.202 63.7088 415.554V410.154H65.4728V408.966H63.7088V406.59H62.3588V408.966H60.9188V410.154H62.3588V415.842C62.3588 417.138 63.0068 417.876 64.2848 417.876ZM68.0458 407.508C68.5498 407.508 68.9638 407.094 68.9638 406.59C68.9638 406.086 68.5498 405.69 68.0458 405.69C67.5598 405.69 67.1458 406.086 67.1458 406.59C67.1458 407.094 67.5598 407.508 68.0458 407.508ZM67.3798 417.66H68.7298V408.966H67.3798V417.66ZM75.2208 417.876C77.8668 417.876 79.5228 415.824 79.5228 413.304C79.5228 410.784 77.8668 408.75 75.2208 408.75C72.5748 408.75 70.9188 410.784 70.9188 413.304C70.9188 415.824 72.5748 417.876 75.2208 417.876ZM75.2208 416.67C73.3668 416.67 72.3228 415.086 72.3228 413.304C72.3228 411.54 73.3668 409.956 75.2208 409.956C77.0748 409.956 78.1008 411.54 78.1008 413.304C78.1008 415.086 77.0748 416.67 75.2208 416.67ZM87.5915 417.66H88.9415V411.558C88.9415 409.668 87.9875 408.75 86.1695 408.75C84.8735 408.75 83.6855 409.506 83.0735 410.226V408.966H81.7235V417.66H83.0735V411.306C83.5775 410.604 84.5855 409.956 85.6475 409.956C86.8175 409.956 87.5915 410.442 87.5915 411.972V417.66Z" fill="black"/>
<path d="M25.633 478.743H33.499V477.411H27.127V473.271H33.373V471.939H27.127V468.069H33.499V466.737H25.633V478.743ZM41.2631 478.743H42.6131V472.767C42.6131 470.661 41.0831 469.833 39.2471 469.833C37.8251 469.833 36.7091 470.301 35.7731 471.273L36.4031 472.209C37.1771 471.381 38.0231 471.003 39.0671 471.003C40.3271 471.003 41.2631 471.669 41.2631 472.839V474.405C40.5611 473.595 39.5711 473.217 38.3831 473.217C36.9071 473.217 35.3411 474.135 35.3411 476.079C35.3411 477.969 36.9071 478.959 38.3831 478.959C39.5531 478.959 40.5431 478.545 41.2631 477.753V478.743ZM41.2631 476.907C40.7411 477.627 39.8231 477.987 38.8691 477.987C37.6091 477.987 36.7271 477.195 36.7271 476.097C36.7271 474.981 37.6091 474.189 38.8691 474.189C39.8231 474.189 40.7411 474.549 41.2631 475.269V476.907ZM44.5632 477.591C45.4452 478.527 46.6512 478.959 48.0732 478.959C50.3232 478.959 51.4932 477.789 51.4932 476.331C51.4932 474.405 49.7472 473.973 48.2352 473.631C47.1012 473.361 46.1112 473.091 46.1112 472.245C46.1112 471.471 46.8492 470.931 48.0372 470.931C49.1532 470.931 50.1072 471.399 50.6292 472.029L51.2592 471.093C50.5572 470.391 49.5132 469.833 48.0372 469.833C45.9672 469.833 44.7972 470.985 44.7972 472.335C44.7972 474.135 46.4712 474.531 47.9472 474.873C49.1172 475.161 50.1792 475.467 50.1792 476.421C50.1792 477.267 49.4592 477.861 48.1272 477.861C46.9392 477.861 45.8412 477.285 45.2652 476.619L44.5632 477.591ZM54.3524 468.591C54.8564 468.591 55.2704 468.177 55.2704 467.673C55.2704 467.169 54.8564 466.773 54.3524 466.773C53.8664 466.773 53.4524 467.169 53.4524 467.673C53.4524 468.177 53.8664 468.591 54.3524 468.591ZM53.6864 478.743H55.0364V470.049H53.6864V478.743ZM57.7294 478.743H59.0794V466.737H57.7294V478.743ZM61.5024 480.921L61.2864 482.145C61.5384 482.217 61.9884 482.271 62.2764 482.271C63.4284 482.253 64.3104 481.767 64.8324 480.507L69.1884 470.049H67.7124L64.8324 477.177L61.9344 470.049H60.4764L64.1124 478.833L63.5364 480.147C63.2304 480.867 62.8344 481.065 62.2404 481.065C62.0244 481.065 61.7004 481.011 61.5024 480.921ZM81.5372 478.743H82.8872V466.737H81.5372V471.363C80.8352 470.409 79.7732 469.833 78.6032 469.833C76.3172 469.833 74.7332 471.633 74.7332 474.405C74.7332 477.231 76.3352 478.959 78.6032 478.959C79.8272 478.959 80.8892 478.329 81.5372 477.447V478.743ZM81.5372 476.385C81.0512 477.141 80.0072 477.753 78.9272 477.753C77.1812 477.753 76.1372 476.331 76.1372 474.405C76.1372 472.479 77.1812 471.039 78.9272 471.039C80.0072 471.039 81.0512 471.687 81.5372 472.443V476.385ZM86.2567 468.591C86.7607 468.591 87.1747 468.177 87.1747 467.673C87.1747 467.169 86.7607 466.773 86.2567 466.773C85.7707 466.773 85.3567 467.169 85.3567 467.673C85.3567 468.177 85.7707 468.591 86.2567 468.591ZM85.5907 478.743H86.9407V470.049H85.5907V478.743ZM88.8777 477.591C89.7597 478.527 90.9657 478.959 92.3877 478.959C94.6377 478.959 95.8077 477.789 95.8077 476.331C95.8077 474.405 94.0617 473.973 92.5497 473.631C91.4157 473.361 90.4257 473.091 90.4257 472.245C90.4257 471.471 91.1637 470.931 92.3517 470.931C93.4677 470.931 94.4217 471.399 94.9437 472.029L95.5737 471.093C94.8717 470.391 93.8277 469.833 92.3517 469.833C90.2817 469.833 89.1117 470.985 89.1117 472.335C89.1117 474.135 90.7857 474.531 92.2617 474.873C93.4317 475.161 94.4937 475.467 94.4937 476.421C94.4937 477.267 93.7737 477.861 92.4417 477.861C91.2537 477.861 90.1557 477.285 89.5797 476.619L88.8777 477.591ZM100.197 478.959C100.989 478.959 101.475 478.725 101.817 478.401L101.421 477.393C101.241 477.591 100.881 477.753 100.503 477.753C99.9089 477.753 99.6209 477.285 99.6209 476.637V471.237H101.385V470.049H99.6209V467.673H98.2709V470.049H96.8309V471.237H98.2709V476.925C98.2709 478.221 98.9189 478.959 100.197 478.959ZM103.292 478.743H104.642V472.587C105.038 471.885 106.172 471.201 107 471.201C107.216 471.201 107.378 471.219 107.54 471.255V469.869C106.352 469.869 105.344 470.535 104.642 471.453V470.049H103.292V478.743ZM114.669 478.743H116.019V472.767C116.019 470.661 114.489 469.833 112.653 469.833C111.231 469.833 110.115 470.301 109.179 471.273L109.809 472.209C110.583 471.381 111.429 471.003 112.473 471.003C113.733 471.003 114.669 471.669 114.669 472.839V474.405C113.967 473.595 112.977 473.217 111.789 473.217C110.313 473.217 108.747 474.135 108.747 476.079C108.747 477.969 110.313 478.959 111.789 478.959C112.959 478.959 113.949 478.545 114.669 477.753V478.743ZM114.669 476.907C114.147 477.627 113.229 477.987 112.275 477.987C111.015 477.987 110.133 477.195 110.133 476.097C110.133 474.981 111.015 474.189 112.275 474.189C113.229 474.189 114.147 474.549 114.669 475.269V476.907ZM118.221 474.387C118.221 476.979 119.967 478.959 122.559 478.959C124.143 478.959 125.079 478.311 125.745 477.447L124.845 476.619C124.269 477.393 123.531 477.753 122.631 477.753C120.777 477.753 119.625 476.313 119.625 474.387C119.625 472.461 120.777 471.039 122.631 471.039C123.531 471.039 124.269 471.381 124.845 472.173L125.745 471.345C125.079 470.481 124.143 469.833 122.559 469.833C119.967 469.833 118.221 471.813 118.221 474.387ZM129.834 478.959C130.626 478.959 131.112 478.725 131.454 478.401L131.058 477.393C130.878 477.591 130.518 477.753 130.14 477.753C129.546 477.753 129.258 477.285 129.258 476.637V471.237H131.022V470.049H129.258V467.673H127.908V470.049H126.468V471.237H127.908V476.925C127.908 478.221 128.556 478.959 129.834 478.959ZM132.425 474.387C132.425 477.105 134.279 478.959 136.853 478.959C138.275 478.959 139.445 478.491 140.309 477.627L139.661 476.745C138.977 477.447 137.969 477.843 136.979 477.843C135.107 477.843 133.955 476.475 133.847 474.837H140.885V474.495C140.885 471.885 139.337 469.833 136.709 469.833C134.225 469.833 132.425 471.867 132.425 474.387ZM136.691 470.949C138.671 470.949 139.535 472.551 139.553 473.847H133.847C133.919 472.515 134.837 470.949 136.691 470.949ZM149.371 478.743H150.721V466.737H149.371V471.363C148.669 470.409 147.607 469.833 146.437 469.833C144.151 469.833 142.567 471.633 142.567 474.405C142.567 477.231 144.169 478.959 146.437 478.959C147.661 478.959 148.723 478.329 149.371 477.447V478.743ZM149.371 476.385C148.885 477.141 147.841 477.753 146.761 477.753C145.015 477.753 143.971 476.331 143.971 474.405C143.971 472.479 145.015 471.039 146.761 471.039C147.841 471.039 148.885 471.687 149.371 472.443V476.385ZM158.731 468.591C159.235 468.591 159.649 468.177 159.649 467.673C159.649 467.169 159.235 466.773 158.731 466.773C158.245 466.773 157.831 467.169 157.831 467.673C157.831 468.177 158.245 468.591 158.731 468.591ZM158.065 478.743H159.415V470.049H158.065V478.743ZM167.976 478.743H169.326V472.641C169.326 470.751 168.372 469.833 166.554 469.833C165.258 469.833 164.07 470.589 163.458 471.309V470.049H162.108V478.743H163.458V472.389C163.962 471.687 164.97 471.039 166.032 471.039C167.202 471.039 167.976 471.525 167.976 473.055V478.743ZM178.013 482.055V477.429C178.715 478.401 179.759 478.959 180.947 478.959C183.233 478.959 184.817 477.195 184.817 474.387C184.817 471.561 183.233 469.833 180.947 469.833C179.723 469.833 178.643 470.463 178.013 471.345V470.049H176.663V482.055H178.013ZM183.395 474.387C183.395 476.313 182.351 477.753 180.605 477.753C179.543 477.753 178.481 477.105 178.013 476.349V472.425C178.481 471.669 179.543 471.039 180.605 471.039C182.351 471.039 183.395 472.461 183.395 474.387ZM192.867 478.743H194.217V470.049H192.867V476.439C192.363 477.141 191.355 477.753 190.293 477.753C189.123 477.753 188.349 477.303 188.349 475.773V470.049H186.999V476.187C186.999 478.077 187.953 478.959 189.771 478.959C191.067 478.959 192.201 478.275 192.867 477.519V478.743ZM196.913 478.743H198.263V477.447C198.911 478.329 199.973 478.959 201.197 478.959C203.465 478.959 205.067 477.231 205.067 474.405C205.067 471.633 203.465 469.833 201.197 469.833C200.009 469.833 198.965 470.409 198.263 471.363V466.737H196.913V478.743ZM198.263 476.385V472.443C198.731 471.687 199.793 471.039 200.855 471.039C202.619 471.039 203.663 472.479 203.663 474.405C203.663 476.331 202.619 477.753 200.855 477.753C199.793 477.753 198.731 477.141 198.263 476.385ZM207.267 478.743H208.617V466.737H207.267V478.743ZM211.975 468.591C212.479 468.591 212.893 468.177 212.893 467.673C212.893 467.169 212.479 466.773 211.975 466.773C211.489 466.773 211.075 467.169 211.075 467.673C211.075 468.177 211.489 468.591 211.975 468.591ZM211.309 478.743H212.659V470.049H211.309V478.743ZM214.848 474.387C214.848 476.979 216.594 478.959 219.186 478.959C220.77 478.959 221.706 478.311 222.372 477.447L221.472 476.619C220.896 477.393 220.158 477.753 219.258 477.753C217.404 477.753 216.252 476.313 216.252 474.387C216.252 472.461 217.404 471.039 219.258 471.039C220.158 471.039 220.896 471.381 221.472 472.173L222.372 471.345C221.706 470.481 220.77 469.833 219.186 469.833C216.594 469.833 214.848 471.813 214.848 474.387ZM228.149 477.591C229.031 478.527 230.237 478.959 231.659 478.959C233.909 478.959 235.079 477.789 235.079 476.331C235.079 474.405 233.333 473.973 231.821 473.631C230.687 473.361 229.697 473.091 229.697 472.245C229.697 471.471 230.435 470.931 231.623 470.931C232.739 470.931 233.693 471.399 234.215 472.029L234.845 471.093C234.143 470.391 233.099 469.833 231.623 469.833C229.553 469.833 228.383 470.985 228.383 472.335C228.383 474.135 230.057 474.531 231.533 474.873C232.703 475.161 233.765 475.467 233.765 476.421C233.765 477.267 233.045 477.861 231.713 477.861C230.525 477.861 229.427 477.285 228.851 476.619L228.149 477.591ZM238.622 482.055V477.429C239.324 478.401 240.368 478.959 241.556 478.959C243.842 478.959 245.426 477.195 245.426 474.387C245.426 471.561 243.842 469.833 241.556 469.833C240.332 469.833 239.252 470.463 238.622 471.345V470.049H237.272V482.055H238.622ZM244.004 474.387C244.004 476.313 242.96 477.753 241.214 477.753C240.152 477.753 239.09 477.105 238.622 476.349V472.425C239.09 471.669 240.152 471.039 241.214 471.039C242.96 471.039 244.004 472.461 244.004 474.387ZM253.044 478.743H254.394V472.767C254.394 470.661 252.864 469.833 251.028 469.833C249.606 469.833 248.49 470.301 247.554 471.273L248.184 472.209C248.958 471.381 249.804 471.003 250.848 471.003C252.108 471.003 253.044 471.669 253.044 472.839V474.405C252.342 473.595 251.352 473.217 250.164 473.217C248.688 473.217 247.122 474.135 247.122 476.079C247.122 477.969 248.688 478.959 250.164 478.959C251.334 478.959 252.324 478.545 253.044 477.753V478.743ZM253.044 476.907C252.522 477.627 251.604 477.987 250.65 477.987C249.39 477.987 248.508 477.195 248.508 476.097C248.508 474.981 249.39 474.189 250.65 474.189C251.604 474.189 252.522 474.549 253.044 475.269V476.907ZM256.596 474.387C256.596 476.979 258.342 478.959 260.934 478.959C262.518 478.959 263.454 478.311 264.12 477.447L263.22 476.619C262.644 477.393 261.906 477.753 261.006 477.753C259.152 477.753 258 476.313 258 474.387C258 472.461 259.152 471.039 261.006 471.039C261.906 471.039 262.644 471.381 263.22 472.173L264.12 471.345C263.454 470.481 262.518 469.833 260.934 469.833C258.342 469.833 256.596 471.813 256.596 474.387ZM265.509 474.387C265.509 477.105 267.363 478.959 269.937 478.959C271.359 478.959 272.529 478.491 273.393 477.627L272.745 476.745C272.061 477.447 271.053 477.843 270.063 477.843C268.191 477.843 267.039 476.475 266.931 474.837H273.969V474.495C273.969 471.885 272.421 469.833 269.793 469.833C267.309 469.833 265.509 471.867 265.509 474.387ZM269.775 470.949C271.755 470.949 272.619 472.551 272.637 473.847H266.931C267.003 472.515 267.921 470.949 269.775 470.949ZM284.594 478.959C287.24 478.959 288.896 476.907 288.896 474.387C288.896 471.867 287.24 469.833 284.594 469.833C281.948 469.833 280.292 471.867 280.292 474.387C280.292 476.907 281.948 478.959 284.594 478.959ZM284.594 477.753C282.74 477.753 281.696 476.169 281.696 474.387C281.696 472.623 282.74 471.039 284.594 471.039C286.448 471.039 287.474 472.623 287.474 474.387C287.474 476.169 286.448 477.753 284.594 477.753ZM291.097 478.743H292.447V472.587C292.843 471.885 293.977 471.201 294.805 471.201C295.021 471.201 295.183 471.219 295.345 471.255V469.869C294.157 469.869 293.149 470.535 292.447 471.453V470.049H291.097V478.743ZM307.115 478.743H308.465V472.767C308.465 470.661 306.935 469.833 305.099 469.833C303.677 469.833 302.561 470.301 301.625 471.273L302.255 472.209C303.029 471.381 303.875 471.003 304.919 471.003C306.179 471.003 307.115 471.669 307.115 472.839V474.405C306.413 473.595 305.423 473.217 304.235 473.217C302.759 473.217 301.193 474.135 301.193 476.079C301.193 477.969 302.759 478.959 304.235 478.959C305.405 478.959 306.395 478.545 307.115 477.753V478.743ZM307.115 476.907C306.593 477.627 305.675 477.987 304.721 477.987C303.461 477.987 302.579 477.195 302.579 476.097C302.579 474.981 303.461 474.189 304.721 474.189C305.675 474.189 306.593 474.549 307.115 475.269V476.907ZM313.367 478.959C314.159 478.959 314.645 478.725 314.987 478.401L314.591 477.393C314.411 477.591 314.051 477.753 313.673 477.753C313.079 477.753 312.791 477.285 312.791 476.637V471.237H314.555V470.049H312.791V467.673H311.441V470.049H310.001V471.237H311.441V476.925C311.441 478.221 312.089 478.959 313.367 478.959ZM326.988 478.743H328.338V472.605C328.338 470.715 327.384 469.833 325.566 469.833C324.252 469.833 323.064 470.589 322.452 471.309V466.737H321.102V478.743H322.452V472.389C322.974 471.687 323.982 471.039 325.026 471.039C326.196 471.039 326.988 471.489 326.988 473.019V478.743ZM334.832 478.959C337.478 478.959 339.134 476.907 339.134 474.387C339.134 471.867 337.478 469.833 334.832 469.833C332.186 469.833 330.53 471.867 330.53 474.387C330.53 476.907 332.186 478.959 334.832 478.959ZM334.832 477.753C332.978 477.753 331.934 476.169 331.934 474.387C331.934 472.623 332.978 471.039 334.832 471.039C336.686 471.039 337.712 472.623 337.712 474.387C337.712 476.169 336.686 477.753 334.832 477.753ZM351.829 478.743H353.179V472.461C353.179 470.715 352.333 469.833 350.749 469.833C349.489 469.833 348.319 470.661 347.833 471.453C347.581 470.553 346.825 469.833 345.493 469.833C344.215 469.833 343.045 470.751 342.685 471.309V470.049H341.335V478.743H342.685V472.389C343.153 471.687 344.089 471.039 344.971 471.039C346.105 471.039 346.573 471.741 346.573 472.839V478.743H347.923V472.371C348.373 471.687 349.327 471.039 350.227 471.039C351.343 471.039 351.829 471.741 351.829 472.839V478.743ZM355.368 474.387C355.368 477.105 357.222 478.959 359.796 478.959C361.218 478.959 362.388 478.491 363.252 477.627L362.604 476.745C361.92 477.447 360.912 477.843 359.922 477.843C358.05 477.843 356.898 476.475 356.79 474.837H363.828V474.495C363.828 471.885 362.28 469.833 359.652 469.833C357.168 469.833 355.368 471.867 355.368 474.387ZM359.634 470.949C361.614 470.949 362.478 472.551 362.496 473.847H356.79C356.862 472.515 357.78 470.949 359.634 470.949Z" fill="black"/>
<path d="M25.633 539.826H27.127V527.82H25.633V539.826ZM35.7536 539.826H37.1036V533.724C37.1036 531.834 36.1496 530.916 34.3316 530.916C33.0356 530.916 31.8476 531.672 31.2356 532.392V531.132H29.8856V539.826H31.2356V533.472C31.7396 532.77 32.7476 532.122 33.8096 532.122C34.9796 532.122 35.7536 532.608 35.7536 534.138V539.826ZM41.9957 540.042C42.7877 540.042 43.2737 539.808 43.6157 539.484L43.2197 538.476C43.0397 538.674 42.6797 538.836 42.3017 538.836C41.7077 538.836 41.4197 538.368 41.4197 537.72V532.32H43.1837V531.132H41.4197V528.756H40.0697V531.132H38.6297V532.32H40.0697V538.008C40.0697 539.304 40.7177 540.042 41.9957 540.042ZM44.5867 535.47C44.5867 538.188 46.4407 540.042 49.0147 540.042C50.4367 540.042 51.6067 539.574 52.4707 538.71L51.8227 537.828C51.1387 538.53 50.1307 538.926 49.1407 538.926C47.2687 538.926 46.1167 537.558 46.0087 535.92H53.0467V535.578C53.0467 532.968 51.4987 530.916 48.8707 530.916C46.3867 530.916 44.5867 532.95 44.5867 535.47ZM48.8527 532.032C50.8327 532.032 51.6967 533.634 51.7147 534.93H46.0087C46.0807 533.598 46.9987 532.032 48.8527 532.032ZM55.2333 539.826H56.5833V533.67C56.9793 532.968 58.1133 532.284 58.9413 532.284C59.1573 532.284 59.3193 532.302 59.4813 532.338V530.952C58.2933 530.952 57.2853 531.618 56.5833 532.536V531.132H55.2333V539.826ZM67.0427 539.826H68.3927V533.724C68.3927 531.834 67.4387 530.916 65.6207 530.916C64.3247 530.916 63.1367 531.672 62.5247 532.392V531.132H61.1747V539.826H62.5247V533.472C63.0287 532.77 64.0367 532.122 65.0987 532.122C66.2687 532.122 67.0427 532.608 67.0427 534.138V539.826ZM70.5848 535.47C70.5848 538.188 72.4388 540.042 75.0128 540.042C76.4348 540.042 77.6048 539.574 78.4688 538.71L77.8208 537.828C77.1368 538.53 76.1288 538.926 75.1388 538.926C73.2668 538.926 72.1148 537.558 72.0068 535.92H79.0448V535.578C79.0448 532.968 77.4968 530.916 74.8688 530.916C72.3848 530.916 70.5848 532.95 70.5848 535.47ZM74.8508 532.032C76.8308 532.032 77.6948 533.634 77.7128 534.93H72.0068C72.0788 533.598 72.9968 532.032 74.8508 532.032ZM83.4273 540.042C84.2193 540.042 84.7053 539.808 85.0473 539.484L84.6513 538.476C84.4713 538.674 84.1113 538.836 83.7333 538.836C83.1393 538.836 82.8513 538.368 82.8513 537.72V532.32H84.6153V531.132H82.8513V528.756H81.5013V531.132H80.0613V532.32H81.5013V538.008C81.5013 539.304 82.1493 540.042 83.4273 540.042ZM96.599 539.826H97.949V533.85C97.949 531.744 96.419 530.916 94.583 530.916C93.161 530.916 92.045 531.384 91.109 532.356L91.739 533.292C92.513 532.464 93.359 532.086 94.403 532.086C95.663 532.086 96.599 532.752 96.599 533.922V535.488C95.897 534.678 94.907 534.3 93.719 534.3C92.243 534.3 90.677 535.218 90.677 537.162C90.677 539.052 92.243 540.042 93.719 540.042C94.889 540.042 95.879 539.628 96.599 538.836V539.826ZM96.599 537.99C96.077 538.71 95.159 539.07 94.205 539.07C92.945 539.07 92.063 538.278 92.063 537.18C92.063 536.064 92.945 535.272 94.205 535.272C95.159 535.272 96.077 535.632 96.599 536.352V537.99ZM102.977 539.826H104.453L108.071 531.132H106.595L103.715 538.26L100.817 531.132H99.3592L102.977 539.826ZM114.915 539.826H116.265V533.85C116.265 531.744 114.735 530.916 112.899 530.916C111.477 530.916 110.361 531.384 109.425 532.356L110.055 533.292C110.829 532.464 111.675 532.086 112.719 532.086C113.979 532.086 114.915 532.752 114.915 533.922V535.488C114.213 534.678 113.223 534.3 112.035 534.3C110.559 534.3 108.993 535.218 108.993 537.162C108.993 539.052 110.559 540.042 112.035 540.042C113.205 540.042 114.195 539.628 114.915 538.836V539.826ZM114.915 537.99C114.393 538.71 113.475 539.07 112.521 539.07C111.261 539.07 110.379 538.278 110.379 537.18C110.379 536.064 111.261 535.272 112.521 535.272C113.475 535.272 114.393 535.632 114.915 536.352V537.99ZM119.638 529.674C120.142 529.674 120.556 529.26 120.556 528.756C120.556 528.252 120.142 527.856 119.638 527.856C119.152 527.856 118.738 528.252 118.738 528.756C118.738 529.26 119.152 529.674 119.638 529.674ZM118.972 539.826H120.322V531.132H118.972V539.826ZM123.015 539.826H124.365V527.82H123.015V539.826ZM132.494 539.826H133.844V533.85C133.844 531.744 132.314 530.916 130.478 530.916C129.056 530.916 127.94 531.384 127.004 532.356L127.634 533.292C128.408 532.464 129.254 532.086 130.298 532.086C131.558 532.086 132.494 532.752 132.494 533.922V535.488C131.792 534.678 130.802 534.3 129.614 534.3C128.138 534.3 126.572 535.218 126.572 537.162C126.572 539.052 128.138 540.042 129.614 540.042C130.784 540.042 131.774 539.628 132.494 538.836V539.826ZM132.494 537.99C131.972 538.71 131.054 539.07 130.1 539.07C128.84 539.07 127.958 538.278 127.958 537.18C127.958 536.064 128.84 535.272 130.1 535.272C131.054 535.272 131.972 535.632 132.494 536.352V537.99ZM136.55 539.826H137.9V538.53C138.548 539.412 139.61 540.042 140.834 540.042C143.102 540.042 144.704 538.314 144.704 535.488C144.704 532.716 143.102 530.916 140.834 530.916C139.646 530.916 138.602 531.492 137.9 532.446V527.82H136.55V539.826ZM137.9 537.468V533.526C138.368 532.77 139.43 532.122 140.492 532.122C142.256 532.122 143.3 533.562 143.3 535.488C143.3 537.414 142.256 538.836 140.492 538.836C139.43 538.836 138.368 538.224 137.9 537.468ZM147.569 529.674C148.073 529.674 148.487 529.26 148.487 528.756C148.487 528.252 148.073 527.856 147.569 527.856C147.083 527.856 146.669 528.252 146.669 528.756C146.669 529.26 147.083 529.674 147.569 529.674ZM146.903 539.826H148.253V531.132H146.903V539.826ZM150.946 539.826H152.296V527.82H150.946V539.826ZM155.655 529.674C156.159 529.674 156.573 529.26 156.573 528.756C156.573 528.252 156.159 527.856 155.655 527.856C155.169 527.856 154.755 528.252 154.755 528.756C154.755 529.26 155.169 529.674 155.655 529.674ZM154.989 539.826H156.339V531.132H154.989V539.826ZM161.228 540.042C162.02 540.042 162.506 539.808 162.848 539.484L162.452 538.476C162.272 538.674 161.912 538.836 161.534 538.836C160.94 538.836 160.652 538.368 160.652 537.72V532.32H162.416V531.132H160.652V528.756H159.302V531.132H157.862V532.32H159.302V538.008C159.302 539.304 159.95 540.042 161.228 540.042ZM164.053 542.004L163.837 543.228C164.089 543.3 164.539 543.354 164.827 543.354C165.979 543.336 166.861 542.85 167.383 541.59L171.739 531.132H170.263L167.383 538.26L164.485 531.132H163.027L166.663 539.916L166.087 541.23C165.781 541.95 165.385 542.148 164.791 542.148C164.575 542.148 164.251 542.094 164.053 542.004Z" fill="black"/>
<path d="M25.147 594.915C25.147 598.461 27.541 601.125 31.105 601.125C34.651 601.125 37.063 598.461 37.063 594.915C37.063 591.369 34.651 588.705 31.105 588.705C27.541 588.705 25.147 591.369 25.147 594.915ZM35.515 594.915C35.515 597.705 33.787 599.793 31.105 599.793C28.405 599.793 26.695 597.705 26.695 594.915C26.695 592.107 28.405 590.037 31.105 590.037C33.787 590.037 35.515 592.107 35.515 594.915ZM41.5387 601.125C42.3307 601.125 42.8167 600.891 43.1587 600.567L42.7627 599.559C42.5827 599.757 42.2227 599.919 41.8447 599.919C41.2507 599.919 40.9627 599.451 40.9627 598.803V593.403H42.7267V592.215H40.9627V589.839H39.6127V592.215H38.1727V593.403H39.6127V599.091C39.6127 600.387 40.2607 601.125 41.5387 601.125ZM50.5197 600.909H51.8697V594.771C51.8697 592.881 50.9157 591.999 49.0977 591.999C47.7837 591.999 46.5957 592.755 45.9837 593.475V588.903H44.6337V600.909H45.9837V594.555C46.5057 593.853 47.5137 593.205 48.5577 593.205C49.7277 593.205 50.5197 593.655 50.5197 595.185V600.909ZM54.0613 596.553C54.0613 599.271 55.9153 601.125 58.4893 601.125C59.9113 601.125 61.0813 600.657 61.9453 599.793L61.2973 598.911C60.6133 599.613 59.6053 600.009 58.6153 600.009C56.7433 600.009 55.5913 598.641 55.4833 597.003H62.5213V596.661C62.5213 594.051 60.9733 591.999 58.3453 591.999C55.8613 591.999 54.0613 594.033 54.0613 596.553ZM58.3273 593.115C60.3073 593.115 61.1713 594.717 61.1893 596.013H55.4833C55.5553 594.681 56.4733 593.115 58.3273 593.115ZM64.7079 600.909H66.0579V594.753C66.4539 594.051 67.5879 593.367 68.4159 593.367C68.6319 593.367 68.7939 593.385 68.9559 593.421V592.035C67.7679 592.035 66.7599 592.701 66.0579 593.619V592.215H64.7079V600.909Z" fill="black"/>
<path d="M53.6348 234.793C53.6348 237.689 54.7708 240.297 57.7468 240.297C60.0828 240.297 61.4908 238.665 61.4908 236.809C61.4908 234.537 59.9228 233.401 58.0028 233.401C56.6268 233.401 55.4428 234.329 54.9788 235.065C54.9628 234.921 54.9628 234.793 54.9628 234.649C54.9628 232.553 55.9068 230.457 57.9708 230.457C59.0908 230.457 59.7148 230.905 60.2588 231.545L60.9308 230.553C60.2748 229.801 59.3468 229.273 57.9708 229.273C54.9788 229.273 53.6348 231.897 53.6348 234.793ZM60.1468 236.857C60.1468 237.881 59.3468 239.113 57.6988 239.113C55.8428 239.113 55.1388 237.481 55.0108 236.153C55.6028 235.209 56.6268 234.553 57.6828 234.553C59.0588 234.553 60.1468 235.289 60.1468 236.857ZM63.136 240.105H70.464V238.921H65.232C68.208 236.569 70.416 234.585 70.416 232.409C70.416 230.281 68.608 229.273 66.832 229.273C65.328 229.273 63.936 229.881 63.12 230.953L63.936 231.801C64.56 231.001 65.552 230.457 66.832 230.457C67.936 230.457 69.056 231.049 69.056 232.409C69.056 234.249 66.976 236.025 63.136 239.049V240.105ZM72.1742 231.929C72.1742 233.417 73.2142 234.537 74.7342 234.537C76.2702 234.537 77.3262 233.417 77.3262 231.929C77.3262 230.425 76.2702 229.273 74.7342 229.273C73.2142 229.273 72.1742 230.425 72.1742 231.929ZM73.7262 240.105H74.5902L81.4222 229.433H80.5422L73.7262 240.105ZM76.3662 231.929C76.3662 232.937 75.6942 233.737 74.7342 233.737C73.7902 233.737 73.1342 232.937 73.1342 231.929C73.1342 230.873 73.7902 230.089 74.7342 230.089C75.6942 230.089 76.3662 230.873 76.3662 231.929ZM77.7422 237.689C77.7422 239.177 78.7822 240.297 80.3022 240.297C81.8222 240.297 82.8782 239.177 82.8782 237.689C82.8782 236.185 81.8222 235.033 80.3022 235.033C78.7822 235.033 77.7422 236.185 77.7422 237.689ZM81.9342 237.689C81.9342 238.697 81.2622 239.497 80.3022 239.497C79.3422 239.497 78.6862 238.697 78.6862 237.689C78.6862 236.633 79.3422 235.849 80.3022 235.849C81.2622 235.849 81.9342 236.633 81.9342 237.689Z" fill="black"/>
<path d="M237.103 261.081H238.431V250.409H237.263L234.591 253.161L235.391 253.977L237.103 252.169V261.081ZM240.493 255.753C240.493 258.345 241.645 261.273 244.573 261.273C247.485 261.273 248.653 258.345 248.653 255.753C248.653 253.145 247.485 250.249 244.573 250.249C241.645 250.249 240.493 253.145 240.493 255.753ZM247.293 255.753C247.293 257.881 246.605 260.089 244.573 260.089C242.541 260.089 241.853 257.881 241.853 255.753C241.853 253.625 242.541 251.433 244.573 251.433C246.605 251.433 247.293 253.625 247.293 255.753ZM249.97 252.905C249.97 254.393 251.01 255.513 252.53 255.513C254.066 255.513 255.122 254.393 255.122 252.905C255.122 251.401 254.066 250.249 252.53 250.249C251.01 250.249 249.97 251.401 249.97 252.905ZM251.522 261.081H252.386L259.218 250.409H258.338L251.522 261.081ZM254.162 252.905C254.162 253.913 253.49 254.713 252.53 254.713C251.586 254.713 250.93 253.913 250.93 252.905C250.93 251.849 251.586 251.065 252.53 251.065C253.49 251.065 254.162 251.849 254.162 252.905ZM255.538 258.665C255.538 260.153 256.578 261.273 258.098 261.273C259.618 261.273 260.674 260.153 260.674 258.665C260.674 257.161 259.618 256.009 258.098 256.009C256.578 256.009 255.538 257.161 255.538 258.665ZM259.73 258.665C259.73 259.673 259.058 260.473 258.098 260.473C257.138 260.473 256.482 259.673 256.482 258.665C256.482 257.609 257.138 256.825 258.098 256.825C259.058 256.825 259.73 257.609 259.73 258.665Z" fill="black"/>
<path d="M346.559 225.105H347.887V222.401H349.391V221.233H347.887V214.433H346.063L341.487 221.297V222.401H346.559V225.105ZM346.559 215.665V221.233H342.815L346.559 215.665ZM350.393 216.929C350.393 218.417 351.433 219.537 352.953 219.537C354.489 219.537 355.545 218.417 355.545 216.929C355.545 215.425 354.489 214.273 352.953 214.273C351.433 214.273 350.393 215.425 350.393 216.929ZM351.945 225.105H352.809L359.641 214.433H358.761L351.945 225.105ZM354.585 216.929C354.585 217.937 353.913 218.737 352.953 218.737C352.009 218.737 351.353 217.937 351.353 216.929C351.353 215.873 352.009 215.089 352.953 215.089C353.913 215.089 354.585 215.873 354.585 216.929ZM355.961 222.689C355.961 224.177 357.001 225.297 358.521 225.297C360.041 225.297 361.097 224.177 361.097 222.689C361.097 221.185 360.041 220.033 358.521 220.033C357.001 220.033 355.961 221.185 355.961 222.689ZM360.153 222.689C360.153 223.697 359.481 224.497 358.521 224.497C357.561 224.497 356.905 223.697 356.905 222.689C356.905 221.633 357.561 220.849 358.521 220.849C359.481 220.849 360.153 221.633 360.153 222.689Z" fill="black"/>
<path d="M212.119 156.69H219.447V155.506H214.215C217.191 153.154 219.399 151.17 219.399 148.994C219.399 146.866 217.591 145.858 215.815 145.858C214.311 145.858 212.919 146.466 212.103 147.538L212.919 148.386C213.543 147.586 214.535 147.042 215.815 147.042C216.919 147.042 218.039 147.634 218.039 148.994C218.039 150.834 215.959 152.61 212.119 155.634V156.69ZM226.245 156.69H227.573V153.986H229.077V152.818H227.573V146.018H225.749L221.173 152.882V153.986H226.245V156.69ZM226.245 147.25V152.818H222.501L226.245 147.25ZM230.079 148.514C230.079 150.002 231.119 151.122 232.639 151.122C234.175 151.122 235.231 150.002 235.231 148.514C235.231 147.01 234.175 145.858 232.639 145.858C231.119 145.858 230.079 147.01 230.079 148.514ZM231.631 156.69H232.495L239.327 146.018H238.447L231.631 156.69ZM234.271 148.514C234.271 149.522 233.599 150.322 232.639 150.322C231.695 150.322 231.039 149.522 231.039 148.514C231.039 147.458 231.695 146.674 232.639 146.674C233.599 146.674 234.271 147.458 234.271 148.514ZM235.647 154.274C235.647 155.762 236.687 156.882 238.207 156.882C239.727 156.882 240.783 155.762 240.783 154.274C240.783 152.77 239.727 151.618 238.207 151.618C236.687 151.618 235.647 152.77 235.647 154.274ZM239.839 154.274C239.839 155.282 239.167 156.082 238.207 156.082C237.247 156.082 236.591 155.282 236.591 154.274C236.591 153.218 237.247 152.434 238.207 152.434C239.167 152.434 239.839 153.218 239.839 154.274Z" fill="black"/>
<path d="M11.7083 17.3926H13.3283L16.7483 5.38658H15.0923L12.4463 15.3946L9.69233 5.38658H8.45033L5.69633 15.3946L3.03233 5.38658H1.37633L4.79633 17.3926H6.41633L9.06233 7.70858L11.7083 17.3926ZM24.251 17.3926H25.601V11.2546C25.601 9.36458 24.647 8.48258 22.829 8.48258C21.515 8.48258 20.327 9.23858 19.715 9.95858V5.38658H18.365V17.3926H19.715V11.0386C20.237 10.3366 21.245 9.68858 22.289 9.68858C23.459 9.68858 24.251 10.1386 24.251 11.6686V17.3926ZM33.7326 17.3926H35.0826V11.4166C35.0826 9.31058 33.5526 8.48258 31.7166 8.48258C30.2946 8.48258 29.1786 8.95058 28.2426 9.92258L28.8726 10.8586C29.6466 10.0306 30.4926 9.65258 31.5366 9.65258C32.7966 9.65258 33.7326 10.3186 33.7326 11.4886V13.0546C33.0306 12.2446 32.0406 11.8666 30.8526 11.8666C29.3766 11.8666 27.8106 12.7846 27.8106 14.7286C27.8106 16.6186 29.3766 17.6086 30.8526 17.6086C32.0226 17.6086 33.0126 17.1946 33.7326 16.4026V17.3926ZM33.7326 15.5566C33.2106 16.2766 32.2926 16.6366 31.3386 16.6366C30.0786 16.6366 29.1966 15.8446 29.1966 14.7466C29.1966 13.6306 30.0786 12.8386 31.3386 12.8386C32.2926 12.8386 33.2106 13.1986 33.7326 13.9186V15.5566ZM39.9848 17.6086C40.7768 17.6086 41.2628 17.3746 41.6048 17.0506L41.2088 16.0426C41.0288 16.2406 40.6688 16.4026 40.2908 16.4026C39.6968 16.4026 39.4088 15.9346 39.4088 15.2866V9.88658H41.1728V8.69858H39.4088V6.32258H38.0588V8.69858H36.6188V9.88658H38.0588V15.5746C38.0588 16.8706 38.7068 17.6086 39.9848 17.6086ZM43.4218 9.29258C44.2498 8.69858 44.8978 7.67258 44.8978 6.57458C44.8978 5.69258 44.3578 5.20658 43.7638 5.20658C43.2238 5.20658 42.8098 5.65658 42.8098 6.17858C42.8098 6.71858 43.1698 7.09658 43.6738 7.09658C43.7638 7.09658 43.8898 7.07858 43.9258 7.06058C43.8538 7.63658 43.3318 8.35658 42.7558 8.73458L43.4218 9.29258ZM45.9273 16.2406C46.8093 17.1766 48.0153 17.6086 49.4373 17.6086C51.6873 17.6086 52.8573 16.4386 52.8573 14.9806C52.8573 13.0546 51.1113 12.6226 49.5993 12.2806C48.4653 12.0106 47.4753 11.7406 47.4753 10.8946C47.4753 10.1206 48.2133 9.58058 49.4013 9.58058C50.5173 9.58058 51.4713 10.0486 51.9933 10.6786L52.6233 9.74258C51.9213 9.04058 50.8773 8.48258 49.4013 8.48258C47.3313 8.48258 46.1613 9.63458 46.1613 10.9846C46.1613 12.7846 47.8353 13.1806 49.3113 13.5226C50.4813 13.8106 51.5433 14.1166 51.5433 15.0706C51.5433 15.9166 50.8233 16.5106 49.4913 16.5106C48.3033 16.5106 47.2053 15.9346 46.6293 15.2686L45.9273 16.2406ZM59.4211 19.5706L59.2051 20.7946C59.4571 20.8666 59.9071 20.9206 60.1951 20.9206C61.3471 20.9026 62.2291 20.4166 62.7511 19.1566L67.1071 8.69858H65.6311L62.7511 15.8266L59.8531 8.69858H58.3951L62.0311 17.4826L61.4551 18.7966C61.1491 19.5166 60.7531 19.7146 60.1591 19.7146C59.9431 19.7146 59.6191 19.6606 59.4211 19.5706ZM72.3133 17.6086C74.9593 17.6086 76.6153 15.5566 76.6153 13.0366C76.6153 10.5166 74.9593 8.48258 72.3133 8.48258C69.6673 8.48258 68.0113 10.5166 68.0113 13.0366C68.0113 15.5566 69.6673 17.6086 72.3133 17.6086ZM72.3133 16.4026C70.4593 16.4026 69.4153 14.8186 69.4153 13.0366C69.4153 11.2726 70.4593 9.68858 72.3133 9.68858C74.1673 9.68858 75.1933 11.2726 75.1933 13.0366C75.1933 14.8186 74.1673 16.4026 72.3133 16.4026ZM84.6841 17.3926H86.0341V8.69858H84.6841V15.0886C84.1801 15.7906 83.1721 16.4026 82.1101 16.4026C80.9401 16.4026 80.1661 15.9526 80.1661 14.4226V8.69858H78.8161V14.8366C78.8161 16.7266 79.7701 17.6086 81.5881 17.6086C82.8841 17.6086 84.0181 16.9246 84.6841 16.1686V17.3926ZM88.7302 17.3926H90.0802V11.2366C90.4762 10.5346 91.6102 9.85058 92.4382 9.85058C92.6542 9.85058 92.8162 9.86858 92.9782 9.90458V8.51858C91.7902 8.51858 90.7822 9.18458 90.0802 10.1026V8.69858H88.7302V17.3926ZM99.3122 17.3926H100.662V16.0966C101.31 16.9786 102.372 17.6086 103.596 17.6086C105.864 17.6086 107.466 15.8806 107.466 13.0546C107.466 10.2826 105.864 8.48258 103.596 8.48258C102.408 8.48258 101.364 9.05858 100.662 10.0126V5.38658H99.3122V17.3926ZM100.662 15.0346V11.0926C101.13 10.3366 102.192 9.68858 103.254 9.68858C105.018 9.68858 106.062 11.1286 106.062 13.0546C106.062 14.9806 105.018 16.4026 103.254 16.4026C102.192 16.4026 101.13 15.7906 100.662 15.0346ZM110.332 7.24058C110.836 7.24058 111.25 6.82658 111.25 6.32258C111.25 5.81858 110.836 5.42258 110.332 5.42258C109.846 5.42258 109.432 5.81858 109.432 6.32258C109.432 6.82658 109.846 7.24058 110.332 7.24058ZM109.666 17.3926H111.016V8.69858H109.666V17.3926ZM113.691 19.6246C114.717 20.6326 115.725 20.9206 117.201 20.9206C119.325 20.9206 121.341 20.0206 121.341 17.1406V8.69858H119.991V10.0126C119.289 9.05858 118.245 8.48258 117.075 8.48258C114.789 8.48258 113.205 10.2106 113.205 13.0006C113.205 15.8086 114.807 17.5006 117.075 17.5006C118.299 17.5006 119.361 16.8346 119.991 15.9526V17.1946C119.991 19.1026 118.641 19.8046 117.201 19.8046C115.959 19.8046 115.095 19.4806 114.375 18.6166L113.691 19.6246ZM119.991 14.8906C119.523 15.6466 118.479 16.3126 117.399 16.3126C115.653 16.3126 114.609 14.9086 114.609 13.0006C114.609 11.0746 115.653 9.68858 117.399 9.68858C118.479 9.68858 119.523 10.3366 119.991 11.0926V14.8906ZM124.027 19.6246C125.053 20.6326 126.061 20.9206 127.537 20.9206C129.661 20.9206 131.677 20.0206 131.677 17.1406V8.69858H130.327V10.0126C129.625 9.05858 128.581 8.48258 127.411 8.48258C125.125 8.48258 123.541 10.2106 123.541 13.0006C123.541 15.8086 125.143 17.5006 127.411 17.5006C128.635 17.5006 129.697 16.8346 130.327 15.9526V17.1946C130.327 19.1026 128.977 19.8046 127.537 19.8046C126.295 19.8046 125.431 19.4806 124.711 18.6166L124.027 19.6246ZM130.327 14.8906C129.859 15.6466 128.815 16.3126 127.735 16.3126C125.989 16.3126 124.945 14.9086 124.945 13.0006C124.945 11.0746 125.989 9.68858 127.735 9.68858C128.815 9.68858 129.859 10.3366 130.327 11.0926V14.8906ZM133.877 13.0366C133.877 15.7546 135.731 17.6086 138.305 17.6086C139.727 17.6086 140.897 17.1406 141.761 16.2766L141.113 15.3946C140.429 16.0966 139.421 16.4926 138.431 16.4926C136.559 16.4926 135.407 15.1246 135.299 13.4866H142.337V13.1446C142.337 10.5346 140.789 8.48258 138.161 8.48258C135.677 8.48258 133.877 10.5166 133.877 13.0366ZM138.143 9.59858C140.123 9.59858 140.987 11.2006 141.005 12.4966H135.299C135.371 11.1646 136.289 9.59858 138.143 9.59858ZM143.767 16.2406C144.649 17.1766 145.855 17.6086 147.277 17.6086C149.527 17.6086 150.697 16.4386 150.697 14.9806C150.697 13.0546 148.951 12.6226 147.439 12.2806C146.305 12.0106 145.315 11.7406 145.315 10.8946C145.315 10.1206 146.053 9.58058 147.241 9.58058C148.357 9.58058 149.311 10.0486 149.833 10.6786L150.463 9.74258C149.761 9.04058 148.717 8.48258 147.241 8.48258C145.171 8.48258 144.001 9.63458 144.001 10.9846C144.001 12.7846 145.675 13.1806 147.151 13.5226C148.321 13.8106 149.383 14.1166 149.383 15.0706C149.383 15.9166 148.663 16.5106 147.331 16.5106C146.143 16.5106 145.045 15.9346 144.469 15.2686L143.767 16.2406ZM155.086 17.6086C155.878 17.6086 156.364 17.3746 156.706 17.0506L156.31 16.0426C156.13 16.2406 155.77 16.4026 155.392 16.4026C154.798 16.4026 154.51 15.9346 154.51 15.2866V9.88658H156.274V8.69858H154.51V6.32258H153.16V8.69858H151.72V9.88658H153.16V15.5746C153.16 16.8706 153.808 17.6086 155.086 17.6086ZM163.2 17.3926H164.55V9.88658H166.314V8.69858H164.55V8.03258C164.55 6.93458 165.036 6.32258 165.918 6.32258C166.224 6.32258 166.476 6.39458 166.692 6.52058L167.034 5.51258C166.692 5.29658 166.224 5.20658 165.72 5.20658C164.208 5.20658 163.2 6.23258 163.2 8.03258V8.69858H161.76V9.88658H163.2V17.3926ZM167.92 17.3926H169.27V11.2366C169.666 10.5346 170.8 9.85058 171.628 9.85058C171.844 9.85058 172.006 9.86858 172.168 9.90458V8.51858C170.98 8.51858 169.972 9.18458 169.27 10.1026V8.69858H167.92V17.3926ZM179.729 17.3926H181.079V8.69858H179.729V15.0886C179.225 15.7906 178.217 16.4026 177.155 16.4026C175.985 16.4026 175.211 15.9526 175.211 14.4226V8.69858H173.861V14.8366C173.861 16.7266 174.815 17.6086 176.633 17.6086C177.929 17.6086 179.063 16.9246 179.729 16.1686V17.3926ZM183.019 16.2406C183.901 17.1766 185.107 17.6086 186.529 17.6086C188.779 17.6086 189.949 16.4386 189.949 14.9806C189.949 13.0546 188.203 12.6226 186.691 12.2806C185.557 12.0106 184.567 11.7406 184.567 10.8946C184.567 10.1206 185.305 9.58058 186.493 9.58058C187.609 9.58058 188.563 10.0486 189.085 10.6786L189.715 9.74258C189.013 9.04058 187.969 8.48258 186.493 8.48258C184.423 8.48258 183.253 9.63458 183.253 10.9846C183.253 12.7846 184.927 13.1806 186.403 13.5226C187.573 13.8106 188.635 14.1166 188.635 15.0706C188.635 15.9166 187.915 16.5106 186.583 16.5106C185.395 16.5106 184.297 15.9346 183.721 15.2686L183.019 16.2406ZM194.338 17.6086C195.13 17.6086 195.616 17.3746 195.958 17.0506L195.562 16.0426C195.382 16.2406 195.022 16.4026 194.644 16.4026C194.05 16.4026 193.762 15.9346 193.762 15.2866V9.88658H195.526V8.69858H193.762V6.32258H192.412V8.69858H190.972V9.88658H192.412V15.5746C192.412 16.8706 193.06 17.6086 194.338 17.6086ZM197.433 17.3926H198.783V11.2366C199.179 10.5346 200.313 9.85058 201.141 9.85058C201.357 9.85058 201.519 9.86858 201.681 9.90458V8.51858C200.493 8.51858 199.485 9.18458 198.783 10.1026V8.69858H197.433V17.3926ZM208.811 17.3926H210.161V11.4166C210.161 9.31058 208.631 8.48258 206.795 8.48258C205.373 8.48258 204.257 8.95058 203.321 9.92258L203.951 10.8586C204.725 10.0306 205.571 9.65258 206.615 9.65258C207.875 9.65258 208.811 10.3186 208.811 11.4886V13.0546C208.109 12.2446 207.119 11.8666 205.931 11.8666C204.455 11.8666 202.889 12.7846 202.889 14.7286C202.889 16.6186 204.455 17.6086 205.931 17.6086C207.101 17.6086 208.091 17.1946 208.811 16.4026V17.3926ZM208.811 15.5566C208.289 16.2766 207.371 16.6366 206.417 16.6366C205.157 16.6366 204.275 15.8446 204.275 14.7466C204.275 13.6306 205.157 12.8386 206.417 12.8386C207.371 12.8386 208.289 13.1986 208.811 13.9186V15.5566ZM215.063 17.6086C215.855 17.6086 216.341 17.3746 216.683 17.0506L216.287 16.0426C216.107 16.2406 215.747 16.4026 215.369 16.4026C214.775 16.4026 214.487 15.9346 214.487 15.2866V9.88658H216.251V8.69858H214.487V6.32258H213.137V8.69858H211.697V9.88658H213.137V15.5746C213.137 16.8706 213.785 17.6086 215.063 17.6086ZM218.824 7.24058C219.328 7.24058 219.742 6.82658 219.742 6.32258C219.742 5.81858 219.328 5.42258 218.824 5.42258C218.338 5.42258 217.924 5.81858 217.924 6.32258C217.924 6.82658 218.338 7.24058 218.824 7.24058ZM218.158 17.3926H219.508V8.69858H218.158V17.3926ZM225.999 17.6086C228.645 17.6086 230.301 15.5566 230.301 13.0366C230.301 10.5166 228.645 8.48258 225.999 8.48258C223.353 8.48258 221.697 10.5166 221.697 13.0366C221.697 15.5566 223.353 17.6086 225.999 17.6086ZM225.999 16.4026C224.145 16.4026 223.101 14.8186 223.101 13.0366C223.101 11.2726 224.145 9.68858 225.999 9.68858C227.853 9.68858 228.879 11.2726 228.879 13.0366C228.879 14.8186 227.853 16.4026 225.999 16.4026ZM238.37 17.3926H239.72V11.2906C239.72 9.40058 238.766 8.48258 236.948 8.48258C235.652 8.48258 234.464 9.23858 233.852 9.95858V8.69858H232.502V17.3926H233.852V11.0386C234.356 10.3366 235.364 9.68858 236.426 9.68858C237.596 9.68858 238.37 10.1746 238.37 11.7046V17.3926ZM252.492 17.3926H253.842V11.4166C253.842 9.31058 252.312 8.48258 250.476 8.48258C249.054 8.48258 247.938 8.95058 247.002 9.92258L247.632 10.8586C248.406 10.0306 249.252 9.65258 250.296 9.65258C251.556 9.65258 252.492 10.3186 252.492 11.4886V13.0546C251.79 12.2446 250.8 11.8666 249.612 11.8666C248.136 11.8666 246.57 12.7846 246.57 14.7286C246.57 16.6186 248.136 17.6086 249.612 17.6086C250.782 17.6086 251.772 17.1946 252.492 16.4026V17.3926ZM252.492 15.5566C251.97 16.2766 251.052 16.6366 250.098 16.6366C248.838 16.6366 247.956 15.8446 247.956 14.7466C247.956 13.6306 248.838 12.8386 250.098 12.8386C251.052 12.8386 251.97 13.1986 252.492 13.9186V15.5566ZM256.549 17.3926H257.899V16.0966C258.547 16.9786 259.609 17.6086 260.833 17.6086C263.101 17.6086 264.703 15.8806 264.703 13.0546C264.703 10.2826 263.101 8.48258 260.833 8.48258C259.645 8.48258 258.601 9.05858 257.899 10.0126V5.38658H256.549V17.3926ZM257.899 15.0346V11.0926C258.367 10.3366 259.429 9.68858 260.491 9.68858C262.255 9.68858 263.299 11.1286 263.299 13.0546C263.299 14.9806 262.255 16.4026 260.491 16.4026C259.429 16.4026 258.367 15.7906 257.899 15.0346ZM270.7 17.6086C273.346 17.6086 275.002 15.5566 275.002 13.0366C275.002 10.5166 273.346 8.48258 270.7 8.48258C268.054 8.48258 266.398 10.5166 266.398 13.0366C266.398 15.5566 268.054 17.6086 270.7 17.6086ZM270.7 16.4026C268.846 16.4026 267.802 14.8186 267.802 13.0366C267.802 11.2726 268.846 9.68858 270.7 9.68858C272.554 9.68858 273.58 11.2726 273.58 13.0366C273.58 14.8186 272.554 16.4026 270.7 16.4026ZM283.071 17.3926H284.421V8.69858H283.071V15.0886C282.567 15.7906 281.559 16.4026 280.497 16.4026C279.327 16.4026 278.553 15.9526 278.553 14.4226V8.69858H277.203V14.8366C277.203 16.7266 278.157 17.6086 279.975 17.6086C281.271 17.6086 282.405 16.9246 283.071 16.1686V17.3926ZM289.313 17.6086C290.105 17.6086 290.591 17.3746 290.933 17.0506L290.537 16.0426C290.357 16.2406 289.997 16.4026 289.619 16.4026C289.025 16.4026 288.737 15.9346 288.737 15.2866V9.88658H290.501V8.69858H288.737V6.32258H287.387V8.69858H285.947V9.88658H287.387V15.5746C287.387 16.8706 288.035 17.6086 289.313 17.6086ZM299.245 17.6086C300.037 17.6086 300.523 17.3746 300.865 17.0506L300.469 16.0426C300.289 16.2406 299.929 16.4026 299.551 16.4026C298.957 16.4026 298.669 15.9346 298.669 15.2866V9.88658H300.433V8.69858H298.669V6.32258H297.319V8.69858H295.879V9.88658H297.319V15.5746C297.319 16.8706 297.967 17.6086 299.245 17.6086ZM308.226 17.3926H309.576V11.2546C309.576 9.36458 308.622 8.48258 306.804 8.48258C305.49 8.48258 304.302 9.23858 303.69 9.95858V5.38658H302.34V17.3926H303.69V11.0386C304.212 10.3366 305.22 9.68858 306.264 9.68858C307.434 9.68858 308.226 10.1386 308.226 11.6686V17.3926ZM311.767 13.0366C311.767 15.7546 313.621 17.6086 316.195 17.6086C317.617 17.6086 318.787 17.1406 319.651 16.2766L319.003 15.3946C318.319 16.0966 317.311 16.4926 316.321 16.4926C314.449 16.4926 313.297 15.1246 313.189 13.4866H320.227V13.1446C320.227 10.5346 318.679 8.48258 316.051 8.48258C313.567 8.48258 311.767 10.5166 311.767 13.0366ZM316.033 9.59858C318.013 9.59858 318.877 11.2006 318.895 12.4966H313.189C313.261 11.1646 314.179 9.59858 316.033 9.59858ZM42.5525 39.3926H43.9025V27.3866H42.5525V39.3926ZM50.3934 39.6086C53.0394 39.6086 54.6954 37.5566 54.6954 35.0366C54.6954 32.5166 53.0394 30.4826 50.3934 30.4826C47.7474 30.4826 46.0914 32.5166 46.0914 35.0366C46.0914 37.5566 47.7474 39.6086 50.3934 39.6086ZM50.3934 38.4026C48.5394 38.4026 47.4954 36.8186 47.4954 35.0366C47.4954 33.2726 48.5394 31.6886 50.3934 31.6886C52.2474 31.6886 53.2734 33.2726 53.2734 35.0366C53.2734 36.8186 52.2474 38.4026 50.3934 38.4026ZM56.3922 35.0366C56.3922 37.6286 58.1382 39.6086 60.7302 39.6086C62.3142 39.6086 63.2502 38.9606 63.9162 38.0966L63.0162 37.2686C62.4402 38.0426 61.7022 38.4026 60.8022 38.4026C58.9482 38.4026 57.7962 36.9626 57.7962 35.0366C57.7962 33.1106 58.9482 31.6886 60.8022 31.6886C61.7022 31.6886 62.4402 32.0306 63.0162 32.8226L63.9162 31.9946C63.2502 31.1306 62.3142 30.4826 60.7302 30.4826C58.1382 30.4826 56.3922 32.4626 56.3922 35.0366ZM71.2443 39.3926H72.5943V33.4166C72.5943 31.3106 71.0643 30.4826 69.2283 30.4826C67.8063 30.4826 66.6903 30.9506 65.7543 31.9226L66.3843 32.8586C67.1583 32.0306 68.0043 31.6526 69.0483 31.6526C70.3083 31.6526 71.2443 32.3186 71.2443 33.4886V35.0546C70.5423 34.2446 69.5523 33.8666 68.3643 33.8666C66.8883 33.8666 65.3223 34.7846 65.3223 36.7286C65.3223 38.6186 66.8883 39.6086 68.3643 39.6086C69.5343 39.6086 70.5243 39.1946 71.2443 38.4026V39.3926ZM71.2443 37.5566C70.7223 38.2766 69.8043 38.6366 68.8503 38.6366C67.5903 38.6366 66.7083 37.8446 66.7083 36.7466C66.7083 35.6306 67.5903 34.8386 68.8503 34.8386C69.8043 34.8386 70.7223 35.1986 71.2443 35.9186V37.5566ZM77.4965 39.6086C78.2885 39.6086 78.7745 39.3746 79.1165 39.0506L78.7205 38.0426C78.5405 38.2406 78.1805 38.4026 77.8025 38.4026C77.2085 38.4026 76.9205 37.9346 76.9205 37.2866V31.8866H78.6845V30.6986H76.9205V28.3226H75.5705V30.6986H74.1305V31.8866H75.5705V37.5746C75.5705 38.8706 76.2185 39.6086 77.4965 39.6086ZM81.2575 29.2406C81.7615 29.2406 82.1755 28.8266 82.1755 28.3226C82.1755 27.8186 81.7615 27.4226 81.2575 27.4226C80.7715 27.4226 80.3575 27.8186 80.3575 28.3226C80.3575 28.8266 80.7715 29.2406 81.2575 29.2406ZM80.5915 39.3926H81.9415V30.6986H80.5915V39.3926ZM88.4325 39.6086C91.0785 39.6086 92.7345 37.5566 92.7345 35.0366C92.7345 32.5166 91.0785 30.4826 88.4325 30.4826C85.7865 30.4826 84.1305 32.5166 84.1305 35.0366C84.1305 37.5566 85.7865 39.6086 88.4325 39.6086ZM88.4325 38.4026C86.5785 38.4026 85.5345 36.8186 85.5345 35.0366C85.5345 33.2726 86.5785 31.6886 88.4325 31.6886C90.2865 31.6886 91.3125 33.2726 91.3125 35.0366C91.3125 36.8186 90.2865 38.4026 88.4325 38.4026ZM100.803 39.3926H102.153V33.2906C102.153 31.4006 101.199 30.4826 99.3813 30.4826C98.0853 30.4826 96.8973 31.2386 96.2853 31.9586V30.6986H94.9353V39.3926H96.2853V33.0386C96.7893 32.3366 97.7973 31.6886 98.8593 31.6886C100.029 31.6886 100.803 32.1746 100.803 33.7046V39.3926ZM110.156 29.2406C110.66 29.2406 111.074 28.8266 111.074 28.3226C111.074 27.8186 110.66 27.4226 110.156 27.4226C109.67 27.4226 109.256 27.8186 109.256 28.3226C109.256 28.8266 109.67 29.2406 110.156 29.2406ZM109.49 39.3926H110.84V30.6986H109.49V39.3926ZM119.401 39.3926H120.751V33.2906C120.751 31.4006 119.797 30.4826 117.979 30.4826C116.683 30.4826 115.495 31.2386 114.883 31.9586V30.6986H113.533V39.3926H114.883V33.0386C115.387 32.3366 116.395 31.6886 117.457 31.6886C118.627 31.6886 119.401 32.1746 119.401 33.7046V39.3926ZM129.747 39.3926H131.097V27.3866H129.747V32.0126C129.045 31.0586 127.983 30.4826 126.813 30.4826C124.527 30.4826 122.943 32.2826 122.943 35.0546C122.943 37.8806 124.545 39.6086 126.813 39.6086C128.037 39.6086 129.099 38.9786 129.747 38.0966V39.3926ZM129.747 37.0346C129.261 37.7906 128.217 38.4026 127.137 38.4026C125.391 38.4026 124.347 36.9806 124.347 35.0546C124.347 33.1286 125.391 31.6886 127.137 31.6886C128.217 31.6886 129.261 32.3366 129.747 33.0926V37.0346ZM133.297 35.0366C133.297 37.7546 135.151 39.6086 137.725 39.6086C139.147 39.6086 140.317 39.1406 141.181 38.2766L140.533 37.3946C139.849 38.0966 138.841 38.4926 137.851 38.4926C135.979 38.4926 134.827 37.1246 134.719 35.4866H141.757V35.1446C141.757 32.5346 140.209 30.4826 137.581 30.4826C135.097 30.4826 133.297 32.5166 133.297 35.0366ZM137.563 31.5986C139.543 31.5986 140.407 33.2006 140.425 34.4966H134.719C134.791 33.1646 135.709 31.5986 137.563 31.5986ZM145.293 42.7046V38.0786C145.995 39.0506 147.039 39.6086 148.227 39.6086C150.513 39.6086 152.097 37.8446 152.097 35.0366C152.097 32.2106 150.513 30.4826 148.227 30.4826C147.003 30.4826 145.923 31.1126 145.293 31.9946V30.6986H143.943V42.7046H145.293ZM150.675 35.0366C150.675 36.9626 149.631 38.4026 147.885 38.4026C146.823 38.4026 145.761 37.7546 145.293 36.9986V33.0746C145.761 32.3186 146.823 31.6886 147.885 31.6886C149.631 31.6886 150.675 33.1106 150.675 35.0366ZM153.775 35.0366C153.775 37.7546 155.629 39.6086 158.203 39.6086C159.625 39.6086 160.795 39.1406 161.659 38.2766L161.011 37.3946C160.327 38.0966 159.319 38.4926 158.329 38.4926C156.457 38.4926 155.305 37.1246 155.197 35.4866H162.235V35.1446C162.235 32.5346 160.687 30.4826 158.059 30.4826C155.575 30.4826 153.775 32.5166 153.775 35.0366ZM158.041 31.5986C160.021 31.5986 160.885 33.2006 160.903 34.4966H155.197C155.269 33.1646 156.187 31.5986 158.041 31.5986ZM170.29 39.3926H171.64V33.2906C171.64 31.4006 170.686 30.4826 168.868 30.4826C167.572 30.4826 166.384 31.2386 165.772 31.9586V30.6986H164.422V39.3926H165.772V33.0386C166.276 32.3366 167.284 31.6886 168.346 31.6886C169.516 31.6886 170.29 32.1746 170.29 33.7046V39.3926ZM180.636 39.3926H181.986V27.3866H180.636V32.0126C179.934 31.0586 178.872 30.4826 177.702 30.4826C175.416 30.4826 173.832 32.2826 173.832 35.0546C173.832 37.8806 175.434 39.6086 177.702 39.6086C178.926 39.6086 179.988 38.9786 180.636 38.0966V39.3926ZM180.636 37.0346C180.15 37.7906 179.106 38.4026 178.026 38.4026C176.28 38.4026 175.236 36.9806 175.236 35.0546C175.236 33.1286 176.28 31.6886 178.026 31.6886C179.106 31.6886 180.15 32.3366 180.636 33.0926V37.0346ZM184.185 35.0366C184.185 37.7546 186.039 39.6086 188.613 39.6086C190.035 39.6086 191.205 39.1406 192.069 38.2766L191.421 37.3946C190.737 38.0966 189.729 38.4926 188.739 38.4926C186.867 38.4926 185.715 37.1246 185.607 35.4866H192.645V35.1446C192.645 32.5346 191.097 30.4826 188.469 30.4826C185.985 30.4826 184.185 32.5166 184.185 35.0366ZM188.451 31.5986C190.431 31.5986 191.295 33.2006 191.313 34.4966H185.607C185.679 33.1646 186.597 31.5986 188.451 31.5986ZM200.7 39.3926H202.05V33.2906C202.05 31.4006 201.096 30.4826 199.278 30.4826C197.982 30.4826 196.794 31.2386 196.182 31.9586V30.6986H194.832V39.3926H196.182V33.0386C196.686 32.3366 197.694 31.6886 198.756 31.6886C199.926 31.6886 200.7 32.1746 200.7 33.7046V39.3926ZM206.942 39.6086C207.734 39.6086 208.22 39.3746 208.562 39.0506L208.166 38.0426C207.986 38.2406 207.626 38.4026 207.248 38.4026C206.654 38.4026 206.366 37.9346 206.366 37.2866V31.8866H208.13V30.6986H206.366V28.3226H205.016V30.6986H203.576V31.8866H205.016V37.5746C205.016 38.8706 205.664 39.6086 206.942 39.6086ZM214.677 39.3926H216.027V27.3866H214.677V39.3926ZM219.386 29.2406C219.89 29.2406 220.304 28.8266 220.304 28.3226C220.304 27.8186 219.89 27.4226 219.386 27.4226C218.9 27.4226 218.486 27.8186 218.486 28.3226C218.486 28.8266 218.9 29.2406 219.386 29.2406ZM218.72 39.3926H220.07V30.6986H218.72V39.3926ZM223.141 39.3926H224.491V31.8866H226.255V30.6986H224.491V30.0326C224.491 28.9346 224.977 28.3226 225.859 28.3226C226.165 28.3226 226.417 28.3946 226.633 28.5206L226.975 27.5126C226.633 27.2966 226.165 27.2066 225.661 27.2066C224.149 27.2066 223.141 28.2326 223.141 30.0326V30.6986H221.701V31.8866H223.141V39.3926ZM227.357 35.0366C227.357 37.7546 229.211 39.6086 231.785 39.6086C233.207 39.6086 234.377 39.1406 235.241 38.2766L234.593 37.3946C233.909 38.0966 232.901 38.4926 231.911 38.4926C230.039 38.4926 228.887 37.1246 228.779 35.4866H235.817V35.1446C235.817 32.5346 234.269 30.4826 231.641 30.4826C229.157 30.4826 227.357 32.5166 227.357 35.0366ZM231.623 31.5986C233.603 31.5986 234.467 33.2006 234.485 34.4966H228.779C228.851 33.1646 229.769 31.5986 231.623 31.5986ZM237.248 38.2406C238.13 39.1766 239.336 39.6086 240.758 39.6086C243.008 39.6086 244.178 38.4386 244.178 36.9806C244.178 35.0546 242.432 34.6226 240.92 34.2806C239.786 34.0106 238.796 33.7406 238.796 32.8946C238.796 32.1206 239.534 31.5806 240.722 31.5806C241.838 31.5806 242.792 32.0486 243.314 32.6786L243.944 31.7426C243.242 31.0406 242.198 30.4826 240.722 30.4826C238.652 30.4826 237.482 31.6346 237.482 32.9846C237.482 34.7846 239.156 35.1806 240.632 35.5226C241.802 35.8106 242.864 36.1166 242.864 37.0706C242.864 37.9166 242.144 38.5106 240.812 38.5106C239.624 38.5106 238.526 37.9346 237.95 37.2686L237.248 38.2406ZM248.567 39.6086C249.359 39.6086 249.845 39.3746 250.187 39.0506L249.791 38.0426C249.611 38.2406 249.251 38.4026 248.873 38.4026C248.279 38.4026 247.991 37.9346 247.991 37.2866V31.8866H249.755V30.6986H247.991V28.3226H246.641V30.6986H245.201V31.8866H246.641V37.5746C246.641 38.8706 247.289 39.6086 248.567 39.6086ZM251.392 41.5706L251.176 42.7946C251.428 42.8666 251.878 42.9206 252.166 42.9206C253.318 42.9026 254.2 42.4166 254.722 41.1566L259.078 30.6986H257.602L254.722 37.8266L251.824 30.6986H250.366L254.002 39.4826L253.426 40.7966C253.12 41.5166 252.724 41.7146 252.13 41.7146C251.914 41.7146 251.59 41.6606 251.392 41.5706ZM260.486 39.3926H261.836V27.3866H260.486V39.3926ZM264.025 35.0366C264.025 37.7546 265.879 39.6086 268.453 39.6086C269.875 39.6086 271.045 39.1406 271.909 38.2766L271.261 37.3946C270.577 38.0966 269.569 38.4926 268.579 38.4926C266.707 38.4926 265.555 37.1246 265.447 35.4866H272.485V35.1446C272.485 32.5346 270.937 30.4826 268.309 30.4826C265.825 30.4826 264.025 32.5166 264.025 35.0366ZM268.291 31.5986C270.271 31.5986 271.135 33.2006 271.153 34.4966H265.447C265.519 33.1646 266.437 31.5986 268.291 31.5986ZM275.623 34.6046C275.623 35.1446 275.839 35.6486 276.325 36.0626L277.423 35.5946C277.117 35.3606 276.937 35.0006 276.937 34.7126C276.937 33.9206 277.639 33.4526 278.413 32.9126C279.367 32.2466 280.429 31.5086 280.429 29.9966C280.429 28.4486 279.097 27.2066 276.901 27.2066C275.191 27.2066 273.859 27.9266 272.995 29.0426L273.895 30.0146C274.561 29.1326 275.407 28.5386 276.757 28.5386C278.179 28.5386 278.881 29.3126 278.881 30.2126C278.881 31.1306 278.143 31.6346 277.351 32.1746C276.523 32.7686 275.623 33.3986 275.623 34.6046ZM275.713 38.5826C275.713 39.1226 276.163 39.5726 276.703 39.5726C277.243 39.5726 277.693 39.1226 277.693 38.5826C277.693 38.0426 277.243 37.5926 276.703 37.5926C276.163 37.5926 275.713 38.0426 275.713 38.5826Z" fill="black"/>
<line x1="289.365" y1="219.605" x2="338.257" y2="219.605" stroke="#092040"/>
</svg>
