<svg width="83" height="48" viewBox="0 0 83 48" fill="none" xmlns="http://www.w3.org/2000/svg">
<path d="M78.7901 11.1807L82.3601 8.38071C78.2301 3.83071 73.4001 1.73071 67.6601 1.80071C59.5401 1.94071 53.8701 6.84071 53.9401 13.7707C53.9401 19.6507 57.6501 23.7107 64.9301 25.8107L69.8301 27.2807C75.3601 28.8907 77.5301 31.2007 77.6001 35.2607C77.6701 39.8807 73.9601 43.0307 68.4301 43.1007C64.0201 43.1707 59.6101 41.3507 56.2501 38.1307L52.4701 41.0707C56.6701 45.4807 62.0601 47.5807 68.3601 47.5807C76.7601 47.5807 82.6401 42.4007 82.6401 35.1907C82.5701 29.1707 78.9301 25.1107 71.7201 23.0107L66.6101 21.5407C61.4301 20.0707 58.9801 17.6207 58.9801 13.8407C58.9101 9.43071 62.4801 6.49071 67.9401 6.42071C71.8601 6.42071 75.3601 7.96071 78.7901 11.1807Z" fill="#F4AD93"/>
<path d="M23.5868 0.219482C10.6972 0.219482 0.151245 10.7655 0.151245 23.655C0.151245 36.5446 10.6972 47.0906 23.5868 47.0906C36.4763 47.0906 47.0223 36.5446 47.0223 23.655C47.0223 10.7655 36.4763 0.219482 23.5868 0.219482ZM38.8199 15.7455C39.9917 15.7455 40.8705 16.6244 42.0423 16.6244C41.1634 17.7961 37.3552 17.7961 36.1834 16.3314C37.0622 16.0385 37.6481 15.7455 38.8199 15.7455ZM3.08069 23.655C3.08069 22.4832 3.08069 21.3115 3.37363 19.8468C3.66658 19.8468 3.95952 20.1397 4.25247 20.1397C4.25247 20.1397 4.54541 20.4326 4.54541 20.7256C4.54541 21.6044 5.42424 22.1903 6.01013 22.1903C8.35369 22.4832 9.23252 24.5339 11.2831 25.1197C11.869 25.4127 11.5761 25.9986 11.2831 26.5845C9.52546 28.928 10.9902 30.6857 12.4549 32.1504C13.9196 33.3222 13.9196 34.494 14.2126 36.2516C14.2126 38.3022 14.5055 40.6458 15.3843 42.6964C8.06074 39.1811 3.08069 32.1504 3.08069 23.655ZM23.5868 44.1611C21.5362 44.1611 19.1926 43.8682 17.435 43.2823C17.142 42.6964 17.142 42.1105 17.435 41.5246C18.6067 39.1811 19.7785 37.1305 21.2432 35.0799C21.8291 34.494 22.415 33.9081 22.415 33.0292C22.415 32.4434 22.708 31.5645 23.0009 30.9786C23.8797 29.5139 23.5868 28.6351 22.415 28.3421C20.0715 27.7563 18.8997 25.7056 17.142 24.8268C15.3843 23.948 13.6267 23.3621 12.162 24.2409C11.5761 24.5339 10.6972 24.8268 10.6972 23.948C10.6972 22.7762 9.23252 21.8974 9.52546 20.7256C9.23252 20.7256 8.93957 20.7256 8.64663 21.0185C8.35369 21.3115 8.06074 21.6044 7.47485 21.3115C6.88896 20.7256 7.18191 20.1397 7.18191 19.5538C7.47485 18.9679 7.7678 18.675 8.35369 18.382C9.52546 18.0891 10.6972 18.0891 11.2831 19.5538C12.162 16.9173 13.9196 15.4526 15.6773 14.2808C15.6773 14.2808 18.0208 12.2302 18.3138 12.2302C18.6067 12.2302 18.8997 12.8161 19.4856 13.109C20.0715 13.109 20.3644 13.109 20.3644 12.5231C20.6573 11.0584 19.7785 9.30076 18.6067 9.00781C18.6067 8.71487 18.8997 8.71487 18.8997 8.71487C19.7785 8.42192 20.9503 7.83604 20.6573 6.9572C20.6573 5.78543 19.4856 5.19954 18.3138 5.19954C17.7279 5.19954 17.142 5.19954 16.5561 5.49248C15.3843 6.07837 13.9196 6.66426 12.162 6.66426C15.3843 4.3207 19.4856 3.14893 23.5868 3.14893C24.4656 3.14893 25.0515 3.14893 25.9303 3.14893C24.1727 3.44187 22.415 4.02776 21.2432 4.61365C23.0009 4.90659 23.2938 5.78542 22.708 7.25015C22.415 7.83603 22.708 8.42192 23.2938 8.71487C23.8797 9.00781 24.4656 9.00781 24.7586 8.42192C25.3445 7.54309 26.5162 7.25015 27.3951 6.9572C28.5668 6.66426 29.4457 6.07837 30.3245 4.90659C30.3245 4.61365 30.6175 4.61365 30.9104 4.3207C32.6681 4.90659 34.4257 6.07837 36.1834 7.25015C35.8904 7.25015 35.8905 7.54309 35.5975 7.54309C35.0116 8.12898 34.1328 8.42192 35.0116 9.5937C35.3046 10.1796 35.0116 10.4725 34.7187 10.7655C34.1328 11.0584 33.8398 10.7655 33.5469 10.4725C33.254 10.1796 33.254 9.5937 32.3751 9.5937C32.0822 10.1796 31.2033 10.4725 31.2033 11.3514C32.6681 11.3514 32.3751 12.5231 32.6681 13.402C30.9104 13.6949 30.3245 14.5738 31.2033 16.0385C31.4963 16.6244 30.9104 16.9173 30.6175 17.2103C29.4457 18.9679 28.2739 20.1397 28.2739 22.1903C28.2739 24.2409 29.7386 26.2915 32.0822 25.9986C34.7187 25.7056 34.7187 25.7056 35.5975 28.0492C35.5975 28.3421 35.8905 28.6351 35.8905 28.928C36.1834 29.5139 36.4763 30.0998 36.1834 30.6857C35.3046 33.0292 36.4763 34.7869 37.3552 36.5446C37.6481 37.1305 37.9411 37.4234 38.234 37.7164C34.4257 41.8176 29.4457 44.1611 23.5868 44.1611Z" fill="#F4AD93"/>
</svg>
