<svg width="83" height="48" viewBox="0 0 83 48" fill="none" xmlns="http://www.w3.org/2000/svg">
<path d="M78.8853 11.1807L82.4553 8.38071C78.3253 3.83071 73.4953 1.73071 67.7553 1.80071C59.6353 1.94071 53.9653 6.84071 54.0353 13.7707C54.0353 19.6507 57.7453 23.7107 65.0253 25.8107L69.9253 27.2807C75.4553 28.8907 77.6253 31.2007 77.6953 35.2607C77.7653 39.8807 74.0553 43.0307 68.5253 43.1007C64.1153 43.1707 59.7053 41.3507 56.3453 38.1307L52.5653 41.0707C56.7653 45.4807 62.1553 47.5807 68.4553 47.5807C76.8553 47.5807 82.7353 42.4007 82.7353 35.1907C82.6653 29.1707 79.0253 25.1107 71.8153 23.0107L66.7053 21.5407C61.5253 20.0707 59.0753 17.6207 59.0753 13.8407C59.0053 9.43071 62.5753 6.49071 68.0353 6.42071C71.9553 6.42071 75.4553 7.96071 78.8853 11.1807Z" fill="#2792AB"/>
<path d="M23.682 0.219482C10.7925 0.219482 0.24646 10.7655 0.24646 23.655C0.24646 36.5446 10.7925 47.0906 23.682 47.0906C36.5716 47.0906 47.1175 36.5446 47.1175 23.655C47.1175 10.7655 36.5716 0.219482 23.682 0.219482ZM38.9151 15.7455C40.0869 15.7455 40.9657 16.6244 42.1375 16.6244C41.2587 17.7961 37.4504 17.7961 36.2786 16.3314C37.1574 16.0385 37.7433 15.7455 38.9151 15.7455ZM3.1759 23.655C3.1759 22.4832 3.1759 21.3115 3.46885 19.8468C3.76179 19.8468 4.05474 20.1397 4.34768 20.1397C4.34768 20.1397 4.64062 20.4326 4.64062 20.7256C4.64062 21.6044 5.51946 22.1903 6.10535 22.1903C8.4489 22.4832 9.32773 24.5339 11.3783 25.1197C11.9642 25.4127 11.6713 25.9986 11.3783 26.5845C9.62068 28.928 11.0854 30.6857 12.5501 32.1504C14.0148 33.3222 14.0148 34.494 14.3078 36.2516C14.3078 38.3022 14.6007 40.6458 15.4796 42.6964C8.15596 39.1811 3.1759 32.1504 3.1759 23.655ZM23.682 44.1611C21.6314 44.1611 19.2878 43.8682 17.5302 43.2823C17.2372 42.6964 17.2372 42.1105 17.5302 41.5246C18.702 39.1811 19.8737 37.1305 21.3385 35.0799C21.9243 34.494 22.5102 33.9081 22.5102 33.0292C22.5102 32.4434 22.8032 31.5645 23.0961 30.9786C23.975 29.5139 23.682 28.6351 22.5102 28.3421C20.1667 27.7563 18.9949 25.7056 17.2372 24.8268C15.4796 23.948 13.7219 23.3621 12.2572 24.2409C11.6713 24.5339 10.7925 24.8268 10.7925 23.948C10.7925 22.7762 9.32773 21.8974 9.62068 20.7256C9.32773 20.7256 9.03479 20.7256 8.74185 21.0185C8.4489 21.3115 8.15596 21.6044 7.57007 21.3115C6.98418 20.7256 7.27712 20.1397 7.27712 19.5538C7.57007 18.9679 7.86301 18.675 8.4489 18.382C9.62068 18.0891 10.7925 18.0891 11.3783 19.5538C12.2572 16.9173 14.0148 15.4526 15.7725 14.2808C15.7725 14.2808 18.1161 12.2302 18.409 12.2302C18.702 12.2302 18.9949 12.8161 19.5808 13.109C20.1667 13.109 20.4596 13.109 20.4596 12.5231C20.7526 11.0584 19.8737 9.30076 18.702 9.00781C18.702 8.71487 18.9949 8.71487 18.9949 8.71487C19.8737 8.42192 21.0455 7.83604 20.7526 6.9572C20.7526 5.78543 19.5808 5.19954 18.409 5.19954C17.8231 5.19954 17.2372 5.19954 16.6513 5.49248C15.4796 6.07837 14.0148 6.66426 12.2572 6.66426C15.4796 4.3207 19.5808 3.14893 23.682 3.14893C24.5608 3.14893 25.1467 3.14893 26.0256 3.14893C24.2679 3.44187 22.5102 4.02776 21.3385 4.61365C23.0961 4.90659 23.3891 5.78542 22.8032 7.25015C22.5102 7.83603 22.8032 8.42192 23.3891 8.71487C23.9749 9.00781 24.5608 9.00781 24.8538 8.42192C25.4397 7.54309 26.6114 7.25015 27.4903 6.9572C28.6621 6.66426 29.5409 6.07837 30.4197 4.90659C30.4197 4.61365 30.7127 4.61365 31.0056 4.3207C32.7633 4.90659 34.5209 6.07837 36.2786 7.25015C35.9857 7.25015 35.9857 7.54309 35.6927 7.54309C35.1068 8.12898 34.228 8.42192 35.1068 9.5937C35.3998 10.1796 35.1068 10.4725 34.8139 10.7655C34.228 11.0584 33.9351 10.7655 33.6421 10.4725C33.3492 10.1796 33.3492 9.5937 32.4703 9.5937C32.1774 10.1796 31.2986 10.4725 31.2986 11.3514C32.7633 11.3514 32.4703 12.5231 32.7633 13.402C31.0056 13.6949 30.4197 14.5738 31.2986 16.0385C31.5915 16.6244 31.0056 16.9173 30.7127 17.2103C29.5409 18.9679 28.3691 20.1397 28.3691 22.1903C28.3691 24.2409 29.8338 26.2915 32.1774 25.9986C34.8139 25.7056 34.8139 25.7056 35.6927 28.0492C35.6927 28.3421 35.9857 28.6351 35.9857 28.928C36.2786 29.5139 36.5716 30.0998 36.2786 30.6857C35.3998 33.0292 36.5716 34.7869 37.4504 36.5446C37.7433 37.1305 38.0363 37.4234 38.3292 37.7164C34.5209 41.8176 29.5409 44.1611 23.682 44.1611Z" fill="#2792AB"/>
</svg>
