<svg width="198" height="48" viewBox="0 0 198 48" fill="none" xmlns="http://www.w3.org/2000/svg">
<path d="M194.011 11.486L197.581 8.68601C193.451 4.13601 188.621 2.03601 182.881 2.10601C174.761 2.246 169.091 7.146 169.161 14.076C169.161 19.956 172.871 24.016 180.151 26.116L185.051 27.586C190.581 29.196 192.751 31.506 192.821 35.566C192.891 40.186 189.181 43.336 183.651 43.406C179.241 43.476 174.831 41.656 171.471 38.436L167.691 41.376C171.891 45.786 177.281 47.886 183.581 47.886C191.981 47.886 197.861 42.706 197.861 35.496C197.791 29.476 194.151 25.416 186.941 23.316L181.831 21.846C176.651 20.376 174.201 17.926 174.201 14.146C174.131 9.736 177.701 6.796 183.161 6.72601C187.081 6.72601 190.581 8.26601 194.011 11.486Z" fill="#F4AD93"/>
<path d="M138.807 0.52478C125.918 0.52478 115.372 11.0708 115.372 23.9603C115.372 36.8499 125.918 47.3959 138.807 47.3959C151.697 47.3959 162.243 36.8499 162.243 23.9603C162.243 11.0708 151.697 0.52478 138.807 0.52478ZM154.041 16.0508C155.212 16.0508 156.091 16.9297 157.263 16.9297C156.384 18.1014 152.576 18.1014 151.404 16.6367C152.283 16.3438 152.869 16.0508 154.041 16.0508ZM118.301 23.9603C118.301 22.7885 118.301 21.6168 118.594 20.1521C118.887 20.1521 119.18 20.445 119.473 20.445C119.473 20.445 119.766 20.7379 119.766 21.0309C119.766 21.9097 120.645 22.4956 121.231 22.4956C123.574 22.7885 124.453 24.8392 126.504 25.425C127.09 25.718 126.797 26.3039 126.504 26.8898C124.746 29.2333 126.211 30.991 127.676 32.4557C129.14 33.6275 129.14 34.7993 129.433 36.5569C129.433 38.6075 129.726 40.9511 130.605 43.0017C123.281 39.4864 118.301 32.4557 118.301 23.9603ZM138.807 44.4664C136.757 44.4664 134.413 44.1735 132.656 43.5876C132.363 43.0017 132.363 42.4158 132.656 41.8299C133.827 39.4864 134.999 37.4358 136.464 35.3852C137.05 34.7993 137.636 34.2134 137.636 33.3345C137.636 32.7487 137.929 31.8698 138.222 31.2839C139.1 29.8192 138.807 28.9404 137.636 28.6474C135.292 28.0615 134.12 26.0109 132.363 25.1321C130.605 24.2533 128.847 23.6674 127.383 24.5462C126.797 24.8392 125.918 25.1321 125.918 24.2533C125.918 23.0815 124.453 22.2027 124.746 21.0309C124.453 21.0309 124.16 21.0309 123.867 21.3238C123.574 21.6168 123.281 21.9097 122.695 21.6168C122.11 21.0309 122.403 20.445 122.403 19.8591C122.695 19.2732 122.988 18.9803 123.574 18.6873C124.746 18.3944 125.918 18.3944 126.504 19.8591C127.383 17.2226 129.14 15.7579 130.898 14.5861C130.898 14.5861 133.241 12.5355 133.534 12.5355C133.827 12.5355 134.12 13.1214 134.706 13.4143C135.292 13.4143 135.585 13.4143 135.585 12.8284C135.878 11.3637 134.999 9.60605 133.827 9.31311C133.827 9.02017 134.12 9.02017 134.12 9.02017C134.999 8.72722 136.171 8.14133 135.878 7.2625C135.878 6.09072 134.706 5.50483 133.534 5.50483C132.949 5.50483 132.363 5.50483 131.777 5.79778C130.605 6.38367 129.14 6.96956 127.383 6.96956C130.605 4.626 134.706 3.45422 138.807 3.45422C139.686 3.45422 140.272 3.45422 141.151 3.45422C139.393 3.74717 137.636 4.33306 136.464 4.91894C138.222 5.21189 138.514 6.09072 137.929 7.55544C137.636 8.14133 137.929 8.72722 138.514 9.02017C139.1 9.31311 139.686 9.31311 139.979 8.72722C140.565 7.84839 141.737 7.55544 142.616 7.2625C143.787 6.96956 144.666 6.38367 145.545 5.21189C145.545 4.91894 145.838 4.91895 146.131 4.626C147.889 5.21189 149.646 6.38367 151.404 7.55544C151.111 7.55544 151.111 7.84839 150.818 7.84839C150.232 8.43428 149.353 8.72722 150.232 9.899C150.525 10.4849 150.232 10.7778 149.939 11.0708C149.353 11.3637 149.06 11.0708 148.768 10.7778C148.475 10.4849 148.475 9.899 147.596 9.899C147.303 10.4849 146.424 10.7778 146.424 11.6567C147.889 11.6567 147.596 12.8284 147.889 13.7073C146.131 14.0002 145.545 14.8791 146.424 16.3438C146.717 16.9297 146.131 17.2226 145.838 17.5156C144.666 19.2732 143.495 20.445 143.495 22.4956C143.495 24.5462 144.959 26.5968 147.303 26.3039C149.939 26.0109 149.939 26.0109 150.818 28.3545C150.818 28.6474 151.111 28.9404 151.111 29.2333C151.404 29.8192 151.697 30.4051 151.404 30.991C150.525 33.3345 151.697 35.0922 152.576 36.8499C152.869 37.4358 153.162 37.7287 153.455 38.0217C149.646 42.1229 144.666 44.4664 138.807 44.4664Z" fill="#F4AD93"/>
<path d="M79.4146 11.486L82.9846 8.68601C78.8546 4.13601 74.0246 2.03601 68.2846 2.10601C60.1646 2.246 54.4946 7.146 54.5646 14.076C54.5646 19.956 58.2746 24.016 65.5546 26.116L70.4546 27.586C75.9846 29.196 78.1546 31.506 78.2246 35.566C78.2946 40.186 74.5846 43.336 69.0546 43.406C64.6446 43.476 60.2346 41.656 56.8746 38.436L53.0946 41.376C57.2946 45.786 62.6846 47.886 68.9846 47.886C77.3846 47.886 83.2646 42.706 83.2646 35.496C83.1946 29.476 79.5546 25.416 72.3446 23.316L67.2346 21.846C62.0546 20.376 59.6046 17.926 59.6046 14.146C59.5346 9.736 63.1046 6.796 68.5646 6.72601C72.4846 6.72601 75.9846 8.26601 79.4146 11.486Z" fill="#2792AB"/>
<path d="M24.2113 0.52478C11.3218 0.52478 0.775757 11.0708 0.775757 23.9603C0.775757 36.8499 11.3218 47.3959 24.2113 47.3959C37.1009 47.3959 47.6468 36.8499 47.6468 23.9603C47.6468 11.0708 37.1009 0.52478 24.2113 0.52478ZM39.4444 16.0508C40.6162 16.0508 41.495 16.9297 42.6668 16.9297C41.788 18.1014 37.9797 18.1014 36.8079 16.6367C37.6867 16.3438 38.2726 16.0508 39.4444 16.0508ZM3.7052 23.9603C3.7052 22.7885 3.7052 21.6168 3.99814 20.1521C4.29109 20.1521 4.58403 20.445 4.87698 20.445C4.87698 20.445 5.16992 20.7379 5.16992 21.0309C5.16992 21.9097 6.04875 22.4956 6.63464 22.4956C8.9782 22.7885 9.85703 24.8392 11.9076 25.425C12.4935 25.718 12.2006 26.3039 11.9076 26.8898C10.15 29.2333 11.6147 30.991 13.0794 32.4557C14.5441 33.6275 14.5441 34.7993 14.8371 36.5569C14.8371 38.6075 15.13 40.9511 16.0089 43.0017C8.68525 39.4864 3.7052 32.4557 3.7052 23.9603ZM24.2113 44.4664C22.1607 44.4664 19.8171 44.1735 18.0595 43.5876C17.7665 43.0017 17.7665 42.4158 18.0595 41.8299C19.2312 39.4864 20.403 37.4358 21.8677 35.3852C22.4536 34.7993 23.0395 34.2134 23.0395 33.3345C23.0395 32.7487 23.3325 31.8698 23.6254 31.2839C24.5042 29.8192 24.2113 28.9404 23.0395 28.6474C20.696 28.0615 19.5242 26.0109 17.7665 25.1321C16.0089 24.2533 14.2512 23.6674 12.7865 24.5462C12.2006 24.8392 11.3218 25.1321 11.3218 24.2533C11.3218 23.0815 9.85703 22.2027 10.15 21.0309C9.85703 21.0309 9.56409 21.0309 9.27114 21.3238C8.9782 21.6168 8.68525 21.9097 8.09936 21.6168C7.51348 21.0309 7.80642 20.445 7.80642 19.8591C8.09937 19.2732 8.39231 18.9803 8.9782 18.6873C10.15 18.3944 11.3218 18.3944 11.9076 19.8591C12.7865 17.2226 14.5441 15.7579 16.3018 14.5861C16.3018 14.5861 18.6454 12.5355 18.9383 12.5355C19.2312 12.5355 19.5242 13.1214 20.1101 13.4143C20.696 13.4143 20.9889 13.4143 20.9889 12.8284C21.2819 11.3637 20.403 9.60605 19.2312 9.31311C19.2312 9.02017 19.5242 9.02017 19.5242 9.02017C20.403 8.72722 21.5748 8.14133 21.2819 7.2625C21.2819 6.09072 20.1101 5.50483 18.9383 5.50483C18.3524 5.50483 17.7665 5.50483 17.1806 5.79778C16.0089 6.38367 14.5441 6.96956 12.7865 6.96956C16.0089 4.626 20.1101 3.45422 24.2113 3.45422C25.0901 3.45422 25.676 3.45422 26.5549 3.45422C24.7972 3.74717 23.0395 4.33306 21.8677 4.91894C23.6254 5.21189 23.9184 6.09072 23.3325 7.55544C23.0395 8.14133 23.3325 8.72722 23.9184 9.02017C24.5042 9.31311 25.0901 9.31311 25.3831 8.72722C25.969 7.84839 27.1407 7.55544 28.0196 7.2625C29.1914 6.96956 30.0702 6.38367 30.949 5.21189C30.949 4.91894 31.242 4.91895 31.5349 4.626C33.2926 5.21189 35.0502 6.38367 36.8079 7.55544C36.515 7.55544 36.515 7.84839 36.222 7.84839C35.6361 8.43428 34.7573 8.72722 35.6361 9.899C35.9291 10.4849 35.6361 10.7778 35.3432 11.0708C34.7573 11.3637 34.4644 11.0708 34.1714 10.7778C33.8785 10.4849 33.8785 9.899 32.9996 9.899C32.7067 10.4849 31.8279 10.7778 31.8279 11.6567C33.2926 11.6567 32.9996 12.8284 33.2926 13.7073C31.5349 14.0002 30.949 14.8791 31.8279 16.3438C32.1208 16.9297 31.5349 17.2226 31.242 17.5156C30.0702 19.2732 28.8984 20.445 28.8984 22.4956C28.8984 24.5462 30.3631 26.5968 32.7067 26.3039C35.3432 26.0109 35.3432 26.0109 36.222 28.3545C36.222 28.6474 36.515 28.9404 36.515 29.2333C36.8079 29.8192 37.1009 30.4051 36.8079 30.991C35.9291 33.3345 37.1009 35.0922 37.9797 36.8499C38.2726 37.4358 38.5656 37.7287 38.8585 38.0217C35.0502 42.1229 30.0702 44.4664 24.2113 44.4664Z" fill="#2792AB"/>
</svg>
