<svg width="513" height="215" viewBox="0 0 513 215" fill="none" xmlns="http://www.w3.org/2000/svg">
<rect x="0.968719" y="0.813049" width="510.924" height="212.946" fill="white" stroke="#D1D1D1"/>
<path d="M18.8742 120.7H22.8742V110.42H30.1142C35.5542 110.42 38.6342 106.66 38.6342 102.22C38.6342 97.78 35.5942 94.02 30.1142 94.02H18.8742V120.7ZM34.5142 102.22C34.5142 105.02 32.4742 106.9 29.5942 106.9H22.8742V97.54H29.5942C32.4742 97.54 34.5142 99.42 34.5142 102.22ZM44.6613 120.7H48.2613V107.26C49.1013 105.82 51.5413 104.46 53.3413 104.46C53.8213 104.46 54.2213 104.5 54.5813 104.58V100.94C52.0213 100.94 49.7413 102.42 48.2613 104.34V101.38H44.6613V120.7ZM68.737 121.18C74.777 121.18 78.497 116.62 78.497 111.02C78.497 105.46 74.777 100.9 68.737 100.9C62.737 100.9 58.977 105.46 58.977 111.02C58.977 116.62 62.737 121.18 68.737 121.18ZM68.737 117.98C64.897 117.98 62.737 114.7 62.737 111.02C62.737 107.38 64.897 104.1 68.737 104.1C72.617 104.1 74.737 107.38 74.737 111.02C74.737 114.7 72.617 117.98 68.737 117.98ZM96.2948 120.7H100.375L93.0948 110.78L99.9348 101.38H95.8548L90.8948 108.34L85.8948 101.38H81.8148L88.6148 110.78L81.3748 120.7H85.4548L90.8948 113.18L96.2948 120.7ZM107.343 98.14C108.623 98.14 109.663 97.14 109.663 95.86C109.663 94.58 108.623 93.54 107.343 93.54C106.103 93.54 105.023 94.58 105.023 95.86C105.023 97.14 106.103 98.14 107.343 98.14ZM105.583 120.7H109.183V101.38H105.583V120.7ZM140.399 120.7H143.999V106.74C143.999 102.86 142.079 100.9 138.519 100.9C135.679 100.9 133.119 102.7 131.999 104.5C131.399 102.42 129.679 100.9 126.759 100.9C123.879 100.9 121.319 102.9 120.519 104.1V101.38H116.919V120.7H120.519V106.9C121.479 105.5 123.359 104.1 125.239 104.1C127.679 104.1 128.639 105.58 128.639 107.82V120.7H132.239V106.86C133.159 105.46 135.079 104.1 137.039 104.1C139.399 104.1 140.399 105.58 140.399 107.82V120.7ZM163.652 120.7H167.252V107.66C167.252 102.74 163.692 100.9 159.492 100.9C156.372 100.9 153.732 101.94 151.572 104.06L153.132 106.54C154.852 104.82 156.732 103.98 158.932 103.98C161.692 103.98 163.652 105.42 163.652 107.82V111.02C162.172 109.3 159.932 108.46 157.332 108.46C154.092 108.46 150.612 110.38 150.612 114.78C150.612 119.02 154.132 121.18 157.332 121.18C159.932 121.18 162.132 120.26 163.652 118.58V120.7ZM163.652 116.46C162.572 117.9 160.692 118.66 158.692 118.66C156.092 118.66 154.252 117.1 154.252 114.82C154.252 112.54 156.092 110.98 158.692 110.98C160.692 110.98 162.572 111.74 163.652 113.18V116.46ZM206.173 120.7H210.053V94.02H206.053V114.02L191.533 94.02H187.413V120.7H191.413V100.22L206.173 120.7ZM226.448 121.18C232.488 121.18 236.208 116.62 236.208 111.02C236.208 105.46 232.488 100.9 226.448 100.9C220.448 100.9 216.688 105.46 216.688 111.02C216.688 116.62 220.448 121.18 226.448 121.18ZM226.448 117.98C222.608 117.98 220.448 114.7 220.448 111.02C220.448 107.38 222.608 104.1 226.448 104.1C230.328 104.1 232.448 107.38 232.448 111.02C232.448 114.7 230.328 117.98 226.448 117.98ZM247.899 120.7H251.779L259.739 101.38H255.859L249.819 116.54L243.779 101.38H239.939L247.899 120.7ZM276.581 120.7H280.181V107.66C280.181 102.74 276.621 100.9 272.421 100.9C269.301 100.9 266.661 101.94 264.501 104.06L266.061 106.54C267.781 104.82 269.661 103.98 271.861 103.98C274.621 103.98 276.581 105.42 276.581 107.82V111.02C275.101 109.3 272.861 108.46 270.261 108.46C267.021 108.46 263.541 110.38 263.541 114.78C263.541 119.02 267.061 121.18 270.261 121.18C272.861 121.18 275.061 120.26 276.581 118.58V120.7ZM276.581 116.46C275.501 117.9 273.621 118.66 271.621 118.66C269.021 118.66 267.181 117.1 267.181 114.82C267.181 112.54 269.021 110.98 271.621 110.98C273.621 110.98 275.501 111.74 276.581 113.18V116.46ZM323.303 120.7H327.303V94.02H321.583L313.823 113.18L306.063 94.02H300.343V120.7H304.343V99.5L312.983 120.7H314.663L323.303 99.5V120.7ZM333.954 111.02C333.954 117.1 338.194 121.18 343.954 121.18C347.074 121.18 349.794 120.18 351.714 118.3L350.034 115.94C348.594 117.42 346.354 118.22 344.314 118.22C340.434 118.22 338.034 115.5 337.754 112.22H353.034V111.34C353.034 105.42 349.434 100.9 343.634 100.9C337.994 100.9 333.954 105.42 333.954 111.02ZM343.634 103.86C347.714 103.86 349.434 107.06 349.514 109.62H337.714C337.914 106.98 339.754 103.86 343.634 103.86ZM373.296 120.7H376.896V94.02H373.296V104.18C371.736 102.1 369.456 100.9 366.976 100.9C361.936 100.9 358.336 104.86 358.336 111.06C358.336 117.38 361.936 121.18 366.976 121.18C369.536 121.18 371.856 119.86 373.296 117.94V120.7ZM373.296 115.18C372.296 116.74 370.136 117.98 367.936 117.98C364.336 117.98 362.096 115.06 362.096 111.06C362.096 107.02 364.336 104.1 367.936 104.1C370.136 104.1 372.296 105.38 373.296 106.94V115.18ZM386.421 98.14C387.701 98.14 388.741 97.14 388.741 95.86C388.741 94.58 387.701 93.54 386.421 93.54C385.181 93.54 384.101 94.58 384.101 95.86C384.101 97.14 385.181 98.14 386.421 98.14ZM384.661 120.7H388.261V101.38H384.661V120.7ZM409.037 120.7H412.637V101.38H409.037V115.26C407.957 116.7 405.917 117.98 403.677 117.98C401.197 117.98 399.597 117.02 399.597 113.82V101.38H395.997V115.02C395.997 119.1 398.037 121.18 402.157 121.18C405.117 121.18 407.557 119.66 409.037 118.06V120.7ZM443.821 120.7H447.421V106.74C447.421 102.86 445.501 100.9 441.941 100.9C439.101 100.9 436.541 102.7 435.421 104.5C434.821 102.42 433.101 100.9 430.181 100.9C427.301 100.9 424.741 102.9 423.941 104.1V101.38H420.341V120.7H423.941V106.9C424.901 105.5 426.781 104.1 428.661 104.1C431.101 104.1 432.061 105.58 432.061 107.82V120.7H435.661V106.86C436.581 105.46 438.501 104.1 440.461 104.1C442.821 104.1 443.821 105.58 443.821 107.82V120.7Z" fill="black"/>
<path d="M19.8748 60.4167H22.1548V49.3367H29.8748C34.9548 49.3367 37.9148 45.7367 37.9148 41.5367C37.9148 37.3367 34.9948 33.7367 29.8748 33.7367H19.8748V60.4167ZM35.5148 41.5367C35.5148 44.8967 33.1548 47.2567 29.6348 47.2567H22.1548V35.8167H29.6348C33.1548 35.8167 35.5148 38.1767 35.5148 41.5367ZM44.6463 60.4167H46.7263V46.3367C47.6063 44.6567 50.2463 42.8967 52.2063 42.8967C52.6063 42.8967 52.8863 42.9367 53.2463 42.9767V40.6967C50.5663 40.6967 48.3663 42.2567 46.7263 44.4167V41.0967H44.6463V60.4167ZM67.5017 60.8967C73.2217 60.8967 76.8217 56.3767 76.8217 50.7367C76.8217 45.0967 73.2217 40.6167 67.5017 40.6167C61.8617 40.6167 58.2217 45.0967 58.2217 50.7367C58.2217 56.3767 61.8617 60.8967 67.5017 60.8967ZM67.5017 59.0167C63.0217 59.0167 60.4617 55.0567 60.4617 50.7367C60.4617 46.4567 63.0217 42.4967 67.5017 42.4967C72.0617 42.4967 74.5817 46.4567 74.5817 50.7367C74.5817 55.0567 72.0617 59.0167 67.5017 59.0167ZM95.5079 60.4167H97.9879L90.3479 50.4967L97.5479 41.0967H95.0679L89.1079 49.0567L83.1079 41.0967H80.6279L87.8279 50.4967L80.1879 60.4167H82.6679L89.1079 51.8967L95.5079 60.4167ZM104.929 37.8167C105.809 37.8167 106.529 37.0967 106.529 36.2167C106.529 35.3367 105.809 34.6167 104.929 34.6167C104.089 34.6167 103.329 35.3367 103.329 36.2167C103.329 37.0967 104.089 37.8167 104.929 37.8167ZM103.889 60.4167H105.969V41.0967H103.889V60.4167ZM137.443 60.4167H139.523V46.4967C139.523 42.6167 137.803 40.6167 134.243 40.6167C131.523 40.6167 128.923 42.4567 127.843 44.2567C127.363 42.3767 125.763 40.6167 122.763 40.6167C119.963 40.6167 117.323 42.7767 116.523 44.0167V41.0967H114.443V60.4167H116.523V45.8167C117.683 44.0567 120.003 42.4967 122.043 42.4967C124.803 42.4967 125.923 44.1767 125.923 46.8967V60.4167H128.043V45.7767C129.123 44.0167 131.483 42.4967 133.563 42.4967C136.283 42.4967 137.443 44.1767 137.443 46.8967V60.4167ZM160.286 60.4167H162.366V46.8167C162.366 42.4967 159.246 40.6167 155.286 40.6167C152.126 40.6167 149.886 41.6967 147.886 43.8967L149.046 45.2967C150.806 43.2967 152.686 42.4567 155.086 42.4567C157.966 42.4567 160.286 44.0567 160.286 46.8967V50.8167C158.566 48.9367 156.406 48.0967 153.726 48.0967C150.366 48.0967 146.966 50.2567 146.966 54.4567C146.966 58.6167 150.406 60.8967 153.726 60.8967C156.406 60.8967 158.566 60.0167 160.286 58.1367V60.4167ZM160.286 56.6167C158.926 58.3767 156.766 59.2567 154.446 59.2567C151.246 59.2567 149.166 57.2167 149.166 54.4967C149.166 51.7767 151.246 49.6967 154.446 49.6967C156.766 49.6967 158.926 50.6167 160.286 52.3767V56.6167ZM202.377 60.4167H204.617V33.7367H202.337V56.4567L185.617 33.7367H183.297V60.4167H185.577V37.3767L202.377 60.4167ZM221.345 60.8967C227.065 60.8967 230.665 56.3767 230.665 50.7367C230.665 45.0967 227.065 40.6167 221.345 40.6167C215.705 40.6167 212.065 45.0967 212.065 50.7367C212.065 56.3767 215.705 60.8967 221.345 60.8967ZM221.345 59.0167C216.865 59.0167 214.305 55.0567 214.305 50.7367C214.305 46.4567 216.865 42.4967 221.345 42.4967C225.905 42.4967 228.425 46.4567 228.425 50.7367C228.425 55.0567 225.905 59.0167 221.345 59.0167ZM243.237 60.4167H245.597L253.757 41.0967H251.397L244.397 57.9767L237.397 41.0967H235.077L243.237 60.4167ZM271.575 60.4167H273.655V46.8167C273.655 42.4967 270.535 40.6167 266.575 40.6167C263.415 40.6167 261.175 41.6967 259.175 43.8967L260.335 45.2967C262.095 43.2967 263.975 42.4567 266.375 42.4567C269.255 42.4567 271.575 44.0567 271.575 46.8967V50.8167C269.855 48.9367 267.695 48.0967 265.015 48.0967C261.655 48.0967 258.255 50.2567 258.255 54.4567C258.255 58.6167 261.695 60.8967 265.015 60.8967C267.695 60.8967 269.855 60.0167 271.575 58.1367V60.4167ZM271.575 56.6167C270.215 58.3767 268.055 59.2567 265.735 59.2567C262.535 59.2567 260.455 57.2167 260.455 54.4967C260.455 51.7767 262.535 49.6967 265.735 49.6967C268.055 49.6967 270.215 50.6167 271.575 52.3767V56.6167ZM294.586 60.4167H309.786V58.3367H296.866V33.7367H294.586V60.4167ZM317.702 37.8167C318.582 37.8167 319.302 37.0967 319.302 36.2167C319.302 35.3367 318.582 34.6167 317.702 34.6167C316.862 34.6167 316.102 35.3367 316.102 36.2167C316.102 37.0967 316.862 37.8167 317.702 37.8167ZM316.662 60.4167H318.742V41.0967H316.662V60.4167ZM327.257 65.3367C329.537 67.6567 331.617 68.2567 334.857 68.2567C339.577 68.2567 343.577 66.1367 343.577 60.2167V41.0967H341.457V44.2167C339.897 42.0167 337.457 40.6167 334.737 40.6167C329.617 40.6167 326.097 44.6167 326.097 50.7367C326.097 56.9367 329.617 60.8167 334.737 60.8167C337.617 60.8167 340.097 59.1767 341.457 57.2167V60.2567C341.457 64.6967 338.377 66.4567 334.857 66.4567C331.977 66.4567 330.097 65.7367 328.457 63.7367L327.257 65.3367ZM341.457 55.4167C340.337 57.2967 337.777 58.9367 335.097 58.9367C330.817 58.9367 328.337 55.4167 328.337 50.7367C328.337 46.0567 330.817 42.4967 335.097 42.4967C337.777 42.4967 340.337 44.1367 341.457 46.0167V55.4167ZM365.069 60.4167H367.149V46.8167C367.149 42.4567 364.989 40.6167 361.069 40.6167C358.269 40.6167 355.509 42.3367 354.109 44.0167V33.7367H352.029V60.4167H354.109V45.8167C355.349 44.0967 357.909 42.4967 360.389 42.4967C363.189 42.4967 365.069 43.5367 365.069 47.2567V60.4167ZM379.831 60.8967C381.431 60.8967 382.351 60.4167 383.111 59.6967L382.311 58.0967C381.871 58.5767 381.071 59.0167 380.151 59.0167C378.791 59.0167 378.151 57.9367 378.151 56.3767V42.9767H382.071V41.0967H378.151V35.8167H376.031V41.0967H372.831V42.9767H376.031V56.6967C376.031 59.3367 377.271 60.8967 379.831 60.8967Z" fill="black"/>
<path d="M16.8366 185.641H21.5166V175.681H28.5566C34.1166 175.681 37.2766 171.841 37.2766 167.321C37.2766 162.801 34.1566 158.961 28.5566 158.961H16.8366V185.641ZM32.4766 167.321C32.4766 169.881 30.5566 171.561 27.9166 171.561H21.5166V163.081H27.9166C30.5566 163.081 32.4766 164.761 32.4766 167.321ZM43.0525 185.641H47.2525V172.481C48.0925 171.121 50.4525 169.921 52.2125 169.921C52.7325 169.921 53.1725 169.961 53.5325 170.041V165.881C51.0125 165.881 48.6925 167.321 47.2525 169.161V166.321H43.0525V185.641ZM67.6397 186.121C73.8397 186.121 77.5997 181.521 77.5997 175.961C77.5997 170.441 73.8397 165.841 67.6397 165.841C61.5197 165.841 57.7197 170.441 57.7197 175.961C57.7197 181.521 61.5197 186.121 67.6397 186.121ZM67.6397 182.401C64.0797 182.401 62.0797 179.401 62.0797 175.961C62.0797 172.561 64.0797 169.561 67.6397 169.561C71.2397 169.561 73.2397 172.561 73.2397 175.961C73.2397 179.401 71.2397 182.401 67.6397 182.401ZM95.0337 185.641H99.7537L92.6337 175.721L99.3137 166.321H94.5937L90.0337 172.881L85.4337 166.321H80.7137L87.3937 175.721L80.3137 185.641H84.9937L90.0337 178.521L95.0337 185.641ZM106.757 163.121C108.197 163.121 109.357 161.961 109.357 160.521C109.357 159.081 108.197 157.921 106.757 157.921C105.357 157.921 104.157 159.081 104.157 160.521C104.157 161.961 105.357 163.121 106.757 163.121ZM104.677 185.641H108.877V166.321H104.677V185.641ZM140.006 185.641H144.206V171.681C144.206 167.761 142.206 165.841 138.646 165.841C135.766 165.841 133.206 167.641 132.086 169.401C131.446 167.281 129.686 165.841 126.806 165.841C123.886 165.841 121.326 167.761 120.526 168.961V166.321H116.326V185.641H120.526V172.161C121.406 170.881 123.126 169.561 124.966 169.561C127.246 169.561 128.166 170.961 128.166 173.041V185.641H132.366V172.121C133.206 170.881 134.966 169.561 136.846 169.561C139.086 169.561 140.006 170.961 140.006 173.041V185.641ZM163.446 185.641H167.646V172.841C167.646 167.641 163.886 165.841 159.606 165.841C156.526 165.841 153.726 166.841 151.486 168.961L153.206 171.881C154.886 170.241 156.766 169.441 158.926 169.441C161.606 169.441 163.446 170.801 163.446 173.041V175.921C162.046 174.281 159.806 173.441 157.206 173.441C154.046 173.441 150.486 175.281 150.486 179.721C150.486 184.001 154.046 186.121 157.206 186.121C159.766 186.121 162.006 185.201 163.446 183.561V185.641ZM163.446 181.241C162.486 182.561 160.686 183.241 158.846 183.241C156.486 183.241 154.726 181.881 154.726 179.801C154.726 177.681 156.486 176.321 158.846 176.321C160.686 176.321 162.486 177.001 163.446 178.321V181.241ZM206.085 185.641H210.605V158.961H205.925V177.881L192.285 158.961H187.485V185.641H192.165V166.201L206.085 185.641ZM226.874 186.121C233.074 186.121 236.834 181.521 236.834 175.961C236.834 170.441 233.074 165.841 226.874 165.841C220.754 165.841 216.954 170.441 216.954 175.961C216.954 181.521 220.754 186.121 226.874 186.121ZM226.874 182.401C223.314 182.401 221.314 179.401 221.314 175.961C221.314 172.561 223.314 169.561 226.874 169.561C230.474 169.561 232.474 172.561 232.474 175.961C232.474 179.401 230.474 182.401 226.874 182.401ZM248.164 185.641H252.684L260.564 166.321H256.044L250.404 180.801L244.764 166.321H240.284L248.164 185.641ZM277.001 185.641H281.201V172.841C281.201 167.641 277.441 165.841 273.161 165.841C270.081 165.841 267.281 166.841 265.041 168.961L266.761 171.881C268.441 170.241 270.321 169.441 272.481 169.441C275.161 169.441 277.001 170.801 277.001 173.041V175.921C275.601 174.281 273.361 173.441 270.761 173.441C267.601 173.441 264.041 175.281 264.041 179.721C264.041 184.001 267.601 186.121 270.761 186.121C273.321 186.121 275.561 185.201 277.001 183.561V185.641ZM277.001 181.241C276.041 182.561 274.241 183.241 272.401 183.241C270.041 183.241 268.281 181.881 268.281 179.801C268.281 177.681 270.041 176.321 272.401 176.321C274.241 176.321 276.041 177.001 277.001 178.321V181.241ZM299.32 181.881C301.68 184.401 305.24 186.121 310.16 186.121C317.36 186.121 320.48 182.321 320.48 177.881C320.48 172.081 315.24 170.721 310.84 169.601C307.68 168.801 304.96 168.121 304.96 166.041C304.96 164.041 306.72 162.721 309.48 162.721C312.28 162.721 315.12 163.681 317.2 165.761L319.88 162.281C317.4 159.881 314.04 158.561 309.88 158.561C304.04 158.561 300.16 161.961 300.16 166.361C300.16 172.001 305.28 173.281 309.64 174.361C312.88 175.201 315.72 175.921 315.72 178.321C315.72 180.081 314.2 181.961 310.36 181.961C306.64 181.961 303.76 180.241 301.92 178.281L299.32 181.881ZM325.47 175.961C325.47 182.081 329.79 186.121 335.59 186.121C338.67 186.121 341.51 185.161 343.43 183.321L341.51 180.561C340.15 181.921 337.91 182.681 336.03 182.681C332.39 182.681 330.19 180.281 329.87 177.361H344.79V176.361C344.79 170.281 341.07 165.841 335.27 165.841C329.55 165.841 325.47 170.361 325.47 175.961ZM335.27 169.281C339.07 169.281 340.63 172.121 340.71 174.401H329.83C330.03 172.041 331.67 169.281 335.27 169.281ZM374.615 185.641H378.815V171.681C378.815 167.761 376.815 165.841 373.255 165.841C370.375 165.841 367.815 167.641 366.695 169.401C366.055 167.281 364.295 165.841 361.415 165.841C358.495 165.841 355.935 167.761 355.135 168.961V166.321H350.935V185.641H355.135V172.161C356.015 170.881 357.735 169.561 359.575 169.561C361.855 169.561 362.775 170.961 362.775 173.041V185.641H366.975V172.121C367.815 170.881 369.575 169.561 371.455 169.561C373.695 169.561 374.615 170.961 374.615 173.041V185.641ZM388.336 163.121C389.776 163.121 390.936 161.961 390.936 160.521C390.936 159.081 389.776 157.921 388.336 157.921C386.936 157.921 385.736 159.081 385.736 160.521C385.736 161.961 386.936 163.121 388.336 163.121ZM386.256 185.641H390.456V166.321H386.256V185.641ZM397.904 185.641H402.104V183.001C403.584 184.921 405.784 186.121 408.304 186.121C413.224 186.121 416.864 182.361 416.864 176.001C416.864 169.761 413.264 165.841 408.304 165.841C405.864 165.841 403.624 166.961 402.104 169.001V158.961H397.904V185.641ZM402.104 179.841V172.201C403.024 170.761 405.104 169.561 407.064 169.561C410.424 169.561 412.544 172.241 412.544 176.001C412.544 179.761 410.424 182.401 407.064 182.401C405.104 182.401 403.024 181.281 402.104 179.841ZM431.866 186.121C438.066 186.121 441.826 181.521 441.826 175.961C441.826 170.441 438.066 165.841 431.866 165.841C425.746 165.841 421.946 170.441 421.946 175.961C421.946 181.521 425.746 186.121 431.866 186.121ZM431.866 182.401C428.306 182.401 426.306 179.401 426.306 175.961C426.306 172.561 428.306 169.561 431.866 169.561C435.466 169.561 437.466 172.561 437.466 175.961C437.466 179.401 435.466 182.401 431.866 182.401ZM448.076 185.641H452.276V158.961H448.076V185.641ZM473.324 185.641H477.524V158.961H473.324V169.001C471.764 166.961 469.524 165.841 467.124 165.841C462.124 165.841 458.524 169.761 458.524 176.001C458.524 182.361 462.164 186.121 467.124 186.121C469.604 186.121 471.844 184.921 473.324 183.001V185.641ZM473.324 179.841C472.364 181.281 470.324 182.401 468.324 182.401C465.004 182.401 462.884 179.721 462.884 176.001C462.884 172.241 465.004 169.561 468.324 169.561C470.324 169.561 472.364 170.721 473.324 172.161V179.841Z" fill="black"/>
</svg>
