<svg xmlns="http://www.w3.org/2000/svg" xmlns:xlink="http://www.w3.org/1999/xlink" width="375" height="812" viewBox="0 0 375 812">
  <defs>
    <clipPath id="clip-path">
      <rect id="Mask" width="374.504" height="63.643" transform="translate(374.504 63.643) rotate(180)" fill="#9b9b9b"/>
    </clipPath>
    <filter id="Path" x="-23.704" y="726.256" width="422.704" height="108.687" filterUnits="userSpaceOnUse">
      <feOffset dy="-1" input="SourceAlpha"/>
      <feGaussianBlur stdDeviation="8" result="blur"/>
      <feFlood flood-opacity="0.11"/>
      <feComposite operator="in" in2="blur"/>
      <feComposite in="SourceGraphic"/>
    </filter>
    <filter id="Rectangle_7" x="2.944" y="494.398" width="148.556" height="98.141" filterUnits="userSpaceOnUse">
      <feOffset dy="7" input="SourceAlpha"/>
      <feGaussianBlur stdDeviation="6.5" result="blur-2"/>
      <feFlood flood-opacity="0.051"/>
      <feComposite operator="in" in2="blur-2"/>
      <feComposite in="SourceGraphic"/>
    </filter>
    <filter id="Rectangle_7-2" x="128.944" y="494.398" width="148.556" height="98.141" filterUnits="userSpaceOnUse">
      <feOffset dy="7" input="SourceAlpha"/>
      <feGaussianBlur stdDeviation="6.5" result="blur-3"/>
      <feFlood flood-opacity="0.051"/>
      <feComposite operator="in" in2="blur-3"/>
      <feComposite in="SourceGraphic"/>
    </filter>
    <filter id="Rectangle_7-3" x="254.944" y="494.398" width="148.556" height="98.141" filterUnits="userSpaceOnUse">
      <feOffset dy="7" input="SourceAlpha"/>
      <feGaussianBlur stdDeviation="6.5" result="blur-4"/>
      <feFlood flood-opacity="0.051"/>
      <feComposite operator="in" in2="blur-4"/>
      <feComposite in="SourceGraphic"/>
    </filter>
    <clipPath id="clip-User_s_account">
      <rect width="375" height="812"/>
    </clipPath>
  </defs>
  <g id="User_s_account" data-name="User’s account" clip-path="url(#clip-User_s_account)">
    <rect width="375" height="812" fill="#fff"/>
    <g id="Rectangle_8" data-name="Rectangle 8" transform="translate(0 140)" fill="#fff" stroke="#707070" stroke-width="1">
      <rect width="375" height="174" stroke="none"/>
      <rect x="0.5" y="0.5" width="374" height="173" fill="none"/>
    </g>
    <g id="nav_bar" data-name="nav bar" transform="translate(374.504 -6.798) rotate(180)">
      <g id="Group_24" data-name="Group 24" transform="translate(0 -70.441)">
        <g id="nav_bar-2" data-name="nav bar">
          <g id="Group_23" data-name="Group 23">
            <g id="ui_pic" data-name="ui/pic">
              <rect id="Mask-2" data-name="Mask" width="374.504" height="63.643" transform="translate(374.504 63.643) rotate(180)" fill="#9b9b9b"/>
            </g>
          </g>
        </g>
        <text id="Connect" transform="translate(341.215 30.237) rotate(180)" fill="#fff" font-size="15" font-family="SFProDisplay-Medium, SF Pro Display" font-weight="500"><tspan x="104.843" y="14">Lauren’s Profile</tspan></text>
      </g>
    </g>
    <g id="Group" transform="translate(0.296 751.256)">
      <g transform="matrix(1, 0, 0, 1, -0.3, -751.26)" filter="url(#Path)">
        <path id="Path-2" data-name="Path" d="M374.7,0V60.686H0V0Z" transform="translate(0.3 751.26)" fill="#fff"/>
      </g>
      <g id="Group_3" data-name="Group 3" transform="translate(23.624 10.256)">
        <g id="Group_2" data-name="Group 2">
          <g id="Group_4" data-name="Group 4" transform="translate(290.823)">
            <g id="home" transform="translate(8.06)">
              <rect id="Rectangle" width="21.877" height="21.877" rx="5.373" fill="#b3b3b3"/>
            </g>
          </g>
          <g id="Group_8" data-name="Group 8" transform="translate(218.239)">
            <g id="Group_5" data-name="Group 5">
              <g id="heart" transform="translate(8.06)">
                <rect id="Rectangle-2" data-name="Rectangle" width="21.877" height="21.877" rx="5.373" fill="#b3b3b3"/>
              </g>
            </g>
          </g>
          <g id="Group_6" data-name="Group 6" transform="translate(145.318)">
            <g id="users" transform="translate(7.292)">
              <rect id="Rectangle-3" data-name="Rectangle" width="21.877" height="21.877" rx="5.373" fill="#b3b3b3"/>
            </g>
          </g>
          <g id="Group_9" data-name="Group 9">
            <g id="Group_7" data-name="Group 7">
              <g id="more-horizontal" transform="translate(6.908)">
                <rect id="Rectangle-4" data-name="Rectangle" width="21.877" height="21.877" rx="5.373" fill="#b3b3b3"/>
              </g>
              <text id="Spaces" transform="translate(18.08 41.488)" fill="#050505" font-size="10" font-family="SFProText-Regular, SF Pro Text"><tspan x="-17.263" y="0">Spaces</tspan></text>
              <text id="Connect-2" data-name="Connect" transform="translate(91.08 41.488)" fill="#050505" font-size="10" font-family="SFProText-Regular, SF Pro Text"><tspan x="-19.888" y="0">Connect</tspan></text>
              <text id="Messages" transform="translate(164.08 41.488)" fill="#050505" font-size="10" font-family="SFProText-Regular, SF Pro Text"><tspan x="-23.691" y="0">Messages</tspan></text>
              <text id="Happenings" transform="translate(241.08 41.488)" fill="#050505" font-size="10" font-family="SFProText-Regular, SF Pro Text"><tspan x="-28.149" y="0">Happenings</tspan></text>
              <text id="Profile" transform="translate(309.08 41.488)" fill="#050505" font-size="10" font-family="SFProText-Regular, SF Pro Text"><tspan x="-15.117" y="0">Profile</tspan></text>
            </g>
          </g>
          <g id="Group_9_Copy" data-name="Group 9 Copy" transform="translate(72.735)">
            <g id="Group_7-2" data-name="Group 7">
              <g id="more-horizontal-2" data-name="more-horizontal" transform="translate(6.908)">
                <rect id="Rectangle-5" data-name="Rectangle" width="21.877" height="21.877" rx="5.373" fill="#b3b3b3"/>
              </g>
            </g>
          </g>
        </g>
      </g>
    </g>
    <g id="Illustrations_make_ad" data-name="Illustrations / make ad" transform="translate(142.094 89.815)">
      <g id="Logos_3karatLogo" data-name="Logos / 3karatLogo">
        <ellipse id="Oval" cx="45.16" cy="45.055" rx="45.16" ry="45.055" fill="#d8d8d8"/>
        <path id="photo_icon" data-name="photo icon" d="M19.394,19.062h0A112.972,112.972,0,0,1,4.762,18.04C1.544,17.6.031,17.228,0,16.854c-.025-.307.9-.588,1.962-.913,1.158-.353,2.469-.753,2.8-1.275l.13-.207.007-.011c.989-1.577,2.83-4.512,5.538-5.406a2.277,2.277,0,0,1,.7-.13c.858,0,1.111.726,1.258,1.511.025.134.047.268.068.4.1.6.181,1.115.531,1.115a.626.626,0,0,0,.279-.082,8.853,8.853,0,0,0,1.875-2.4,30.848,30.848,0,0,1,3.078-4.144,6.8,6.8,0,0,1,4.13-2.453,7.173,7.173,0,0,1,.727-.039c3.315,0,4.5,2.616,5.862,5.644.251.555.51,1.13.789,1.705.313.645.633,1.245.943,1.825.994,1.864,1.779,3.335,1.322,4.455a3.292,3.292,0,0,1-2.265,1.595A38.937,38.937,0,0,1,19.394,19.062ZM8.141,6.715a3.357,3.357,0,1,1,3.366-3.358A3.365,3.365,0,0,1,8.141,6.715Z" transform="translate(29.094 35.524)" fill="#a3a3a3"/>
      </g>
    </g>
    <g id="button" transform="translate(49.084 670.099)">
      <g id="Button_Get_Started" data-name="Button/Get Started">
        <g id="Button-2" data-name="Button">
          <rect id="Base" width="276.336" height="50.662" rx="25.331" fill="#9b9b9b"/>
          <text id="Button-3" data-name="Button" transform="translate(27.25 15.722)" fill="#fff" font-size="15.475" font-family="SFProDisplay-Semibold, SF Pro Display" font-weight="600"><tspan x="88.82" y="15">Follow</tspan></text>
        </g>
      </g>
    </g>
    <text id="Lauren" transform="translate(188 206)" fill="#050505" font-size="14" font-family="SFProText-Regular, SF Pro Text"><tspan x="-22.572" y="0">Lauren</tspan></text>
    <text id="Design_-_Product_Designer" data-name="Design - Product Designer" transform="translate(188 235)" fill="#050505" font-size="14" font-family="SFProText-Regular, SF Pro Text"><tspan x="-87.599" y="0">Design - Product Designer</tspan></text>
    <text id="Linkedin.com_lauren" data-name="Linkedin.com/lauren" transform="translate(188 264)" fill="#050505" font-size="14" font-family="SFProText-Regular, SF Pro Text"><tspan x="-66.295" y="0">Linkedin.com/lauren</tspan></text>
    <text id="Recently_checked_in_" data-name="Recently checked in @" transform="translate(100 491)" fill="#050505" font-size="14" font-family="SFProText-Regular, SF Pro Text"><tspan x="-74.655" y="0">Recently checked in @</tspan></text>
    <text id="_This_is_a_tagline_" data-name="“This is a tagline”" transform="translate(188 293)" fill="#050505" font-size="14" font-family="SFProText-Regular, SF Pro Text"><tspan x="-58.321" y="0">“This is a tagline”</tspan></text>
    <text id="Looking_to_collaborate_with_software_developers_app_and_web_social_media_gurus_outside_the_box_marketing_experts._Currently_working_as_a_designer_at_a_startup." data-name="Looking to collaborate with software developers (app and web) social media gurus, outside the box marketing experts. Currently working as a designer at a startup." transform="translate(22 361)" fill="#050505" font-size="14" font-family="SFProText-Regular, SF Pro Text"><tspan x="0" y="13">Looking to collaborate with software developers </tspan><tspan x="0" y="29">(app and web) social media gurus, outside the </tspan><tspan x="0" y="45">box marketing experts. Currently working as a </tspan><tspan x="0" y="61">designer at a startup.</tspan></text>
    <g id="Group_4-2" data-name="Group 4" transform="translate(22.444 506.899)">
      <g transform="matrix(1, 0, 0, 1, -22.44, -506.9)" filter="url(#Rectangle_7)">
        <rect id="Rectangle_7-4" data-name="Rectangle 7" width="109.556" height="59.141" rx="3.838" transform="translate(22.44 506.9)" fill="#d8d8d8"/>
      </g>
      <g id="Group_13" data-name="Group 13" transform="translate(26.177 5.212)">
        <g id="Group_13-2" data-name="Group 13">
          <g id="Group_11" data-name="Group 11">
            <g id="_001-appartment" data-name="001-appartment" transform="translate(3.645)">
              <g id="Logos_3karatLogo-2" data-name="Logos / 3karatLogo">
                <ellipse id="Oval-2" data-name="Oval" cx="25.217" cy="25.086" rx="25.217" ry="25.086" fill="#d8d8d8"/>
                <path id="photo_icon-2" data-name="photo icon" d="M10.829,10.613h0a63.282,63.282,0,0,1-8.17-.569C.862,9.8.017,9.593,0,9.384c-.014-.171.5-.327,1.1-.508.647-.2,1.379-.42,1.563-.711l.076-.121c.552-.878,1.58-2.512,3.093-3.01a1.274,1.274,0,0,1,.392-.072c.479,0,.621.4.7.842.014.074.026.148.038.22.054.334.1.622.3.622A.345.345,0,0,0,7.413,6.6,4.932,4.932,0,0,0,8.459,5.262a17.183,17.183,0,0,1,1.719-2.307,3.8,3.8,0,0,1,2.306-1.366,4.013,4.013,0,0,1,.406-.022c1.851,0,2.51,1.457,3.273,3.144.14.309.284.629.44.949.175.359.354.693.526,1.015.555,1.037.993,1.856.739,2.479a1.836,1.836,0,0,1-1.265.889A21.8,21.8,0,0,1,10.829,10.613ZM4.546,3.739A1.869,1.869,0,1,1,6.425,1.869,1.876,1.876,0,0,1,4.546,3.739Z" transform="translate(16.245 19.779)" fill="#a3a3a3"/>
              </g>
            </g>
            <rect id="Base_Copy_2" data-name="Base Copy 2" width="74.896" height="9.938" rx="4.421" transform="translate(0 68.472)" fill="#9b9b9b"/>
            <rect id="Base_Copy_3" data-name="Base Copy 3" width="49.931" height="5.09" rx="2.545" transform="translate(24.965 87.863)" fill="silver"/>
          </g>
        </g>
      </g>
    </g>
    <g id="Group_4-3" data-name="Group 4" transform="translate(148.444 506.899)">
      <g transform="matrix(1, 0, 0, 1, -148.44, -506.9)" filter="url(#Rectangle_7-2)">
        <rect id="Rectangle_7-5" data-name="Rectangle 7" width="109.556" height="59.141" rx="3.838" transform="translate(148.44 506.9)" fill="#d8d8d8"/>
      </g>
      <g id="Group_13-3" data-name="Group 13" transform="translate(26.177 5.212)">
        <g id="Group_13-4" data-name="Group 13">
          <g id="Group_11-2" data-name="Group 11">
            <g id="_001-appartment-2" data-name="001-appartment" transform="translate(3.645)">
              <g id="Logos_3karatLogo-3" data-name="Logos / 3karatLogo">
                <ellipse id="Oval-3" data-name="Oval" cx="25.217" cy="25.086" rx="25.217" ry="25.086" fill="#d8d8d8"/>
                <path id="photo_icon-3" data-name="photo icon" d="M10.829,10.613h0a63.282,63.282,0,0,1-8.17-.569C.862,9.8.017,9.593,0,9.384c-.014-.171.5-.327,1.1-.508.647-.2,1.379-.42,1.563-.711l.076-.121c.552-.878,1.58-2.512,3.093-3.01a1.274,1.274,0,0,1,.392-.072c.479,0,.621.4.7.842.014.074.026.148.038.22.054.334.1.622.3.622A.345.345,0,0,0,7.413,6.6,4.932,4.932,0,0,0,8.459,5.262a17.183,17.183,0,0,1,1.719-2.307,3.8,3.8,0,0,1,2.306-1.366,4.013,4.013,0,0,1,.406-.022c1.851,0,2.51,1.457,3.273,3.144.14.309.284.629.44.949.175.359.354.693.526,1.015.555,1.037.993,1.856.739,2.479a1.836,1.836,0,0,1-1.265.889A21.8,21.8,0,0,1,10.829,10.613ZM4.546,3.739A1.869,1.869,0,1,1,6.425,1.869,1.876,1.876,0,0,1,4.546,3.739Z" transform="translate(16.245 19.779)" fill="#a3a3a3"/>
              </g>
            </g>
            <rect id="Base_Copy_2-2" data-name="Base Copy 2" width="74.896" height="9.938" rx="4.421" transform="translate(0 68.472)" fill="#9b9b9b"/>
            <rect id="Base_Copy_3-2" data-name="Base Copy 3" width="49.931" height="5.09" rx="2.545" transform="translate(24.965 87.863)" fill="silver"/>
          </g>
        </g>
      </g>
    </g>
    <g id="Group_4-4" data-name="Group 4" transform="translate(274.444 506.899)">
      <g transform="matrix(1, 0, 0, 1, -274.44, -506.9)" filter="url(#Rectangle_7-3)">
        <rect id="Rectangle_7-6" data-name="Rectangle 7" width="109.556" height="59.141" rx="3.838" transform="translate(274.44 506.9)" fill="#d8d8d8"/>
      </g>
      <g id="Group_13-5" data-name="Group 13" transform="translate(26.177 5.212)">
        <g id="Group_13-6" data-name="Group 13">
          <g id="Group_11-3" data-name="Group 11">
            <g id="_001-appartment-3" data-name="001-appartment" transform="translate(3.645)">
              <g id="Logos_3karatLogo-4" data-name="Logos / 3karatLogo">
                <ellipse id="Oval-4" data-name="Oval" cx="25.217" cy="25.086" rx="25.217" ry="25.086" fill="#d8d8d8"/>
                <path id="photo_icon-4" data-name="photo icon" d="M10.829,10.613h0a63.282,63.282,0,0,1-8.17-.569C.862,9.8.017,9.593,0,9.384c-.014-.171.5-.327,1.1-.508.647-.2,1.379-.42,1.563-.711l.076-.121c.552-.878,1.58-2.512,3.093-3.01a1.274,1.274,0,0,1,.392-.072c.479,0,.621.4.7.842.014.074.026.148.038.22.054.334.1.622.3.622A.345.345,0,0,0,7.413,6.6,4.932,4.932,0,0,0,8.459,5.262a17.183,17.183,0,0,1,1.719-2.307,3.8,3.8,0,0,1,2.306-1.366,4.013,4.013,0,0,1,.406-.022c1.851,0,2.51,1.457,3.273,3.144.14.309.284.629.44.949.175.359.354.693.526,1.015.555,1.037.993,1.856.739,2.479a1.836,1.836,0,0,1-1.265.889A21.8,21.8,0,0,1,10.829,10.613ZM4.546,3.739A1.869,1.869,0,1,1,6.425,1.869,1.876,1.876,0,0,1,4.546,3.739Z" transform="translate(16.245 19.779)" fill="#a3a3a3"/>
              </g>
            </g>
            <rect id="Base_Copy_2-3" data-name="Base Copy 2" width="74.896" height="9.938" rx="4.421" transform="translate(0 68.472)" fill="#9b9b9b"/>
            <rect id="Base_Copy_3-3" data-name="Base Copy 3" width="49.931" height="5.09" rx="2.545" transform="translate(24.965 87.863)" fill="silver"/>
          </g>
        </g>
      </g>
    </g>
    <g id="icon" transform="translate(27.394 48.737) rotate(180)">
      <rect id="Rectangle-6" data-name="Rectangle" width="2.081" height="9.363" rx="1.04" transform="translate(1.471 13.367) rotate(-135)" fill="#fff"/>
      <rect id="Rectangle_Copy" data-name="Rectangle Copy" width="2.081" height="9.363" rx="1.04" transform="translate(0.074 1.471) rotate(-45)" fill="#fff"/>
    </g>
    <text id="Back" transform="translate(31 47)" fill="#fff" font-size="16" font-family="SFProText-Regular, SF Pro Text"><tspan x="0" y="0">Back</tspan></text>
  </g>
</svg>
