<svg xmlns="http://www.w3.org/2000/svg" xmlns:xlink="http://www.w3.org/1999/xlink" width="375" height="812" viewBox="0 0 375 812">
  <defs>
    <clipPath id="clip-path">
      <rect id="Mask" width="374.504" height="63.643" transform="translate(374.504 63.643) rotate(180)" fill="#9b9b9b"/>
    </clipPath>
    <filter id="Path" x="-23.704" y="726.256" width="422.704" height="108.687" filterUnits="userSpaceOnUse">
      <feOffset dy="-1" input="SourceAlpha"/>
      <feGaussianBlur stdDeviation="8" result="blur"/>
      <feFlood flood-opacity="0.11"/>
      <feComposite operator="in" in2="blur"/>
      <feComposite in="SourceGraphic"/>
    </filter>
    <filter id="Rectangle_7" x="2.944" y="494.398" width="148.556" height="98.141" filterUnits="userSpaceOnUse">
      <feOffset dy="7" input="SourceAlpha"/>
      <feGaussianBlur stdDeviation="6.5" result="blur-2"/>
      <feFlood flood-opacity="0.051"/>
      <feComposite operator="in" in2="blur-2"/>
      <feComposite in="SourceGraphic"/>
    </filter>
    <filter id="Rectangle_7-2" x="128.944" y="494.398" width="148.556" height="98.141" filterUnits="userSpaceOnUse">
      <feOffset dy="7" input="SourceAlpha"/>
      <feGaussianBlur stdDeviation="6.5" result="blur-3"/>
      <feFlood flood-opacity="0.051"/>
      <feComposite operator="in" in2="blur-3"/>
      <feComposite in="SourceGraphic"/>
    </filter>
    <filter id="Rectangle_7-3" x="254.944" y="494.398" width="148.556" height="98.141" filterUnits="userSpaceOnUse">
      <feOffset dy="7" input="SourceAlpha"/>
      <feGaussianBlur stdDeviation="6.5" result="blur-4"/>
      <feFlood flood-opacity="0.051"/>
      <feComposite operator="in" in2="blur-4"/>
      <feComposite in="SourceGraphic"/>
    </filter>
    <clipPath id="clip-User_s_account_2">
      <rect width="375" height="812"/>
    </clipPath>
  </defs>
  <g id="User_s_account_2" data-name="User’s account – 2" clip-path="url(#clip-User_s_account_2)">
    <rect width="375" height="812" fill="#fff"/>
    <g id="Rectangle_8" data-name="Rectangle 8" transform="translate(0 140)" fill="#fff" stroke="#707070" stroke-width="1">
      <rect width="375" height="174" stroke="none"/>
      <rect x="0.5" y="0.5" width="374" height="173" fill="none"/>
    </g>
    <g id="nav_bar" data-name="nav bar" transform="translate(374.504 -6.798) rotate(180)">
      <g id="Group_24" data-name="Group 24" transform="translate(0 -70.441)">
        <g id="nav_bar-2" data-name="nav bar">
          <g id="Group_23" data-name="Group 23">
            <g id="ui_pic" data-name="ui/pic">
              <rect id="Mask-2" data-name="Mask" width="374.504" height="63.643" transform="translate(374.504 63.643) rotate(180)" fill="#9b9b9b"/>
            </g>
          </g>
        </g>
        <path id="Connect" d="M112.38,12.579h-4.922V3.431h-1.641V14h6.563Zm3.472,1.553a2.753,2.753,0,0,0,2.432-1.4h.037V14h1.516V8.69c0-1.545-1.194-2.534-3.062-2.534-1.9,0-3.091,1.025-3.179,2.417h1.494a1.475,1.475,0,0,1,1.626-1.128c.967,0,1.545.513,1.545,1.37v.593l-2.109.125c-1.831.1-2.864.93-2.864,2.278A2.336,2.336,0,0,0,115.851,14.132Zm.439-1.252c-.85,0-1.406-.439-1.406-1.113s.535-1.077,1.479-1.143l1.9-.117v.608A1.847,1.847,0,0,1,116.291,12.879Zm11.682-6.584h-1.582v4.49a1.785,1.785,0,0,1-1.831,1.992c-1.091,0-1.648-.63-1.648-1.8V6.295H121.33v4.988a2.575,2.575,0,0,0,2.7,2.856A2.416,2.416,0,0,0,126.42,12.7h.037V14h1.516ZM129.533,14h1.582V9.386a1.59,1.59,0,0,1,1.648-1.772,2.265,2.265,0,0,1,.71.088V6.229a2.887,2.887,0,0,0-.542-.059,1.856,1.856,0,0,0-1.853,1.436h-.037V6.295h-1.509Zm9.7-2.263a1.746,1.746,0,0,1-1.78,1.128,2.02,2.02,0,0,1-2.073-2.227v-.1h5.442V10c0-2.336-1.333-3.845-3.472-3.845-2.175,0-3.567,1.611-3.567,4.028s1.37,3.962,3.633,3.962a3.111,3.111,0,0,0,3.318-2.41ZM137.348,7.43a1.892,1.892,0,0,1,1.89,2.007h-3.853A1.987,1.987,0,0,1,137.348,7.43ZM142.043,14h1.582V9.51a1.8,1.8,0,0,1,1.831-1.985c1.1,0,1.641.637,1.641,1.794V14h1.589V9.012a2.537,2.537,0,0,0-2.673-2.849,2.5,2.5,0,0,0-2.424,1.421h-.037V6.295h-1.509Zm8.965-6.7,1.018-3.867h-1.6L149.755,7.3Zm1.509,1.179c0,1.121.725,1.824,2.19,2.161l1.252.293c.842.19,1.128.483,1.128.981,0,.63-.586,1.025-1.538,1.025s-1.516-.4-1.663-1.2h-1.567c.146,1.465,1.3,2.41,3.23,2.41,1.816,0,3.127-.967,3.127-2.373,0-1.113-.6-1.729-2.175-2.095l-1.252-.286c-.835-.19-1.187-.52-1.187-1,0-.615.571-1.033,1.428-1.033a1.37,1.37,0,0,1,1.523,1.216H158.5c-.051-1.421-1.216-2.417-3.01-2.417C153.717,6.156,152.516,7.1,152.516,8.478Zm10.613-5.046V14h1.641V10.389h2.271A3.353,3.353,0,0,0,170.57,6.9a3.316,3.316,0,0,0-3.479-3.472Zm1.641,1.384h1.89a1.971,1.971,0,0,1,2.234,2.095,1.979,1.979,0,0,1-2.241,2.1H164.77ZM171.816,14H173.4V9.386a1.59,1.59,0,0,1,1.648-1.772,2.265,2.265,0,0,1,.71.088V6.229a2.887,2.887,0,0,0-.542-.059,1.856,1.856,0,0,0-1.853,1.436h-.037V6.295h-1.509Zm7.9.146c2.2,0,3.655-1.516,3.655-4s-1.458-3.992-3.655-3.992-3.655,1.516-3.655,3.992S177.514,14.146,179.718,14.146Zm0-1.3c-1.238,0-2.043-.981-2.043-2.7s.806-2.688,2.043-2.688,2.043.981,2.043,2.688S180.964,12.843,179.718,12.843ZM185.058,14h1.589V7.547h1.538V6.31h-1.56V5.584a.9.9,0,0,1,1.011-1.025,3.324,3.324,0,0,1,.579.044V3.431a5.668,5.668,0,0,0-.886-.073c-1.567,0-2.271.7-2.271,2.2V6.31H184V7.547h1.062Zm5.215-8.95a.908.908,0,1,0-.916-.908A.908.908,0,0,0,190.273,5.05ZM189.482,14h1.582V6.295h-1.582Zm3.259,0h1.582V3.431h-1.582Zm8.313-2.263a1.746,1.746,0,0,1-1.78,1.128,2.02,2.02,0,0,1-2.073-2.227v-.1h5.442V10c0-2.336-1.333-3.845-3.472-3.845-2.175,0-3.567,1.611-3.567,4.028s1.37,3.962,3.633,3.962a3.111,3.111,0,0,0,3.318-2.41ZM199.172,7.43a1.892,1.892,0,0,1,1.89,2.007h-3.853A1.987,1.987,0,0,1,199.172,7.43Z" transform="translate(341.215 30.237) rotate(180)" fill="#fff"/>
      </g>
    </g>
    <g id="Group" transform="translate(0.296 751.256)">
      <g transform="matrix(1, 0, 0, 1, -0.3, -751.26)" filter="url(#Path)">
        <path id="Path-2" data-name="Path" d="M374.7,0V60.686H0V0Z" transform="translate(0.3 751.26)" fill="#fff"/>
      </g>
      <g id="Group_3" data-name="Group 3" transform="translate(23.624 10.256)">
        <g id="Group_2" data-name="Group 2">
          <g id="Group_4" data-name="Group 4" transform="translate(290.823)">
            <g id="home" transform="translate(8.06)">
              <rect id="Rectangle" width="21.877" height="21.877" rx="5.373" fill="#b3b3b3"/>
            </g>
          </g>
          <g id="Group_8" data-name="Group 8" transform="translate(218.239)">
            <g id="Group_5" data-name="Group 5">
              <g id="heart" transform="translate(8.06)">
                <rect id="Rectangle-2" data-name="Rectangle" width="21.877" height="21.877" rx="5.373" fill="#b3b3b3"/>
              </g>
            </g>
          </g>
          <g id="Group_6" data-name="Group 6" transform="translate(145.318)">
            <g id="users" transform="translate(7.292)">
              <rect id="Rectangle-3" data-name="Rectangle" width="21.877" height="21.877" rx="5.373" fill="#b3b3b3"/>
            </g>
          </g>
          <g id="Group_9" data-name="Group 9">
            <g id="Group_7" data-name="Group 7">
              <g id="more-horizontal" transform="translate(6.908)">
                <rect id="Rectangle-4" data-name="Rectangle" width="21.877" height="21.877" rx="5.373" fill="#b3b3b3"/>
              </g>
              <path id="Path_21" data-name="Path 21" d="M-16.7-1.841C-16.609-.625-15.579.166-14.084.166c1.611,0,2.632-.825,2.632-2.119,0-1.035-.586-1.6-2.046-1.968l-.737-.2c-.972-.249-1.357-.566-1.357-1.118,0-.713.62-1.182,1.558-1.182a1.444,1.444,0,0,1,1.6,1.152h.884a2.241,2.241,0,0,0-2.451-1.948c-1.489,0-2.49.811-2.49,2.007,0,1,.552,1.577,1.826,1.9l.9.234c.972.244,1.411.625,1.411,1.226,0,.7-.7,1.211-1.646,1.211-1,0-1.7-.469-1.812-1.206Zm9.165-3.516a1.9,1.9,0,0,0-1.685.972H-9.3v-.879h-.8V1.758h.84V-.791h.078A1.767,1.767,0,0,0-7.537.093C-6.2.093-5.325-.986-5.325-2.632S-6.194-5.356-7.537-5.356Zm-.2,4.692c-.947,0-1.548-.762-1.548-1.968S-8.684-4.6-7.732-4.6s1.538.737,1.538,1.968S-6.77-.664-7.737-.664Zm5.2.757A1.818,1.818,0,0,0-.92-.776h.078V0h.8V-3.6c0-1.094-.718-1.753-2-1.753-1.123,0-1.953.557-2.065,1.4h.85c.117-.415.557-.654,1.187-.654.786,0,1.191.356,1.191,1.006v.479L-2.4-3.032c-1.226.073-1.919.615-1.919,1.558A1.6,1.6,0,0,0-2.542.093Zm.156-.737c-.61,0-1.064-.312-1.064-.85S-3.1-2.3-2.3-2.354l1.416-.093v.483A1.385,1.385,0,0,1-2.385-.645ZM5.867-3.652a2.066,2.066,0,0,0-2.207-1.7A2.4,2.4,0,0,0,1.248-2.651C1.248-.977,2.19.093,3.665.093a2.033,2.033,0,0,0,2.2-1.68h-.85A1.267,1.267,0,0,1,3.66-.664c-.937,0-1.543-.771-1.543-1.987,0-1.191.6-1.948,1.543-1.948a1.3,1.3,0,0,1,1.357.947Zm4.727,2.29a1.364,1.364,0,0,1-1.357.713c-.894,0-1.475-.659-1.519-1.7v-.039H11.5V-2.71c0-1.636-.864-2.646-2.285-2.646-1.445,0-2.373,1.074-2.373,2.729S7.756.093,9.216.093a2.1,2.1,0,0,0,2.217-1.455ZM9.207-4.614a1.417,1.417,0,0,1,1.411,1.548h-2.9A1.5,1.5,0,0,1,9.207-4.614Zm3.491.791c0,.762.449,1.187,1.436,1.426l.9.22c.562.137.835.381.835.742,0,.483-.508.82-1.216.82a1.159,1.159,0,0,1-1.235-.728h-.864c.093.874.9,1.436,2.07,1.436,1.2,0,2.109-.649,2.109-1.592,0-.757-.479-1.187-1.47-1.426l-.811-.2c-.62-.151-.913-.376-.913-.737,0-.469.488-.786,1.113-.786a1.073,1.073,0,0,1,1.157.7h.83a1.773,1.773,0,0,0-1.982-1.411C13.542-5.356,12.7-4.7,12.7-3.823Z" transform="translate(18.08 41.488)" fill="#050505"/>
              <path id="Path_22" data-name="Path 22" d="M-16.152.166a2.68,2.68,0,0,0,2.847-2.129H-14.2A1.886,1.886,0,0,1-16.152-.645c-1.357,0-2.207-1.108-2.207-2.876s.85-2.881,2.2-2.881A1.936,1.936,0,0,1-14.2-4.922h.894a2.748,2.748,0,0,0-2.852-2.29c-1.914,0-3.105,1.416-3.105,3.691S-18.066.166-16.152.166ZM-9.775.093c1.5,0,2.427-1.035,2.427-2.725s-.928-2.725-2.427-2.725S-12.2-4.326-12.2-2.632-11.274.093-9.775.093Zm0-.757c-1,0-1.558-.723-1.558-1.968S-10.771-4.6-9.775-4.6s1.558.718,1.558,1.968S-8.779-.664-9.775-.664ZM-6.03,0h.84V-3.115A1.335,1.335,0,0,1-3.809-4.6c.84,0,1.24.449,1.24,1.4V0h.84V-3.408A1.716,1.716,0,0,0-3.569-5.356a1.582,1.582,0,0,0-1.582.923h-.078v-.83h-.8ZM-.2,0h.84V-3.115A1.335,1.335,0,0,1,2.026-4.6c.84,0,1.24.449,1.24,1.4V0h.84V-3.408A1.716,1.716,0,0,0,2.266-5.356a1.582,1.582,0,0,0-1.582.923H.605v-.83H-.2ZM9.126-1.362a1.364,1.364,0,0,1-1.357.713c-.894,0-1.475-.659-1.519-1.7v-.039h3.784V-2.71c0-1.636-.864-2.646-2.285-2.646-1.445,0-2.373,1.074-2.373,2.729S6.289.093,7.749.093A2.1,2.1,0,0,0,9.966-1.362ZM7.739-4.614A1.417,1.417,0,0,1,9.15-3.066H6.25A1.5,1.5,0,0,1,7.739-4.614Zm7.969.962a2.066,2.066,0,0,0-2.207-1.7,2.4,2.4,0,0,0-2.412,2.705c0,1.675.942,2.744,2.417,2.744a2.033,2.033,0,0,0,2.2-1.68h-.85A1.267,1.267,0,0,1,13.5-.664c-.937,0-1.543-.771-1.543-1.987,0-1.191.6-1.948,1.543-1.948a1.3,1.3,0,0,1,1.357.947ZM17.4-6.626v1.362h-.85v.7h.85v3.193c0,1.006.435,1.406,1.519,1.406a2.813,2.813,0,0,0,.493-.049V-.718a3.547,3.547,0,0,1-.391.02c-.547,0-.781-.264-.781-.884V-4.561h1.172v-.7H18.237V-6.626Z" transform="translate(91.08 41.488)" fill="#050505"/>
              <path id="Path_23" data-name="Path 23" d="M-15.85,0V-7.046H-16.87l-2.412,5.879h-.078l-2.412-5.879h-1.021V0h.82V-5.381h.059L-19.692,0h.742l2.222-5.381h.059V0Zm5.176-1.362a1.364,1.364,0,0,1-1.357.713c-.894,0-1.475-.659-1.519-1.7v-.039h3.784V-2.71c0-1.636-.864-2.646-2.285-2.646-1.445,0-2.373,1.074-2.373,2.729s.913,2.72,2.373,2.72A2.1,2.1,0,0,0-9.834-1.362Zm-1.387-3.252a1.417,1.417,0,0,1,1.411,1.548h-2.9A1.5,1.5,0,0,1-12.061-4.614Zm3.491.791c0,.762.449,1.187,1.436,1.426l.9.22c.562.137.835.381.835.742,0,.483-.508.82-1.216.82a1.159,1.159,0,0,1-1.235-.728h-.864c.093.874.9,1.436,2.07,1.436,1.2,0,2.109-.649,2.109-1.592,0-.757-.479-1.187-1.47-1.426l-.811-.2c-.62-.151-.913-.376-.913-.737,0-.469.488-.786,1.113-.786a1.073,1.073,0,0,1,1.157.7h.83A1.773,1.773,0,0,0-6.606-5.356C-7.725-5.356-8.569-4.7-8.569-3.823Zm5.137,0c0,.762.449,1.187,1.436,1.426l.9.22c.562.137.835.381.835.742,0,.483-.508.82-1.216.82A1.159,1.159,0,0,1-2.71-1.343h-.864c.093.874.9,1.436,2.07,1.436C-.308.093.605-.557.605-1.5c0-.757-.479-1.187-1.47-1.426l-.811-.2c-.62-.151-.913-.376-.913-.737,0-.469.488-.786,1.113-.786a1.073,1.073,0,0,1,1.157.7h.83A1.773,1.773,0,0,0-1.47-5.356C-2.588-5.356-3.433-4.7-3.433-3.823ZM3.389.093A1.818,1.818,0,0,0,5.01-.776h.078V0h.8V-3.6c0-1.094-.718-1.753-2-1.753-1.123,0-1.953.557-2.065,1.4h.85c.117-.415.557-.654,1.187-.654.786,0,1.191.356,1.191,1.006v.479L3.53-3.032c-1.226.073-1.919.615-1.919,1.558A1.6,1.6,0,0,0,3.389.093Zm.156-.737c-.61,0-1.064-.312-1.064-.85s.352-.806,1.152-.859l1.416-.093v.483A1.385,1.385,0,0,1,3.545-.645ZM9.609,2.021c1.436,0,2.344-.752,2.344-1.929V-5.264h-.8v.835h-.078a1.884,1.884,0,0,0-1.689-.928c-1.353,0-2.207,1.069-2.207,2.646S8.022-.078,9.385-.078a1.826,1.826,0,0,0,1.65-.908h.078V.049c0,.776-.562,1.24-1.5,1.24-.757,0-1.226-.278-1.318-.708H7.4C7.529,1.45,8.34,2.021,9.609,2.021ZM9.57-.82c-.977,0-1.523-.742-1.523-1.89S8.594-4.6,9.57-4.6s1.563.742,1.563,1.89S10.547-.82,9.57-.82Zm7.451-.542a1.364,1.364,0,0,1-1.357.713c-.894,0-1.475-.659-1.519-1.7v-.039H17.93V-2.71c0-1.636-.864-2.646-2.285-2.646-1.445,0-2.373,1.074-2.373,2.729s.913,2.72,2.373,2.72a2.1,2.1,0,0,0,2.217-1.455ZM15.635-4.614a1.417,1.417,0,0,1,1.411,1.548h-2.9A1.5,1.5,0,0,1,15.635-4.614Zm3.491.791c0,.762.449,1.187,1.436,1.426l.9.22c.562.137.835.381.835.742,0,.483-.508.82-1.216.82a1.159,1.159,0,0,1-1.235-.728h-.864c.093.874.9,1.436,2.07,1.436,1.2,0,2.109-.649,2.109-1.592,0-.757-.479-1.187-1.47-1.426l-.811-.2c-.62-.151-.913-.376-.913-.737,0-.469.488-.786,1.113-.786a1.073,1.073,0,0,1,1.157.7h.83a1.773,1.773,0,0,0-1.982-1.411C19.971-5.356,19.126-4.7,19.126-3.823Z" transform="translate(164.08 41.488)" fill="#050505"/>
              <path id="Path_24" data-name="Path 24" d="M-21.626,0V-7.046H-22.5V-4h-3.867V-7.046h-.879V0h.879V-3.208H-22.5V0Zm3.154.093a1.818,1.818,0,0,0,1.621-.869h.078V0h.8V-3.6c0-1.094-.718-1.753-2-1.753-1.123,0-1.953.557-2.065,1.4h.85c.117-.415.557-.654,1.187-.654.786,0,1.191.356,1.191,1.006v.479l-1.519.093c-1.226.073-1.919.615-1.919,1.558A1.6,1.6,0,0,0-18.472.093Zm.156-.737c-.61,0-1.064-.312-1.064-.85s.352-.806,1.152-.859l1.416-.093v.483A1.385,1.385,0,0,1-18.315-.645Zm6.46-4.712a1.9,1.9,0,0,0-1.685.972h-.078v-.879h-.8V1.758h.84V-.791h.078a1.767,1.767,0,0,0,1.646.884c1.338,0,2.212-1.079,2.212-2.725S-10.513-5.356-11.855-5.356Zm-.2,4.692C-13-.664-13.6-1.426-13.6-2.632S-13-4.6-12.051-4.6s1.538.737,1.538,1.968S-11.089-.664-12.056-.664Zm6.294-4.692a1.9,1.9,0,0,0-1.685.972h-.078v-.879h-.8V1.758h.84V-.791h.078A1.767,1.767,0,0,0-5.762.093C-4.424.093-3.55-.986-3.55-2.632S-4.419-5.356-5.762-5.356Zm-.2,4.692c-.947,0-1.548-.762-1.548-1.968S-6.909-4.6-5.957-4.6s1.538.737,1.538,1.968S-5-.664-5.962-.664Zm7.217-.7A1.364,1.364,0,0,1-.1-.649c-.894,0-1.475-.659-1.519-1.7v-.039H2.163V-2.71c0-1.636-.864-2.646-2.285-2.646C-1.567-5.356-2.5-4.282-2.5-2.627S-1.582.093-.122.093A2.1,2.1,0,0,0,2.095-1.362ZM-.132-4.614A1.417,1.417,0,0,1,1.279-3.066h-2.9A1.5,1.5,0,0,1-.132-4.614ZM3.481,0h.84V-3.115A1.335,1.335,0,0,1,5.7-4.6c.84,0,1.24.449,1.24,1.4V0h.84V-3.408A1.716,1.716,0,0,0,5.942-5.356a1.582,1.582,0,0,0-1.582.923H4.282v-.83h-.8ZM9.756-6.279a.588.588,0,0,0,.586-.586.588.588,0,0,0-.586-.586.588.588,0,0,0-.586.586A.588.588,0,0,0,9.756-6.279ZM9.336,0h.84V-5.264h-.84Zm2.441,0h.84V-3.115A1.335,1.335,0,0,1,14-4.6c.84,0,1.24.449,1.24,1.4V0h.84V-3.408a1.716,1.716,0,0,0-1.841-1.948,1.582,1.582,0,0,0-1.582.923h-.078v-.83h-.8Zm8,2.021c1.436,0,2.344-.752,2.344-1.929V-5.264h-.8v.835h-.078a1.884,1.884,0,0,0-1.689-.928c-1.353,0-2.207,1.069-2.207,2.646s.845,2.632,2.207,2.632a1.826,1.826,0,0,0,1.65-.908h.078V.049c0,.776-.562,1.24-1.5,1.24-.757,0-1.226-.278-1.318-.708h-.889C17.7,1.45,18.511,2.021,19.78,2.021ZM19.741-.82c-.977,0-1.523-.742-1.523-1.89s.547-1.89,1.523-1.89S21.3-3.857,21.3-2.71,20.718-.82,19.741-.82Zm3.843-3c0,.762.449,1.187,1.436,1.426l.9.22c.562.137.835.381.835.742,0,.483-.508.82-1.216.82a1.159,1.159,0,0,1-1.235-.728h-.864c.093.874.9,1.436,2.07,1.436,1.2,0,2.109-.649,2.109-1.592,0-.757-.479-1.187-1.47-1.426l-.811-.2c-.62-.151-.913-.376-.913-.737,0-.469.488-.786,1.113-.786a1.073,1.073,0,0,1,1.157.7h.83a1.773,1.773,0,0,0-1.982-1.411C24.429-5.356,23.584-4.7,23.584-3.823Z" transform="translate(241.08 41.488)" fill="#050505"/>
              <path id="Path_25" data-name="Path 25" d="M-14.219-7.046V0h.879V-2.515h1.772A2.17,2.17,0,0,0-9.3-4.766a2.167,2.167,0,0,0-2.256-2.28Zm.879.781h1.553a1.391,1.391,0,0,1,1.582,1.5A1.394,1.394,0,0,1-11.787-3.3H-13.34ZM-7.974,0h.84V-3.262A1.289,1.289,0,0,1-5.752-4.541a3.372,3.372,0,0,1,.537.049v-.84a3.607,3.607,0,0,0-.42-.024,1.47,1.47,0,0,0-1.46.874h-.078v-.781h-.8Zm5.825.093C-.649.093.278-.942.278-2.632S-.649-5.356-2.148-5.356s-2.427,1.03-2.427,2.725S-3.647.093-2.148.093Zm0-.757c-1,0-1.558-.723-1.558-1.968S-3.145-4.6-2.148-4.6s1.558.718,1.558,1.968S-1.152-.664-2.148-.664ZM1.948,0h.84V-4.561H3.994v-.7H2.788v-.562c0-.576.254-.869.859-.869a2.311,2.311,0,0,1,.4.024v-.684A2.949,2.949,0,0,0,3.477-7.4,1.363,1.363,0,0,0,1.948-5.85v.586H1.074v.7h.874ZM5.654-6.279a.588.588,0,0,0,.586-.586.588.588,0,0,0-.586-.586.588.588,0,0,0-.586.586A.588.588,0,0,0,5.654-6.279ZM5.234,0h.84V-5.264h-.84Zm2.49,0h.84V-7.354h-.84Zm5.957-1.362a1.364,1.364,0,0,1-1.357.713c-.894,0-1.475-.659-1.519-1.7v-.039H14.59V-2.71c0-1.636-.864-2.646-2.285-2.646-1.445,0-2.373,1.074-2.373,2.729S10.845.093,12.3.093a2.1,2.1,0,0,0,2.217-1.455ZM12.295-4.614a1.417,1.417,0,0,1,1.411,1.548h-2.9A1.5,1.5,0,0,1,12.295-4.614Z" transform="translate(309.08 41.488)" fill="#050505"/>
            </g>
          </g>
          <g id="Group_9_Copy" data-name="Group 9 Copy" transform="translate(72.735)">
            <g id="Group_7-2" data-name="Group 7">
              <g id="more-horizontal-2" data-name="more-horizontal" transform="translate(6.908)">
                <rect id="Rectangle-5" data-name="Rectangle" width="21.877" height="21.877" rx="5.373" fill="#b3b3b3"/>
              </g>
            </g>
          </g>
        </g>
      </g>
    </g>
    <g id="Illustrations_make_ad" data-name="Illustrations / make ad" transform="translate(142.094 89.815)">
      <g id="Logos_3karatLogo" data-name="Logos / 3karatLogo">
        <ellipse id="Oval" cx="45.16" cy="45.055" rx="45.16" ry="45.055" fill="#d8d8d8"/>
        <path id="photo_icon" data-name="photo icon" d="M19.394,19.062h0A112.972,112.972,0,0,1,4.762,18.04C1.544,17.6.031,17.228,0,16.854c-.025-.307.9-.588,1.962-.913,1.158-.353,2.469-.753,2.8-1.275l.13-.207.007-.011c.989-1.577,2.83-4.512,5.538-5.406a2.277,2.277,0,0,1,.7-.13c.858,0,1.111.726,1.258,1.511.025.134.047.268.068.4.1.6.181,1.115.531,1.115a.626.626,0,0,0,.279-.082,8.853,8.853,0,0,0,1.875-2.4,30.848,30.848,0,0,1,3.078-4.144,6.8,6.8,0,0,1,4.13-2.453,7.173,7.173,0,0,1,.727-.039c3.315,0,4.5,2.616,5.862,5.644.251.555.51,1.13.789,1.705.313.645.633,1.245.943,1.825.994,1.864,1.779,3.335,1.322,4.455a3.292,3.292,0,0,1-2.265,1.595A38.937,38.937,0,0,1,19.394,19.062ZM8.141,6.715a3.357,3.357,0,1,1,3.366-3.358A3.365,3.365,0,0,1,8.141,6.715Z" transform="translate(29.094 35.524)" fill="#a3a3a3"/>
      </g>
    </g>
    <g id="button" transform="translate(49.084 670.099)">
      <g id="Button_Get_Started" data-name="Button/Get Started">
        <g id="Button-2" data-name="Button">
          <rect id="Base" width="276.336" height="50.662" rx="25.331" fill="#9b9b9b"/>
          <path id="Button-3" data-name="Button" d="M91.73,15V10.549H96.3V8.963H91.73V5.744h5V4.1H89.78V15Zm9.513.159c2.35,0,3.876-1.564,3.876-4.163s-1.541-4.171-3.876-4.171S97.366,8.411,97.366,11C97.366,13.595,98.893,15.159,101.243,15.159Zm0-1.489c-1.194,0-1.965-.967-1.965-2.675s.778-2.675,1.965-2.675,1.965.975,1.965,2.675S102.437,13.67,101.243,13.67ZM106.381,15h1.881V4.1h-1.881Zm3.536,0H111.8V4.1h-1.881Zm7.027.159c2.35,0,3.876-1.564,3.876-4.163s-1.541-4.171-3.876-4.171S113.068,8.411,113.068,11C113.068,13.595,114.594,15.159,116.944,15.159Zm0-1.489c-1.194,0-1.965-.967-1.965-2.675s.778-2.675,1.965-2.675,1.965.975,1.965,2.675S118.138,13.67,116.944,13.67Zm15.906-6.68h-1.859l-1.353,6.151h-.045l-1.564-6.151h-1.806l-1.564,6.151h-.038l-1.353-6.151H121.38L123.548,15h1.965l1.572-5.856h.038L128.7,15h1.98Z" transform="translate(27.25 15.722)" fill="#fff"/>
        </g>
      </g>
    </g>
    <path id="Path_14" data-name="Path 14" d="M-15.326-1.107h-4.758V-9.864h-1.23V0h5.988ZM-11.464.13a2.546,2.546,0,0,0,2.27-1.217h.109V0h1.121V-5.045c0-1.531-1-2.454-2.8-2.454-1.572,0-2.734.779-2.892,1.962h1.189c.164-.581.779-.916,1.661-.916,1.1,0,1.668.5,1.668,1.408v.67l-2.126.13c-1.716.1-2.687.861-2.687,2.181A2.241,2.241,0,0,0-11.464.13ZM-11.245-.9c-.854,0-1.49-.437-1.49-1.189s.492-1.128,1.613-1.2l1.982-.13v.677A1.938,1.938,0,0,1-11.245-.9ZM.171-7.369H-1v4.361A1.854,1.854,0,0,1-3.015-.943c-1.176,0-1.668-.615-1.668-1.941V-7.369H-5.858V-2.6C-5.858-.854-5,.13-3.343.13A2.3,2.3,0,0,0-1.06-1.155H-.95V0H.171ZM2.386,0H3.562V-4.566A1.8,1.8,0,0,1,5.5-6.357a4.721,4.721,0,0,1,.752.068V-7.465A5.049,5.049,0,0,0,5.66-7.5,2.058,2.058,0,0,0,3.616-6.275H3.507V-7.369H2.386ZM12.394-1.907a1.909,1.909,0,0,1-1.9,1c-1.251,0-2.064-.923-2.126-2.379v-.055h5.3v-.451c0-2.29-1.21-3.705-3.2-3.705C8.442-7.5,7.144-6,7.144-3.678S8.422.13,10.466.13a2.943,2.943,0,0,0,3.1-2.037ZM10.452-6.46a1.984,1.984,0,0,1,1.976,2.167H8.367A2.1,2.1,0,0,1,10.452-6.46ZM15.511,0h1.176V-4.361a1.868,1.868,0,0,1,1.935-2.078c1.176,0,1.736.629,1.736,1.955V0h1.176V-4.771A2.4,2.4,0,0,0,18.956-7.5a2.215,2.215,0,0,0-2.215,1.292h-.109V-7.369H15.511Z" transform="translate(188 206)" fill="#050505"/>
    <path id="Path_15" data-name="Path 15" d="M-86.341-9.864V0h3.384C-80.025,0-78.3-1.825-78.3-4.936s-1.729-4.929-4.655-4.929Zm1.23,1.107h2.071c2.188,0,3.479,1.422,3.479,3.835s-1.278,3.814-3.479,3.814h-2.071Zm13.672,6.85a1.909,1.909,0,0,1-1.9,1c-1.251,0-2.064-.923-2.126-2.379v-.055h5.3v-.451c0-2.29-1.21-3.705-3.2-3.705-2.023,0-3.322,1.5-3.322,3.821S-75.411.13-73.367.13a2.943,2.943,0,0,0,3.1-2.037ZM-73.38-6.46A1.984,1.984,0,0,1-71.4-4.293h-4.061A2.1,2.1,0,0,1-73.38-6.46Zm4.888,1.107c0,1.066.629,1.661,2.01,2l1.265.308c.786.191,1.169.533,1.169,1.039,0,.677-.711,1.148-1.7,1.148A1.623,1.623,0,0,1-67.481-1.88h-1.21c.13,1.224,1.258,2.01,2.9,2.01,1.675,0,2.953-.909,2.953-2.229,0-1.06-.67-1.661-2.058-2l-1.135-.273C-66.9-4.58-67.31-4.895-67.31-5.4c0-.656.684-1.1,1.559-1.1a1.5,1.5,0,0,1,1.62.978h1.162C-63.126-6.733-64.2-7.5-65.745-7.5-67.31-7.5-68.493-6.576-68.493-5.353Zm8.114-3.438a.823.823,0,0,0,.82-.82.823.823,0,0,0-.82-.82.823.823,0,0,0-.82.82A.823.823,0,0,0-60.378-8.791ZM-60.966,0h1.176V-7.369h-1.176Zm6.453,2.83c2.01,0,3.281-1.053,3.281-2.7v-7.5h-1.121V-6.2h-.109a2.638,2.638,0,0,0-2.365-1.3c-1.894,0-3.09,1.5-3.09,3.705s1.183,3.685,3.09,3.685a2.556,2.556,0,0,0,2.311-1.271h.109V.068c0,1.087-.786,1.736-2.105,1.736-1.06,0-1.716-.39-1.846-.991H-57.6C-57.425,2.03-56.291,2.83-54.513,2.83Zm-.055-3.979c-1.367,0-2.133-1.039-2.133-2.646s.766-2.646,2.133-2.646S-52.38-5.4-52.38-3.794-53.2-1.148-54.568-1.148ZM-49.017,0h1.176V-4.361a1.868,1.868,0,0,1,1.935-2.078c1.176,0,1.736.629,1.736,1.955V0h1.176V-4.771A2.4,2.4,0,0,0-45.572-7.5a2.215,2.215,0,0,0-2.215,1.292H-47.9V-7.369h-1.121ZM-32.46-3.411V-4.525h-4.484v1.114Zm6.269-6.453V0h1.23V-3.521h2.481a3.039,3.039,0,0,0,3.172-3.151,3.034,3.034,0,0,0-3.158-3.192Zm1.23,1.094h2.174a1.947,1.947,0,0,1,2.215,2.1,1.952,1.952,0,0,1-2.215,2.058h-2.174ZM-17.449,0h1.176V-4.566a1.8,1.8,0,0,1,1.935-1.791,4.721,4.721,0,0,1,.752.068V-7.465a5.049,5.049,0,0,0-.588-.034,2.058,2.058,0,0,0-2.044,1.224h-.109V-7.369h-1.121Zm8.155.13c2.1,0,3.4-1.449,3.4-3.814S-7.195-7.5-9.293-7.5s-3.4,1.442-3.4,3.814S-11.392.13-9.293.13Zm0-1.06c-1.395,0-2.181-1.012-2.181-2.755s.786-2.755,2.181-2.755,2.181,1,2.181,2.755S-7.9-.93-9.293-.93ZM-1.323.13A2.641,2.641,0,0,0,1.036-1.176h.109V0H2.266V-10.295H1.09v4.088h-.1A2.518,2.518,0,0,0-1.323-7.5c-1.873,0-3.1,1.5-3.1,3.814S-3.209.13-1.323.13Zm.273-6.569c1.333,0,2.167,1.066,2.167,2.755S.291-.93-1.049-.93-3.2-1.962-3.2-3.685-2.389-6.439-1.049-6.439Zm11.56-.93H9.334v4.361A1.854,1.854,0,0,1,7.325-.943c-1.176,0-1.668-.615-1.668-1.941V-7.369H4.481V-2.6C4.481-.854,5.342.13,7,.13A2.3,2.3,0,0,0,9.28-1.155h.109V0H10.51Zm8.313,2.256A2.892,2.892,0,0,0,15.733-7.5c-2.064,0-3.377,1.49-3.377,3.787C12.356-1.367,13.675.13,15.74.13a2.846,2.846,0,0,0,3.083-2.352H17.633a1.773,1.773,0,0,1-1.9,1.292c-1.312,0-2.16-1.08-2.16-2.782,0-1.668.834-2.728,2.16-2.728a1.827,1.827,0,0,1,1.9,1.326Zm2.365-4.163v1.907H20v.984h1.189v4.471c0,1.408.608,1.969,2.126,1.969A3.939,3.939,0,0,0,24-.014V-1a4.965,4.965,0,0,1-.547.027c-.766,0-1.094-.369-1.094-1.237v-4.17H24v-.984H22.364V-9.276Zm8.7-.588V0h3.384c2.933,0,4.655-1.825,4.655-4.936s-1.729-4.929-4.655-4.929Zm1.23,1.107h2.071c2.188,0,3.479,1.422,3.479,3.835s-1.278,3.814-3.479,3.814H31.114Zm13.672,6.85a1.909,1.909,0,0,1-1.9,1c-1.251,0-2.064-.923-2.126-2.379v-.055h5.3v-.451c0-2.29-1.21-3.705-3.2-3.705-2.023,0-3.322,1.5-3.322,3.821S40.814.13,42.858.13a2.943,2.943,0,0,0,3.1-2.037ZM42.844-6.46A1.984,1.984,0,0,1,44.82-4.293H40.759A2.1,2.1,0,0,1,42.844-6.46Zm4.888,1.107c0,1.066.629,1.661,2.01,2l1.265.308c.786.191,1.169.533,1.169,1.039,0,.677-.711,1.148-1.7,1.148A1.623,1.623,0,0,1,48.744-1.88h-1.21c.13,1.224,1.258,2.01,2.9,2.01,1.675,0,2.953-.909,2.953-2.229,0-1.06-.67-1.661-2.058-2l-1.135-.273c-.868-.212-1.278-.526-1.278-1.032,0-.656.684-1.1,1.559-1.1a1.5,1.5,0,0,1,1.62.978h1.162C53.1-6.733,52.025-7.5,50.48-7.5,48.915-7.5,47.732-6.576,47.732-5.353Zm8.114-3.438a.823.823,0,0,0,.82-.82.823.823,0,0,0-.82-.82.823.823,0,0,0-.82.82A.823.823,0,0,0,55.846-8.791ZM55.258,0h1.176V-7.369H55.258Zm6.453,2.83c2.01,0,3.281-1.053,3.281-2.7v-7.5H63.872V-6.2h-.109A2.638,2.638,0,0,0,61.4-7.5c-1.894,0-3.09,1.5-3.09,3.705S59.49-.109,61.4-.109a2.556,2.556,0,0,0,2.311-1.271h.109V.068c0,1.087-.786,1.736-2.105,1.736-1.06,0-1.716-.39-1.846-.991H58.622C58.8,2.03,59.934,2.83,61.711,2.83Zm-.055-3.979c-1.367,0-2.133-1.039-2.133-2.646s.766-2.646,2.133-2.646S63.844-5.4,63.844-3.794,63.024-1.148,61.657-1.148ZM67.208,0h1.176V-4.361a1.868,1.868,0,0,1,1.935-2.078c1.176,0,1.736.629,1.736,1.955V0H73.23V-4.771A2.4,2.4,0,0,0,70.653-7.5a2.215,2.215,0,0,0-2.215,1.292h-.109V-7.369H67.208Zm13.05-1.907a1.909,1.909,0,0,1-1.9,1c-1.251,0-2.064-.923-2.126-2.379v-.055h5.3v-.451c0-2.29-1.21-3.705-3.2-3.705-2.023,0-3.322,1.5-3.322,3.821S76.286.13,78.33.13a2.943,2.943,0,0,0,3.1-2.037ZM78.316-6.46a1.984,1.984,0,0,1,1.976,2.167H76.231A2.1,2.1,0,0,1,78.316-6.46ZM83.375,0H84.55V-4.566a1.8,1.8,0,0,1,1.935-1.791,4.721,4.721,0,0,1,.752.068V-7.465a5.049,5.049,0,0,0-.588-.034A2.058,2.058,0,0,0,84.6-6.275H84.5V-7.369H83.375Z" transform="translate(188 235)" fill="#050505"/>
    <path id="Path_16" data-name="Path 16" d="M-59.049-1.107h-4.758V-9.864h-1.23V0h5.988Zm2.427-7.684a.823.823,0,0,0,.82-.82.823.823,0,0,0-.82-.82.823.823,0,0,0-.82.82A.823.823,0,0,0-56.622-8.791ZM-57.21,0h1.176V-7.369H-57.21Zm3.418,0h1.176V-4.361a1.868,1.868,0,0,1,1.935-2.078c1.176,0,1.736.629,1.736,1.955V0h1.176V-4.771A2.4,2.4,0,0,0-50.347-7.5a2.215,2.215,0,0,0-2.215,1.292h-.109V-7.369h-1.121Zm9.522-4.149h-.109v-6.146h-1.176V0h1.176V-2.8l.7-.656L-40.913,0h1.5L-42.8-4.211l3.172-3.158H-41.07Zm10.787,2.242a1.909,1.909,0,0,1-1.9,1c-1.251,0-2.064-.923-2.126-2.379v-.055h5.3v-.451c0-2.29-1.21-3.705-3.2-3.705-2.023,0-3.322,1.5-3.322,3.821S-37.454.13-35.41.13a2.943,2.943,0,0,0,3.1-2.037ZM-35.424-6.46a1.984,1.984,0,0,1,1.976,2.167h-4.061A2.1,2.1,0,0,1-35.424-6.46ZM-27.638.13a2.641,2.641,0,0,0,2.358-1.306h.109V0h1.121V-10.295h-1.176v4.088h-.1A2.518,2.518,0,0,0-27.638-7.5c-1.873,0-3.1,1.5-3.1,3.814S-29.524.13-27.638.13Zm.273-6.569c1.333,0,2.167,1.066,2.167,2.755S-26.024-.93-27.364-.93s-2.153-1.032-2.153-2.755S-28.7-6.439-27.364-6.439Zm6.214-2.352a.823.823,0,0,0,.82-.82.823.823,0,0,0-.82-.82.823.823,0,0,0-.82.82A.823.823,0,0,0-21.15-8.791ZM-21.738,0h1.176V-7.369h-1.176Zm3.418,0h1.176V-4.361A1.868,1.868,0,0,1-15.21-6.439c1.176,0,1.736.629,1.736,1.955V0H-12.3V-4.771A2.4,2.4,0,0,0-14.875-7.5,2.215,2.215,0,0,0-17.09-6.207H-17.2V-7.369H-18.32Zm9.14.068A.891.891,0,0,0-8.292-.82a.887.887,0,0,0-.889-.889.891.891,0,0,0-.889.889A.9.9,0,0,0-9.181.068Zm9.01-5.182A2.892,2.892,0,0,0-3.261-7.5c-2.064,0-3.377,1.49-3.377,3.787C-6.638-1.367-5.318.13-3.254.13A2.846,2.846,0,0,0-.171-2.222H-1.36A1.773,1.773,0,0,1-3.261-.93c-1.312,0-2.16-1.08-2.16-2.782,0-1.668.834-2.728,2.16-2.728a1.827,1.827,0,0,1,1.9,1.326ZM4.594.13c2.1,0,3.4-1.449,3.4-3.814S6.692-7.5,4.594-7.5,1.2-6.057,1.2-3.685,2.5.13,4.594.13Zm0-1.06C3.2-.93,2.413-1.941,2.413-3.685S3.2-6.439,4.594-6.439s2.181,1,2.181,2.755S5.988-.93,4.594-.93ZM9.837,0h1.176V-4.566a1.781,1.781,0,0,1,1.709-1.873A1.4,1.4,0,0,1,14.26-5V0h1.176V-4.737a1.658,1.658,0,0,1,1.709-1.7c1.039,0,1.552.533,1.552,1.62V0h1.176V-5.093A2.15,2.15,0,0,0,17.527-7.5a2.467,2.467,0,0,0-2.256,1.292h-.109A2.127,2.127,0,0,0,13.125-7.5a2.085,2.085,0,0,0-2.058,1.292h-.109V-7.369H9.837ZM21.964,2.1l3.555-12.394h-1L20.966,2.1ZM26.749,0h1.176V-10.295H26.749Zm5.51.13a2.546,2.546,0,0,0,2.27-1.217h.109V0h1.121V-5.045c0-1.531-1-2.454-2.8-2.454-1.572,0-2.734.779-2.892,1.962h1.189c.164-.581.779-.916,1.661-.916,1.1,0,1.668.5,1.668,1.408v.67l-2.126.13c-1.716.1-2.687.861-2.687,2.181A2.241,2.241,0,0,0,32.259.13ZM32.478-.9c-.854,0-1.49-.437-1.49-1.189s.492-1.128,1.613-1.2l1.982-.13v.677A1.938,1.938,0,0,1,32.478-.9ZM43.894-7.369H42.718v4.361a1.854,1.854,0,0,1-2.01,2.064c-1.176,0-1.668-.615-1.668-1.941V-7.369H37.864V-2.6c0,1.743.861,2.728,2.516,2.728a2.3,2.3,0,0,0,2.283-1.285h.109V0h1.121ZM46.108,0h1.176V-4.566a1.8,1.8,0,0,1,1.935-1.791,4.721,4.721,0,0,1,.752.068V-7.465a5.049,5.049,0,0,0-.588-.034,2.058,2.058,0,0,0-2.044,1.224h-.109V-7.369H46.108ZM56.116-1.907a1.909,1.909,0,0,1-1.9,1c-1.251,0-2.064-.923-2.126-2.379v-.055h5.3v-.451c0-2.29-1.21-3.705-3.2-3.705-2.023,0-3.322,1.5-3.322,3.821S52.145.13,54.188.13a2.943,2.943,0,0,0,3.1-2.037ZM54.175-6.46A1.984,1.984,0,0,1,56.15-4.293H52.09A2.1,2.1,0,0,1,54.175-6.46ZM59.233,0h1.176V-4.361a1.868,1.868,0,0,1,1.935-2.078c1.176,0,1.736.629,1.736,1.955V0h1.176V-4.771A2.4,2.4,0,0,0,62.679-7.5a2.215,2.215,0,0,0-2.215,1.292h-.109V-7.369H59.233Z" transform="translate(188 264)" fill="#050505"/>
    <path id="Path_20" data-name="Path 20" d="M-72.167-3.9h2.427L-67.628,0h1.442l-2.283-4.095a2.817,2.817,0,0,0,1.982-2.83,2.864,2.864,0,0,0-3.145-2.939H-73.4V0h1.23Zm0-4.867h2.372a1.808,1.808,0,0,1,2.037,1.887A1.755,1.755,0,0,1-69.74-5h-2.427Zm12.441,6.863a1.909,1.909,0,0,1-1.9,1c-1.251,0-2.064-.923-2.126-2.379v-.055h5.3v-.451c0-2.29-1.21-3.705-3.2-3.705-2.023,0-3.322,1.5-3.322,3.821S-63.7.13-61.653.13a2.943,2.943,0,0,0,3.1-2.037ZM-61.667-6.46a1.984,1.984,0,0,1,1.976,2.167h-4.061A2.1,2.1,0,0,1-61.667-6.46Zm11.156,1.347A2.892,2.892,0,0,0-53.6-7.5c-2.064,0-3.377,1.49-3.377,3.787,0,2.345,1.319,3.842,3.384,3.842a2.846,2.846,0,0,0,3.083-2.352H-51.7A1.773,1.773,0,0,1-53.6-.93c-1.312,0-2.16-1.08-2.16-2.782,0-1.668.834-2.728,2.16-2.728a1.827,1.827,0,0,1,1.9,1.326Zm6.617,3.206a1.909,1.909,0,0,1-1.9,1c-1.251,0-2.064-.923-2.126-2.379v-.055h5.3v-.451c0-2.29-1.21-3.705-3.2-3.705-2.023,0-3.322,1.5-3.322,3.821S-47.865.13-45.821.13a2.943,2.943,0,0,0,3.1-2.037ZM-45.835-6.46a1.984,1.984,0,0,1,1.976,2.167H-47.92A2.1,2.1,0,0,1-45.835-6.46ZM-40.776,0H-39.6V-4.361a1.868,1.868,0,0,1,1.935-2.078c1.176,0,1.736.629,1.736,1.955V0h1.176V-4.771A2.4,2.4,0,0,0-37.331-7.5a2.215,2.215,0,0,0-2.215,1.292h-.109V-7.369h-1.121Zm8.661-9.276v1.907H-33.3v.984h1.189v4.471c0,1.408.608,1.969,2.126,1.969a3.939,3.939,0,0,0,.69-.068V-1a4.965,4.965,0,0,1-.547.027c-.766,0-1.094-.369-1.094-1.237v-4.17H-29.3v-.984h-1.641V-9.276ZM-27.453,0h1.176V-10.295h-1.176Zm4.088,2.666c1.306,0,1.894-.506,2.522-2.215l2.878-7.82h-1.251l-2.017,6.063h-.109l-2.023-6.063h-1.271L-21.909.007l-.137.438c-.308.889-.677,1.21-1.354,1.21a2.83,2.83,0,0,1-.492-.034v1A3.48,3.48,0,0,0-23.365,2.666ZM-6.344-5.113A2.892,2.892,0,0,0-9.434-7.5c-2.064,0-3.377,1.49-3.377,3.787,0,2.345,1.319,3.842,3.384,3.842A2.846,2.846,0,0,0-6.344-2.222H-7.533A1.773,1.773,0,0,1-9.434-.93c-1.312,0-2.16-1.08-2.16-2.782,0-1.668.834-2.728,2.16-2.728a1.827,1.827,0,0,1,1.9,1.326ZM-4.539,0h1.176V-4.361A1.9,1.9,0,0,1-1.319-6.439c1.114,0,1.7.649,1.7,1.955V0H1.559V-4.771A2.431,2.431,0,0,0-.984-7.5a2.294,2.294,0,0,0-2.27,1.292h-.109v-4.088H-4.539ZM8.586-1.907a1.909,1.909,0,0,1-1.9,1c-1.251,0-2.064-.923-2.126-2.379v-.055h5.3v-.451c0-2.29-1.21-3.705-3.2-3.705C4.635-7.5,3.336-6,3.336-3.678S4.614.13,6.658.13a2.943,2.943,0,0,0,3.1-2.037ZM6.645-6.46A1.984,1.984,0,0,1,8.62-4.293H4.56A2.1,2.1,0,0,1,6.645-6.46ZM17.8-5.113A2.892,2.892,0,0,0,14.711-7.5c-2.064,0-3.377,1.49-3.377,3.787,0,2.345,1.319,3.842,3.384,3.842A2.846,2.846,0,0,0,17.8-2.222H16.611a1.773,1.773,0,0,1-1.9,1.292c-1.312,0-2.16-1.08-2.16-2.782,0-1.668.834-2.728,2.16-2.728a1.827,1.827,0,0,1,1.9,1.326Zm3.09.964h-.109v-6.146H19.605V0h1.176V-2.8l.7-.656L24.247,0h1.5L22.36-4.211l3.172-3.158H24.09ZM31.678-1.907a1.909,1.909,0,0,1-1.9,1c-1.251,0-2.064-.923-2.126-2.379v-.055h5.3v-.451c0-2.29-1.21-3.705-3.2-3.705-2.023,0-3.322,1.5-3.322,3.821S27.706.13,29.75.13a2.943,2.943,0,0,0,3.1-2.037ZM29.736-6.46a1.984,1.984,0,0,1,1.976,2.167H27.651A2.1,2.1,0,0,1,29.736-6.46ZM37.522.13a2.641,2.641,0,0,0,2.358-1.306h.109V0h1.121V-10.295H39.936v4.088h-.1A2.518,2.518,0,0,0,37.522-7.5c-1.873,0-3.1,1.5-3.1,3.814S35.636.13,37.522.13ZM37.8-6.439c1.333,0,2.167,1.066,2.167,2.755S39.136-.93,37.8-.93s-2.153-1.032-2.153-2.755S36.456-6.439,37.8-6.439ZM47.961-8.791a.823.823,0,0,0,.82-.82.823.823,0,0,0-.82-.82.823.823,0,0,0-.82.82A.823.823,0,0,0,47.961-8.791ZM47.373,0h1.176V-7.369H47.373Zm3.418,0h1.176V-4.361A1.868,1.868,0,0,1,53.9-6.439c1.176,0,1.736.629,1.736,1.955V0h1.176V-4.771A2.4,2.4,0,0,0,54.236-7.5a2.215,2.215,0,0,0-2.215,1.292h-.109V-7.369H50.791ZM68.428-9.81a5.4,5.4,0,0,0-5.646,5.7c0,3.493,2.235,5.708,5.763,5.708a7.381,7.381,0,0,0,2.3-.335V.4a6.553,6.553,0,0,1-2.29.328,4.5,4.5,0,0,1-4.812-4.8,4.573,4.573,0,0,1,4.594-4.881c2.734,0,4.607,1.688,4.607,4.156,0,1.682-.554,2.769-1.415,2.769a.7.7,0,0,1-.772-.759V-6.795H69.727v.834h-.109a1.7,1.7,0,0,0-1.6-.964c-1.4,0-2.379,1.162-2.379,2.823,0,1.736.957,2.905,2.379,2.905a1.751,1.751,0,0,0,1.709-1.087h.109a1.411,1.411,0,0,0,1.5,1.148c1.572,0,2.57-1.415,2.57-3.644C73.91-7.745,71.661-9.81,68.428-9.81Zm-.239,3.828c.93,0,1.524.738,1.524,1.907s-.6,1.914-1.538,1.914c-.9,0-1.442-.725-1.442-1.914S67.272-5.981,68.188-5.981Z" transform="translate(100 491)" fill="#050505"/>
    <path id="Path_17" data-name="Path 17" d="M-56.113-9.864l-1.21,3.89h1.306l.786-3.89Zm2.618,0-1.073,3.89h1.306l.649-3.89ZM-46.344,0V-8.757h3.179V-9.864h-7.588v1.107h3.179V0Zm5,0h1.176V-4.361a1.9,1.9,0,0,1,2.044-2.078c1.114,0,1.7.649,1.7,1.955V0h1.176V-4.771A2.431,2.431,0,0,0-37.792-7.5a2.294,2.294,0,0,0-2.27,1.292h-.109v-4.088h-1.176Zm8.859-8.791a.823.823,0,0,0,.82-.82.823.823,0,0,0-.82-.82.823.823,0,0,0-.82.82A.823.823,0,0,0-32.488-8.791ZM-33.076,0H-31.9V-7.369h-1.176Zm3.247-5.353c0,1.066.629,1.661,2.01,2l1.265.308c.786.191,1.169.533,1.169,1.039,0,.677-.711,1.148-1.7,1.148A1.623,1.623,0,0,1-28.817-1.88h-1.21c.13,1.224,1.258,2.01,2.9,2.01,1.675,0,2.953-.909,2.953-2.229,0-1.06-.67-1.661-2.058-2l-1.135-.273c-.868-.212-1.278-.526-1.278-1.032,0-.656.684-1.1,1.559-1.1a1.5,1.5,0,0,1,1.62.978h1.162c-.157-1.21-1.23-1.976-2.775-1.976C-28.646-7.5-29.829-6.576-29.829-5.353Zm12.065-3.438a.823.823,0,0,0,.82-.82.823.823,0,0,0-.82-.82.823.823,0,0,0-.82.82A.823.823,0,0,0-17.763-8.791ZM-18.351,0h1.176V-7.369h-1.176ZM-15.1-5.353c0,1.066.629,1.661,2.01,2l1.265.308c.786.191,1.169.533,1.169,1.039,0,.677-.711,1.148-1.7,1.148A1.623,1.623,0,0,1-14.092-1.88H-15.3c.13,1.224,1.258,2.01,2.9,2.01,1.675,0,2.953-.909,2.953-2.229,0-1.06-.67-1.661-2.058-2l-1.135-.273c-.868-.212-1.278-.526-1.278-1.032,0-.656.684-1.1,1.559-1.1a1.5,1.5,0,0,1,1.62.978h1.162c-.157-1.21-1.23-1.976-2.775-1.976C-13.921-7.5-15.1-6.576-15.1-5.353ZM-1.6.13A2.546,2.546,0,0,0,.667-1.087H.776V0H1.9V-5.045c0-1.531-1-2.454-2.8-2.454C-2.478-7.5-3.64-6.72-3.8-5.537h1.189c.164-.581.779-.916,1.661-.916,1.1,0,1.668.5,1.668,1.408v.67l-2.126.13c-1.716.1-2.687.861-2.687,2.181A2.241,2.241,0,0,0-1.6.13ZM-1.384-.9c-.854,0-1.49-.437-1.49-1.189s.492-1.128,1.613-1.2l1.982-.13v.677A1.938,1.938,0,0,1-1.384-.9Zm9.9-8.374v1.907H7.325v.984H8.514v4.471c0,1.408.608,1.969,2.126,1.969a3.939,3.939,0,0,0,.69-.068V-1a4.965,4.965,0,0,1-.547.027c-.766,0-1.094-.369-1.094-1.237v-4.17h1.641v-.984H9.69V-9.276ZM15.159.13a2.546,2.546,0,0,0,2.27-1.217h.109V0h1.121V-5.045c0-1.531-1-2.454-2.8-2.454-1.572,0-2.734.779-2.892,1.962h1.189c.164-.581.779-.916,1.661-.916,1.1,0,1.668.5,1.668,1.408v.67l-2.126.13c-1.716.1-2.687.861-2.687,2.181A2.241,2.241,0,0,0,15.159.13ZM15.377-.9c-.854,0-1.49-.437-1.49-1.189s.492-1.128,1.613-1.2l1.982-.13v.677A1.938,1.938,0,0,1,15.377-.9Zm8.49,3.732c2.01,0,3.281-1.053,3.281-2.7v-7.5H26.028V-6.2h-.109a2.638,2.638,0,0,0-2.365-1.3c-1.894,0-3.09,1.5-3.09,3.705s1.183,3.685,3.09,3.685a2.556,2.556,0,0,0,2.311-1.271h.109V.068c0,1.087-.786,1.736-2.105,1.736-1.06,0-1.716-.39-1.846-.991H20.778C20.956,2.03,22.09,2.83,23.868,2.83Zm-.055-3.979c-1.367,0-2.133-1.039-2.133-2.646s.766-2.646,2.133-2.646S26-5.4,26-3.794,25.18-1.148,23.813-1.148ZM29.432,0h1.176V-10.295H29.432Zm4.074-8.791a.823.823,0,0,0,.82-.82.823.823,0,0,0-.82-.82.823.823,0,0,0-.82.82A.823.823,0,0,0,33.506-8.791ZM32.918,0h1.176V-7.369H32.918Zm3.418,0h1.176V-4.361a1.868,1.868,0,0,1,1.935-2.078c1.176,0,1.736.629,1.736,1.955V0h1.176V-4.771A2.4,2.4,0,0,0,39.782-7.5a2.215,2.215,0,0,0-2.215,1.292h-.109V-7.369H36.336Zm13.05-1.907a1.909,1.909,0,0,1-1.9,1c-1.251,0-2.064-.923-2.126-2.379v-.055h5.3v-.451c0-2.29-1.21-3.705-3.2-3.705-2.023,0-3.322,1.5-3.322,3.821S45.415.13,47.458.13a2.943,2.943,0,0,0,3.1-2.037ZM47.445-6.46A1.984,1.984,0,0,1,49.42-4.293H45.36A2.1,2.1,0,0,1,47.445-6.46Zm6.05.485,1.073-3.89H53.262l-.649,3.89Zm2.618,0,1.21-3.89H56.017l-.786,3.89Z" transform="translate(188 293)" fill="#050505"/>
    <path id="Path_19" data-name="Path 19" d="M7.246,11.893H2.488V3.136H1.258V13H7.246Zm4.5,1.237c2.1,0,3.4-1.449,3.4-3.814s-1.3-3.814-3.4-3.814-3.4,1.442-3.4,3.814S9.646,13.13,11.744,13.13Zm0-1.06c-1.395,0-2.181-1.012-2.181-2.755s.786-2.755,2.181-2.755,2.181,1,2.181,2.755S13.139,12.07,11.744,12.07Zm8.271,1.06c2.1,0,3.4-1.449,3.4-3.814s-1.3-3.814-3.4-3.814-3.4,1.442-3.4,3.814S17.917,13.13,20.016,13.13Zm0-1.06c-1.395,0-2.181-1.012-2.181-2.755s.786-2.755,2.181-2.755,2.181,1,2.181,2.755S21.41,12.07,20.016,12.07Zm6.6-3.22H26.5V2.705H25.327V13H26.5V10.2l.7-.656L29.969,13h1.5L28.082,8.789l3.172-3.158H29.812Zm6.863-4.642a.82.82,0,1,0-.82-.82A.823.823,0,0,0,33.476,4.209ZM32.888,13h1.176V5.631H32.888Zm3.418,0h1.176V8.639a1.868,1.868,0,0,1,1.935-2.078c1.176,0,1.736.629,1.736,1.955V13h1.176V8.229A2.4,2.4,0,0,0,39.751,5.5a2.215,2.215,0,0,0-2.215,1.292h-.109V5.631H36.306Zm11.2,2.83c2.01,0,3.281-1.053,3.281-2.7v-7.5H49.67V6.8h-.109A2.638,2.638,0,0,0,47.2,5.5c-1.894,0-3.09,1.5-3.09,3.705s1.183,3.685,3.09,3.685a2.556,2.556,0,0,0,2.311-1.271h.109v1.449c0,1.087-.786,1.736-2.105,1.736-1.06,0-1.716-.39-1.846-.991H44.42C44.6,15.03,45.732,15.83,47.51,15.83Zm-.055-3.979c-1.367,0-2.133-1.039-2.133-2.646s.766-2.646,2.133-2.646S49.643,7.6,49.643,9.206,48.822,11.852,47.455,11.852Zm9.994-8.128V5.631H56.26v.984h1.189v4.471c0,1.408.608,1.969,2.126,1.969a3.939,3.939,0,0,0,.69-.068V12a4.965,4.965,0,0,1-.547.027c-.766,0-1.094-.369-1.094-1.237V6.615h1.641V5.631H58.625V3.724Zm7.52,9.406c2.1,0,3.4-1.449,3.4-3.814s-1.3-3.814-3.4-3.814-3.4,1.442-3.4,3.814S62.87,13.13,64.969,13.13Zm0-1.06c-1.395,0-2.181-1.012-2.181-2.755s.786-2.755,2.181-2.755,2.181,1,2.181,2.755S66.363,12.07,64.969,12.07ZM80.261,7.887A2.892,2.892,0,0,0,77.171,5.5c-2.064,0-3.377,1.49-3.377,3.787,0,2.345,1.319,3.842,3.384,3.842a2.846,2.846,0,0,0,3.083-2.352H79.071a1.773,1.773,0,0,1-1.9,1.292c-1.312,0-2.16-1.08-2.16-2.782,0-1.668.834-2.728,2.16-2.728a1.827,1.827,0,0,1,1.9,1.326Zm4.765,5.243c2.1,0,3.4-1.449,3.4-3.814s-1.3-3.814-3.4-3.814-3.4,1.442-3.4,3.814S82.927,13.13,85.025,13.13Zm0-1.06c-1.395,0-2.181-1.012-2.181-2.755s.786-2.755,2.181-2.755,2.181,1,2.181,2.755S86.42,12.07,85.025,12.07Zm5.312.93h1.176V2.705H90.337Zm3.527,0H95.04V2.705H93.864Zm5.51.13a2.546,2.546,0,0,0,2.27-1.217h.109V13h1.121V7.955c0-1.531-1-2.454-2.8-2.454-1.572,0-2.734.779-2.892,1.962h1.189c.164-.581.779-.916,1.661-.916,1.1,0,1.668.5,1.668,1.408v.67l-2.126.13c-1.716.1-2.687.861-2.687,2.181A2.241,2.241,0,0,0,99.374,13.13Zm.219-1.032c-.854,0-1.49-.437-1.49-1.189s.492-1.128,1.613-1.2l1.982-.13v.677A1.938,1.938,0,0,1,99.593,12.1Zm9.119,1.032c1.866,0,3.09-1.511,3.09-3.814S110.585,5.5,108.712,5.5A2.544,2.544,0,0,0,106.4,6.793h-.109V2.705h-1.176V13h1.121V11.824h.109A2.644,2.644,0,0,0,108.712,13.13Zm-.273-6.569c1.347,0,2.146,1.032,2.146,2.755s-.8,2.755-2.146,2.755-2.174-1.053-2.174-2.755S107.1,6.561,108.438,6.561Zm8.237,6.569c2.1,0,3.4-1.449,3.4-3.814s-1.3-3.814-3.4-3.814-3.4,1.442-3.4,3.814S114.577,13.13,116.676,13.13Zm0-1.06c-1.395,0-2.181-1.012-2.181-2.755s.786-2.755,2.181-2.755,2.181,1,2.181,2.755S118.07,12.07,116.676,12.07Zm5.243.93h1.176V8.434a1.8,1.8,0,0,1,1.935-1.791,4.721,4.721,0,0,1,.752.068V5.535a5.049,5.049,0,0,0-.588-.034,2.058,2.058,0,0,0-2.044,1.224h-.109V5.631h-1.121Zm7.383.13a2.546,2.546,0,0,0,2.27-1.217h.109V13H132.8V7.955c0-1.531-1-2.454-2.8-2.454-1.572,0-2.734.779-2.892,1.962H128.3c.164-.581.779-.916,1.661-.916,1.1,0,1.668.5,1.668,1.408v.67l-2.126.13c-1.716.1-2.687.861-2.687,2.181A2.241,2.241,0,0,0,129.3,13.13Zm.219-1.032c-.854,0-1.49-.437-1.49-1.189s.492-1.128,1.613-1.2l1.982-.13v.677A1.938,1.938,0,0,1,129.521,12.1Zm5.947-8.374V5.631h-1.189v.984h1.189v4.471c0,1.408.608,1.969,2.126,1.969a3.939,3.939,0,0,0,.69-.068V12a4.965,4.965,0,0,1-.547.027c-.766,0-1.094-.369-1.094-1.237V6.615h1.641V5.631h-1.641V3.724Zm9.372,7.369a1.909,1.909,0,0,1-1.9,1c-1.251,0-2.064-.923-2.126-2.379V9.657h5.3V9.206c0-2.29-1.21-3.705-3.2-3.705-2.023,0-3.322,1.5-3.322,3.821s1.278,3.808,3.322,3.808a2.943,2.943,0,0,0,3.1-2.037ZM142.9,6.54a1.984,1.984,0,0,1,1.976,2.167h-4.061A2.1,2.1,0,0,1,142.9,6.54Zm18.279-.909H160l-1.449,5.893h-.109l-1.647-5.893h-1.128l-1.647,5.893H153.9l-1.449-5.893h-1.189L153.33,13h1.189l1.641-5.7h.109l1.647,5.7h1.2Zm2.188-1.422a.82.82,0,1,0-.82-.82A.823.823,0,0,0,163.365,4.209ZM162.777,13h1.176V5.631h-1.176Zm3.91-9.276V5.631H165.5v.984h1.189v4.471c0,1.408.608,1.969,2.126,1.969a3.939,3.939,0,0,0,.69-.068V12a4.965,4.965,0,0,1-.547.027c-.766,0-1.094-.369-1.094-1.237V6.615H169.5V5.631h-1.641V3.724ZM171.35,13h1.176V8.639a1.9,1.9,0,0,1,2.044-2.078c1.114,0,1.7.649,1.7,1.955V13h1.176V8.229A2.431,2.431,0,0,0,174.9,5.5a2.294,2.294,0,0,0-2.27,1.292h-.109V2.705H171.35Zm12.024-5.353c0,1.066.629,1.661,2.01,2l1.265.308c.786.191,1.169.533,1.169,1.039,0,.677-.711,1.148-1.7,1.148a1.623,1.623,0,0,1-1.729-1.019h-1.21c.13,1.224,1.258,2.01,2.9,2.01,1.675,0,2.953-.909,2.953-2.229,0-1.06-.67-1.661-2.058-2l-1.135-.273c-.868-.212-1.278-.526-1.278-1.032,0-.656.684-1.1,1.559-1.1a1.5,1.5,0,0,1,1.62.978H188.9c-.157-1.21-1.23-1.976-2.775-1.976C184.557,5.5,183.374,6.424,183.374,7.647ZM193.9,13.13c2.1,0,3.4-1.449,3.4-3.814S196,5.5,193.9,5.5s-3.4,1.442-3.4,3.814S191.8,13.13,193.9,13.13Zm0-1.06c-1.395,0-2.181-1.012-2.181-2.755s.786-2.755,2.181-2.755,2.181,1,2.181,2.755S195.3,12.07,193.9,12.07Zm5.735.93h1.176V6.615H202.5V5.631h-1.688V4.845c0-.807.355-1.217,1.2-1.217a3.236,3.236,0,0,1,.554.034V2.705a4.129,4.129,0,0,0-.793-.068,1.908,1.908,0,0,0-2.14,2.174v.82h-1.224v.984h1.224ZM204.7,3.724V5.631h-1.189v.984H204.7v4.471c0,1.408.608,1.969,2.126,1.969a3.939,3.939,0,0,0,.69-.068V12a4.965,4.965,0,0,1-.547.027c-.766,0-1.094-.369-1.094-1.237V6.615h1.641V5.631h-1.641V3.724Zm13.863,1.907h-1.183l-1.449,5.893h-.109l-1.647-5.893h-1.128L211.4,11.523h-.109l-1.449-5.893h-1.189L210.718,13h1.189l1.641-5.7h.109L215.3,13h1.2Zm3.418,7.5a2.546,2.546,0,0,0,2.27-1.217h.109V13h1.121V7.955c0-1.531-1-2.454-2.8-2.454-1.572,0-2.734.779-2.892,1.962h1.189c.164-.581.779-.916,1.661-.916,1.1,0,1.668.5,1.668,1.408v.67l-2.126.13c-1.716.1-2.687.861-2.687,2.181A2.241,2.241,0,0,0,221.983,13.13ZM222.2,12.1c-.854,0-1.49-.437-1.49-1.189s.492-1.128,1.613-1.2l1.982-.13v.677A1.938,1.938,0,0,1,222.2,12.1Zm5.455.9h1.176V8.434a1.8,1.8,0,0,1,1.935-1.791,4.721,4.721,0,0,1,.752.068V5.535a5.049,5.049,0,0,0-.588-.034,2.058,2.058,0,0,0-2.044,1.224h-.109V5.631h-1.121Zm10.008-1.907a1.909,1.909,0,0,1-1.9,1c-1.251,0-2.064-.923-2.126-2.379V9.657h5.3V9.206c0-2.29-1.21-3.705-3.2-3.705-2.023,0-3.322,1.5-3.322,3.821s1.278,3.808,3.322,3.808a2.943,2.943,0,0,0,3.1-2.037ZM235.724,6.54A1.984,1.984,0,0,1,237.7,8.707h-4.061A2.1,2.1,0,0,1,235.724,6.54Zm11.737,6.59a2.641,2.641,0,0,0,2.358-1.306h.109V13h1.121V2.705h-1.176V6.793h-.1A2.518,2.518,0,0,0,247.461,5.5c-1.873,0-3.1,1.5-3.1,3.814S245.574,13.13,247.461,13.13Zm.273-6.569c1.333,0,2.167,1.066,2.167,2.755s-.827,2.755-2.167,2.755-2.153-1.032-2.153-2.755S246.395,6.561,247.734,6.561Zm10.479,4.532a1.909,1.909,0,0,1-1.9,1c-1.251,0-2.064-.923-2.126-2.379V9.657h5.3V9.206c0-2.29-1.21-3.705-3.2-3.705-2.023,0-3.322,1.5-3.322,3.821s1.278,3.808,3.322,3.808a2.943,2.943,0,0,0,3.1-2.037ZM256.272,6.54a1.984,1.984,0,0,1,1.976,2.167h-4.061A2.1,2.1,0,0,1,256.272,6.54Zm10.938-.909h-1.258l-2.017,6.07h-.109l-2.017-6.07h-1.258L263.279,13h1.2Zm6.18,5.462a1.909,1.909,0,0,1-1.9,1c-1.251,0-2.064-.923-2.126-2.379V9.657h5.3V9.206c0-2.29-1.21-3.705-3.2-3.705-2.023,0-3.322,1.5-3.322,3.821s1.278,3.808,3.322,3.808a2.943,2.943,0,0,0,3.1-2.037ZM271.448,6.54a1.984,1.984,0,0,1,1.976,2.167h-4.061A2.1,2.1,0,0,1,271.448,6.54ZM276.575,13h1.176V2.705h-1.176Zm6.487.13c2.1,0,3.4-1.449,3.4-3.814s-1.3-3.814-3.4-3.814-3.4,1.442-3.4,3.814S280.964,13.13,283.063,13.13Zm0-1.06c-1.395,0-2.181-1.012-2.181-2.755s.786-2.755,2.181-2.755,2.181,1,2.181,2.755S284.457,12.07,283.063,12.07ZM291.895,5.5a2.657,2.657,0,0,0-2.358,1.36h-.109V5.631h-1.121v9.83h1.176V11.893h.109a2.473,2.473,0,0,0,2.3,1.237c1.873,0,3.1-1.511,3.1-3.814S293.774,5.5,291.895,5.5Zm-.28,6.569c-1.326,0-2.167-1.066-2.167-2.755s.841-2.755,2.174-2.755,2.153,1.032,2.153,2.755S292.968,12.07,291.614,12.07Zm10.1-.978a1.909,1.909,0,0,1-1.9,1c-1.251,0-2.064-.923-2.126-2.379V9.657h5.3V9.206c0-2.29-1.21-3.705-3.2-3.705-2.023,0-3.322,1.5-3.322,3.821s1.278,3.808,3.322,3.808a2.943,2.943,0,0,0,3.1-2.037ZM299.776,6.54a1.984,1.984,0,0,1,1.976,2.167h-4.061A2.1,2.1,0,0,1,299.776,6.54ZM304.835,13h1.176V8.434a1.8,1.8,0,0,1,1.935-1.791,4.721,4.721,0,0,1,.752.068V5.535a5.049,5.049,0,0,0-.588-.034,2.058,2.058,0,0,0-2.044,1.224h-.109V5.631h-1.121Zm5.024-5.353c0,1.066.629,1.661,2.01,2l1.265.308c.786.191,1.169.533,1.169,1.039,0,.677-.711,1.148-1.7,1.148a1.623,1.623,0,0,1-1.729-1.019h-1.21c.13,1.224,1.258,2.01,2.9,2.01,1.675,0,2.953-.909,2.953-2.229,0-1.06-.67-1.661-2.058-2l-1.135-.273c-.868-.212-1.278-.526-1.278-1.032,0-.656.684-1.1,1.559-1.1a1.5,1.5,0,0,1,1.62.978h1.162c-.157-1.21-1.23-1.976-2.775-1.976C311.042,5.5,309.859,6.424,309.859,7.647ZM1.654,24.9A9.829,9.829,0,0,0,3.6,31.1h1a11.355,11.355,0,0,1-1.729-6.2,11.424,11.424,0,0,1,1.729-6.193h-1A9.823,9.823,0,0,0,1.654,24.9ZM8.5,29.13a2.546,2.546,0,0,0,2.27-1.217h.109V29H12V23.955c0-1.531-1-2.454-2.8-2.454-1.572,0-2.734.779-2.892,1.962H7.5c.164-.581.779-.916,1.661-.916,1.1,0,1.668.5,1.668,1.408v.67l-2.126.13c-1.716.1-2.687.861-2.687,2.181A2.241,2.241,0,0,0,8.5,29.13ZM8.723,28.1c-.854,0-1.49-.437-1.49-1.189s.492-1.128,1.613-1.2l1.982-.13v.677A1.938,1.938,0,0,1,8.723,28.1Zm9.044-6.6a2.657,2.657,0,0,0-2.358,1.36H15.3v-1.23H14.178v9.83h1.176V27.893h.109a2.473,2.473,0,0,0,2.3,1.237c1.873,0,3.1-1.511,3.1-3.814S19.646,21.5,17.767,21.5Zm-.28,6.569c-1.326,0-2.167-1.066-2.167-2.755s.841-2.755,2.174-2.755,2.153,1.032,2.153,2.755S18.84,28.07,17.486,28.07ZM26.3,21.5a2.657,2.657,0,0,0-2.358,1.36H23.83v-1.23H22.709v9.83h1.176V27.893h.109a2.473,2.473,0,0,0,2.3,1.237c1.873,0,3.1-1.511,3.1-3.814S28.178,21.5,26.3,21.5Zm-.28,6.569c-1.326,0-2.167-1.066-2.167-2.755s.841-2.755,2.174-2.755,2.153,1.032,2.153,2.755S27.371,28.07,26.018,28.07Zm11.225,1.06a2.546,2.546,0,0,0,2.27-1.217h.109V29h1.121V23.955c0-1.531-1-2.454-2.8-2.454-1.572,0-2.734.779-2.892,1.962h1.189c.164-.581.779-.916,1.661-.916,1.1,0,1.668.5,1.668,1.408v.67l-2.126.13c-1.716.1-2.687.861-2.687,2.181A2.241,2.241,0,0,0,37.242,29.13Zm.219-1.032c-.854,0-1.49-.437-1.49-1.189s.492-1.128,1.613-1.2l1.982-.13v.677A1.938,1.938,0,0,1,37.461,28.1Zm5.455.9h1.176V24.639a1.868,1.868,0,0,1,1.935-2.078c1.176,0,1.736.629,1.736,1.955V29h1.176V24.229A2.4,2.4,0,0,0,46.361,21.5a2.215,2.215,0,0,0-2.215,1.292h-.109V21.631H42.916Zm10.9.13a2.641,2.641,0,0,0,2.358-1.306h.109V29H57.4V18.705H56.226v4.088h-.1A2.518,2.518,0,0,0,53.813,21.5c-1.873,0-3.1,1.5-3.1,3.814S51.926,29.13,53.813,29.13Zm.273-6.569c1.333,0,2.167,1.066,2.167,2.755s-.827,2.755-2.167,2.755-2.153-1.032-2.153-2.755S52.746,22.561,54.086,22.561Zm18.819-.93H71.723l-1.449,5.893h-.109l-1.647-5.893H67.389l-1.647,5.893h-.109l-1.449-5.893H62.993L65.058,29h1.189l1.641-5.7H68L69.645,29h1.2Zm6.18,5.462a1.909,1.909,0,0,1-1.9,1c-1.251,0-2.064-.923-2.126-2.379v-.055h5.3v-.451c0-2.29-1.21-3.705-3.2-3.705-2.023,0-3.322,1.5-3.322,3.821s1.278,3.808,3.322,3.808a2.943,2.943,0,0,0,3.1-2.037ZM77.144,22.54a1.984,1.984,0,0,1,1.976,2.167H75.059A2.1,2.1,0,0,1,77.144,22.54Zm8.723,6.59c1.866,0,3.09-1.511,3.09-3.814S87.739,21.5,85.866,21.5a2.544,2.544,0,0,0-2.311,1.292h-.109V18.705H82.271V29h1.121V27.824H83.5A2.644,2.644,0,0,0,85.866,29.13Zm-.273-6.569c1.347,0,2.146,1.032,2.146,2.755s-.8,2.755-2.146,2.755-2.174-1.053-2.174-2.755S84.253,22.561,85.593,22.561Zm7.793,2.345a9.829,9.829,0,0,0-1.941-6.2h-1a11.355,11.355,0,0,1,1.729,6.2A11.424,11.424,0,0,1,90.446,31.1h1A9.823,9.823,0,0,0,93.386,24.905Zm6.542-1.258c0,1.066.629,1.661,2.01,2l1.265.308c.786.191,1.169.533,1.169,1.039,0,.677-.711,1.148-1.7,1.148a1.623,1.623,0,0,1-1.729-1.019h-1.21c.13,1.224,1.258,2.01,2.9,2.01,1.675,0,2.953-.909,2.953-2.229,0-1.06-.67-1.661-2.058-2l-1.135-.273c-.868-.212-1.278-.526-1.278-1.032,0-.656.684-1.1,1.559-1.1a1.5,1.5,0,0,1,1.62.978h1.162c-.157-1.21-1.23-1.976-2.775-1.976C101.11,21.5,99.928,22.424,99.928,23.647Zm10.527,5.482c2.1,0,3.4-1.449,3.4-3.814s-1.3-3.814-3.4-3.814-3.4,1.442-3.4,3.814S108.356,29.13,110.455,29.13Zm0-1.06c-1.395,0-2.181-1.012-2.181-2.755s.786-2.755,2.181-2.755,2.181,1,2.181,2.755S111.85,28.07,110.455,28.07ZM121.8,23.887a2.892,2.892,0,0,0-3.09-2.386c-2.064,0-3.377,1.49-3.377,3.787,0,2.345,1.319,3.842,3.384,3.842a2.846,2.846,0,0,0,3.083-2.352h-1.189a1.773,1.773,0,0,1-1.9,1.292c-1.312,0-2.16-1.08-2.16-2.782,0-1.668.834-2.728,2.16-2.728a1.827,1.827,0,0,1,1.9,1.326Zm2.352-3.678a.82.82,0,1,0-.82-.82A.823.823,0,0,0,124.147,20.209ZM123.56,29h1.176V21.631H123.56Zm5.469.13a2.546,2.546,0,0,0,2.27-1.217h.109V29h1.121V23.955c0-1.531-1-2.454-2.8-2.454-1.572,0-2.734.779-2.892,1.962h1.189c.164-.581.779-.916,1.661-.916,1.1,0,1.668.5,1.668,1.408v.67l-2.126.13c-1.716.1-2.687.861-2.687,2.181A2.241,2.241,0,0,0,129.028,29.13Zm.219-1.032c-.854,0-1.49-.437-1.49-1.189s.492-1.128,1.613-1.2l1.982-.13v.677A1.938,1.938,0,0,1,129.247,28.1Zm5.523.9h1.176V18.705h-1.176Zm7.41,0h1.176V24.434a1.781,1.781,0,0,1,1.709-1.873A1.4,1.4,0,0,1,146.6,24v5h1.176V24.263a1.658,1.658,0,0,1,1.709-1.7c1.039,0,1.552.533,1.552,1.62V29h1.176V23.907a2.15,2.15,0,0,0-2.345-2.406,2.467,2.467,0,0,0-2.256,1.292h-.109a2.127,2.127,0,0,0-2.037-1.292,2.085,2.085,0,0,0-2.058,1.292H143.3V21.631h-1.121Zm17.063-1.907a1.909,1.909,0,0,1-1.9,1c-1.251,0-2.064-.923-2.126-2.379v-.055h5.3v-.451c0-2.29-1.21-3.705-3.2-3.705-2.023,0-3.322,1.5-3.322,3.821s1.278,3.808,3.322,3.808a2.943,2.943,0,0,0,3.1-2.037ZM157.3,22.54a1.984,1.984,0,0,1,1.976,2.167h-4.061A2.1,2.1,0,0,1,157.3,22.54Zm7.786,6.59a2.641,2.641,0,0,0,2.358-1.306h.109V29h1.121V18.705H167.5v4.088h-.1a2.518,2.518,0,0,0-2.311-1.292c-1.873,0-3.1,1.5-3.1,3.814S163.2,29.13,165.088,29.13Zm.273-6.569c1.333,0,2.167,1.066,2.167,2.755s-.827,2.755-2.167,2.755-2.153-1.032-2.153-2.755S164.021,22.561,165.361,22.561Zm6.214-2.352a.82.82,0,1,0-.82-.82A.823.823,0,0,0,171.575,20.209ZM170.987,29h1.176V21.631h-1.176Zm5.469.13a2.546,2.546,0,0,0,2.27-1.217h.109V29h1.121V23.955c0-1.531-1-2.454-2.8-2.454-1.572,0-2.734.779-2.892,1.962h1.189c.164-.581.779-.916,1.661-.916,1.1,0,1.668.5,1.668,1.408v.67l-2.126.13c-1.716.1-2.687.861-2.687,2.181A2.241,2.241,0,0,0,176.456,29.13Zm.219-1.032c-.854,0-1.49-.437-1.49-1.189s.492-1.128,1.613-1.2l1.982-.13v.677A1.938,1.938,0,0,1,176.675,28.1Zm12.441,3.732c2.01,0,3.281-1.053,3.281-2.7v-7.5h-1.121V22.8h-.109a2.638,2.638,0,0,0-2.365-1.3c-1.894,0-3.09,1.5-3.09,3.705s1.183,3.685,3.09,3.685a2.556,2.556,0,0,0,2.311-1.271h.109v1.449c0,1.087-.786,1.736-2.105,1.736-1.06,0-1.716-.39-1.846-.991h-1.244C186.2,31.03,187.339,31.83,189.116,31.83Zm-.055-3.979c-1.367,0-2.133-1.039-2.133-2.646s.766-2.646,2.133-2.646,2.188,1.039,2.188,2.646S190.429,27.852,189.062,27.852Zm11.512-6.221H199.4v4.361a1.854,1.854,0,0,1-2.01,2.064c-1.176,0-1.668-.615-1.668-1.941V21.631h-1.176V26.4c0,1.743.861,2.728,2.516,2.728a2.3,2.3,0,0,0,2.283-1.285h.109V29h1.121ZM202.788,29h1.176V24.434a1.8,1.8,0,0,1,1.935-1.791,4.721,4.721,0,0,1,.752.068V21.535a5.049,5.049,0,0,0-.588-.034,2.058,2.058,0,0,0-2.044,1.224h-.109V21.631h-1.121Zm11.293-7.369h-1.176v4.361a1.854,1.854,0,0,1-2.01,2.064c-1.176,0-1.668-.615-1.668-1.941V21.631h-1.176V26.4c0,1.743.861,2.728,2.516,2.728a2.3,2.3,0,0,0,2.283-1.285h.109V29h1.121Zm2.044,2.017c0,1.066.629,1.661,2.01,2l1.265.308c.786.191,1.169.533,1.169,1.039,0,.677-.711,1.148-1.7,1.148a1.623,1.623,0,0,1-1.729-1.019h-1.21c.13,1.224,1.258,2.01,2.9,2.01,1.675,0,2.953-.909,2.953-2.229,0-1.06-.67-1.661-2.058-2l-1.135-.273c-.868-.212-1.278-.526-1.278-1.032,0-.656.684-1.1,1.559-1.1a1.5,1.5,0,0,1,1.62.978h1.162c-.157-1.21-1.23-1.976-2.775-1.976C217.308,21.5,216.125,22.424,216.125,23.647Zm8.244,7.861,1.073-3.89h-1.306l-.649,3.89ZM234.76,29.13c2.1,0,3.4-1.449,3.4-3.814s-1.3-3.814-3.4-3.814-3.4,1.442-3.4,3.814S232.661,29.13,234.76,29.13Zm0-1.06c-1.395,0-2.181-1.012-2.181-2.755s.786-2.755,2.181-2.755,2.181,1,2.181,2.755S236.154,28.07,234.76,28.07Zm11.2-6.439h-1.176v4.361a1.854,1.854,0,0,1-2.01,2.064c-1.176,0-1.668-.615-1.668-1.941V21.631h-1.176V26.4c0,1.743.861,2.728,2.516,2.728a2.3,2.3,0,0,0,2.283-1.285h.109V29h1.121Zm2.707-1.907v1.907h-1.189v.984h1.189v4.471c0,1.408.608,1.969,2.126,1.969a3.939,3.939,0,0,0,.69-.068V28a4.965,4.965,0,0,1-.547.027c-.766,0-1.094-.369-1.094-1.237v-4.17h1.641v-.984h-1.641V19.724Zm4.286,3.924c0,1.066.629,1.661,2.01,2l1.265.308c.786.191,1.169.533,1.169,1.039,0,.677-.711,1.148-1.7,1.148a1.623,1.623,0,0,1-1.729-1.019h-1.21c.13,1.224,1.258,2.01,2.9,2.01,1.675,0,2.953-.909,2.953-2.229,0-1.06-.67-1.661-2.058-2l-1.135-.273c-.868-.212-1.278-.526-1.278-1.032,0-.656.684-1.1,1.559-1.1a1.5,1.5,0,0,1,1.62.978h1.162c-.157-1.21-1.23-1.976-2.775-1.976C254.14,21.5,252.957,22.424,252.957,23.647Zm8.114-3.438a.82.82,0,1,0-.82-.82A.823.823,0,0,0,261.071,20.209ZM260.483,29h1.176V21.631h-1.176Zm6.146.13a2.641,2.641,0,0,0,2.358-1.306h.109V29h1.121V18.705h-1.176v4.088h-.1a2.518,2.518,0,0,0-2.311-1.292c-1.873,0-3.1,1.5-3.1,3.814S264.742,29.13,266.629,29.13Zm.273-6.569c1.333,0,2.167,1.066,2.167,2.755s-.827,2.755-2.167,2.755-2.153-1.032-2.153-2.755S265.563,22.561,266.9,22.561Zm10.479,4.532a1.909,1.909,0,0,1-1.9,1c-1.251,0-2.064-.923-2.126-2.379v-.055h5.3v-.451c0-2.29-1.21-3.705-3.2-3.705-2.023,0-3.322,1.5-3.322,3.821s1.278,3.808,3.322,3.808a2.943,2.943,0,0,0,3.1-2.037ZM275.44,22.54a1.984,1.984,0,0,1,1.976,2.167h-4.061A2.1,2.1,0,0,1,275.44,22.54Zm9.5-2.816v1.907h-1.189v.984h1.189v4.471c0,1.408.608,1.969,2.126,1.969a3.939,3.939,0,0,0,.69-.068V28a4.965,4.965,0,0,1-.547.027c-.766,0-1.094-.369-1.094-1.237v-4.17h1.641v-.984h-1.641V19.724ZM289.6,29h1.176V24.639a1.9,1.9,0,0,1,2.044-2.078c1.114,0,1.7.649,1.7,1.955V29H295.7V24.229a2.431,2.431,0,0,0-2.543-2.728,2.294,2.294,0,0,0-2.27,1.292h-.109V18.705H289.6Zm13.125-1.907a1.909,1.909,0,0,1-1.9,1c-1.251,0-2.064-.923-2.126-2.379v-.055H304v-.451c0-2.29-1.21-3.705-3.2-3.705-2.023,0-3.322,1.5-3.322,3.821s1.278,3.808,3.322,3.808a2.943,2.943,0,0,0,3.1-2.037Zm-1.941-4.553a1.984,1.984,0,0,1,1.976,2.167H298.7A2.1,2.1,0,0,1,300.788,22.54ZM4.771,45.13c1.866,0,3.09-1.511,3.09-3.814S6.645,37.5,4.771,37.5a2.544,2.544,0,0,0-2.311,1.292H2.352V34.705H1.176V45H2.3V43.824h.109A2.644,2.644,0,0,0,4.771,45.13ZM4.5,38.561c1.347,0,2.146,1.032,2.146,2.755S5.845,44.07,4.5,44.07s-2.174-1.053-2.174-2.755S3.158,38.561,4.5,38.561Zm8.237,6.569c2.1,0,3.4-1.449,3.4-3.814s-1.3-3.814-3.4-3.814-3.4,1.442-3.4,3.814S10.637,45.13,12.735,45.13Zm0-1.06c-1.395,0-2.181-1.012-2.181-2.755s.786-2.755,2.181-2.755,2.181,1,2.181,2.755S14.13,44.07,12.735,44.07Zm7.506-1.832,1.743,2.782h1.395l-2.536-3.732,2.5-3.637H22.012l-1.729,2.741h-.109l-1.75-2.741h-1.4l2.55,3.685-2.522,3.685h1.333l1.75-2.782ZM28.93,45h1.176V40.434a1.781,1.781,0,0,1,1.709-1.873A1.4,1.4,0,0,1,33.353,40v5h1.176V40.263a1.658,1.658,0,0,1,1.709-1.7c1.039,0,1.552.533,1.552,1.62V45h1.176V39.907A2.15,2.15,0,0,0,36.62,37.5a2.467,2.467,0,0,0-2.256,1.292h-.109A2.127,2.127,0,0,0,32.218,37.5a2.085,2.085,0,0,0-2.058,1.292h-.109V37.631H28.93Zm14.232.13a2.546,2.546,0,0,0,2.27-1.217h.109V45h1.121V39.955c0-1.531-1-2.454-2.8-2.454-1.572,0-2.734.779-2.892,1.962h1.189c.164-.581.779-.916,1.661-.916,1.1,0,1.668.5,1.668,1.408v.67l-2.126.13c-1.716.1-2.687.861-2.687,2.181A2.241,2.241,0,0,0,43.162,45.13Zm.219-1.032c-.854,0-1.49-.437-1.49-1.189s.492-1.128,1.613-1.2l1.982-.13v.677A1.938,1.938,0,0,1,43.381,44.1Zm5.455.9h1.176V40.434a1.8,1.8,0,0,1,1.935-1.791,4.721,4.721,0,0,1,.752.068V37.535a5.049,5.049,0,0,0-.588-.034,2.058,2.058,0,0,0-2.044,1.224h-.109V37.631H48.836Zm6.686-4.149h-.109V34.705H54.236V45h1.176V42.2l.7-.656L58.878,45h1.5l-3.384-4.211,3.172-3.158H58.721Zm10.787,2.242a1.909,1.909,0,0,1-1.9,1c-1.251,0-2.064-.923-2.126-2.379v-.055h5.3v-.451c0-2.29-1.21-3.705-3.2-3.705-2.023,0-3.322,1.5-3.322,3.821s1.278,3.808,3.322,3.808a2.943,2.943,0,0,0,3.1-2.037ZM64.367,38.54a1.984,1.984,0,0,1,1.976,2.167H62.282A2.1,2.1,0,0,1,64.367,38.54Zm5.551-2.816v1.907H68.729v.984h1.189v4.471c0,1.408.608,1.969,2.126,1.969a3.939,3.939,0,0,0,.69-.068V44a4.965,4.965,0,0,1-.547.027c-.766,0-1.094-.369-1.094-1.237v-4.17h1.641v-.984H71.094V35.724Zm5.209.485a.82.82,0,1,0-.82-.82A.823.823,0,0,0,75.127,36.209ZM74.539,45h1.176V37.631H74.539Zm3.418,0h1.176V40.639a1.868,1.868,0,0,1,1.935-2.078c1.176,0,1.736.629,1.736,1.955V45h1.176V40.229A2.4,2.4,0,0,0,81.4,37.5a2.215,2.215,0,0,0-2.215,1.292h-.109V37.631H77.957Zm11.2,2.83c2.01,0,3.281-1.053,3.281-2.7v-7.5H91.321V38.8h-.109a2.638,2.638,0,0,0-2.365-1.3c-1.894,0-3.09,1.5-3.09,3.705s1.183,3.685,3.09,3.685a2.556,2.556,0,0,0,2.311-1.271h.109v1.449c0,1.087-.786,1.736-2.105,1.736-1.06,0-1.716-.39-1.846-.991H86.071C86.249,47.03,87.384,47.83,89.161,47.83Zm-.055-3.979c-1.367,0-2.133-1.039-2.133-2.646s.766-2.646,2.133-2.646,2.188,1.039,2.188,2.646S90.474,43.852,89.106,43.852Zm14.383-.759a1.909,1.909,0,0,1-1.9,1c-1.251,0-2.064-.923-2.126-2.379v-.055h5.3v-.451c0-2.29-1.21-3.705-3.2-3.705-2.023,0-3.322,1.5-3.322,3.821s1.278,3.808,3.322,3.808a2.943,2.943,0,0,0,3.1-2.037Zm-1.941-4.553a1.984,1.984,0,0,1,1.976,2.167H99.463A2.1,2.1,0,0,1,101.548,38.54Zm7.39,3.7,1.743,2.782h1.395l-2.536-3.732,2.5-3.637h-1.333l-1.729,2.741h-.109l-1.75-2.741h-1.4l2.55,3.685-2.522,3.685h1.333l1.75-2.782Zm8.326-4.737a2.657,2.657,0,0,0-2.358,1.36H114.8v-1.23h-1.121v9.83h1.176V43.893h.109a2.473,2.473,0,0,0,2.3,1.237c1.873,0,3.1-1.511,3.1-3.814S119.144,37.5,117.264,37.5Zm-.28,6.569c-1.326,0-2.167-1.066-2.167-2.755s.841-2.755,2.174-2.755,2.153,1.032,2.153,2.755S118.337,44.07,116.983,44.07Zm10.1-.978a1.909,1.909,0,0,1-1.9,1c-1.251,0-2.064-.923-2.126-2.379v-.055h5.3v-.451c0-2.29-1.21-3.705-3.2-3.705-2.023,0-3.322,1.5-3.322,3.821s1.278,3.808,3.322,3.808a2.943,2.943,0,0,0,3.1-2.037Zm-1.941-4.553a1.984,1.984,0,0,1,1.976,2.167h-4.061A2.1,2.1,0,0,1,125.146,38.54ZM130.2,45h1.176V40.434a1.8,1.8,0,0,1,1.935-1.791,4.721,4.721,0,0,1,.752.068V37.535a5.049,5.049,0,0,0-.588-.034,2.058,2.058,0,0,0-2.044,1.224h-.109V37.631H130.2Zm6.234-9.276v1.907h-1.189v.984h1.189v4.471c0,1.408.608,1.969,2.126,1.969a3.939,3.939,0,0,0,.69-.068V44a4.965,4.965,0,0,1-.547.027c-.766,0-1.094-.369-1.094-1.237v-4.17h1.641v-.984h-1.641V35.724Zm4.286,3.924c0,1.066.629,1.661,2.01,2l1.265.308c.786.191,1.169.533,1.169,1.039,0,.677-.711,1.148-1.7,1.148a1.623,1.623,0,0,1-1.729-1.019h-1.21c.13,1.224,1.258,2.01,2.9,2.01,1.675,0,2.953-.909,2.953-2.229,0-1.06-.67-1.661-2.058-2l-1.135-.273c-.868-.212-1.278-.526-1.278-1.032,0-.656.684-1.1,1.559-1.1a1.5,1.5,0,0,1,1.62.978h1.162c-.157-1.21-1.23-1.976-2.775-1.976C141.907,37.5,140.725,38.424,140.725,39.647Zm8.47,5.421a.889.889,0,1,0-.889-.889A.891.891,0,0,0,149.194,45.068Zm11.259.164a3.752,3.752,0,0,0,3.985-2.98h-1.251a2.64,2.64,0,0,1-2.734,1.846c-1.9,0-3.09-1.552-3.09-4.026s1.189-4.033,3.083-4.033a2.711,2.711,0,0,1,2.741,2.071h1.251a3.848,3.848,0,0,0-3.992-3.206c-2.68,0-4.348,1.982-4.348,5.168S157.773,45.232,160.453,45.232Zm11.86-7.6h-1.176v4.361a1.854,1.854,0,0,1-2.01,2.064c-1.176,0-1.668-.615-1.668-1.941V37.631h-1.176V42.4c0,1.743.861,2.728,2.516,2.728a2.3,2.3,0,0,0,2.283-1.285h.109V45h1.121ZM174.528,45H175.7V40.434a1.8,1.8,0,0,1,1.935-1.791,4.721,4.721,0,0,1,.752.068V37.535a5.049,5.049,0,0,0-.588-.034,2.058,2.058,0,0,0-2.044,1.224h-.109V37.631h-1.121ZM180,45h1.176V40.434a1.8,1.8,0,0,1,1.935-1.791,4.721,4.721,0,0,1,.752.068V37.535a5.049,5.049,0,0,0-.588-.034,2.058,2.058,0,0,0-2.044,1.224h-.109V37.631H180ZM190,43.093a1.909,1.909,0,0,1-1.9,1c-1.251,0-2.064-.923-2.126-2.379v-.055h5.3v-.451c0-2.29-1.21-3.705-3.2-3.705-2.023,0-3.322,1.5-3.322,3.821s1.278,3.808,3.322,3.808a2.943,2.943,0,0,0,3.1-2.037Zm-1.941-4.553a1.984,1.984,0,0,1,1.976,2.167h-4.061A2.1,2.1,0,0,1,188.063,38.54ZM193.122,45H194.3V40.639a1.868,1.868,0,0,1,1.935-2.078c1.176,0,1.736.629,1.736,1.955V45h1.176V40.229a2.4,2.4,0,0,0-2.577-2.728,2.215,2.215,0,0,0-2.215,1.292h-.109V37.631h-1.121Zm8.661-9.276v1.907h-1.189v.984h1.189v4.471c0,1.408.608,1.969,2.126,1.969a3.939,3.939,0,0,0,.69-.068V44a4.965,4.965,0,0,1-.547.027c-.766,0-1.094-.369-1.094-1.237v-4.17H204.6v-.984h-1.641V35.724ZM206.445,45h1.176V34.705h-1.176Zm4.088,2.666c1.306,0,1.894-.506,2.522-2.215l2.878-7.82h-1.251l-2.017,6.063h-.109l-2.023-6.063h-1.271l2.728,7.376-.137.438c-.308.889-.677,1.21-1.354,1.21a2.83,2.83,0,0,1-.492-.034v1A3.48,3.48,0,0,0,210.533,47.666Zm20.193-10.035h-1.183l-1.449,5.893h-.109l-1.647-5.893H225.21l-1.647,5.893h-.109L222,37.631h-1.189L222.879,45h1.189l1.641-5.7h.109l1.647,5.7h1.2Zm4.327,7.5c2.1,0,3.4-1.449,3.4-3.814s-1.3-3.814-3.4-3.814-3.4,1.442-3.4,3.814S232.955,45.13,235.054,45.13Zm0-1.06c-1.395,0-2.181-1.012-2.181-2.755s.786-2.755,2.181-2.755,2.181,1,2.181,2.755S236.448,44.07,235.054,44.07ZM240.3,45h1.176V40.434a1.8,1.8,0,0,1,1.935-1.791,4.721,4.721,0,0,1,.752.068V37.535a5.049,5.049,0,0,0-.588-.034,2.058,2.058,0,0,0-2.044,1.224h-.109V37.631H240.3Zm6.686-4.149h-.109V34.705H245.7V45h1.176V42.2l.7-.656L250.339,45h1.5l-3.384-4.211,3.172-3.158h-1.442Zm6.863-4.642a.82.82,0,1,0-.82-.82A.823.823,0,0,0,253.846,36.209ZM253.258,45h1.176V37.631h-1.176Zm3.418,0h1.176V40.639a1.868,1.868,0,0,1,1.935-2.078c1.176,0,1.736.629,1.736,1.955V45H262.7V40.229a2.4,2.4,0,0,0-2.577-2.728,2.215,2.215,0,0,0-2.215,1.292H257.8V37.631h-1.121Zm11.2,2.83c2.01,0,3.281-1.053,3.281-2.7v-7.5H270.04V38.8h-.109a2.638,2.638,0,0,0-2.365-1.3c-1.894,0-3.09,1.5-3.09,3.705s1.183,3.685,3.09,3.685a2.556,2.556,0,0,0,2.311-1.271h.109v1.449c0,1.087-.786,1.736-2.105,1.736-1.06,0-1.716-.39-1.846-.991H264.79C264.968,47.03,266.1,47.83,267.88,47.83Zm-.055-3.979c-1.367,0-2.133-1.039-2.133-2.646s.766-2.646,2.133-2.646,2.188,1.039,2.188,2.646S269.192,43.852,267.825,43.852Zm11.553,1.278a2.546,2.546,0,0,0,2.27-1.217h.109V45h1.121V39.955c0-1.531-1-2.454-2.8-2.454-1.572,0-2.734.779-2.892,1.962h1.189c.164-.581.779-.916,1.661-.916,1.1,0,1.668.5,1.668,1.408v.67l-2.126.13c-1.716.1-2.687.861-2.687,2.181A2.241,2.241,0,0,0,279.378,45.13ZM279.6,44.1c-.854,0-1.49-.437-1.49-1.189s.492-1.128,1.613-1.2l1.982-.13v.677A1.938,1.938,0,0,1,279.6,44.1Zm5.284-4.45c0,1.066.629,1.661,2.01,2l1.265.308c.786.191,1.169.533,1.169,1.039,0,.677-.711,1.148-1.7,1.148a1.623,1.623,0,0,1-1.729-1.019h-1.21c.13,1.224,1.258,2.01,2.9,2.01,1.675,0,2.953-.909,2.953-2.229,0-1.06-.67-1.661-2.058-2l-1.135-.273c-.868-.212-1.278-.526-1.278-1.032,0-.656.684-1.1,1.559-1.1a1.5,1.5,0,0,1,1.62.978H290.4c-.157-1.21-1.23-1.976-2.775-1.976C286.063,37.5,284.881,38.424,284.881,39.647Zm13.5,5.482a2.546,2.546,0,0,0,2.27-1.217h.109V45h1.121V39.955c0-1.531-1-2.454-2.8-2.454-1.572,0-2.734.779-2.892,1.962h1.189c.164-.581.779-.916,1.661-.916,1.1,0,1.668.5,1.668,1.408v.67l-2.126.13c-1.716.1-2.687.861-2.687,2.181A2.241,2.241,0,0,0,298.382,45.13ZM298.6,44.1c-.854,0-1.49-.437-1.49-1.189s.492-1.128,1.613-1.2l1.982-.13v.677A1.938,1.938,0,0,1,298.6,44.1ZM3.835,61.13a2.641,2.641,0,0,0,2.358-1.306H6.3V61H7.424V50.705H6.248v4.088h-.1A2.518,2.518,0,0,0,3.835,53.5c-1.873,0-3.1,1.5-3.1,3.814S1.948,61.13,3.835,61.13Zm.273-6.569c1.333,0,2.167,1.066,2.167,2.755S5.448,60.07,4.108,60.07s-2.153-1.032-2.153-2.755S2.769,54.561,4.108,54.561Zm10.479,4.532a1.909,1.909,0,0,1-1.9,1c-1.251,0-2.064-.923-2.126-2.379v-.055h5.3v-.451c0-2.29-1.21-3.705-3.2-3.705-2.023,0-3.322,1.5-3.322,3.821s1.278,3.808,3.322,3.808a2.943,2.943,0,0,0,3.1-2.037ZM12.646,54.54a1.984,1.984,0,0,1,1.976,2.167H10.562A2.1,2.1,0,0,1,12.646,54.54Zm4.888,1.107c0,1.066.629,1.661,2.01,2l1.265.308c.786.191,1.169.533,1.169,1.039,0,.677-.711,1.148-1.7,1.148a1.623,1.623,0,0,1-1.729-1.019h-1.21c.13,1.224,1.258,2.01,2.9,2.01,1.675,0,2.953-.909,2.953-2.229,0-1.06-.67-1.661-2.058-2L20,56.632c-.868-.212-1.278-.526-1.278-1.032,0-.656.684-1.1,1.559-1.1a1.5,1.5,0,0,1,1.62.978h1.162c-.157-1.21-1.23-1.976-2.775-1.976C18.717,53.5,17.534,54.424,17.534,55.647Zm8.114-3.438a.82.82,0,1,0-.82-.82A.823.823,0,0,0,25.648,52.209ZM25.061,61h1.176V53.631H25.061Zm6.453,2.83c2.01,0,3.281-1.053,3.281-2.7v-7.5H33.674V54.8h-.109A2.638,2.638,0,0,0,31.2,53.5c-1.894,0-3.09,1.5-3.09,3.705s1.183,3.685,3.09,3.685a2.556,2.556,0,0,0,2.311-1.271h.109v1.449c0,1.087-.786,1.736-2.105,1.736-1.06,0-1.716-.39-1.846-.991H28.424C28.6,63.03,29.736,63.83,31.514,63.83Zm-.055-3.979c-1.367,0-2.133-1.039-2.133-2.646s.766-2.646,2.133-2.646,2.188,1.039,2.188,2.646S32.826,59.852,31.459,59.852ZM37.01,61h1.176V56.639a1.868,1.868,0,0,1,1.935-2.078c1.176,0,1.736.629,1.736,1.955V61h1.176V56.229A2.4,2.4,0,0,0,40.455,53.5a2.215,2.215,0,0,0-2.215,1.292h-.109V53.631H37.01Zm13.05-1.907a1.909,1.909,0,0,1-1.9,1c-1.251,0-2.064-.923-2.126-2.379v-.055h5.3v-.451c0-2.29-1.21-3.705-3.2-3.705-2.023,0-3.322,1.5-3.322,3.821s1.278,3.808,3.322,3.808a2.943,2.943,0,0,0,3.1-2.037ZM48.118,54.54a1.984,1.984,0,0,1,1.976,2.167H46.033A2.1,2.1,0,0,1,48.118,54.54ZM53.177,61h1.176V56.434a1.8,1.8,0,0,1,1.935-1.791,4.721,4.721,0,0,1,.752.068V53.535a5.049,5.049,0,0,0-.588-.034,2.058,2.058,0,0,0-2.044,1.224H54.3V53.631H53.177Zm11.334.13a2.546,2.546,0,0,0,2.27-1.217h.109V61h1.121V55.955c0-1.531-1-2.454-2.8-2.454-1.572,0-2.734.779-2.892,1.962h1.189c.164-.581.779-.916,1.661-.916,1.1,0,1.668.5,1.668,1.408v.67l-2.126.13c-1.716.1-2.687.861-2.687,2.181A2.241,2.241,0,0,0,64.511,61.13Zm.219-1.032c-.854,0-1.49-.437-1.49-1.189s.492-1.128,1.613-1.2l1.982-.13v.677A1.938,1.938,0,0,1,64.729,60.1Zm5.947-8.374v1.907H69.487v.984h1.189v4.471c0,1.408.608,1.969,2.126,1.969a3.939,3.939,0,0,0,.69-.068V60a4.965,4.965,0,0,1-.547.027c-.766,0-1.094-.369-1.094-1.237v-4.17h1.641v-.984H71.853V51.724Zm10.6,9.406a2.546,2.546,0,0,0,2.27-1.217h.109V61h1.121V55.955c0-1.531-1-2.454-2.8-2.454-1.572,0-2.734.779-2.892,1.962h1.189c.164-.581.779-.916,1.661-.916,1.1,0,1.668.5,1.668,1.408v.67l-2.126.13c-1.716.1-2.687.861-2.687,2.181A2.241,2.241,0,0,0,81.272,61.13Zm.219-1.032c-.854,0-1.49-.437-1.49-1.189s.492-1.128,1.613-1.2l1.982-.13v.677A1.938,1.938,0,0,1,81.491,60.1Zm9.235-4.45c0,1.066.629,1.661,2.01,2L94,57.951c.786.191,1.169.533,1.169,1.039,0,.677-.711,1.148-1.7,1.148a1.623,1.623,0,0,1-1.729-1.019h-1.21c.13,1.224,1.258,2.01,2.9,2.01,1.675,0,2.953-.909,2.953-2.229,0-1.06-.67-1.661-2.058-2l-1.135-.273c-.868-.212-1.278-.526-1.278-1.032,0-.656.684-1.1,1.559-1.1a1.5,1.5,0,0,1,1.62.978H96.25c-.157-1.21-1.23-1.976-2.775-1.976C91.909,53.5,90.727,54.424,90.727,55.647Zm7.923-3.924v1.907H97.46v.984h1.189v4.471c0,1.408.608,1.969,2.126,1.969a3.939,3.939,0,0,0,.69-.068V60a4.965,4.965,0,0,1-.547.027c-.766,0-1.094-.369-1.094-1.237v-4.17h1.641v-.984H99.825V51.724Zm6.645,9.406a2.546,2.546,0,0,0,2.27-1.217h.109V61h1.121V55.955c0-1.531-1-2.454-2.8-2.454-1.572,0-2.734.779-2.892,1.962h1.189c.164-.581.779-.916,1.661-.916,1.1,0,1.668.5,1.668,1.408v.67l-2.126.13c-1.716.1-2.687.861-2.687,2.181A2.241,2.241,0,0,0,105.294,61.13Zm.219-1.032c-.854,0-1.49-.437-1.49-1.189s.492-1.128,1.613-1.2l1.982-.13v.677A1.938,1.938,0,0,1,105.513,60.1Zm5.455.9h1.176V56.434a1.8,1.8,0,0,1,1.935-1.791,4.721,4.721,0,0,1,.752.068V53.535a5.049,5.049,0,0,0-.588-.034,2.058,2.058,0,0,0-2.044,1.224h-.109V53.631h-1.121Zm6.234-9.276v1.907h-1.189v.984H117.2v4.471c0,1.408.608,1.969,2.126,1.969a3.939,3.939,0,0,0,.69-.068V60a4.965,4.965,0,0,1-.547.027c-.766,0-1.094-.369-1.094-1.237v-4.17h1.641v-.984h-1.641V51.724Zm10.555,1.907h-1.176v4.361a1.854,1.854,0,0,1-2.01,2.064c-1.176,0-1.668-.615-1.668-1.941V53.631h-1.176V58.4c0,1.743.861,2.728,2.516,2.728a2.3,2.3,0,0,0,2.283-1.285h.109V61h1.121Zm5.8-.13a2.657,2.657,0,0,0-2.358,1.36h-.109v-1.23h-1.121v9.83h1.176V59.893h.109a2.473,2.473,0,0,0,2.3,1.237c1.873,0,3.1-1.511,3.1-3.814S135.44,53.5,133.561,53.5Zm-.28,6.569c-1.326,0-2.167-1.066-2.167-2.755s.841-2.755,2.174-2.755,2.153,1.032,2.153,2.755S134.634,60.07,133.28,60.07Zm6.057,1a.889.889,0,1,0-.889-.889A.891.891,0,0,0,139.337,61.068Z" transform="translate(22 361)" fill="#050505"/>
    <g id="Group_4-2" data-name="Group 4" transform="translate(22.444 506.899)">
      <g transform="matrix(1, 0, 0, 1, -22.44, -506.9)" filter="url(#Rectangle_7)">
        <rect id="Rectangle_7-4" data-name="Rectangle 7" width="109.556" height="59.141" rx="3.838" transform="translate(22.44 506.9)" fill="#d8d8d8"/>
      </g>
      <g id="Group_13" data-name="Group 13" transform="translate(26.177 5.212)">
        <g id="Group_13-2" data-name="Group 13">
          <g id="Group_11" data-name="Group 11">
            <g id="_001-appartment" data-name="001-appartment" transform="translate(3.645)">
              <g id="Logos_3karatLogo-2" data-name="Logos / 3karatLogo">
                <ellipse id="Oval-2" data-name="Oval" cx="25.217" cy="25.086" rx="25.217" ry="25.086" fill="#d8d8d8"/>
                <path id="photo_icon-2" data-name="photo icon" d="M10.829,10.613h0a63.282,63.282,0,0,1-8.17-.569C.862,9.8.017,9.593,0,9.384c-.014-.171.5-.327,1.1-.508.647-.2,1.379-.42,1.563-.711l.076-.121c.552-.878,1.58-2.512,3.093-3.01a1.274,1.274,0,0,1,.392-.072c.479,0,.621.4.7.842.014.074.026.148.038.22.054.334.1.622.3.622A.345.345,0,0,0,7.413,6.6,4.932,4.932,0,0,0,8.459,5.262a17.183,17.183,0,0,1,1.719-2.307,3.8,3.8,0,0,1,2.306-1.366,4.013,4.013,0,0,1,.406-.022c1.851,0,2.51,1.457,3.273,3.144.14.309.284.629.44.949.175.359.354.693.526,1.015.555,1.037.993,1.856.739,2.479a1.836,1.836,0,0,1-1.265.889A21.8,21.8,0,0,1,10.829,10.613ZM4.546,3.739A1.869,1.869,0,1,1,6.425,1.869,1.876,1.876,0,0,1,4.546,3.739Z" transform="translate(16.245 19.779)" fill="#a3a3a3"/>
              </g>
            </g>
            <rect id="Base_Copy_2" data-name="Base Copy 2" width="74.896" height="9.938" rx="4.421" transform="translate(0 68.472)" fill="#9b9b9b"/>
            <rect id="Base_Copy_3" data-name="Base Copy 3" width="49.931" height="5.09" rx="2.545" transform="translate(24.965 87.863)" fill="silver"/>
          </g>
        </g>
      </g>
    </g>
    <g id="Group_4-3" data-name="Group 4" transform="translate(148.444 506.899)">
      <g transform="matrix(1, 0, 0, 1, -148.44, -506.9)" filter="url(#Rectangle_7-2)">
        <rect id="Rectangle_7-5" data-name="Rectangle 7" width="109.556" height="59.141" rx="3.838" transform="translate(148.44 506.9)" fill="#d8d8d8"/>
      </g>
      <g id="Group_13-3" data-name="Group 13" transform="translate(26.177 5.212)">
        <g id="Group_13-4" data-name="Group 13">
          <g id="Group_11-2" data-name="Group 11">
            <g id="_001-appartment-2" data-name="001-appartment" transform="translate(3.645)">
              <g id="Logos_3karatLogo-3" data-name="Logos / 3karatLogo">
                <ellipse id="Oval-3" data-name="Oval" cx="25.217" cy="25.086" rx="25.217" ry="25.086" fill="#d8d8d8"/>
                <path id="photo_icon-3" data-name="photo icon" d="M10.829,10.613h0a63.282,63.282,0,0,1-8.17-.569C.862,9.8.017,9.593,0,9.384c-.014-.171.5-.327,1.1-.508.647-.2,1.379-.42,1.563-.711l.076-.121c.552-.878,1.58-2.512,3.093-3.01a1.274,1.274,0,0,1,.392-.072c.479,0,.621.4.7.842.014.074.026.148.038.22.054.334.1.622.3.622A.345.345,0,0,0,7.413,6.6,4.932,4.932,0,0,0,8.459,5.262a17.183,17.183,0,0,1,1.719-2.307,3.8,3.8,0,0,1,2.306-1.366,4.013,4.013,0,0,1,.406-.022c1.851,0,2.51,1.457,3.273,3.144.14.309.284.629.44.949.175.359.354.693.526,1.015.555,1.037.993,1.856.739,2.479a1.836,1.836,0,0,1-1.265.889A21.8,21.8,0,0,1,10.829,10.613ZM4.546,3.739A1.869,1.869,0,1,1,6.425,1.869,1.876,1.876,0,0,1,4.546,3.739Z" transform="translate(16.245 19.779)" fill="#a3a3a3"/>
              </g>
            </g>
            <rect id="Base_Copy_2-2" data-name="Base Copy 2" width="74.896" height="9.938" rx="4.421" transform="translate(0 68.472)" fill="#9b9b9b"/>
            <rect id="Base_Copy_3-2" data-name="Base Copy 3" width="49.931" height="5.09" rx="2.545" transform="translate(24.965 87.863)" fill="silver"/>
          </g>
        </g>
      </g>
    </g>
    <g id="Group_4-4" data-name="Group 4" transform="translate(274.444 506.899)">
      <g transform="matrix(1, 0, 0, 1, -274.44, -506.9)" filter="url(#Rectangle_7-3)">
        <rect id="Rectangle_7-6" data-name="Rectangle 7" width="109.556" height="59.141" rx="3.838" transform="translate(274.44 506.9)" fill="#d8d8d8"/>
      </g>
      <g id="Group_13-5" data-name="Group 13" transform="translate(26.177 5.212)">
        <g id="Group_13-6" data-name="Group 13">
          <g id="Group_11-3" data-name="Group 11">
            <g id="_001-appartment-3" data-name="001-appartment" transform="translate(3.645)">
              <g id="Logos_3karatLogo-4" data-name="Logos / 3karatLogo">
                <ellipse id="Oval-4" data-name="Oval" cx="25.217" cy="25.086" rx="25.217" ry="25.086" fill="#d8d8d8"/>
                <path id="photo_icon-4" data-name="photo icon" d="M10.829,10.613h0a63.282,63.282,0,0,1-8.17-.569C.862,9.8.017,9.593,0,9.384c-.014-.171.5-.327,1.1-.508.647-.2,1.379-.42,1.563-.711l.076-.121c.552-.878,1.58-2.512,3.093-3.01a1.274,1.274,0,0,1,.392-.072c.479,0,.621.4.7.842.014.074.026.148.038.22.054.334.1.622.3.622A.345.345,0,0,0,7.413,6.6,4.932,4.932,0,0,0,8.459,5.262a17.183,17.183,0,0,1,1.719-2.307,3.8,3.8,0,0,1,2.306-1.366,4.013,4.013,0,0,1,.406-.022c1.851,0,2.51,1.457,3.273,3.144.14.309.284.629.44.949.175.359.354.693.526,1.015.555,1.037.993,1.856.739,2.479a1.836,1.836,0,0,1-1.265.889A21.8,21.8,0,0,1,10.829,10.613ZM4.546,3.739A1.869,1.869,0,1,1,6.425,1.869,1.876,1.876,0,0,1,4.546,3.739Z" transform="translate(16.245 19.779)" fill="#a3a3a3"/>
              </g>
            </g>
            <rect id="Base_Copy_2-3" data-name="Base Copy 2" width="74.896" height="9.938" rx="4.421" transform="translate(0 68.472)" fill="#9b9b9b"/>
            <rect id="Base_Copy_3-3" data-name="Base Copy 3" width="49.931" height="5.09" rx="2.545" transform="translate(24.965 87.863)" fill="silver"/>
          </g>
        </g>
      </g>
    </g>
    <g id="icon" transform="translate(27.394 48.737) rotate(180)">
      <rect id="Rectangle-6" data-name="Rectangle" width="2.081" height="9.363" rx="1.04" transform="translate(1.471 13.367) rotate(-135)" fill="#fff"/>
      <rect id="Rectangle_Copy" data-name="Rectangle Copy" width="2.081" height="9.363" rx="1.04" transform="translate(0.074 1.471) rotate(-45)" fill="#fff"/>
    </g>
    <path id="Path_18" data-name="Path 18" d="M5.836,0c2.4,0,3.82-1.18,3.82-3.164A2.672,2.672,0,0,0,7.141-5.906v-.125a2.487,2.487,0,0,0,1.945-2.43c0-1.727-1.266-2.812-3.336-2.812H1.438V0ZM2.844-10.031H5.453c1.4,0,2.211.664,2.211,1.813,0,1.2-.867,1.8-2.57,1.8H2.844Zm0,8.789V-5.2H5.492c1.8,0,2.719.664,2.719,1.969S7.32-1.242,5.625-1.242ZM14.125.148a2.91,2.91,0,0,0,2.594-1.391h.125V0h1.281V-5.766c0-1.75-1.148-2.8-3.2-2.8-1.8,0-3.125.891-3.3,2.242h1.359c.188-.664.891-1.047,1.9-1.047,1.258,0,1.906.57,1.906,1.609V-5l-2.43.148c-1.961.117-3.07.984-3.07,2.492A2.561,2.561,0,0,0,14.125.148Zm.25-1.18c-.977,0-1.7-.5-1.7-1.359,0-.844.563-1.289,1.844-1.375l2.266-.148v.773A2.215,2.215,0,0,1,14.375-1.031Zm13.2-4.812A3.305,3.305,0,0,0,24.047-8.57c-2.359,0-3.859,1.7-3.859,4.328,0,2.68,1.508,4.391,3.867,4.391a3.253,3.253,0,0,0,3.523-2.687H26.219a2.026,2.026,0,0,1-2.172,1.477c-1.5,0-2.469-1.234-2.469-3.18,0-1.906.953-3.117,2.469-3.117a2.087,2.087,0,0,1,2.172,1.516Zm3.531,1.1h-.125v-7.023H29.641V0h1.344V-3.2l.8-.75L34.945,0h1.711L32.789-4.812l3.625-3.609H34.766Z" transform="translate(31 47)" fill="#fff"/>
  </g>
</svg>
