<svg xmlns="http://www.w3.org/2000/svg" xmlns:xlink="http://www.w3.org/1999/xlink" width="375" height="812" viewBox="0 0 375 812">
  <defs>
    <clipPath id="clip-Preferences_setup_1">
      <rect width="375" height="812"/>
    </clipPath>
  </defs>
  <g id="Preferences_setup_1" data-name="Preferences setup – 1" clip-path="url(#clip-Preferences_setup_1)">
    <rect width="375" height="812" fill="#fff"/>
    <path id="Path_14" data-name="Path 14" d="M69.953,24V6.385h-2.2V24Zm5.53-11.035,2.209-6.58h-2.38l-1.355,6.58ZM81.427,24h2.1V15.846A3.18,3.18,0,0,1,86.579,12.5a2.494,2.494,0,0,1,2.747,2.563V24h2.1V15.541a2.96,2.96,0,0,1,3.052-3.04c1.855,0,2.771.952,2.771,2.893V24h2.1V14.906c0-2.759-1.5-4.3-4.187-4.3a4.406,4.406,0,0,0-4.028,2.307h-.2A3.8,3.8,0,0,0,87.3,10.609a3.723,3.723,0,0,0-3.674,2.307h-.2V10.841h-2Zm28.931,0h2.1V5.616h-2.1Zm11.584.232c3.748,0,6.067-2.588,6.067-6.812s-2.319-6.812-6.067-6.812-6.067,2.576-6.067,6.812S118.2,24.232,121.943,24.232Zm0-1.892c-2.49,0-3.894-1.807-3.894-4.919s1.4-4.919,3.894-4.919,3.894,1.794,3.894,4.919S124.433,22.34,121.943,22.34Zm14.771,1.892c3.748,0,6.067-2.588,6.067-6.812s-2.319-6.812-6.067-6.812-6.067,2.576-6.067,6.812S132.966,24.232,136.713,24.232Zm0-1.892c-2.49,0-3.894-1.807-3.894-4.919s1.4-4.919,3.894-4.919,3.894,1.794,3.894,4.919S139.2,22.34,136.713,22.34Zm11.78-5.75h-.2V5.616h-2.1V24h2.1V19.007l1.257-1.172L154.487,24h2.673l-6.042-7.52,5.664-5.64h-2.576ZM160.749,8.3a1.465,1.465,0,1,0-1.465-1.465A1.469,1.469,0,0,0,160.749,8.3ZM159.7,24h2.1V10.841h-2.1Zm6.1,0h2.1V16.212c0-2.307,1.355-3.711,3.455-3.711s3.1,1.123,3.1,3.491V24h2.1V15.479c0-3.125-1.648-4.871-4.6-4.871A3.955,3.955,0,0,0,168,12.916h-.2V10.841h-2Zm20.007,5.054c3.589,0,5.859-1.88,5.859-4.822V10.841h-2v2.087h-.2a4.711,4.711,0,0,0-4.224-2.319c-3.381,0-5.518,2.673-5.518,6.616s2.112,6.58,5.518,6.58a4.565,4.565,0,0,0,4.126-2.271h.2v2.588c0,1.941-1.4,3.1-3.76,3.1-1.892,0-3.064-.7-3.3-1.77h-2.222C180.61,27.625,182.636,29.054,185.81,29.054Zm-.1-7.1c-2.441,0-3.809-1.855-3.809-4.724s1.367-4.724,3.809-4.724,3.906,1.855,3.906,4.724S188.154,21.949,185.712,21.949ZM203.559,24h2.1V12.6h3.015V10.841h-3.015v-1.4c0-1.44.635-2.173,2.148-2.173a5.779,5.779,0,0,1,.989.061V5.616a7.373,7.373,0,0,0-1.416-.122c-2.5,0-3.821,1.257-3.821,3.882v1.465h-2.185V12.6h2.185Zm13.025.232c3.748,0,6.067-2.588,6.067-6.812s-2.319-6.812-6.067-6.812-6.067,2.576-6.067,6.812S212.836,24.232,216.584,24.232Zm0-1.892c-2.49,0-3.894-1.807-3.894-4.919s1.4-4.919,3.894-4.919,3.894,1.794,3.894,4.919S219.074,22.34,216.584,22.34ZM225.947,24h2.1V15.846a3.223,3.223,0,0,1,3.455-3.2,8.43,8.43,0,0,1,1.343.122v-2.1a9.017,9.017,0,0,0-1.05-.061,3.674,3.674,0,0,0-3.65,2.185h-.2V10.841h-2Z" transform="translate(38 105)" fill="#050505"/>
    <path id="Path_15" data-name="Path 15" d="M33.832,24.415c3.748,0,6.531-2.087,7.117-5.322H38.715c-.562,2.039-2.429,3.3-4.883,3.3-3.394,0-5.518-2.771-5.518-7.19S30.439,8,33.82,8a4.84,4.84,0,0,1,4.9,3.7h2.234A6.871,6.871,0,0,0,33.82,5.97c-4.785,0-7.764,3.54-7.764,9.229S29.047,24.415,33.832,24.415Zm15.942-.183c3.748,0,6.067-2.588,6.067-6.812s-2.319-6.812-6.067-6.812-6.067,2.576-6.067,6.812S46.027,24.232,49.775,24.232Zm0-1.892c-2.49,0-3.894-1.807-3.894-4.919s1.4-4.919,3.894-4.919,3.894,1.794,3.894,4.919S52.265,22.34,49.775,22.34ZM59.137,24h2.1V16.212c0-2.307,1.355-3.711,3.455-3.711s3.1,1.123,3.1,3.491V24h2.1V15.479c0-3.125-1.648-4.871-4.6-4.871a3.955,3.955,0,0,0-3.955,2.307h-.2V10.841h-2Zm14.587,0h2.1V16.212c0-2.307,1.355-3.711,3.455-3.711s3.1,1.123,3.1,3.491V24h2.1V15.479c0-3.125-1.648-4.871-4.6-4.871a3.955,3.955,0,0,0-3.955,2.307h-.2V10.841h-2Zm23.3-3.406a3.409,3.409,0,0,1-3.394,1.782c-2.234,0-3.687-1.648-3.8-4.248v-.1H99.3v-.806c0-4.089-2.161-6.616-5.713-6.616-3.613,0-5.933,2.686-5.933,6.824,0,4.163,2.283,6.8,5.933,6.8,2.881,0,4.932-1.392,5.542-3.638Zm-3.467-8.13c2.087,0,3.479,1.538,3.528,3.87H89.838C90,14,91.462,12.464,93.561,12.464Zm19.922,2.4c-.366-2.344-2.319-4.26-5.518-4.26-3.687,0-6.03,2.661-6.03,6.763,0,4.187,2.356,6.86,6.042,6.86,3.162,0,5.127-1.782,5.505-4.2h-2.124a3.166,3.166,0,0,1-3.394,2.307c-2.344,0-3.857-1.929-3.857-4.968,0-2.979,1.489-4.871,3.857-4.871a3.262,3.262,0,0,1,3.394,2.368Zm4.224-7.434v3.406h-2.124V12.6h2.124v7.983c0,2.515,1.086,3.516,3.8,3.516a7.034,7.034,0,0,0,1.233-.122v-1.77a8.867,8.867,0,0,1-.977.049c-1.367,0-1.953-.659-1.953-2.209V12.6h2.93V10.841h-2.93V7.435Zm9.3.867a1.465,1.465,0,1,0-1.465-1.465A1.469,1.469,0,0,0,127.009,8.3ZM125.959,24h2.1V10.841h-2.1Zm11.511.232c3.748,0,6.067-2.588,6.067-6.812s-2.319-6.812-6.067-6.812S131.4,13.185,131.4,17.42,133.722,24.232,137.47,24.232Zm0-1.892c-2.49,0-3.894-1.807-3.894-4.919s1.4-4.919,3.894-4.919,3.894,1.794,3.894,4.919S139.96,22.34,137.47,22.34ZM146.833,24h2.1V16.212c0-2.307,1.355-3.711,3.455-3.711s3.1,1.123,3.1,3.491V24h2.1V15.479c0-3.125-1.648-4.871-4.6-4.871a3.955,3.955,0,0,0-3.955,2.307h-.2V10.841h-2ZM169.355,7.435v3.406h-2.124V12.6h2.124v7.983c0,2.515,1.086,3.516,3.8,3.516a7.034,7.034,0,0,0,1.233-.122v-1.77a8.867,8.867,0,0,1-.977.049c-1.367,0-1.953-.659-1.953-2.209V12.6h2.93V10.841h-2.93V7.435Zm9.326,21.326c2.332,0,3.381-.9,4.5-3.955l5.139-13.965h-2.234l-3.6,10.828h-.2l-3.613-10.828H176.41l4.871,13.171-.244.781c-.549,1.587-1.208,2.161-2.417,2.161a5.054,5.054,0,0,1-.879-.061v1.794A6.215,6.215,0,0,0,178.681,28.761Zm18.86-18.152a4.744,4.744,0,0,0-4.211,2.429h-.2v-2.2h-2V28.395h2.1V22.022h.2a4.416,4.416,0,0,0,4.114,2.209c3.345,0,5.53-2.7,5.53-6.812C203.071,13.282,200.9,10.609,197.541,10.609Zm-.5,11.731c-2.368,0-3.87-1.9-3.87-4.919s1.5-4.919,3.882-4.919c2.4,0,3.845,1.843,3.845,4.919S199.457,22.34,197.04,22.34Zm18.042-1.746a3.409,3.409,0,0,1-3.394,1.782c-2.234,0-3.687-1.648-3.8-4.248v-.1h9.46v-.806c0-4.089-2.161-6.616-5.713-6.616-3.613,0-5.933,2.686-5.933,6.824,0,4.163,2.283,6.8,5.933,6.8,2.881,0,4.932-1.392,5.542-3.638Zm-3.467-8.13c2.087,0,3.479,1.538,3.528,3.87h-7.251C208.051,14,209.516,12.464,211.615,12.464Zm8.728,1.978c0,1.9,1.123,2.966,3.589,3.564l2.258.549c1.4.342,2.087.952,2.087,1.855,0,1.208-1.27,2.051-3.04,2.051-1.685,0-2.734-.708-3.088-1.819H219.99c.232,2.185,2.246,3.589,5.176,3.589,2.991,0,5.273-1.624,5.273-3.979,0-1.892-1.2-2.966-3.674-3.564l-2.026-.488c-1.55-.378-2.283-.94-2.283-1.843,0-1.172,1.221-1.965,2.783-1.965,1.587,0,2.612.7,2.893,1.746h2.075c-.281-2.161-2.2-3.528-4.956-3.528C222.455,10.609,220.344,12.257,220.344,14.442ZM243.256,24V6.385h-2.2V24Zm5.53-11.035L251,6.385h-2.38l-1.355,6.58ZM254.731,24h2.1V15.846a3.18,3.18,0,0,1,3.052-3.345,2.494,2.494,0,0,1,2.747,2.563V24h2.1V15.541a2.96,2.96,0,0,1,3.052-3.04c1.855,0,2.771.952,2.771,2.893V24h2.1V14.906c0-2.759-1.5-4.3-4.187-4.3a4.406,4.406,0,0,0-4.028,2.307h-.2a3.8,3.8,0,0,0-3.638-2.307,3.723,3.723,0,0,0-3.674,2.307h-.2V10.841h-2ZM112.085,54.232c3.748,0,6.067-2.588,6.067-6.812s-2.319-6.812-6.067-6.812-6.067,2.576-6.067,6.812S108.338,54.232,112.085,54.232Zm0-1.892c-2.49,0-3.894-1.807-3.894-4.919s1.4-4.919,3.894-4.919,3.894,1.794,3.894,4.919S114.576,52.34,112.085,52.34Zm15.771-11.731a4.744,4.744,0,0,0-4.211,2.429h-.2v-2.2h-2V58.395h2.1V52.022h.2a4.416,4.416,0,0,0,4.114,2.209c3.345,0,5.53-2.7,5.53-6.812C133.387,43.282,131.214,40.609,127.857,40.609Zm-.5,11.731c-2.368,0-3.87-1.9-3.87-4.919s1.5-4.919,3.882-4.919c2.4,0,3.845,1.843,3.845,4.919S129.773,52.34,127.356,52.34ZM145.4,50.594A3.409,3.409,0,0,1,142,52.376c-2.234,0-3.687-1.648-3.8-4.248v-.1h9.46v-.806c0-4.089-2.161-6.616-5.713-6.616-3.613,0-5.933,2.686-5.933,6.824,0,4.163,2.283,6.8,5.933,6.8,2.881,0,4.932-1.392,5.542-3.638Zm-3.467-8.13c2.087,0,3.479,1.538,3.528,3.87h-7.251C138.367,44,139.832,42.464,141.932,42.464ZM150.965,54h2.1V46.212c0-2.307,1.355-3.711,3.455-3.711s3.1,1.123,3.1,3.491V54h2.1V45.479c0-3.125-1.648-4.871-4.6-4.871a3.955,3.955,0,0,0-3.955,2.307h-.2V40.841h-2Zm22.522-16.565v3.406h-2.124V42.6h2.124v7.983c0,2.515,1.086,3.516,3.8,3.516a7.034,7.034,0,0,0,1.233-.122v-1.77a8.867,8.867,0,0,1-.977.049c-1.367,0-1.953-.659-1.953-2.209V42.6h2.93V40.841h-2.93V37.435Zm13.428,16.8c3.748,0,6.067-2.588,6.067-6.812s-2.319-6.812-6.067-6.812-6.067,2.576-6.067,6.812S183.167,54.232,186.915,54.232Zm0-1.892c-2.49,0-3.894-1.807-3.894-4.919s1.4-4.919,3.894-4.919,3.894,1.794,3.894,4.919S189.4,52.34,186.915,52.34Z" transform="translate(38 343)" fill="#050505"/>
    <g id="Rectangle_34" data-name="Rectangle 34" transform="translate(75.654 175.777)" fill="#fff" stroke="#8b8b8b" stroke-miterlimit="10" stroke-width="1.346">
      <rect width="224.445" height="42.952" rx="21.476" stroke="none"/>
      <rect x="0.673" y="0.673" width="223.099" height="41.607" rx="20.803" fill="none"/>
    </g>
    <g id="Rectangle_34-2" data-name="Rectangle 34" transform="translate(73.654 443.777)" fill="#fff" stroke="#8b8b8b" stroke-miterlimit="10" stroke-width="1.346">
      <rect width="228.346" height="43.636" rx="21.818" stroke="none"/>
      <rect x="0.673" y="0.673" width="227" height="42.29" rx="21.145" fill="none"/>
    </g>
    <g id="Rectangle_34-3" data-name="Rectangle 34" transform="translate(73.654 514.93)" fill="#fff" stroke="#8b8b8b" stroke-miterlimit="10" stroke-width="1.346">
      <rect width="228.346" height="43.636" rx="21.818" stroke="none"/>
      <rect x="0.673" y="0.673" width="227" height="42.29" rx="21.145" fill="none"/>
    </g>
    <g id="Rectangle_34-4" data-name="Rectangle 34" transform="translate(73.654 586.083)" fill="#fff" stroke="#8b8b8b" stroke-miterlimit="10" stroke-width="1.346">
      <rect width="228.346" height="43.636" rx="21.818" stroke="none"/>
      <rect x="0.673" y="0.673" width="227" height="42.29" rx="21.145" fill="none"/>
    </g>
    <g id="Rectangle_34-5" data-name="Rectangle 34" transform="translate(75.654 245.814)" fill="#fff" stroke="#8b8b8b" stroke-miterlimit="10" stroke-width="1.346">
      <rect width="224.445" height="42.952" rx="21.476" stroke="none"/>
      <rect x="0.673" y="0.673" width="223.099" height="41.607" rx="20.803" fill="none"/>
    </g>
    <path id="Path_16" data-name="Path 16" d="M-63.867.266a4.288,4.288,0,0,0,4.555-3.406h-1.43a3.018,3.018,0,0,1-3.125,2.109c-2.172,0-3.531-1.773-3.531-4.6s1.359-4.609,3.523-4.609a3.1,3.1,0,0,1,3.133,2.367h1.43a4.4,4.4,0,0,0-4.562-3.664c-3.062,0-4.969,2.266-4.969,5.906S-66.93.266-63.867.266Zm10.2-.117c2.4,0,3.883-1.656,3.883-4.359S-51.266-8.57-53.664-8.57s-3.883,1.648-3.883,4.359S-56.062.148-53.664.148Zm0-1.211c-1.594,0-2.492-1.156-2.492-3.148s.9-3.148,2.492-3.148,2.492,1.148,2.492,3.148S-52.07-1.062-53.664-1.062Zm16.273-7.359h-1.352L-40.4-1.687h-.125l-1.883-6.734H-43.7l-1.883,6.734H-45.7l-1.656-6.734h-1.359L-46.359,0H-45l1.875-6.516H-43L-41.117,0h1.367Zm4.945,8.57c2.4,0,3.883-1.656,3.883-4.359S-30.047-8.57-32.445-8.57s-3.883,1.648-3.883,4.359S-34.844.148-32.445.148Zm0-1.211c-1.594,0-2.492-1.156-2.492-3.148s.9-3.148,2.492-3.148,2.492,1.148,2.492,3.148S-30.852-1.062-32.445-1.062ZM-26.453,0h1.344V-5.219A2.063,2.063,0,0,1-22.9-7.266a5.4,5.4,0,0,1,.859.078V-8.531a5.771,5.771,0,0,0-.672-.039,2.351,2.351,0,0,0-2.336,1.4h-.125v-1.25h-1.281Zm7.641-4.742h-.125v-7.023h-1.344V0h1.344V-3.2l.8-.75L-14.977,0h1.711l-3.867-4.812,3.625-3.609h-1.648Zm7.844-5.3a.94.94,0,0,0,.938-.937.94.94,0,0,0-.937-.937.94.94,0,0,0-.937.938A.94.94,0,0,0-10.969-10.047ZM-11.641,0H-10.3V-8.422h-1.344Zm3.906,0h1.344V-4.984A2.135,2.135,0,0,1-4.18-7.359c1.344,0,1.984.719,1.984,2.234V0H-.852V-5.453c0-2-1.055-3.117-2.945-3.117A2.531,2.531,0,0,0-6.328-7.094h-.125V-8.422H-7.734ZM5.07,3.234c2.3,0,3.75-1.2,3.75-3.086v-8.57H7.539v1.336H7.414a3.015,3.015,0,0,0-2.7-1.484C2.547-8.57,1.18-6.859,1.18-4.336S2.531-.125,4.711-.125A2.922,2.922,0,0,0,7.352-1.578h.125V.078c0,1.242-.9,1.984-2.406,1.984-1.211,0-1.961-.445-2.109-1.133H1.539C1.742,2.32,3.039,3.234,5.07,3.234ZM5.008-1.312C3.445-1.312,2.57-2.5,2.57-4.336s.875-3.023,2.438-3.023,2.5,1.188,2.5,3.023S6.57-1.312,5.008-1.312ZM15.5-2.945C15.648-1,17.3.266,19.688.266c2.578,0,4.211-1.32,4.211-3.391,0-1.656-.937-2.562-3.273-3.148l-1.18-.312c-1.555-.4-2.172-.906-2.172-1.789,0-1.141.992-1.891,2.492-1.891A2.311,2.311,0,0,1,22.32-8.422h1.414c-.117-1.82-1.742-3.117-3.922-3.117-2.383,0-3.984,1.3-3.984,3.211,0,1.6.883,2.523,2.922,3.039l1.445.375c1.555.391,2.258,1,2.258,1.961,0,1.117-1.117,1.938-2.633,1.938-1.6,0-2.727-.75-2.9-1.93ZM30.164-8.57a3.036,3.036,0,0,0-2.7,1.555h-.125V-8.422H26.063V2.813h1.344V-1.266h.125A2.827,2.827,0,0,0,30.164.148C32.3.148,33.7-1.578,33.7-4.211,33.7-6.859,32.313-8.57,30.164-8.57Zm-.32,7.508c-1.516,0-2.477-1.219-2.477-3.148s.961-3.148,2.484-3.148c1.539,0,2.461,1.18,2.461,3.148S31.391-1.062,29.844-1.062ZM38.156.148A2.91,2.91,0,0,0,40.75-1.242h.125V0h1.281V-5.766c0-1.75-1.148-2.8-3.2-2.8-1.8,0-3.125.891-3.3,2.242h1.359c.188-.664.891-1.047,1.9-1.047,1.258,0,1.906.57,1.906,1.609V-5l-2.43.148c-1.961.117-3.07.984-3.07,2.492A2.561,2.561,0,0,0,38.156.148Zm.25-1.18c-.977,0-1.7-.5-1.7-1.359,0-.844.563-1.289,1.844-1.375l2.266-.148v.773A2.215,2.215,0,0,1,38.406-1.031Zm13.2-4.812A3.305,3.305,0,0,0,48.078-8.57c-2.359,0-3.859,1.7-3.859,4.328,0,2.68,1.508,4.391,3.867,4.391a3.253,3.253,0,0,0,3.523-2.687H50.25a2.026,2.026,0,0,1-2.172,1.477c-1.5,0-2.469-1.234-2.469-3.18,0-1.906.953-3.117,2.469-3.117A2.087,2.087,0,0,1,50.25-5.844ZM59.172-2.18A2.182,2.182,0,0,1,57-1.039c-1.43,0-2.359-1.055-2.43-2.719V-3.82h6.055v-.516c0-2.617-1.383-4.234-3.656-4.234-2.312,0-3.8,1.719-3.8,4.367,0,2.664,1.461,4.352,3.8,4.352A3.363,3.363,0,0,0,60.516-2.18Zm-2.219-5.2a2.267,2.267,0,0,1,2.258,2.477H54.57A2.4,2.4,0,0,1,56.953-7.383Zm5.586,1.266c0,1.219.719,1.9,2.3,2.281l1.445.352c.9.219,1.336.609,1.336,1.188,0,.773-.812,1.313-1.945,1.313A1.855,1.855,0,0,1,63.7-2.148H62.313c.148,1.4,1.438,2.3,3.313,2.3C67.539.148,69-.891,69-2.4c0-1.211-.766-1.9-2.352-2.281l-1.3-.312c-.992-.242-1.461-.6-1.461-1.18,0-.75.781-1.258,1.781-1.258a1.717,1.717,0,0,1,1.852,1.117h1.328C68.672-7.7,67.445-8.57,65.68-8.57,63.891-8.57,62.539-7.516,62.539-6.117Z" transform="translate(189 203)" fill="#050505"/>
    <path id="Path_18" data-name="Path 18" d="M-90.02-11.273V0h1.406V-4.023h2.836a3.473,3.473,0,0,0,3.625-3.6,3.468,3.468,0,0,0-3.609-3.648Zm1.406,1.25h2.484a2.225,2.225,0,0,1,2.531,2.4,2.231,2.231,0,0,1-2.531,2.352h-2.484ZM-80.027,0h1.344V-5.219a2.063,2.063,0,0,1,2.211-2.047,5.4,5.4,0,0,1,.859.078V-8.531a5.771,5.771,0,0,0-.672-.039,2.351,2.351,0,0,0-2.336,1.4h-.125v-1.25h-1.281Zm9.32.148c2.4,0,3.883-1.656,3.883-4.359S-68.309-8.57-70.707-8.57-74.59-6.922-74.59-4.211-73.105.148-70.707.148Zm0-1.211c-1.594,0-2.492-1.156-2.492-3.148s.9-3.148,2.492-3.148,2.492,1.148,2.492,3.148S-69.113-1.062-70.707-1.062ZM-64.152,0h1.344V-7.3h1.93V-8.422h-1.93v-.9c0-.922.406-1.391,1.375-1.391a3.7,3.7,0,0,1,.633.039v-1.094a4.719,4.719,0,0,0-.906-.078,2.181,2.181,0,0,0-2.445,2.484v.938h-1.4V-7.3h1.4ZM-53.7-2.18a2.182,2.182,0,0,1-2.172,1.141c-1.43,0-2.359-1.055-2.43-2.719V-3.82h6.055v-.516c0-2.617-1.383-4.234-3.656-4.234-2.312,0-3.8,1.719-3.8,4.367,0,2.664,1.461,4.352,3.8,4.352A3.363,3.363,0,0,0-52.355-2.18Zm-2.219-5.2A2.267,2.267,0,0,1-53.66-4.906H-58.3A2.4,2.4,0,0,1-55.918-7.383Zm5.586,1.266c0,1.219.719,1.9,2.3,2.281l1.445.352c.9.219,1.336.609,1.336,1.188,0,.773-.812,1.313-1.945,1.313a1.855,1.855,0,0,1-1.977-1.164h-1.383c.148,1.4,1.438,2.3,3.313,2.3,1.914,0,3.375-1.039,3.375-2.547,0-1.211-.766-1.9-2.352-2.281l-1.3-.312c-.992-.242-1.461-.6-1.461-1.18,0-.75.781-1.258,1.781-1.258a1.717,1.717,0,0,1,1.852,1.117h1.328C-44.2-7.7-45.426-8.57-47.191-8.57-48.98-8.57-50.332-7.516-50.332-6.117Zm8.219,0c0,1.219.719,1.9,2.3,2.281l1.445.352c.9.219,1.336.609,1.336,1.188,0,.773-.812,1.313-1.945,1.313a1.855,1.855,0,0,1-1.977-1.164H-42.34c.148,1.4,1.438,2.3,3.313,2.3,1.914,0,3.375-1.039,3.375-2.547,0-1.211-.766-1.9-2.352-2.281l-1.3-.312c-.992-.242-1.461-.6-1.461-1.18,0-.75.781-1.258,1.781-1.258a1.717,1.717,0,0,1,1.852,1.117H-35.8C-35.98-7.7-37.207-8.57-38.973-8.57-40.762-8.57-42.113-7.516-42.113-6.117Zm9.273-3.93a.94.94,0,0,0,.938-.937.94.94,0,0,0-.937-.937.94.94,0,0,0-.937.938A.94.94,0,0,0-32.84-10.047ZM-33.512,0h1.344V-8.422h-1.344Zm7.367.148c2.4,0,3.883-1.656,3.883-4.359S-23.746-8.57-26.145-8.57s-3.883,1.648-3.883,4.359S-28.543.148-26.145.148Zm0-1.211c-1.594,0-2.492-1.156-2.492-3.148s.9-3.148,2.492-3.148,2.492,1.148,2.492,3.148S-24.551-1.062-26.145-1.062ZM-20.152,0h1.344V-4.984A2.135,2.135,0,0,1-16.6-7.359c1.344,0,1.984.719,1.984,2.234V0h1.344V-5.453c0-2-1.055-3.117-2.945-3.117a2.531,2.531,0,0,0-2.531,1.477h-.125V-8.422h-1.281Zm11.68.148A2.91,2.91,0,0,0-5.879-1.242h.125V0h1.281V-5.766c0-1.75-1.148-2.8-3.2-2.8-1.8,0-3.125.891-3.3,2.242h1.359c.188-.664.891-1.047,1.9-1.047,1.258,0,1.906.57,1.906,1.609V-5l-2.43.148c-1.961.117-3.07.984-3.07,2.492A2.561,2.561,0,0,0-8.473.148Zm.25-1.18c-.977,0-1.7-.5-1.7-1.359,0-.844.563-1.289,1.844-1.375l2.266-.148v.773A2.215,2.215,0,0,1-8.223-1.031ZM-1.91,0H-.566V-11.766H-1.91ZM8.121,0V-8.742h.125L14.363,0H15.73V-11.273H14.34V-2.5h-.125L8.1-11.273H6.73V0ZM24.012-2.18A2.182,2.182,0,0,1,21.84-1.039c-1.43,0-2.359-1.055-2.43-2.719V-3.82h6.055v-.516c0-2.617-1.383-4.234-3.656-4.234-2.312,0-3.8,1.719-3.8,4.367,0,2.664,1.461,4.352,3.8,4.352A3.363,3.363,0,0,0,25.355-2.18Zm-2.219-5.2a2.267,2.267,0,0,1,2.258,2.477H19.41A2.4,2.4,0,0,1,21.793-7.383ZM28.137-10.6v2.18H26.777V-7.3h1.359v5.109c0,1.609.7,2.25,2.43,2.25a4.5,4.5,0,0,0,.789-.078V-1.148a5.675,5.675,0,0,1-.625.031c-.875,0-1.25-.422-1.25-1.414V-7.3h1.875V-8.422H29.48V-10.6ZM43.98-8.422H42.629L40.973-1.687h-.125L38.965-8.422H37.676L35.793-1.687h-.125L34.012-8.422H32.652L35.012,0h1.359l1.875-6.516h.125L40.254,0h1.367ZM48.926.148c2.4,0,3.883-1.656,3.883-4.359S51.324-8.57,48.926-8.57s-3.883,1.648-3.883,4.359S46.527.148,48.926.148Zm0-1.211c-1.594,0-2.492-1.156-2.492-3.148s.9-3.148,2.492-3.148,2.492,1.148,2.492,3.148S50.52-1.062,48.926-1.062ZM54.918,0h1.344V-5.219a2.063,2.063,0,0,1,2.211-2.047,5.4,5.4,0,0,1,.859.078V-8.531a5.771,5.771,0,0,0-.672-.039,2.351,2.351,0,0,0-2.336,1.4H56.2v-1.25H54.918Zm7.641-4.742h-.125v-7.023H61.09V0h1.344V-3.2l.8-.75L66.395,0h1.711L64.238-4.812l3.625-3.609H66.215Zm7.844-5.3a.94.94,0,0,0,.938-.937.94.94,0,0,0-.937-.937.94.94,0,0,0-.937.938A.94.94,0,0,0,70.4-10.047ZM69.73,0h1.344V-8.422H69.73Zm3.906,0H74.98V-4.984a2.135,2.135,0,0,1,2.211-2.375c1.344,0,1.984.719,1.984,2.234V0H80.52V-5.453c0-2-1.055-3.117-2.945-3.117a2.531,2.531,0,0,0-2.531,1.477h-.125V-8.422H73.637Zm12.8,3.234c2.3,0,3.75-1.2,3.75-3.086v-8.57H88.91v1.336h-.125a3.015,3.015,0,0,0-2.7-1.484c-2.164,0-3.531,1.711-3.531,4.234S83.9-.125,86.082-.125a2.922,2.922,0,0,0,2.641-1.453h.125V.078c0,1.242-.9,1.984-2.406,1.984-1.211,0-1.961-.445-2.109-1.133H82.91C83.113,2.32,84.41,3.234,86.441,3.234Zm-.062-4.547c-1.562,0-2.437-1.187-2.437-3.023s.875-3.023,2.438-3.023,2.5,1.188,2.5,3.023S87.941-1.312,86.379-1.312Z" transform="translate(188 473)" fill="#050505"/>
    <path id="Path_19" data-name="Path 19" d="M-77.828-11.273V0h1.406V-4.023h2.836a3.473,3.473,0,0,0,3.625-3.6,3.468,3.468,0,0,0-3.609-3.648Zm1.406,1.25h2.484a2.225,2.225,0,0,1,2.531,2.4,2.231,2.231,0,0,1-2.531,2.352h-2.484ZM-67.836,0h1.344V-5.219a2.063,2.063,0,0,1,2.211-2.047,5.4,5.4,0,0,1,.859.078V-8.531a5.771,5.771,0,0,0-.672-.039,2.351,2.351,0,0,0-2.336,1.4h-.125v-1.25h-1.281Zm9.32.148c2.4,0,3.883-1.656,3.883-4.359S-56.117-8.57-58.516-8.57-62.4-6.922-62.4-4.211-60.914.148-58.516.148Zm0-1.211c-1.594,0-2.492-1.156-2.492-3.148s.9-3.148,2.492-3.148,2.492,1.148,2.492,3.148S-56.922-1.062-58.516-1.062Zm6.711-8.984a.94.94,0,0,0,.938-.937.94.94,0,0,0-.937-.937.94.94,0,0,0-.937.938A.94.94,0,0,0-51.8-10.047Zm.656,1.625h-1.344V.438c0,.93-.312,1.3-1.266,1.3h-.2V2.891h.234c1.766,0,2.578-.742,2.578-2.477Zm8.141,6.242A2.182,2.182,0,0,1-45.18-1.039c-1.43,0-2.359-1.055-2.43-2.719V-3.82h6.055v-.516c0-2.617-1.383-4.234-3.656-4.234-2.312,0-3.8,1.719-3.8,4.367,0,2.664,1.461,4.352,3.8,4.352A3.363,3.363,0,0,0-41.664-2.18Zm-2.219-5.2a2.267,2.267,0,0,1,2.258,2.477h-4.641A2.4,2.4,0,0,1-45.227-7.383Zm12.75,1.539A3.305,3.305,0,0,0-36.008-8.57c-2.359,0-3.859,1.7-3.859,4.328,0,2.68,1.508,4.391,3.867,4.391a3.253,3.253,0,0,0,3.523-2.687h-1.359a2.026,2.026,0,0,1-2.172,1.477c-1.5,0-2.469-1.234-2.469-3.18,0-1.906.953-3.117,2.469-3.117a2.087,2.087,0,0,1,2.172,1.516Zm2.7-4.758v2.18h-1.359V-7.3h1.359v5.109c0,1.609.7,2.25,2.43,2.25a4.5,4.5,0,0,0,.789-.078V-1.148a5.675,5.675,0,0,1-.625.031c-.875,0-1.25-.422-1.25-1.414V-7.3h1.875V-8.422H-28.43V-10.6ZM-15.3.266a4.288,4.288,0,0,0,4.555-3.406h-1.43A3.018,3.018,0,0,1-15.3-1.031c-2.172,0-3.531-1.773-3.531-4.6s1.359-4.609,3.523-4.609a3.1,3.1,0,0,1,3.133,2.367h1.43A4.4,4.4,0,0,0-15.3-11.539c-3.062,0-4.969,2.266-4.969,5.906S-18.359.266-15.3.266Zm10.2-.117c2.4,0,3.883-1.656,3.883-4.359S-2.7-8.57-5.094-8.57-8.977-6.922-8.977-4.211-7.492.148-5.094.148Zm0-1.211c-1.594,0-2.492-1.156-2.492-3.148s.9-3.148,2.492-3.148S-2.6-6.211-2.6-4.211-3.5-1.062-5.094-1.062ZM.977,0H2.32V-11.766H.977ZM5.008,0H6.352V-11.766H5.008Zm6.3.148A2.91,2.91,0,0,0,13.9-1.242h.125V0H15.3V-5.766c0-1.75-1.148-2.8-3.2-2.8-1.8,0-3.125.891-3.3,2.242h1.359c.188-.664.891-1.047,1.9-1.047,1.258,0,1.906.57,1.906,1.609V-5l-2.43.148c-1.961.117-3.07.984-3.07,2.492A2.561,2.561,0,0,0,11.3.148Zm.25-1.18c-.977,0-1.7-.5-1.7-1.359,0-.844.563-1.289,1.844-1.375l2.266-.148v.773A2.215,2.215,0,0,1,11.555-1.031ZM21.977.148c2.133,0,3.531-1.727,3.531-4.359,0-2.648-1.391-4.359-3.531-4.359a2.907,2.907,0,0,0-2.641,1.477h-.125v-4.672H17.867V0h1.281V-1.344h.125A3.022,3.022,0,0,0,21.977.148Zm-.312-7.508c1.539,0,2.453,1.18,2.453,3.148S23.2-1.062,21.664-1.062s-2.484-1.2-2.484-3.148S20.133-7.359,21.664-7.359ZM31.078.148c2.4,0,3.883-1.656,3.883-4.359S33.477-8.57,31.078-8.57,27.2-6.922,27.2-4.211,28.68.148,31.078.148Zm0-1.211c-1.594,0-2.492-1.156-2.492-3.148s.9-3.148,2.492-3.148S33.57-6.211,33.57-4.211,32.672-1.062,31.078-1.062ZM37.07,0h1.344V-5.219a2.063,2.063,0,0,1,2.211-2.047,5.4,5.4,0,0,1,.859.078V-8.531a5.771,5.771,0,0,0-.672-.039,2.351,2.351,0,0,0-2.336,1.4h-.125v-1.25H37.07Zm8.438.148A2.91,2.91,0,0,0,48.1-1.242h.125V0h1.281V-5.766c0-1.75-1.148-2.8-3.2-2.8-1.8,0-3.125.891-3.3,2.242h1.359c.188-.664.891-1.047,1.9-1.047,1.258,0,1.906.57,1.906,1.609V-5l-2.43.148c-1.961.117-3.07.984-3.07,2.492A2.561,2.561,0,0,0,45.508.148Zm.25-1.18c-.977,0-1.7-.5-1.7-1.359,0-.844.563-1.289,1.844-1.375l2.266-.148v.773A2.215,2.215,0,0,1,45.758-1.031Zm6.8-9.57v2.18H51.2V-7.3h1.359v5.109c0,1.609.7,2.25,2.43,2.25a4.5,4.5,0,0,0,.789-.078V-1.148a5.675,5.675,0,0,1-.625.031c-.875,0-1.25-.422-1.25-1.414V-7.3h1.875V-8.422H53.9V-10.6Zm5.953.555a.94.94,0,0,0,.938-.937.94.94,0,0,0-.937-.937.94.94,0,0,0-.937.938A.94.94,0,0,0,58.508-10.047ZM57.836,0H59.18V-8.422H57.836ZM65.2.148c2.4,0,3.883-1.656,3.883-4.359S67.6-8.57,65.2-8.57,61.32-6.922,61.32-4.211,62.8.148,65.2.148Zm0-1.211c-1.594,0-2.492-1.156-2.492-3.148s.9-3.148,2.492-3.148S67.7-6.211,67.7-4.211,66.8-1.062,65.2-1.062ZM71.2,0h1.344V-4.984A2.135,2.135,0,0,1,74.75-7.359c1.344,0,1.984.719,1.984,2.234V0h1.344V-5.453c0-2-1.055-3.117-2.945-3.117A2.531,2.531,0,0,0,72.6-7.094h-.125V-8.422H71.2Z" transform="translate(188 544)" fill="#050505"/>
    <path id="Path_20" data-name="Path 20" d="M-25.09,0V-4.883H-20.1v-1.25H-25.09v-3.875h5.438v-1.266H-26.5V0Zm7.578,0h1.344V-5.219a2.063,2.063,0,0,1,2.211-2.047,5.4,5.4,0,0,1,.859.078V-8.531a5.771,5.771,0,0,0-.672-.039,2.351,2.351,0,0,0-2.336,1.4h-.125v-1.25h-1.281Zm6.8-10.047a.94.94,0,0,0,.938-.937.94.94,0,0,0-.937-.937.94.94,0,0,0-.937.938A.94.94,0,0,0-10.715-10.047ZM-11.387,0h1.344V-8.422h-1.344ZM-1.9-2.18A2.182,2.182,0,0,1-4.074-1.039c-1.43,0-2.359-1.055-2.43-2.719V-3.82H-.449v-.516c0-2.617-1.383-4.234-3.656-4.234-2.312,0-3.8,1.719-3.8,4.367,0,2.664,1.461,4.352,3.8,4.352A3.363,3.363,0,0,0-.559-2.18Zm-2.219-5.2A2.267,2.267,0,0,1-1.863-4.906H-6.5A2.4,2.4,0,0,1-4.121-7.383ZM1.66,0H3V-4.984A2.135,2.135,0,0,1,5.215-7.359c1.344,0,1.984.719,1.984,2.234V0H8.543V-5.453c0-2-1.055-3.117-2.945-3.117A2.531,2.531,0,0,0,3.066-7.094H2.941V-8.422H1.66ZM14.113.148a3.018,3.018,0,0,0,2.7-1.492h.125V0h1.281V-11.766H16.871v4.672h-.117A2.878,2.878,0,0,0,14.113-8.57c-2.141,0-3.539,1.719-3.539,4.359S11.957.148,14.113.148Zm.313-7.508c1.523,0,2.477,1.219,2.477,3.148,0,1.945-.945,3.148-2.477,3.148s-2.461-1.18-2.461-3.148S12.895-7.359,14.426-7.359Zm6.2,1.242c0,1.219.719,1.9,2.3,2.281l1.445.352c.9.219,1.336.609,1.336,1.188,0,.773-.812,1.313-1.945,1.313a1.855,1.855,0,0,1-1.977-1.164H20.4c.148,1.4,1.438,2.3,3.313,2.3C25.629.148,27.09-.891,27.09-2.4c0-1.211-.766-1.9-2.352-2.281l-1.3-.312c-.992-.242-1.461-.6-1.461-1.18,0-.75.781-1.258,1.781-1.258a1.717,1.717,0,0,1,1.852,1.117h1.328C26.762-7.7,25.535-8.57,23.77-8.57,21.98-8.57,20.629-7.516,20.629-6.117Z" transform="translate(188 615)" fill="#050505"/>
    <path id="Path_17" data-name="Path 17" d="M-88.027-11.273V0h1.406V-4.023h2.836a3.473,3.473,0,0,0,3.625-3.6,3.468,3.468,0,0,0-3.609-3.648Zm1.406,1.25h2.484a2.225,2.225,0,0,1,2.531,2.4,2.231,2.231,0,0,1-2.531,2.352h-2.484Zm15.4,1.6h-1.344v4.984a2.119,2.119,0,0,1-2.3,2.359c-1.344,0-1.906-.7-1.906-2.219V-8.422h-1.344v5.453c0,1.992.984,3.117,2.875,3.117A2.628,2.628,0,0,0-72.629-1.32h.125V0h1.281ZM-64.5.148c2.133,0,3.531-1.727,3.531-4.359,0-2.648-1.391-4.359-3.531-4.359a2.907,2.907,0,0,0-2.641,1.477h-.125v-4.672h-1.344V0h1.281V-1.344h.125A3.022,3.022,0,0,0-64.5.148Zm-.312-7.508c1.539,0,2.453,1.18,2.453,3.148s-.914,3.148-2.453,3.148S-67.3-2.266-67.3-4.211-66.348-7.359-64.816-7.359ZM-58.785,0h1.344V-11.766h-1.344Zm4.656-10.047a.94.94,0,0,0,.938-.937.94.94,0,0,0-.937-.937.94.94,0,0,0-.937.938A.94.94,0,0,0-54.129-10.047ZM-54.8,0h1.344V-8.422H-54.8Zm10.875-5.844A3.305,3.305,0,0,0-47.457-8.57c-2.359,0-3.859,1.7-3.859,4.328,0,2.68,1.508,4.391,3.867,4.391a3.253,3.253,0,0,0,3.523-2.687h-1.359a2.026,2.026,0,0,1-2.172,1.477c-1.5,0-2.469-1.234-2.469-3.18,0-1.906.953-3.117,2.469-3.117a2.087,2.087,0,0,1,2.172,1.516Zm6.133,2.9C-37.645-1-36,.266-33.605.266c2.578,0,4.211-1.32,4.211-3.391,0-1.656-.937-2.562-3.273-3.148l-1.18-.312c-1.555-.4-2.172-.906-2.172-1.789,0-1.141.992-1.891,2.492-1.891a2.311,2.311,0,0,1,2.555,1.844h1.414c-.117-1.82-1.742-3.117-3.922-3.117-2.383,0-3.984,1.3-3.984,3.211,0,1.6.883,2.523,2.922,3.039l1.445.375c1.555.391,2.258,1,2.258,1.961,0,1.117-1.117,1.938-2.633,1.938-1.6,0-2.727-.75-2.9-1.93ZM-23.129-8.57a3.036,3.036,0,0,0-2.7,1.555h-.125V-8.422H-27.23V2.813h1.344V-1.266h.125A2.827,2.827,0,0,0-23.129.148c2.141,0,3.539-1.727,3.539-4.359C-19.59-6.859-20.98-8.57-23.129-8.57Zm-.32,7.508c-1.516,0-2.477-1.219-2.477-3.148s.961-3.148,2.484-3.148c1.539,0,2.461,1.18,2.461,3.148S-21.9-1.062-23.449-1.062ZM-15.137.148a2.91,2.91,0,0,0,2.594-1.391h.125V0h1.281V-5.766c0-1.75-1.148-2.8-3.2-2.8-1.8,0-3.125.891-3.3,2.242h1.359c.188-.664.891-1.047,1.9-1.047,1.258,0,1.906.57,1.906,1.609V-5l-2.43.148c-1.961.117-3.07.984-3.07,2.492A2.561,2.561,0,0,0-15.137.148Zm.25-1.18c-.977,0-1.7-.5-1.7-1.359,0-.844.563-1.289,1.844-1.375l2.266-.148v.773A2.215,2.215,0,0,1-14.887-1.031Zm13.2-4.812A3.305,3.305,0,0,0-5.215-8.57c-2.359,0-3.859,1.7-3.859,4.328,0,2.68,1.508,4.391,3.867,4.391A3.253,3.253,0,0,0-1.684-2.539H-3.043A2.026,2.026,0,0,1-5.215-1.062c-1.5,0-2.469-1.234-2.469-3.18,0-1.906.953-3.117,2.469-3.117A2.087,2.087,0,0,1-3.043-5.844ZM5.879-2.18A2.182,2.182,0,0,1,3.707-1.039c-1.43,0-2.359-1.055-2.43-2.719V-3.82H7.332v-.516c0-2.617-1.383-4.234-3.656-4.234-2.312,0-3.8,1.719-3.8,4.367,0,2.664,1.461,4.352,3.8,4.352A3.363,3.363,0,0,0,7.223-2.18ZM3.66-7.383A2.267,2.267,0,0,1,5.918-4.906H1.277A2.4,2.4,0,0,1,3.66-7.383ZM9.246-6.117c0,1.219.719,1.9,2.3,2.281l1.445.352c.9.219,1.336.609,1.336,1.188,0,.773-.812,1.313-1.945,1.313A1.855,1.855,0,0,1,10.4-2.148H9.02c.148,1.4,1.438,2.3,3.313,2.3,1.914,0,3.375-1.039,3.375-2.547,0-1.211-.766-1.9-2.352-2.281l-1.3-.312c-.992-.242-1.461-.6-1.461-1.18,0-.75.781-1.258,1.781-1.258A1.717,1.717,0,0,1,14.23-6.312h1.328C15.379-7.7,14.152-8.57,12.387-8.57,10.6-8.57,9.246-7.516,9.246-6.117ZM28.762-8.9h.094L31.449,0h1.328l3.07-11.273H34.379L32.137-2.109h-.094L29.52-11.273H28.1L25.574-2.109H25.48l-2.242-9.164H21.77L24.84,0h1.328Zm9.758-1.148a.94.94,0,0,0,.938-.937.94.94,0,0,0-.937-.937.94.94,0,0,0-.937.938A.94.94,0,0,0,38.52-10.047ZM37.848,0h1.344V-8.422H37.848Zm4.469-10.6v2.18H40.957V-7.3h1.359v5.109c0,1.609.7,2.25,2.43,2.25a4.5,4.5,0,0,0,.789-.078V-1.148a5.675,5.675,0,0,1-.625.031c-.875,0-1.25-.422-1.25-1.414V-7.3h1.875V-8.422H43.66V-10.6ZM47.645,0h1.344V-4.984a2.174,2.174,0,0,1,2.336-2.375c1.273,0,1.945.742,1.945,2.234V0h1.344V-5.453A2.779,2.779,0,0,0,51.707-8.57a2.622,2.622,0,0,0-2.594,1.477h-.125v-4.672H47.645ZM68.012-8.9h.094L70.7,0h1.328L75.1-11.273H73.629L71.387-2.109h-.094L68.77-11.273H67.348L64.824-2.109H64.73l-2.242-9.164H61.02L64.09,0h1.328Zm9.758-1.148a.94.94,0,0,0,.938-.937.94.94,0,0,0-.937-.937.94.94,0,0,0-.937.938A.94.94,0,0,0,77.77-10.047ZM77.1,0h1.344V-8.422H77.1Zm4.469,0H82.91V-7.3h1.93V-8.422H82.91v-.9c0-.922.406-1.391,1.375-1.391a3.7,3.7,0,0,1,.633.039v-1.094a4.719,4.719,0,0,0-.906-.078,2.181,2.181,0,0,0-2.445,2.484v.938h-1.4V-7.3h1.4ZM87.5-10.047a.94.94,0,0,0,.938-.937.94.94,0,0,0-.937-.937.94.94,0,0,0-.937.938A.94.94,0,0,0,87.5-10.047ZM86.824,0h1.344V-8.422H86.824Z" transform="translate(188 273)" fill="#050505"/>
    <g id="button" transform="translate(49.084 714.099)">
      <g id="Button_Get_Started" data-name="Button/Get Started">
        <g id="Button-2" data-name="Button">
          <rect id="Base" width="276.336" height="50.662" rx="25.331" fill="#9b9b9b"/>
          <text id="Button-3" data-name="Button" transform="translate(27.25 15.722)" fill="#fff" font-size="15.475" font-family="SFProDisplay-Semibold, SF Pro Display" font-weight="600"><tspan x="94.809" y="15">Next</tspan></text>
        </g>
      </g>
    </g>
  </g>
</svg>
